G04 #@! TF.GenerationSoftware,KiCad,Pcbnew,(6.0.7)*
G04 #@! TF.CreationDate,2022-09-12T18:05:54-07:00*
G04 #@! TF.ProjectId,emu6802,656d7536-3830-4322-9e6b-696361645f70,rev?*
G04 #@! TF.SameCoordinates,Original*
G04 #@! TF.FileFunction,Copper,L2,Bot*
G04 #@! TF.FilePolarity,Positive*
%FSLAX46Y46*%
G04 Gerber Fmt 4.6, Leading zero omitted, Abs format (unit mm)*
G04 Created by KiCad (PCBNEW (6.0.7)) date 2022-09-12 18:05:54*
%MOMM*%
%LPD*%
G01*
G04 APERTURE LIST*
G04 #@! TA.AperFunction,ComponentPad*
%ADD10R,1.600000X1.600000*%
G04 #@! TD*
G04 #@! TA.AperFunction,ComponentPad*
%ADD11O,1.600000X1.600000*%
G04 #@! TD*
G04 #@! TA.AperFunction,ComponentPad*
%ADD12R,1.700000X1.700000*%
G04 #@! TD*
G04 #@! TA.AperFunction,ComponentPad*
%ADD13O,1.700000X1.700000*%
G04 #@! TD*
G04 #@! TA.AperFunction,ComponentPad*
%ADD14C,1.200000*%
G04 #@! TD*
G04 #@! TA.AperFunction,ComponentPad*
%ADD15R,1.200000X1.200000*%
G04 #@! TD*
G04 #@! TA.AperFunction,ComponentPad*
%ADD16C,1.600000*%
G04 #@! TD*
G04 #@! TA.AperFunction,ComponentPad*
%ADD17C,1.700000*%
G04 #@! TD*
G04 #@! TA.AperFunction,ViaPad*
%ADD18C,0.800000*%
G04 #@! TD*
G04 #@! TA.AperFunction,Conductor*
%ADD19C,0.250000*%
G04 #@! TD*
G04 #@! TA.AperFunction,Conductor*
%ADD20C,0.400000*%
G04 #@! TD*
G04 APERTURE END LIST*
D10*
X57920000Y-68780000D03*
D11*
X57920000Y-71320000D03*
X57920000Y-73860000D03*
X57920000Y-76400000D03*
X57920000Y-78940000D03*
X57920000Y-81480000D03*
X57920000Y-84020000D03*
X57920000Y-86560000D03*
X57920000Y-89100000D03*
X57920000Y-91640000D03*
X57920000Y-94180000D03*
X57920000Y-96720000D03*
X57920000Y-99260000D03*
X57920000Y-101800000D03*
X57920000Y-104340000D03*
X57920000Y-106880000D03*
X57920000Y-109420000D03*
X57920000Y-111960000D03*
X57920000Y-114500000D03*
X57920000Y-117040000D03*
X73160000Y-117040000D03*
X73160000Y-114500000D03*
X73160000Y-111960000D03*
X73160000Y-109420000D03*
X73160000Y-106880000D03*
X73160000Y-104340000D03*
X73160000Y-101800000D03*
X73160000Y-99260000D03*
X73160000Y-96720000D03*
X73160000Y-94180000D03*
X73160000Y-91640000D03*
X73160000Y-89100000D03*
X73160000Y-86560000D03*
X73160000Y-84020000D03*
X73160000Y-81480000D03*
X73160000Y-78940000D03*
X73160000Y-76400000D03*
X73160000Y-73860000D03*
X73160000Y-71320000D03*
X73160000Y-68780000D03*
D12*
X55380000Y-68780000D03*
D13*
X55380000Y-71320000D03*
X55380000Y-73860000D03*
X55380000Y-76400000D03*
X55380000Y-78940000D03*
X55380000Y-81480000D03*
X55380000Y-84020000D03*
X55380000Y-86560000D03*
X55380000Y-89100000D03*
X55380000Y-91640000D03*
X55380000Y-94180000D03*
X55380000Y-96720000D03*
X55380000Y-99260000D03*
X55380000Y-101800000D03*
X55380000Y-104340000D03*
X55380000Y-106880000D03*
X55380000Y-109420000D03*
X55380000Y-111960000D03*
X55380000Y-114500000D03*
X55380000Y-117040000D03*
D12*
X75700000Y-117040000D03*
D13*
X75700000Y-114500000D03*
X75700000Y-111960000D03*
X75700000Y-109420000D03*
X75700000Y-106880000D03*
X75700000Y-104340000D03*
X75700000Y-101800000D03*
X75700000Y-99260000D03*
X75700000Y-96720000D03*
X75700000Y-94180000D03*
X75700000Y-91640000D03*
X75700000Y-89100000D03*
X75700000Y-86560000D03*
X75700000Y-84020000D03*
X75700000Y-81480000D03*
X75700000Y-78940000D03*
X75700000Y-76400000D03*
X75700000Y-73860000D03*
X75700000Y-71320000D03*
X75700000Y-68780000D03*
D14*
X82561400Y-88900000D03*
D15*
X80561400Y-88900000D03*
D13*
X57972000Y-61194000D03*
X57972000Y-58654000D03*
X60512000Y-61194000D03*
X60512000Y-58654000D03*
X63052000Y-61194000D03*
X63052000Y-58654000D03*
X65592000Y-61194000D03*
X65592000Y-58654000D03*
X68132000Y-61194000D03*
D12*
X68132000Y-58654000D03*
D16*
X80518000Y-82550000D03*
X83018000Y-82550000D03*
D17*
X65597000Y-56114000D03*
D12*
X73152000Y-56154000D03*
D13*
X73152000Y-58694000D03*
X73152000Y-61234000D03*
D18*
X62085500Y-75820800D03*
X78257900Y-75950700D03*
X64475100Y-90701200D03*
X65791900Y-91975500D03*
X70312600Y-80878000D03*
X70283500Y-87244400D03*
X70040000Y-93050200D03*
X52983900Y-111239500D03*
X67839400Y-75071500D03*
X69402000Y-104131500D03*
X65249400Y-81456900D03*
X63754300Y-84632900D03*
X82029100Y-66958400D03*
D19*
X76067300Y-103164700D02*
X75700000Y-103164700D01*
X84147400Y-95084600D02*
X76067300Y-103164700D01*
X84147400Y-70497400D02*
X84147400Y-95084600D01*
X73519300Y-59869300D02*
X84147400Y-70497400D01*
X73152000Y-59869300D02*
X73519300Y-59869300D01*
X73152000Y-58694000D02*
X73152000Y-59869300D01*
X75700000Y-104340000D02*
X75700000Y-103164700D01*
X55380000Y-81480000D02*
X55380000Y-80304700D01*
X73160000Y-71320000D02*
X72034700Y-71320000D01*
X55747400Y-80304700D02*
X55380000Y-80304700D01*
X56555300Y-79496800D02*
X55747400Y-80304700D01*
X56555300Y-73549900D02*
X56555300Y-79496800D01*
X57659900Y-72445300D02*
X56555300Y-73549900D01*
X70909400Y-72445300D02*
X57659900Y-72445300D01*
X72034700Y-71320000D02*
X70909400Y-72445300D01*
X71455500Y-75820800D02*
X62085500Y-75820800D01*
X72034700Y-76400000D02*
X71455500Y-75820800D01*
X73160000Y-76400000D02*
X72034700Y-76400000D01*
X65592000Y-58654000D02*
X65592000Y-59829300D01*
X78257900Y-72159200D02*
X78257900Y-75950700D01*
X76073900Y-69975200D02*
X78257900Y-72159200D01*
X75151800Y-69975200D02*
X76073900Y-69975200D01*
X74394700Y-69218100D02*
X75151800Y-69975200D01*
X74394700Y-68409400D02*
X74394700Y-69218100D01*
X69367300Y-63382000D02*
X74394700Y-68409400D01*
X68581800Y-63382000D02*
X69367300Y-63382000D01*
X66767300Y-61567500D02*
X68581800Y-63382000D01*
X66767300Y-60637200D02*
X66767300Y-61567500D01*
X65959400Y-59829300D02*
X66767300Y-60637200D01*
X65592000Y-59829300D02*
X65959400Y-59829300D01*
X73160000Y-86560000D02*
X72034700Y-86560000D01*
X67893500Y-90701200D02*
X72034700Y-86560000D01*
X64475100Y-90701200D02*
X67893500Y-90701200D01*
X73160000Y-89100000D02*
X72034700Y-89100000D01*
X69159200Y-91975500D02*
X65791900Y-91975500D01*
X72034700Y-89100000D02*
X69159200Y-91975500D01*
X69255300Y-95544700D02*
X73160000Y-91640000D01*
X57436700Y-95544700D02*
X69255300Y-95544700D01*
X56555300Y-96426100D02*
X57436700Y-95544700D01*
X56555300Y-96720000D02*
X56555300Y-96426100D01*
X55380000Y-96720000D02*
X56555300Y-96720000D01*
X68292100Y-97922600D02*
X72034700Y-94180000D01*
X54918400Y-97922600D02*
X68292100Y-97922600D01*
X53536900Y-96541100D02*
X54918400Y-97922600D01*
X53536900Y-88403100D02*
X53536900Y-96541100D01*
X55380000Y-86560000D02*
X53536900Y-88403100D01*
X73160000Y-94180000D02*
X72034700Y-94180000D01*
X70158800Y-80724200D02*
X70312600Y-80878000D01*
X62067100Y-80724200D02*
X70158800Y-80724200D01*
X59896700Y-82894600D02*
X62067100Y-80724200D01*
X57411700Y-82894600D02*
X59896700Y-82894600D01*
X56555300Y-83751000D02*
X57411700Y-82894600D01*
X56555300Y-84020000D02*
X56555300Y-83751000D01*
X55380000Y-84020000D02*
X56555300Y-84020000D01*
X55380000Y-89100000D02*
X56555300Y-89100000D01*
X65799600Y-87244400D02*
X70283500Y-87244400D01*
X62818600Y-90225400D02*
X65799600Y-87244400D01*
X57411700Y-90225400D02*
X62818600Y-90225400D01*
X56555300Y-89369000D02*
X57411700Y-90225400D01*
X56555300Y-89100000D02*
X56555300Y-89369000D01*
X57671700Y-93050200D02*
X70040000Y-93050200D01*
X56555300Y-91933800D02*
X57671700Y-93050200D01*
X56555300Y-91640000D02*
X56555300Y-91933800D01*
X55380000Y-91640000D02*
X56555300Y-91640000D01*
X55380000Y-99260000D02*
X56555300Y-99260000D01*
X73160000Y-104340000D02*
X72034700Y-104340000D01*
X68316600Y-100621900D02*
X72034700Y-104340000D01*
X57623300Y-100621900D02*
X68316600Y-100621900D01*
X56555300Y-99553900D02*
X57623300Y-100621900D01*
X56555300Y-99260000D02*
X56555300Y-99553900D01*
X72051300Y-105754700D02*
X73160000Y-105754700D01*
X69366600Y-103070000D02*
X72051300Y-105754700D01*
X54980900Y-103070000D02*
X69366600Y-103070000D01*
X53061000Y-101150100D02*
X54980900Y-103070000D01*
X53061000Y-81259000D02*
X53061000Y-101150100D01*
X55380000Y-78940000D02*
X53061000Y-81259000D01*
X73160000Y-106880000D02*
X73160000Y-105754700D01*
X55380000Y-76400000D02*
X55380000Y-77575300D01*
X73160000Y-109420000D02*
X72034700Y-109420000D01*
X55012700Y-77575300D02*
X55380000Y-77575300D01*
X52610700Y-79977300D02*
X55012700Y-77575300D01*
X52610700Y-103246200D02*
X52610700Y-79977300D01*
X54974500Y-105610000D02*
X52610700Y-103246200D01*
X68224700Y-105610000D02*
X54974500Y-105610000D01*
X72034700Y-109420000D02*
X68224700Y-105610000D01*
X68224700Y-108150000D02*
X72034700Y-111960000D01*
X54898700Y-108150000D02*
X68224700Y-108150000D01*
X52142700Y-105394000D02*
X54898700Y-108150000D01*
X52142700Y-77905300D02*
X52142700Y-105394000D01*
X55012700Y-75035300D02*
X52142700Y-77905300D01*
X55380000Y-75035300D02*
X55012700Y-75035300D01*
X55380000Y-73860000D02*
X55380000Y-75035300D01*
X73160000Y-111960000D02*
X72034700Y-111960000D01*
X73160000Y-114500000D02*
X72034700Y-114500000D01*
X70764700Y-113230000D02*
X72034700Y-114500000D01*
X54974400Y-113230000D02*
X70764700Y-113230000D01*
X52983900Y-111239500D02*
X54974400Y-113230000D01*
X73490000Y-75071500D02*
X67839400Y-75071500D01*
X74524700Y-76106200D02*
X73490000Y-75071500D01*
X74524700Y-76400000D02*
X74524700Y-76106200D01*
X75700000Y-76400000D02*
X74524700Y-76400000D01*
X59253800Y-104131500D02*
X69402000Y-104131500D01*
X59045300Y-104340000D02*
X59253800Y-104131500D01*
X57920000Y-104340000D02*
X59045300Y-104340000D01*
X75700000Y-81480000D02*
X74524700Y-81480000D01*
X74524700Y-81188400D02*
X74524700Y-81480000D01*
X73650200Y-80313900D02*
X74524700Y-81188400D01*
X72097700Y-80313900D02*
X73650200Y-80313900D01*
X70808300Y-81603300D02*
X72097700Y-80313900D01*
X65395800Y-81603300D02*
X70808300Y-81603300D01*
X65249400Y-81456900D02*
X65395800Y-81603300D01*
X75700000Y-84020000D02*
X74524700Y-84020000D01*
X65494500Y-82892700D02*
X63754300Y-84632900D01*
X73679300Y-82892700D02*
X65494500Y-82892700D01*
X74524700Y-83738100D02*
X73679300Y-82892700D01*
X74524700Y-84020000D02*
X74524700Y-83738100D01*
X57920000Y-96720000D02*
X59045300Y-96720000D01*
X68797100Y-96720000D02*
X59045300Y-96720000D01*
X72533200Y-92983900D02*
X68797100Y-96720000D01*
X76022500Y-92983900D02*
X72533200Y-92983900D01*
X77389100Y-91617300D02*
X76022500Y-92983900D01*
X77389100Y-88249100D02*
X77389100Y-91617300D01*
X75700000Y-86560000D02*
X77389100Y-88249100D01*
X75700000Y-89100000D02*
X74524700Y-89100000D01*
X57920000Y-94180000D02*
X59045300Y-94180000D01*
X74524700Y-89394200D02*
X74524700Y-89100000D01*
X73480100Y-90438800D02*
X74524700Y-89394200D01*
X72728200Y-90438800D02*
X73480100Y-90438800D01*
X70925700Y-92241300D02*
X72728200Y-90438800D01*
X70925700Y-93190300D02*
X70925700Y-92241300D01*
X69936000Y-94180000D02*
X70925700Y-93190300D01*
X59045300Y-94180000D02*
X69936000Y-94180000D01*
X75700000Y-91640000D02*
X75700000Y-90464700D01*
X57920000Y-91640000D02*
X59045300Y-91640000D01*
X64787000Y-91640000D02*
X59045300Y-91640000D01*
X65176800Y-91250200D02*
X64787000Y-91640000D01*
X68190200Y-91250200D02*
X65176800Y-91250200D01*
X71531500Y-87908900D02*
X68190200Y-91250200D01*
X76211200Y-87908900D02*
X71531500Y-87908900D01*
X76911300Y-88609000D02*
X76211200Y-87908900D01*
X76911300Y-89620700D02*
X76911300Y-88609000D01*
X76067300Y-90464700D02*
X76911300Y-89620700D01*
X75700000Y-90464700D02*
X76067300Y-90464700D01*
X57920000Y-89100000D02*
X59045300Y-89100000D01*
X77842600Y-92037400D02*
X75700000Y-94180000D01*
X77842600Y-87034500D02*
X77842600Y-92037400D01*
X76167100Y-85359000D02*
X77842600Y-87034500D01*
X62786300Y-85359000D02*
X76167100Y-85359000D01*
X59045300Y-89100000D02*
X62786300Y-85359000D01*
D20*
X65592000Y-61194000D02*
X63052000Y-61194000D01*
X56719700Y-87057400D02*
X56719700Y-86560000D01*
X55947100Y-87830000D02*
X56719700Y-87057400D01*
X54864000Y-87830000D02*
X55947100Y-87830000D01*
X54072200Y-88621800D02*
X54864000Y-87830000D01*
X54072200Y-92168900D02*
X54072200Y-88621800D01*
X54833000Y-92929700D02*
X54072200Y-92168900D01*
X55380000Y-92929700D02*
X54833000Y-92929700D01*
X55380000Y-94180000D02*
X55380000Y-92929700D01*
X57905500Y-86560000D02*
X56719700Y-86560000D01*
X57905500Y-86560000D02*
X57920000Y-86560000D01*
X57920000Y-86560000D02*
X59120300Y-86560000D01*
X73160000Y-81480000D02*
X71959700Y-81480000D01*
X71182500Y-82257200D02*
X71959700Y-81480000D01*
X63423100Y-82257200D02*
X71182500Y-82257200D01*
X59120300Y-86560000D02*
X63423100Y-82257200D01*
D19*
X62839500Y-77654200D02*
X59045300Y-73860000D01*
X73471200Y-77654200D02*
X62839500Y-77654200D01*
X74301200Y-78484200D02*
X73471200Y-77654200D01*
X74301200Y-79237200D02*
X74301200Y-78484200D01*
X75368600Y-80304600D02*
X74301200Y-79237200D01*
X76239700Y-80304600D02*
X75368600Y-80304600D01*
X83523100Y-87588000D02*
X76239700Y-80304600D01*
X83523100Y-91436900D02*
X83523100Y-87588000D01*
X75700000Y-99260000D02*
X83523100Y-91436900D01*
X57920000Y-73860000D02*
X59045300Y-73860000D01*
X57216600Y-70194700D02*
X57920000Y-70194700D01*
X56794700Y-69772800D02*
X57216600Y-70194700D01*
X56794700Y-65892800D02*
X56794700Y-69772800D01*
X59336700Y-63350800D02*
X56794700Y-65892800D01*
X59336700Y-60637200D02*
X59336700Y-63350800D01*
X60144600Y-59829300D02*
X59336700Y-60637200D01*
X60512000Y-59829300D02*
X60144600Y-59829300D01*
X57920000Y-71320000D02*
X57920000Y-70194700D01*
X60512000Y-59241600D02*
X60512000Y-59829300D01*
X60512000Y-59241600D02*
X60512000Y-58654000D01*
X60512000Y-58654000D02*
X61687300Y-58654000D01*
X82029100Y-65873500D02*
X82029100Y-66958400D01*
X73485000Y-57329400D02*
X82029100Y-65873500D01*
X69307400Y-57329400D02*
X73485000Y-57329400D01*
X66847300Y-54869300D02*
X69307400Y-57329400D01*
X65104700Y-54869300D02*
X66847300Y-54869300D01*
X61687300Y-58286700D02*
X65104700Y-54869300D01*
X61687300Y-58654000D02*
X61687300Y-58286700D01*
D20*
X75181900Y-97970300D02*
X75700000Y-97970300D01*
X74360300Y-98791900D02*
X75181900Y-97970300D01*
X74360300Y-115014600D02*
X74360300Y-98791900D01*
X73535200Y-115839700D02*
X74360300Y-115014600D01*
X73160000Y-115839700D02*
X73535200Y-115839700D01*
X73160000Y-117040000D02*
X73160000Y-115839700D01*
X75700000Y-96720000D02*
X75700000Y-97970300D01*
X73160000Y-73860000D02*
X74210200Y-73860000D01*
X76218100Y-95469700D02*
X75700000Y-95469700D01*
X82561400Y-89126400D02*
X76218100Y-95469700D01*
X82561400Y-88900000D02*
X82561400Y-89126400D01*
X75700000Y-96720000D02*
X75700000Y-95469700D01*
X57920000Y-68780000D02*
X57920000Y-67579700D01*
X61782000Y-60627800D02*
X61782000Y-63717700D01*
X62466200Y-59943600D02*
X61782000Y-60627800D01*
X63598600Y-59943600D02*
X62466200Y-59943600D01*
X64302400Y-59239800D02*
X63598600Y-59943600D01*
X64302400Y-57408600D02*
X64302400Y-59239800D01*
X65597000Y-56114000D02*
X64302400Y-57408600D01*
X61782000Y-63717700D02*
X57920000Y-67579700D01*
X68114300Y-70050000D02*
X61782000Y-63717700D01*
X73602300Y-70050000D02*
X68114300Y-70050000D01*
X74360300Y-70808000D02*
X73602300Y-70050000D01*
X74360300Y-73860000D02*
X74360300Y-70808000D01*
X74210200Y-73860000D02*
X74360300Y-73860000D01*
X83018000Y-81887000D02*
X83018000Y-82550000D01*
X76261000Y-75130000D02*
X83018000Y-81887000D01*
X75180200Y-75130000D02*
X76261000Y-75130000D01*
X74360300Y-74310100D02*
X75180200Y-75130000D01*
X74360300Y-73860000D02*
X74360300Y-74310100D01*
G04 #@! TA.AperFunction,Conductor*
G36*
X86302121Y-52090002D02*
G01*
X86348614Y-52143658D01*
X86360000Y-52196000D01*
X86360000Y-124334000D01*
X86339998Y-124402121D01*
X86286342Y-124448614D01*
X86234000Y-124460000D01*
X51561000Y-124460000D01*
X51492879Y-124439998D01*
X51446386Y-124386342D01*
X51435000Y-124334000D01*
X51435000Y-120842095D01*
X80945028Y-120842095D01*
X80970534Y-121109431D01*
X81034364Y-121370285D01*
X81135182Y-121619192D01*
X81270875Y-121850938D01*
X81273728Y-121854505D01*
X81385225Y-121993925D01*
X81438601Y-122060669D01*
X81634846Y-122243991D01*
X81727039Y-122307948D01*
X81851746Y-122394461D01*
X81851751Y-122394464D01*
X81855499Y-122397064D01*
X81859584Y-122399096D01*
X81859587Y-122399098D01*
X81975719Y-122456872D01*
X82095938Y-122516680D01*
X82100272Y-122518101D01*
X82100275Y-122518102D01*
X82346793Y-122598915D01*
X82346798Y-122598916D01*
X82351126Y-122600335D01*
X82355617Y-122601115D01*
X82355618Y-122601115D01*
X82611936Y-122645620D01*
X82611944Y-122645621D01*
X82615717Y-122646276D01*
X82619554Y-122646467D01*
X82698996Y-122650422D01*
X82699004Y-122650422D01*
X82700567Y-122650500D01*
X82868223Y-122650500D01*
X82870491Y-122650335D01*
X82870503Y-122650335D01*
X83000823Y-122640879D01*
X83067846Y-122636016D01*
X83072301Y-122635032D01*
X83072304Y-122635032D01*
X83325620Y-122579105D01*
X83325624Y-122579104D01*
X83330080Y-122578120D01*
X83497617Y-122514646D01*
X83576941Y-122484593D01*
X83576944Y-122484592D01*
X83581211Y-122482975D01*
X83815976Y-122352574D01*
X83958254Y-122243991D01*
X84025833Y-122192417D01*
X84025837Y-122192413D01*
X84029458Y-122189650D01*
X84217185Y-121997614D01*
X84375225Y-121780491D01*
X84462313Y-121614963D01*
X84498140Y-121546868D01*
X84498143Y-121546862D01*
X84500265Y-121542828D01*
X84559703Y-121374515D01*
X84588165Y-121293916D01*
X84588165Y-121293915D01*
X84589688Y-121289603D01*
X84641620Y-121026122D01*
X84641847Y-121021566D01*
X84654745Y-120762474D01*
X84654745Y-120762468D01*
X84654972Y-120757905D01*
X84629466Y-120490569D01*
X84565636Y-120229715D01*
X84464818Y-119980808D01*
X84329125Y-119749062D01*
X84218211Y-119610371D01*
X84164251Y-119542897D01*
X84164250Y-119542895D01*
X84161399Y-119539331D01*
X83965154Y-119356009D01*
X83805436Y-119245208D01*
X83748254Y-119205539D01*
X83748249Y-119205536D01*
X83744501Y-119202936D01*
X83740416Y-119200904D01*
X83740413Y-119200902D01*
X83568560Y-119115407D01*
X83504062Y-119083320D01*
X83499728Y-119081899D01*
X83499725Y-119081898D01*
X83253207Y-119001085D01*
X83253202Y-119001084D01*
X83248874Y-118999665D01*
X83244382Y-118998885D01*
X82988064Y-118954380D01*
X82988056Y-118954379D01*
X82984283Y-118953724D01*
X82975622Y-118953293D01*
X82901004Y-118949578D01*
X82900996Y-118949578D01*
X82899433Y-118949500D01*
X82731777Y-118949500D01*
X82729509Y-118949665D01*
X82729497Y-118949665D01*
X82599177Y-118959121D01*
X82532154Y-118963984D01*
X82527699Y-118964968D01*
X82527696Y-118964968D01*
X82274380Y-119020895D01*
X82274376Y-119020896D01*
X82269920Y-119021880D01*
X82144355Y-119069452D01*
X82023059Y-119115407D01*
X82023056Y-119115408D01*
X82018789Y-119117025D01*
X81784024Y-119247426D01*
X81780392Y-119250198D01*
X81574167Y-119407583D01*
X81574163Y-119407587D01*
X81570542Y-119410350D01*
X81382815Y-119602386D01*
X81224775Y-119819509D01*
X81222651Y-119823547D01*
X81101860Y-120053132D01*
X81101857Y-120053138D01*
X81099735Y-120057172D01*
X81098215Y-120061477D01*
X81098213Y-120061481D01*
X81038804Y-120229715D01*
X81010312Y-120310397D01*
X80958380Y-120573878D01*
X80958153Y-120578431D01*
X80958153Y-120578434D01*
X80948992Y-120762474D01*
X80945028Y-120842095D01*
X51435000Y-120842095D01*
X51435000Y-117025262D01*
X54324520Y-117025262D01*
X54341759Y-117230553D01*
X54343458Y-117236478D01*
X54393241Y-117410091D01*
X54398544Y-117428586D01*
X54401359Y-117434063D01*
X54401360Y-117434066D01*
X54422247Y-117474707D01*
X54492712Y-117611818D01*
X54620677Y-117773270D01*
X54625370Y-117777264D01*
X54625371Y-117777265D01*
X54759729Y-117891612D01*
X54777564Y-117906791D01*
X54957398Y-118007297D01*
X55041280Y-118034552D01*
X55147471Y-118069056D01*
X55147475Y-118069057D01*
X55153329Y-118070959D01*
X55357894Y-118095351D01*
X55364029Y-118094879D01*
X55364031Y-118094879D01*
X55436625Y-118089293D01*
X55563300Y-118079546D01*
X55569230Y-118077890D01*
X55569232Y-118077890D01*
X55755797Y-118025800D01*
X55755796Y-118025800D01*
X55761725Y-118024145D01*
X55767214Y-118021372D01*
X55767220Y-118021370D01*
X55940116Y-117934033D01*
X55945610Y-117931258D01*
X56004757Y-117885048D01*
X56103101Y-117808213D01*
X56107951Y-117804424D01*
X56161520Y-117742364D01*
X56238540Y-117653134D01*
X56238540Y-117653133D01*
X56242564Y-117648472D01*
X56263387Y-117611818D01*
X56341276Y-117474707D01*
X56344323Y-117469344D01*
X56409351Y-117273863D01*
X56435171Y-117069474D01*
X56435583Y-117040000D01*
X56434207Y-117025963D01*
X56914757Y-117025963D01*
X56931175Y-117221483D01*
X56985258Y-117410091D01*
X57002200Y-117443056D01*
X57072123Y-117579113D01*
X57072126Y-117579117D01*
X57074944Y-117584601D01*
X57196818Y-117738369D01*
X57201511Y-117742363D01*
X57201512Y-117742364D01*
X57278885Y-117808213D01*
X57346238Y-117865535D01*
X57351616Y-117868541D01*
X57351618Y-117868542D01*
X57414278Y-117903561D01*
X57517513Y-117961257D01*
X57704118Y-118021889D01*
X57898946Y-118045121D01*
X57905081Y-118044649D01*
X57905083Y-118044649D01*
X58088434Y-118030541D01*
X58088438Y-118030540D01*
X58094576Y-118030068D01*
X58283556Y-117977303D01*
X58458689Y-117888837D01*
X58488515Y-117865535D01*
X58608453Y-117771829D01*
X58613303Y-117768040D01*
X58643084Y-117733539D01*
X58737485Y-117624173D01*
X58737485Y-117624172D01*
X58741509Y-117619511D01*
X58838425Y-117448909D01*
X58885791Y-117306522D01*
X71877273Y-117306522D01*
X71924764Y-117483761D01*
X71928510Y-117494053D01*
X72020586Y-117691511D01*
X72026069Y-117701007D01*
X72151028Y-117879467D01*
X72158084Y-117887875D01*
X72312125Y-118041916D01*
X72320533Y-118048972D01*
X72498993Y-118173931D01*
X72508489Y-118179414D01*
X72705947Y-118271490D01*
X72716239Y-118275236D01*
X72888503Y-118321394D01*
X72902599Y-118321058D01*
X72906000Y-118313116D01*
X72906000Y-117312115D01*
X72901525Y-117296876D01*
X72900135Y-117295671D01*
X72892452Y-117294000D01*
X71892033Y-117294000D01*
X71878502Y-117297973D01*
X71877273Y-117306522D01*
X58885791Y-117306522D01*
X58900358Y-117262732D01*
X58924949Y-117068071D01*
X58925341Y-117040000D01*
X58906194Y-116844728D01*
X58904413Y-116838829D01*
X58904412Y-116838824D01*
X58851265Y-116662793D01*
X58849484Y-116656894D01*
X58757370Y-116483653D01*
X58633361Y-116331602D01*
X58482180Y-116206535D01*
X58309585Y-116113213D01*
X58215868Y-116084203D01*
X58128039Y-116057015D01*
X58128036Y-116057014D01*
X58122152Y-116055193D01*
X58116027Y-116054549D01*
X58116026Y-116054549D01*
X57933147Y-116035327D01*
X57933146Y-116035327D01*
X57927019Y-116034683D01*
X57808732Y-116045448D01*
X57737759Y-116051907D01*
X57737758Y-116051907D01*
X57731618Y-116052466D01*
X57725704Y-116054207D01*
X57725702Y-116054207D01*
X57596734Y-116092165D01*
X57543393Y-116107864D01*
X57537928Y-116110721D01*
X57374972Y-116195912D01*
X57374968Y-116195915D01*
X57369512Y-116198767D01*
X57364712Y-116202627D01*
X57364711Y-116202627D01*
X57330326Y-116230273D01*
X57216600Y-116321711D01*
X57090480Y-116472016D01*
X57087516Y-116477408D01*
X57087513Y-116477412D01*
X57027846Y-116585947D01*
X56995956Y-116643954D01*
X56994095Y-116649821D01*
X56994094Y-116649823D01*
X56991851Y-116656894D01*
X56936628Y-116830978D01*
X56914757Y-117025963D01*
X56434207Y-117025963D01*
X56415480Y-116834970D01*
X56355935Y-116637749D01*
X56259218Y-116455849D01*
X56161778Y-116336376D01*
X56132906Y-116300975D01*
X56132903Y-116300972D01*
X56129011Y-116296200D01*
X56111786Y-116281950D01*
X55975025Y-116168811D01*
X55975021Y-116168809D01*
X55970275Y-116164882D01*
X55789055Y-116066897D01*
X55592254Y-116005977D01*
X55586129Y-116005333D01*
X55586128Y-116005333D01*
X55393498Y-115985087D01*
X55393496Y-115985087D01*
X55387369Y-115984443D01*
X55300529Y-115992346D01*
X55188342Y-116002555D01*
X55188339Y-116002556D01*
X55182203Y-116003114D01*
X54984572Y-116061280D01*
X54802002Y-116156726D01*
X54797201Y-116160586D01*
X54797198Y-116160588D01*
X54646254Y-116281950D01*
X54641447Y-116285815D01*
X54509024Y-116443630D01*
X54506056Y-116449028D01*
X54506053Y-116449033D01*
X54430785Y-116585947D01*
X54409776Y-116624162D01*
X54347484Y-116820532D01*
X54346798Y-116826649D01*
X54346797Y-116826653D01*
X54344770Y-116844728D01*
X54324520Y-117025262D01*
X51435000Y-117025262D01*
X51435000Y-111239500D01*
X52378218Y-111239500D01*
X52398856Y-111396262D01*
X52459364Y-111542341D01*
X52555618Y-111667782D01*
X52681059Y-111764036D01*
X52827138Y-111824544D01*
X52983900Y-111845182D01*
X53050743Y-111836382D01*
X53120890Y-111847321D01*
X53156283Y-111872209D01*
X54730289Y-113446215D01*
X54737716Y-113454319D01*
X54761945Y-113483194D01*
X54758730Y-113485892D01*
X54786168Y-113527169D01*
X54787265Y-113598157D01*
X54744787Y-113662728D01*
X54641447Y-113745815D01*
X54509024Y-113903630D01*
X54506056Y-113909028D01*
X54506053Y-113909033D01*
X54431151Y-114045281D01*
X54409776Y-114084162D01*
X54347484Y-114280532D01*
X54346798Y-114286649D01*
X54346797Y-114286653D01*
X54344770Y-114304728D01*
X54324520Y-114485262D01*
X54341759Y-114690553D01*
X54343458Y-114696478D01*
X54393241Y-114870091D01*
X54398544Y-114888586D01*
X54401359Y-114894063D01*
X54401360Y-114894066D01*
X54478724Y-115044601D01*
X54492712Y-115071818D01*
X54620677Y-115233270D01*
X54625370Y-115237264D01*
X54625371Y-115237265D01*
X54759729Y-115351612D01*
X54777564Y-115366791D01*
X54957398Y-115467297D01*
X55029296Y-115490658D01*
X55147471Y-115529056D01*
X55147475Y-115529057D01*
X55153329Y-115530959D01*
X55357894Y-115555351D01*
X55364029Y-115554879D01*
X55364031Y-115554879D01*
X55420039Y-115550569D01*
X55563300Y-115539546D01*
X55569230Y-115537890D01*
X55569232Y-115537890D01*
X55755797Y-115485800D01*
X55755796Y-115485800D01*
X55761725Y-115484145D01*
X55767214Y-115481372D01*
X55767220Y-115481370D01*
X55940116Y-115394033D01*
X55945610Y-115391258D01*
X56004757Y-115345048D01*
X56103101Y-115268213D01*
X56107951Y-115264424D01*
X56161520Y-115202364D01*
X56238540Y-115113134D01*
X56238540Y-115113133D01*
X56242564Y-115108472D01*
X56263387Y-115071818D01*
X56341276Y-114934707D01*
X56344323Y-114929344D01*
X56409351Y-114733863D01*
X56435171Y-114529474D01*
X56435583Y-114500000D01*
X56415480Y-114294970D01*
X56355935Y-114097749D01*
X56259218Y-113915849D01*
X56143025Y-113773383D01*
X56133037Y-113761136D01*
X56105483Y-113695704D01*
X56117678Y-113625763D01*
X56165751Y-113573518D01*
X56230680Y-113555500D01*
X57140153Y-113555500D01*
X57208274Y-113575502D01*
X57254767Y-113629158D01*
X57264871Y-113699432D01*
X57235377Y-113764012D01*
X57225655Y-113773383D01*
X57225806Y-113773537D01*
X57221401Y-113777851D01*
X57216600Y-113781711D01*
X57090480Y-113932016D01*
X57087516Y-113937408D01*
X57087513Y-113937412D01*
X57028212Y-114045281D01*
X56995956Y-114103954D01*
X56936628Y-114290978D01*
X56914757Y-114485963D01*
X56931175Y-114681483D01*
X56985258Y-114870091D01*
X57002200Y-114903056D01*
X57072123Y-115039113D01*
X57072125Y-115039116D01*
X57074944Y-115044601D01*
X57196818Y-115198369D01*
X57201511Y-115202363D01*
X57201512Y-115202364D01*
X57278885Y-115268213D01*
X57346238Y-115325535D01*
X57351616Y-115328541D01*
X57351618Y-115328542D01*
X57420057Y-115366791D01*
X57517513Y-115421257D01*
X57704118Y-115481889D01*
X57898946Y-115505121D01*
X57905081Y-115504649D01*
X57905083Y-115504649D01*
X58088434Y-115490541D01*
X58088438Y-115490540D01*
X58094576Y-115490068D01*
X58283556Y-115437303D01*
X58458689Y-115348837D01*
X58488515Y-115325535D01*
X58608453Y-115231829D01*
X58613303Y-115228040D01*
X58643084Y-115193539D01*
X58737485Y-115084173D01*
X58737485Y-115084172D01*
X58741509Y-115079511D01*
X58838425Y-114908909D01*
X58900358Y-114722732D01*
X58924949Y-114528071D01*
X58925341Y-114500000D01*
X58906194Y-114304728D01*
X58904413Y-114298829D01*
X58904412Y-114298824D01*
X58851265Y-114122793D01*
X58849484Y-114116894D01*
X58757370Y-113943653D01*
X58633361Y-113791602D01*
X58617626Y-113778585D01*
X58577888Y-113719752D01*
X58576265Y-113648774D01*
X58613274Y-113588186D01*
X58677164Y-113557225D01*
X58697941Y-113555500D01*
X70577684Y-113555500D01*
X70645805Y-113575502D01*
X70666779Y-113592405D01*
X71790595Y-114716222D01*
X71798021Y-114724325D01*
X71822245Y-114753194D01*
X71831788Y-114758704D01*
X71831792Y-114758707D01*
X71854879Y-114772036D01*
X71864148Y-114777940D01*
X71895016Y-114799554D01*
X71905664Y-114802407D01*
X71908835Y-114803886D01*
X71912111Y-114805078D01*
X71921655Y-114810588D01*
X71958776Y-114817134D01*
X71969483Y-114819508D01*
X72005893Y-114829263D01*
X72016868Y-114828303D01*
X72016870Y-114828303D01*
X72043431Y-114825979D01*
X72054412Y-114825500D01*
X72125431Y-114825500D01*
X72193552Y-114845502D01*
X72237496Y-114893904D01*
X72314944Y-115044601D01*
X72436818Y-115198369D01*
X72441511Y-115202363D01*
X72441512Y-115202364D01*
X72518885Y-115268213D01*
X72586238Y-115325535D01*
X72591616Y-115328541D01*
X72591618Y-115328542D01*
X72660057Y-115366791D01*
X72757513Y-115421257D01*
X72944118Y-115481889D01*
X72981162Y-115486306D01*
X73010443Y-115489798D01*
X73075716Y-115517726D01*
X73115529Y-115576509D01*
X73117241Y-115647485D01*
X73080308Y-115708119D01*
X73016458Y-115739161D01*
X73006505Y-115740433D01*
X72937480Y-115746472D01*
X72926688Y-115748375D01*
X72716239Y-115804764D01*
X72705947Y-115808510D01*
X72508489Y-115900586D01*
X72498993Y-115906069D01*
X72320533Y-116031028D01*
X72312125Y-116038084D01*
X72158084Y-116192125D01*
X72151028Y-116200533D01*
X72026069Y-116378993D01*
X72020586Y-116388489D01*
X71928510Y-116585947D01*
X71924764Y-116596239D01*
X71878606Y-116768503D01*
X71878942Y-116782599D01*
X71886884Y-116786000D01*
X73288000Y-116786000D01*
X73356121Y-116806002D01*
X73402614Y-116859658D01*
X73414000Y-116912000D01*
X73414000Y-118307967D01*
X73417973Y-118321498D01*
X73426522Y-118322727D01*
X73603761Y-118275236D01*
X73614053Y-118271490D01*
X73811511Y-118179414D01*
X73821007Y-118173931D01*
X73999467Y-118048972D01*
X74007875Y-118041916D01*
X74161916Y-117887875D01*
X74168972Y-117879467D01*
X74293931Y-117701007D01*
X74299414Y-117691511D01*
X74391490Y-117494053D01*
X74395236Y-117483761D01*
X74401793Y-117459289D01*
X74438745Y-117398666D01*
X74502605Y-117367645D01*
X74573100Y-117376073D01*
X74627847Y-117421276D01*
X74649500Y-117491900D01*
X74649500Y-117909748D01*
X74650707Y-117915816D01*
X74654331Y-117934033D01*
X74661133Y-117968231D01*
X74705448Y-118034552D01*
X74771769Y-118078867D01*
X74783938Y-118081288D01*
X74783939Y-118081288D01*
X74824184Y-118089293D01*
X74830252Y-118090500D01*
X76569748Y-118090500D01*
X76575816Y-118089293D01*
X76616061Y-118081288D01*
X76616062Y-118081288D01*
X76628231Y-118078867D01*
X76694552Y-118034552D01*
X76738867Y-117968231D01*
X76745670Y-117934033D01*
X76749293Y-117915816D01*
X76750500Y-117909748D01*
X76750500Y-116170252D01*
X76738867Y-116111769D01*
X76694552Y-116045448D01*
X76628231Y-116001133D01*
X76616062Y-115998712D01*
X76616061Y-115998712D01*
X76575816Y-115990707D01*
X76569748Y-115989500D01*
X74830252Y-115989500D01*
X74824184Y-115990707D01*
X74783939Y-115998712D01*
X74783938Y-115998712D01*
X74771769Y-116001133D01*
X74705448Y-116045448D01*
X74661133Y-116111769D01*
X74649500Y-116170252D01*
X74649500Y-116588100D01*
X74629498Y-116656221D01*
X74575842Y-116702714D01*
X74505568Y-116712818D01*
X74440988Y-116683324D01*
X74401793Y-116620711D01*
X74395236Y-116596239D01*
X74391490Y-116585947D01*
X74299414Y-116388489D01*
X74293931Y-116378993D01*
X74168972Y-116200533D01*
X74161916Y-116192125D01*
X74007875Y-116038084D01*
X73999467Y-116031028D01*
X73821007Y-115906069D01*
X73811511Y-115900586D01*
X73614053Y-115808510D01*
X73603761Y-115804764D01*
X73393312Y-115748375D01*
X73382520Y-115746472D01*
X73327520Y-115741660D01*
X73261402Y-115715797D01*
X73219762Y-115658293D01*
X73215821Y-115587406D01*
X73250830Y-115525642D01*
X73313674Y-115492609D01*
X73327766Y-115490658D01*
X73328430Y-115490541D01*
X73334576Y-115490068D01*
X73523556Y-115437303D01*
X73698689Y-115348837D01*
X73728515Y-115325535D01*
X73848453Y-115231829D01*
X73853303Y-115228040D01*
X73883084Y-115193539D01*
X73977485Y-115084173D01*
X73977485Y-115084172D01*
X73981509Y-115079511D01*
X74078425Y-114908909D01*
X74140358Y-114722732D01*
X74164949Y-114528071D01*
X74165341Y-114500000D01*
X74163896Y-114485262D01*
X74644520Y-114485262D01*
X74661759Y-114690553D01*
X74663458Y-114696478D01*
X74713241Y-114870091D01*
X74718544Y-114888586D01*
X74721359Y-114894063D01*
X74721360Y-114894066D01*
X74798724Y-115044601D01*
X74812712Y-115071818D01*
X74940677Y-115233270D01*
X74945370Y-115237264D01*
X74945371Y-115237265D01*
X75079729Y-115351612D01*
X75097564Y-115366791D01*
X75277398Y-115467297D01*
X75349296Y-115490658D01*
X75467471Y-115529056D01*
X75467475Y-115529057D01*
X75473329Y-115530959D01*
X75677894Y-115555351D01*
X75684029Y-115554879D01*
X75684031Y-115554879D01*
X75740039Y-115550569D01*
X75883300Y-115539546D01*
X75889230Y-115537890D01*
X75889232Y-115537890D01*
X76075797Y-115485800D01*
X76075796Y-115485800D01*
X76081725Y-115484145D01*
X76087214Y-115481372D01*
X76087220Y-115481370D01*
X76260116Y-115394033D01*
X76265610Y-115391258D01*
X76324757Y-115345048D01*
X76423101Y-115268213D01*
X76427951Y-115264424D01*
X76481520Y-115202364D01*
X76558540Y-115113134D01*
X76558540Y-115113133D01*
X76562564Y-115108472D01*
X76583387Y-115071818D01*
X76661276Y-114934707D01*
X76664323Y-114929344D01*
X76729351Y-114733863D01*
X76755171Y-114529474D01*
X76755583Y-114500000D01*
X76735480Y-114294970D01*
X76675935Y-114097749D01*
X76579218Y-113915849D01*
X76481778Y-113796376D01*
X76452906Y-113760975D01*
X76452903Y-113760972D01*
X76449011Y-113756200D01*
X76404953Y-113719752D01*
X76295025Y-113628811D01*
X76295021Y-113628809D01*
X76290275Y-113624882D01*
X76109055Y-113526897D01*
X75912254Y-113465977D01*
X75906129Y-113465333D01*
X75906128Y-113465333D01*
X75713498Y-113445087D01*
X75713496Y-113445087D01*
X75707369Y-113444443D01*
X75620529Y-113452346D01*
X75508342Y-113462555D01*
X75508339Y-113462556D01*
X75502203Y-113463114D01*
X75304572Y-113521280D01*
X75122002Y-113616726D01*
X75117201Y-113620586D01*
X75117198Y-113620588D01*
X75019136Y-113699432D01*
X74961447Y-113745815D01*
X74829024Y-113903630D01*
X74826056Y-113909028D01*
X74826053Y-113909033D01*
X74751151Y-114045281D01*
X74729776Y-114084162D01*
X74667484Y-114280532D01*
X74666798Y-114286649D01*
X74666797Y-114286653D01*
X74664770Y-114304728D01*
X74644520Y-114485262D01*
X74163896Y-114485262D01*
X74146194Y-114304728D01*
X74144413Y-114298829D01*
X74144412Y-114298824D01*
X74091265Y-114122793D01*
X74089484Y-114116894D01*
X73997370Y-113943653D01*
X73873361Y-113791602D01*
X73722180Y-113666535D01*
X73549585Y-113573213D01*
X73420705Y-113533318D01*
X73368039Y-113517015D01*
X73368036Y-113517014D01*
X73362152Y-113515193D01*
X73356027Y-113514549D01*
X73356026Y-113514549D01*
X73173147Y-113495327D01*
X73173146Y-113495327D01*
X73167019Y-113494683D01*
X73044383Y-113505844D01*
X72977759Y-113511907D01*
X72977758Y-113511907D01*
X72971618Y-113512466D01*
X72965704Y-113514207D01*
X72965702Y-113514207D01*
X72900769Y-113533318D01*
X72783393Y-113567864D01*
X72777928Y-113570721D01*
X72614972Y-113655912D01*
X72614968Y-113655915D01*
X72609512Y-113658767D01*
X72604712Y-113662627D01*
X72604711Y-113662627D01*
X72570326Y-113690273D01*
X72456600Y-113781711D01*
X72330480Y-113932016D01*
X72327516Y-113937408D01*
X72327513Y-113937412D01*
X72268212Y-114045281D01*
X72217866Y-114095340D01*
X72148449Y-114110233D01*
X72082000Y-114085232D01*
X72068702Y-114073675D01*
X71008810Y-113013784D01*
X71001383Y-113005680D01*
X70996236Y-112999546D01*
X70977155Y-112976806D01*
X70956916Y-112965121D01*
X70944515Y-112957961D01*
X70935244Y-112952055D01*
X70932406Y-112950068D01*
X70904384Y-112930446D01*
X70893734Y-112927592D01*
X70890566Y-112926115D01*
X70887290Y-112924923D01*
X70877745Y-112919412D01*
X70844001Y-112913462D01*
X70840642Y-112912870D01*
X70829915Y-112910492D01*
X70793507Y-112900736D01*
X70782522Y-112901697D01*
X70782520Y-112901697D01*
X70755972Y-112904020D01*
X70744990Y-112904500D01*
X58700149Y-112904500D01*
X58632028Y-112884498D01*
X58585535Y-112830842D01*
X58575431Y-112760568D01*
X58604925Y-112695988D01*
X58610178Y-112690482D01*
X58613303Y-112688040D01*
X58741509Y-112539511D01*
X58838425Y-112368909D01*
X58900358Y-112182732D01*
X58924949Y-111988071D01*
X58925341Y-111960000D01*
X58906194Y-111764728D01*
X58904413Y-111758829D01*
X58904412Y-111758824D01*
X58851265Y-111582793D01*
X58849484Y-111576894D01*
X58757370Y-111403653D01*
X58633361Y-111251602D01*
X58482180Y-111126535D01*
X58309585Y-111033213D01*
X58215868Y-111004203D01*
X58128039Y-110977015D01*
X58128036Y-110977014D01*
X58122152Y-110975193D01*
X58116027Y-110974549D01*
X58116026Y-110974549D01*
X57933147Y-110955327D01*
X57933146Y-110955327D01*
X57927019Y-110954683D01*
X57804383Y-110965844D01*
X57737759Y-110971907D01*
X57737758Y-110971907D01*
X57731618Y-110972466D01*
X57725704Y-110974207D01*
X57725702Y-110974207D01*
X57596734Y-111012165D01*
X57543393Y-111027864D01*
X57537928Y-111030721D01*
X57374972Y-111115912D01*
X57374968Y-111115915D01*
X57369512Y-111118767D01*
X57364712Y-111122627D01*
X57364711Y-111122627D01*
X57330326Y-111150273D01*
X57216600Y-111241711D01*
X57090480Y-111392016D01*
X57087516Y-111397408D01*
X57087513Y-111397412D01*
X57012033Y-111534711D01*
X56995956Y-111563954D01*
X56936628Y-111750978D01*
X56914757Y-111945963D01*
X56931175Y-112141483D01*
X56985258Y-112330091D01*
X57002200Y-112363056D01*
X57072123Y-112499113D01*
X57072125Y-112499116D01*
X57074944Y-112504601D01*
X57196818Y-112658369D01*
X57201511Y-112662363D01*
X57201512Y-112662364D01*
X57225226Y-112682546D01*
X57264139Y-112741929D01*
X57264770Y-112812922D01*
X57226918Y-112872987D01*
X57162602Y-112903053D01*
X57143563Y-112904500D01*
X56227722Y-112904500D01*
X56159601Y-112884498D01*
X56113108Y-112830842D01*
X56103004Y-112760568D01*
X56132340Y-112696169D01*
X56238540Y-112573134D01*
X56238540Y-112573133D01*
X56242564Y-112568472D01*
X56263387Y-112531818D01*
X56341276Y-112394707D01*
X56344323Y-112389344D01*
X56409351Y-112193863D01*
X56435171Y-111989474D01*
X56435583Y-111960000D01*
X56415480Y-111754970D01*
X56355935Y-111557749D01*
X56259218Y-111375849D01*
X56161778Y-111256376D01*
X56132906Y-111220975D01*
X56132903Y-111220972D01*
X56129011Y-111216200D01*
X56111786Y-111201950D01*
X55975025Y-111088811D01*
X55975021Y-111088809D01*
X55970275Y-111084882D01*
X55789055Y-110986897D01*
X55592254Y-110925977D01*
X55586129Y-110925333D01*
X55586128Y-110925333D01*
X55393498Y-110905087D01*
X55393496Y-110905087D01*
X55387369Y-110904443D01*
X55300529Y-110912346D01*
X55188342Y-110922555D01*
X55188339Y-110922556D01*
X55182203Y-110923114D01*
X54984572Y-110981280D01*
X54802002Y-111076726D01*
X54797201Y-111080586D01*
X54797198Y-111080588D01*
X54646254Y-111201950D01*
X54641447Y-111205815D01*
X54509024Y-111363630D01*
X54506056Y-111369028D01*
X54506053Y-111369033D01*
X54431150Y-111505282D01*
X54409776Y-111544162D01*
X54347484Y-111740532D01*
X54346798Y-111746649D01*
X54346797Y-111746653D01*
X54336101Y-111842015D01*
X54308630Y-111907482D01*
X54250126Y-111947704D01*
X54179164Y-111949911D01*
X54121791Y-111917065D01*
X53616609Y-111411883D01*
X53582583Y-111349571D01*
X53580782Y-111306342D01*
X53588504Y-111247688D01*
X53589582Y-111239500D01*
X53568944Y-111082738D01*
X53508436Y-110936659D01*
X53412182Y-110811218D01*
X53286741Y-110714964D01*
X53140662Y-110654456D01*
X52983900Y-110633818D01*
X52827138Y-110654456D01*
X52681059Y-110714964D01*
X52555618Y-110811218D01*
X52459364Y-110936659D01*
X52398856Y-111082738D01*
X52378218Y-111239500D01*
X51435000Y-111239500D01*
X51435000Y-105422807D01*
X51813436Y-105422807D01*
X51817800Y-105439091D01*
X51823191Y-105459210D01*
X51825570Y-105469942D01*
X51832112Y-105507045D01*
X51837623Y-105516590D01*
X51838815Y-105519866D01*
X51840292Y-105523034D01*
X51843146Y-105533684D01*
X51849470Y-105542715D01*
X51864755Y-105564544D01*
X51870661Y-105573815D01*
X51883993Y-105596906D01*
X51889506Y-105606455D01*
X51897951Y-105613541D01*
X51918382Y-105630685D01*
X51926485Y-105638111D01*
X54654589Y-108366215D01*
X54662016Y-108374319D01*
X54686245Y-108403194D01*
X54695792Y-108408706D01*
X54704237Y-108415792D01*
X54702422Y-108417955D01*
X54739918Y-108457283D01*
X54753351Y-108526997D01*
X54726961Y-108592907D01*
X54706873Y-108613211D01*
X54646258Y-108661946D01*
X54646254Y-108661950D01*
X54641447Y-108665815D01*
X54509024Y-108823630D01*
X54506056Y-108829028D01*
X54506053Y-108829033D01*
X54431150Y-108965282D01*
X54409776Y-109004162D01*
X54347484Y-109200532D01*
X54346798Y-109206649D01*
X54346797Y-109206653D01*
X54344770Y-109224728D01*
X54324520Y-109405262D01*
X54341759Y-109610553D01*
X54343458Y-109616478D01*
X54393241Y-109790091D01*
X54398544Y-109808586D01*
X54401359Y-109814063D01*
X54401360Y-109814066D01*
X54478724Y-109964601D01*
X54492712Y-109991818D01*
X54620677Y-110153270D01*
X54625370Y-110157264D01*
X54625371Y-110157265D01*
X54759729Y-110271612D01*
X54777564Y-110286791D01*
X54957398Y-110387297D01*
X55052238Y-110418113D01*
X55147471Y-110449056D01*
X55147475Y-110449057D01*
X55153329Y-110450959D01*
X55357894Y-110475351D01*
X55364029Y-110474879D01*
X55364031Y-110474879D01*
X55420039Y-110470569D01*
X55563300Y-110459546D01*
X55569230Y-110457890D01*
X55569232Y-110457890D01*
X55755797Y-110405800D01*
X55755796Y-110405800D01*
X55761725Y-110404145D01*
X55767214Y-110401372D01*
X55767220Y-110401370D01*
X55940116Y-110314033D01*
X55945610Y-110311258D01*
X56004757Y-110265048D01*
X56103101Y-110188213D01*
X56107951Y-110184424D01*
X56161520Y-110122364D01*
X56238540Y-110033134D01*
X56238540Y-110033133D01*
X56242564Y-110028472D01*
X56263387Y-109991818D01*
X56341276Y-109854707D01*
X56344323Y-109849344D01*
X56409351Y-109653863D01*
X56435171Y-109449474D01*
X56435583Y-109420000D01*
X56415480Y-109214970D01*
X56355935Y-109017749D01*
X56259218Y-108835849D01*
X56143025Y-108693383D01*
X56133037Y-108681136D01*
X56105483Y-108615704D01*
X56117678Y-108545763D01*
X56165751Y-108493518D01*
X56230680Y-108475500D01*
X57140153Y-108475500D01*
X57208274Y-108495502D01*
X57254767Y-108549158D01*
X57264871Y-108619432D01*
X57235377Y-108684012D01*
X57225655Y-108693383D01*
X57225806Y-108693537D01*
X57221401Y-108697851D01*
X57216600Y-108701711D01*
X57090480Y-108852016D01*
X57087516Y-108857408D01*
X57087513Y-108857412D01*
X57009804Y-108998765D01*
X56995956Y-109023954D01*
X56936628Y-109210978D01*
X56914757Y-109405963D01*
X56931175Y-109601483D01*
X56985258Y-109790091D01*
X57002200Y-109823056D01*
X57072123Y-109959113D01*
X57072125Y-109959116D01*
X57074944Y-109964601D01*
X57196818Y-110118369D01*
X57201511Y-110122363D01*
X57201512Y-110122364D01*
X57278885Y-110188213D01*
X57346238Y-110245535D01*
X57351616Y-110248541D01*
X57351618Y-110248542D01*
X57420057Y-110286791D01*
X57517513Y-110341257D01*
X57704118Y-110401889D01*
X57898946Y-110425121D01*
X57905081Y-110424649D01*
X57905083Y-110424649D01*
X58088434Y-110410541D01*
X58088438Y-110410540D01*
X58094576Y-110410068D01*
X58283556Y-110357303D01*
X58458689Y-110268837D01*
X58488515Y-110245535D01*
X58608453Y-110151829D01*
X58613303Y-110148040D01*
X58643084Y-110113539D01*
X58737485Y-110004173D01*
X58737485Y-110004172D01*
X58741509Y-109999511D01*
X58838425Y-109828909D01*
X58900358Y-109642732D01*
X58924949Y-109448071D01*
X58925341Y-109420000D01*
X58906194Y-109224728D01*
X58904413Y-109218829D01*
X58904412Y-109218824D01*
X58851265Y-109042793D01*
X58849484Y-109036894D01*
X58757370Y-108863653D01*
X58633361Y-108711602D01*
X58617626Y-108698585D01*
X58577888Y-108639752D01*
X58576265Y-108568774D01*
X58613274Y-108508186D01*
X58677164Y-108477225D01*
X58697941Y-108475500D01*
X68037684Y-108475500D01*
X68105805Y-108495502D01*
X68126779Y-108512405D01*
X71790589Y-112176215D01*
X71798016Y-112184319D01*
X71822245Y-112213194D01*
X71831794Y-112218707D01*
X71854885Y-112232039D01*
X71864156Y-112237945D01*
X71895016Y-112259554D01*
X71905666Y-112262408D01*
X71908834Y-112263885D01*
X71912110Y-112265077D01*
X71921655Y-112270588D01*
X71955399Y-112276538D01*
X71958758Y-112277130D01*
X71969485Y-112279508D01*
X72005893Y-112289264D01*
X72016869Y-112288304D01*
X72016872Y-112288304D01*
X72043443Y-112285979D01*
X72054424Y-112285500D01*
X72125431Y-112285500D01*
X72193552Y-112305502D01*
X72237496Y-112353904D01*
X72314944Y-112504601D01*
X72436818Y-112658369D01*
X72441511Y-112662363D01*
X72441512Y-112662364D01*
X72518885Y-112728213D01*
X72586238Y-112785535D01*
X72591616Y-112788541D01*
X72591618Y-112788542D01*
X72660057Y-112826791D01*
X72757513Y-112881257D01*
X72944118Y-112941889D01*
X73138946Y-112965121D01*
X73145081Y-112964649D01*
X73145083Y-112964649D01*
X73328434Y-112950541D01*
X73328438Y-112950540D01*
X73334576Y-112950068D01*
X73523556Y-112897303D01*
X73698689Y-112808837D01*
X73728515Y-112785535D01*
X73848453Y-112691829D01*
X73853303Y-112688040D01*
X73858046Y-112682546D01*
X73977485Y-112544173D01*
X73977485Y-112544172D01*
X73981509Y-112539511D01*
X74078425Y-112368909D01*
X74140358Y-112182732D01*
X74164949Y-111988071D01*
X74165341Y-111960000D01*
X74163896Y-111945262D01*
X74644520Y-111945262D01*
X74645036Y-111951406D01*
X74660520Y-112135794D01*
X74661759Y-112150553D01*
X74663458Y-112156478D01*
X74713241Y-112330091D01*
X74718544Y-112348586D01*
X74721359Y-112354063D01*
X74721360Y-112354066D01*
X74798724Y-112504601D01*
X74812712Y-112531818D01*
X74940677Y-112693270D01*
X74945370Y-112697264D01*
X74945371Y-112697265D01*
X75079729Y-112811612D01*
X75097564Y-112826791D01*
X75277398Y-112927297D01*
X75371772Y-112957961D01*
X75467471Y-112989056D01*
X75467475Y-112989057D01*
X75473329Y-112990959D01*
X75677894Y-113015351D01*
X75684029Y-113014879D01*
X75684031Y-113014879D01*
X75740039Y-113010569D01*
X75883300Y-112999546D01*
X75889230Y-112997890D01*
X75889232Y-112997890D01*
X76032241Y-112957961D01*
X76081725Y-112944145D01*
X76087214Y-112941372D01*
X76087220Y-112941370D01*
X76260116Y-112854033D01*
X76265610Y-112851258D01*
X76291742Y-112830842D01*
X76354843Y-112781542D01*
X76427951Y-112724424D01*
X76460034Y-112687256D01*
X76558540Y-112573134D01*
X76558540Y-112573133D01*
X76562564Y-112568472D01*
X76583387Y-112531818D01*
X76661276Y-112394707D01*
X76664323Y-112389344D01*
X76729351Y-112193863D01*
X76755171Y-111989474D01*
X76755583Y-111960000D01*
X76735480Y-111754970D01*
X76675935Y-111557749D01*
X76579218Y-111375849D01*
X76481778Y-111256376D01*
X76452906Y-111220975D01*
X76452903Y-111220972D01*
X76449011Y-111216200D01*
X76431786Y-111201950D01*
X76295025Y-111088811D01*
X76295021Y-111088809D01*
X76290275Y-111084882D01*
X76109055Y-110986897D01*
X75912254Y-110925977D01*
X75906129Y-110925333D01*
X75906128Y-110925333D01*
X75713498Y-110905087D01*
X75713496Y-110905087D01*
X75707369Y-110904443D01*
X75620529Y-110912346D01*
X75508342Y-110922555D01*
X75508339Y-110922556D01*
X75502203Y-110923114D01*
X75304572Y-110981280D01*
X75122002Y-111076726D01*
X75117201Y-111080586D01*
X75117198Y-111080588D01*
X74966254Y-111201950D01*
X74961447Y-111205815D01*
X74829024Y-111363630D01*
X74826056Y-111369028D01*
X74826053Y-111369033D01*
X74751150Y-111505282D01*
X74729776Y-111544162D01*
X74667484Y-111740532D01*
X74666798Y-111746649D01*
X74666797Y-111746653D01*
X74655506Y-111847321D01*
X74644520Y-111945262D01*
X74163896Y-111945262D01*
X74146194Y-111764728D01*
X74144413Y-111758829D01*
X74144412Y-111758824D01*
X74091265Y-111582793D01*
X74089484Y-111576894D01*
X73997370Y-111403653D01*
X73873361Y-111251602D01*
X73722180Y-111126535D01*
X73549585Y-111033213D01*
X73455868Y-111004203D01*
X73368039Y-110977015D01*
X73368036Y-110977014D01*
X73362152Y-110975193D01*
X73356027Y-110974549D01*
X73356026Y-110974549D01*
X73173147Y-110955327D01*
X73173146Y-110955327D01*
X73167019Y-110954683D01*
X73044383Y-110965844D01*
X72977759Y-110971907D01*
X72977758Y-110971907D01*
X72971618Y-110972466D01*
X72965704Y-110974207D01*
X72965702Y-110974207D01*
X72836734Y-111012165D01*
X72783393Y-111027864D01*
X72777928Y-111030721D01*
X72614972Y-111115912D01*
X72614968Y-111115915D01*
X72609512Y-111118767D01*
X72604712Y-111122627D01*
X72604711Y-111122627D01*
X72570326Y-111150273D01*
X72456600Y-111241711D01*
X72330480Y-111392016D01*
X72268210Y-111505284D01*
X72217867Y-111555340D01*
X72148450Y-111570234D01*
X72082001Y-111545233D01*
X72068702Y-111533676D01*
X68468811Y-107933785D01*
X68461384Y-107925681D01*
X68444241Y-107905251D01*
X68444242Y-107905251D01*
X68437155Y-107896806D01*
X68416916Y-107885121D01*
X68404515Y-107877961D01*
X68395244Y-107872055D01*
X68392406Y-107870068D01*
X68364384Y-107850446D01*
X68353734Y-107847592D01*
X68350566Y-107846115D01*
X68347290Y-107844923D01*
X68337745Y-107839412D01*
X68304001Y-107833462D01*
X68300642Y-107832870D01*
X68289915Y-107830492D01*
X68253507Y-107820736D01*
X68242522Y-107821697D01*
X68242520Y-107821697D01*
X68215972Y-107824020D01*
X68204990Y-107824500D01*
X58700149Y-107824500D01*
X58632028Y-107804498D01*
X58585535Y-107750842D01*
X58575431Y-107680568D01*
X58604925Y-107615988D01*
X58610178Y-107610482D01*
X58613303Y-107608040D01*
X58741509Y-107459511D01*
X58838425Y-107288909D01*
X58900358Y-107102732D01*
X58924949Y-106908071D01*
X58925341Y-106880000D01*
X58906194Y-106684728D01*
X58904413Y-106678829D01*
X58904412Y-106678824D01*
X58851265Y-106502793D01*
X58849484Y-106496894D01*
X58757370Y-106323653D01*
X58633361Y-106171602D01*
X58617626Y-106158585D01*
X58577888Y-106099752D01*
X58576265Y-106028774D01*
X58613274Y-105968186D01*
X58677164Y-105937225D01*
X58697941Y-105935500D01*
X68037684Y-105935500D01*
X68105805Y-105955502D01*
X68126779Y-105972405D01*
X71790589Y-109636215D01*
X71798016Y-109644319D01*
X71822245Y-109673194D01*
X71831794Y-109678707D01*
X71854885Y-109692039D01*
X71864156Y-109697945D01*
X71895016Y-109719554D01*
X71905666Y-109722408D01*
X71908834Y-109723885D01*
X71912110Y-109725077D01*
X71921655Y-109730588D01*
X71955399Y-109736538D01*
X71958758Y-109737130D01*
X71969485Y-109739508D01*
X72005893Y-109749264D01*
X72016869Y-109748304D01*
X72016872Y-109748304D01*
X72043443Y-109745979D01*
X72054424Y-109745500D01*
X72125431Y-109745500D01*
X72193552Y-109765502D01*
X72237496Y-109813904D01*
X72314944Y-109964601D01*
X72436818Y-110118369D01*
X72441511Y-110122363D01*
X72441512Y-110122364D01*
X72518885Y-110188213D01*
X72586238Y-110245535D01*
X72591616Y-110248541D01*
X72591618Y-110248542D01*
X72660057Y-110286791D01*
X72757513Y-110341257D01*
X72944118Y-110401889D01*
X73138946Y-110425121D01*
X73145081Y-110424649D01*
X73145083Y-110424649D01*
X73328434Y-110410541D01*
X73328438Y-110410540D01*
X73334576Y-110410068D01*
X73523556Y-110357303D01*
X73698689Y-110268837D01*
X73728515Y-110245535D01*
X73848453Y-110151829D01*
X73853303Y-110148040D01*
X73883084Y-110113539D01*
X73977485Y-110004173D01*
X73977485Y-110004172D01*
X73981509Y-109999511D01*
X74078425Y-109828909D01*
X74140358Y-109642732D01*
X74164949Y-109448071D01*
X74165341Y-109420000D01*
X74163896Y-109405262D01*
X74644520Y-109405262D01*
X74661759Y-109610553D01*
X74663458Y-109616478D01*
X74713241Y-109790091D01*
X74718544Y-109808586D01*
X74721359Y-109814063D01*
X74721360Y-109814066D01*
X74798724Y-109964601D01*
X74812712Y-109991818D01*
X74940677Y-110153270D01*
X74945370Y-110157264D01*
X74945371Y-110157265D01*
X75079729Y-110271612D01*
X75097564Y-110286791D01*
X75277398Y-110387297D01*
X75372238Y-110418113D01*
X75467471Y-110449056D01*
X75467475Y-110449057D01*
X75473329Y-110450959D01*
X75677894Y-110475351D01*
X75684029Y-110474879D01*
X75684031Y-110474879D01*
X75740039Y-110470569D01*
X75883300Y-110459546D01*
X75889230Y-110457890D01*
X75889232Y-110457890D01*
X76075797Y-110405800D01*
X76075796Y-110405800D01*
X76081725Y-110404145D01*
X76087214Y-110401372D01*
X76087220Y-110401370D01*
X76260116Y-110314033D01*
X76265610Y-110311258D01*
X76324757Y-110265048D01*
X76423101Y-110188213D01*
X76427951Y-110184424D01*
X76481520Y-110122364D01*
X76558540Y-110033134D01*
X76558540Y-110033133D01*
X76562564Y-110028472D01*
X76583387Y-109991818D01*
X76661276Y-109854707D01*
X76664323Y-109849344D01*
X76729351Y-109653863D01*
X76755171Y-109449474D01*
X76755583Y-109420000D01*
X76735480Y-109214970D01*
X76675935Y-109017749D01*
X76579218Y-108835849D01*
X76481778Y-108716376D01*
X76452906Y-108680975D01*
X76452903Y-108680972D01*
X76449011Y-108676200D01*
X76404953Y-108639752D01*
X76295025Y-108548811D01*
X76295021Y-108548809D01*
X76290275Y-108544882D01*
X76109055Y-108446897D01*
X75912254Y-108385977D01*
X75906129Y-108385333D01*
X75906128Y-108385333D01*
X75713498Y-108365087D01*
X75713496Y-108365087D01*
X75707369Y-108364443D01*
X75620529Y-108372346D01*
X75508342Y-108382555D01*
X75508339Y-108382556D01*
X75502203Y-108383114D01*
X75304572Y-108441280D01*
X75122002Y-108536726D01*
X75117201Y-108540586D01*
X75117198Y-108540588D01*
X75019136Y-108619432D01*
X74961447Y-108665815D01*
X74829024Y-108823630D01*
X74826056Y-108829028D01*
X74826053Y-108829033D01*
X74751150Y-108965282D01*
X74729776Y-109004162D01*
X74667484Y-109200532D01*
X74666798Y-109206649D01*
X74666797Y-109206653D01*
X74664770Y-109224728D01*
X74644520Y-109405262D01*
X74163896Y-109405262D01*
X74146194Y-109224728D01*
X74144413Y-109218829D01*
X74144412Y-109218824D01*
X74091265Y-109042793D01*
X74089484Y-109036894D01*
X73997370Y-108863653D01*
X73873361Y-108711602D01*
X73722180Y-108586535D01*
X73549585Y-108493213D01*
X73420705Y-108453318D01*
X73368039Y-108437015D01*
X73368036Y-108437014D01*
X73362152Y-108435193D01*
X73356027Y-108434549D01*
X73356026Y-108434549D01*
X73173147Y-108415327D01*
X73173146Y-108415327D01*
X73167019Y-108414683D01*
X73044383Y-108425844D01*
X72977759Y-108431907D01*
X72977758Y-108431907D01*
X72971618Y-108432466D01*
X72965704Y-108434207D01*
X72965702Y-108434207D01*
X72876068Y-108460588D01*
X72783393Y-108487864D01*
X72777928Y-108490721D01*
X72614972Y-108575912D01*
X72614968Y-108575915D01*
X72609512Y-108578767D01*
X72604712Y-108582627D01*
X72604711Y-108582627D01*
X72591925Y-108592907D01*
X72456600Y-108701711D01*
X72330480Y-108852016D01*
X72268210Y-108965284D01*
X72217867Y-109015340D01*
X72148450Y-109030234D01*
X72082001Y-109005233D01*
X72068702Y-108993676D01*
X68468811Y-105393785D01*
X68461384Y-105385681D01*
X68444241Y-105365251D01*
X68444242Y-105365251D01*
X68437155Y-105356806D01*
X68416916Y-105345121D01*
X68404515Y-105337961D01*
X68395244Y-105332055D01*
X68386311Y-105325800D01*
X68364384Y-105310446D01*
X68353734Y-105307592D01*
X68350566Y-105306115D01*
X68347290Y-105304923D01*
X68337745Y-105299412D01*
X68304001Y-105293462D01*
X68300642Y-105292870D01*
X68289915Y-105290492D01*
X68253507Y-105280736D01*
X68242522Y-105281697D01*
X68242520Y-105281697D01*
X68215972Y-105284020D01*
X68204990Y-105284500D01*
X58700149Y-105284500D01*
X58632028Y-105264498D01*
X58585535Y-105210842D01*
X58575431Y-105140568D01*
X58604925Y-105075988D01*
X58610178Y-105070482D01*
X58613303Y-105068040D01*
X58741509Y-104919511D01*
X58764457Y-104879116D01*
X58835379Y-104754272D01*
X58835381Y-104754267D01*
X58838425Y-104748909D01*
X58840372Y-104743056D01*
X58841621Y-104740251D01*
X58887601Y-104686155D01*
X58956728Y-104665500D01*
X59025590Y-104665500D01*
X59036572Y-104665980D01*
X59063120Y-104668303D01*
X59063122Y-104668303D01*
X59074107Y-104669264D01*
X59110515Y-104659508D01*
X59121242Y-104657130D01*
X59127446Y-104656036D01*
X59158345Y-104650588D01*
X59167890Y-104645077D01*
X59171166Y-104643885D01*
X59174334Y-104642408D01*
X59184984Y-104639554D01*
X59215847Y-104617943D01*
X59225115Y-104612039D01*
X59248206Y-104598707D01*
X59257755Y-104593194D01*
X59281985Y-104564317D01*
X59289411Y-104556215D01*
X59351721Y-104493905D01*
X59414033Y-104459879D01*
X59440816Y-104457000D01*
X68832714Y-104457000D01*
X68900835Y-104477002D01*
X68932677Y-104506296D01*
X68973718Y-104559782D01*
X69099159Y-104656036D01*
X69245238Y-104716544D01*
X69402000Y-104737182D01*
X69410188Y-104736104D01*
X69550574Y-104717622D01*
X69558762Y-104716544D01*
X69704841Y-104656036D01*
X69830282Y-104559782D01*
X69926536Y-104434341D01*
X69955151Y-104365258D01*
X69999699Y-104309977D01*
X70067063Y-104287556D01*
X70135854Y-104305114D01*
X70160655Y-104324381D01*
X71807189Y-105970915D01*
X71814616Y-105979019D01*
X71838845Y-106007894D01*
X71848394Y-106013407D01*
X71871485Y-106026739D01*
X71880756Y-106032645D01*
X71911616Y-106054254D01*
X71922267Y-106057108D01*
X71925440Y-106058588D01*
X71928712Y-106059779D01*
X71938255Y-106065288D01*
X71975376Y-106071834D01*
X71986083Y-106074208D01*
X72022493Y-106083963D01*
X72033468Y-106083003D01*
X72033470Y-106083003D01*
X72060031Y-106080679D01*
X72071012Y-106080200D01*
X72254789Y-106080200D01*
X72322910Y-106100202D01*
X72369403Y-106153858D01*
X72379507Y-106224132D01*
X72351310Y-106287191D01*
X72330480Y-106312016D01*
X72327516Y-106317408D01*
X72327513Y-106317412D01*
X72249804Y-106458765D01*
X72235956Y-106483954D01*
X72176628Y-106670978D01*
X72154757Y-106865963D01*
X72171175Y-107061483D01*
X72225258Y-107250091D01*
X72242200Y-107283056D01*
X72312123Y-107419113D01*
X72312126Y-107419117D01*
X72314944Y-107424601D01*
X72436818Y-107578369D01*
X72441511Y-107582363D01*
X72441512Y-107582364D01*
X72518885Y-107648213D01*
X72586238Y-107705535D01*
X72591616Y-107708541D01*
X72591618Y-107708542D01*
X72660057Y-107746791D01*
X72757513Y-107801257D01*
X72944118Y-107861889D01*
X73138946Y-107885121D01*
X73145081Y-107884649D01*
X73145083Y-107884649D01*
X73328434Y-107870541D01*
X73328438Y-107870540D01*
X73334576Y-107870068D01*
X73523556Y-107817303D01*
X73698689Y-107728837D01*
X73728515Y-107705535D01*
X73848453Y-107611829D01*
X73853303Y-107608040D01*
X73858046Y-107602546D01*
X73977485Y-107464173D01*
X73977485Y-107464172D01*
X73981509Y-107459511D01*
X74078425Y-107288909D01*
X74140358Y-107102732D01*
X74164949Y-106908071D01*
X74165341Y-106880000D01*
X74163896Y-106865262D01*
X74644520Y-106865262D01*
X74661759Y-107070553D01*
X74663458Y-107076478D01*
X74713241Y-107250091D01*
X74718544Y-107268586D01*
X74721359Y-107274063D01*
X74721360Y-107274066D01*
X74742247Y-107314707D01*
X74812712Y-107451818D01*
X74940677Y-107613270D01*
X74945370Y-107617264D01*
X74945371Y-107617265D01*
X75079729Y-107731612D01*
X75097564Y-107746791D01*
X75277398Y-107847297D01*
X75371772Y-107877961D01*
X75467471Y-107909056D01*
X75467475Y-107909057D01*
X75473329Y-107910959D01*
X75677894Y-107935351D01*
X75684029Y-107934879D01*
X75684031Y-107934879D01*
X75740039Y-107930569D01*
X75883300Y-107919546D01*
X75889230Y-107917890D01*
X75889232Y-107917890D01*
X76032241Y-107877961D01*
X76081725Y-107864145D01*
X76087214Y-107861372D01*
X76087220Y-107861370D01*
X76260116Y-107774033D01*
X76265610Y-107771258D01*
X76291742Y-107750842D01*
X76354843Y-107701542D01*
X76427951Y-107644424D01*
X76460034Y-107607256D01*
X76558540Y-107493134D01*
X76558540Y-107493133D01*
X76562564Y-107488472D01*
X76583387Y-107451818D01*
X76661276Y-107314707D01*
X76664323Y-107309344D01*
X76729351Y-107113863D01*
X76755171Y-106909474D01*
X76755583Y-106880000D01*
X76735480Y-106674970D01*
X76675935Y-106477749D01*
X76579218Y-106295849D01*
X76481778Y-106176376D01*
X76452906Y-106140975D01*
X76452903Y-106140972D01*
X76449011Y-106136200D01*
X76404953Y-106099752D01*
X76295025Y-106008811D01*
X76295021Y-106008809D01*
X76290275Y-106004882D01*
X76109055Y-105906897D01*
X75912254Y-105845977D01*
X75906129Y-105845333D01*
X75906128Y-105845333D01*
X75713498Y-105825087D01*
X75713496Y-105825087D01*
X75707369Y-105824443D01*
X75620529Y-105832346D01*
X75508342Y-105842555D01*
X75508339Y-105842556D01*
X75502203Y-105843114D01*
X75304572Y-105901280D01*
X75122002Y-105996726D01*
X75117201Y-106000586D01*
X75117198Y-106000588D01*
X74993863Y-106099752D01*
X74961447Y-106125815D01*
X74829024Y-106283630D01*
X74826056Y-106289028D01*
X74826053Y-106289033D01*
X74732743Y-106458765D01*
X74729776Y-106464162D01*
X74667484Y-106660532D01*
X74666798Y-106666649D01*
X74666797Y-106666653D01*
X74664770Y-106684728D01*
X74644520Y-106865262D01*
X74163896Y-106865262D01*
X74146194Y-106684728D01*
X74144413Y-106678829D01*
X74144412Y-106678824D01*
X74091265Y-106502793D01*
X74089484Y-106496894D01*
X73997370Y-106323653D01*
X73873361Y-106171602D01*
X73722180Y-106046535D01*
X73551571Y-105954287D01*
X73501162Y-105904292D01*
X73485500Y-105843451D01*
X73485500Y-105697306D01*
X73479378Y-105680486D01*
X73473695Y-105659276D01*
X73472502Y-105652510D01*
X73470588Y-105641655D01*
X73461640Y-105626156D01*
X73452361Y-105606257D01*
X73446240Y-105589440D01*
X73439154Y-105580995D01*
X73439153Y-105580993D01*
X73434735Y-105575728D01*
X73422143Y-105557745D01*
X73418704Y-105551789D01*
X73413194Y-105542245D01*
X73404752Y-105535161D01*
X73404750Y-105535159D01*
X73399484Y-105530740D01*
X73383962Y-105515219D01*
X73381099Y-105511807D01*
X73374394Y-105503817D01*
X73345926Y-105438780D01*
X73357139Y-105368674D01*
X73404474Y-105315760D01*
X73437026Y-105301463D01*
X73456309Y-105296079D01*
X73523556Y-105277303D01*
X73698689Y-105188837D01*
X73728515Y-105165535D01*
X73848453Y-105071829D01*
X73853303Y-105068040D01*
X73858046Y-105062546D01*
X73977485Y-104924173D01*
X73977485Y-104924172D01*
X73981509Y-104919511D01*
X74078425Y-104748909D01*
X74140358Y-104562732D01*
X74164949Y-104368071D01*
X74165341Y-104340000D01*
X74146194Y-104144728D01*
X74144413Y-104138829D01*
X74144412Y-104138824D01*
X74091265Y-103962793D01*
X74089484Y-103956894D01*
X73997370Y-103783653D01*
X73873361Y-103631602D01*
X73722180Y-103506535D01*
X73549585Y-103413213D01*
X73420705Y-103373318D01*
X73368039Y-103357015D01*
X73368036Y-103357014D01*
X73362152Y-103355193D01*
X73356027Y-103354549D01*
X73356026Y-103354549D01*
X73173147Y-103335327D01*
X73173146Y-103335327D01*
X73167019Y-103334683D01*
X73044383Y-103345844D01*
X72977759Y-103351907D01*
X72977758Y-103351907D01*
X72971618Y-103352466D01*
X72965704Y-103354207D01*
X72965702Y-103354207D01*
X72913558Y-103369554D01*
X72783393Y-103407864D01*
X72777928Y-103410721D01*
X72614972Y-103495912D01*
X72614968Y-103495915D01*
X72609512Y-103498767D01*
X72604712Y-103502627D01*
X72604711Y-103502627D01*
X72577255Y-103524702D01*
X72456600Y-103621711D01*
X72330480Y-103772016D01*
X72327516Y-103777408D01*
X72327513Y-103777412D01*
X72307721Y-103813414D01*
X72272047Y-103878306D01*
X72268212Y-103885281D01*
X72217866Y-103935340D01*
X72148449Y-103950233D01*
X72082000Y-103925232D01*
X72068702Y-103913675D01*
X69940989Y-101785963D01*
X72154757Y-101785963D01*
X72171175Y-101981483D01*
X72225258Y-102170091D01*
X72242200Y-102203056D01*
X72312123Y-102339113D01*
X72312126Y-102339117D01*
X72314944Y-102344601D01*
X72436818Y-102498369D01*
X72441511Y-102502363D01*
X72441512Y-102502364D01*
X72514433Y-102564424D01*
X72586238Y-102625535D01*
X72591616Y-102628541D01*
X72591618Y-102628542D01*
X72660057Y-102666791D01*
X72757513Y-102721257D01*
X72944118Y-102781889D01*
X73138946Y-102805121D01*
X73145081Y-102804649D01*
X73145083Y-102804649D01*
X73328434Y-102790541D01*
X73328438Y-102790540D01*
X73334576Y-102790068D01*
X73523556Y-102737303D01*
X73698689Y-102648837D01*
X73728515Y-102625535D01*
X73848453Y-102531829D01*
X73853303Y-102528040D01*
X73858046Y-102522546D01*
X73977485Y-102384173D01*
X73977485Y-102384172D01*
X73981509Y-102379511D01*
X74078425Y-102208909D01*
X74140358Y-102022732D01*
X74164949Y-101828071D01*
X74165341Y-101800000D01*
X74146194Y-101604728D01*
X74144413Y-101598829D01*
X74144412Y-101598824D01*
X74091265Y-101422793D01*
X74089484Y-101416894D01*
X73997370Y-101243653D01*
X73873361Y-101091602D01*
X73722180Y-100966535D01*
X73549585Y-100873213D01*
X73455869Y-100844203D01*
X73368039Y-100817015D01*
X73368036Y-100817014D01*
X73362152Y-100815193D01*
X73356027Y-100814549D01*
X73356026Y-100814549D01*
X73173147Y-100795327D01*
X73173146Y-100795327D01*
X73167019Y-100794683D01*
X73044383Y-100805844D01*
X72977759Y-100811907D01*
X72977758Y-100811907D01*
X72971618Y-100812466D01*
X72965704Y-100814207D01*
X72965702Y-100814207D01*
X72871230Y-100842012D01*
X72783393Y-100867864D01*
X72777928Y-100870721D01*
X72614972Y-100955912D01*
X72614968Y-100955915D01*
X72609512Y-100958767D01*
X72604712Y-100962627D01*
X72604711Y-100962627D01*
X72577749Y-100984305D01*
X72456600Y-101081711D01*
X72330480Y-101232016D01*
X72327516Y-101237408D01*
X72327513Y-101237412D01*
X72249804Y-101378765D01*
X72235956Y-101403954D01*
X72176628Y-101590978D01*
X72154757Y-101785963D01*
X69940989Y-101785963D01*
X68560710Y-100405684D01*
X68553283Y-100397580D01*
X68536141Y-100377151D01*
X68536142Y-100377151D01*
X68529055Y-100368706D01*
X68519506Y-100363193D01*
X68496415Y-100349861D01*
X68487144Y-100343955D01*
X68465315Y-100328670D01*
X68456284Y-100322346D01*
X68445634Y-100319492D01*
X68442466Y-100318015D01*
X68439190Y-100316823D01*
X68429645Y-100311312D01*
X68395901Y-100305362D01*
X68392542Y-100304770D01*
X68381815Y-100302392D01*
X68345407Y-100292636D01*
X68334422Y-100293597D01*
X68334420Y-100293597D01*
X68307872Y-100295920D01*
X68296890Y-100296400D01*
X58584551Y-100296400D01*
X58516430Y-100276398D01*
X58469937Y-100222742D01*
X58459833Y-100152468D01*
X58489327Y-100087888D01*
X58506978Y-100071111D01*
X58608447Y-99991835D01*
X58608453Y-99991829D01*
X58613303Y-99988040D01*
X58643084Y-99953539D01*
X58737485Y-99844173D01*
X58737485Y-99844172D01*
X58741509Y-99839511D01*
X58838425Y-99668909D01*
X58900358Y-99482732D01*
X58924949Y-99288071D01*
X58925341Y-99260000D01*
X58923965Y-99245963D01*
X72154757Y-99245963D01*
X72171175Y-99441483D01*
X72225258Y-99630091D01*
X72242200Y-99663056D01*
X72312123Y-99799113D01*
X72312126Y-99799117D01*
X72314944Y-99804601D01*
X72436818Y-99958369D01*
X72441511Y-99962363D01*
X72441512Y-99962364D01*
X72518885Y-100028213D01*
X72586238Y-100085535D01*
X72591616Y-100088541D01*
X72591618Y-100088542D01*
X72660057Y-100126791D01*
X72757513Y-100181257D01*
X72944118Y-100241889D01*
X73138946Y-100265121D01*
X73145081Y-100264649D01*
X73145083Y-100264649D01*
X73328434Y-100250541D01*
X73328438Y-100250540D01*
X73334576Y-100250068D01*
X73523556Y-100197303D01*
X73698689Y-100108837D01*
X73728515Y-100085535D01*
X73846609Y-99993270D01*
X73853303Y-99988040D01*
X73883084Y-99953539D01*
X73977485Y-99844173D01*
X73977485Y-99844172D01*
X73981509Y-99839511D01*
X74078425Y-99668909D01*
X74140358Y-99482732D01*
X74164949Y-99288071D01*
X74165341Y-99260000D01*
X74146194Y-99064728D01*
X74144413Y-99058829D01*
X74144412Y-99058824D01*
X74091265Y-98882793D01*
X74089484Y-98876894D01*
X73997370Y-98703653D01*
X73873361Y-98551602D01*
X73722180Y-98426535D01*
X73549585Y-98333213D01*
X73399962Y-98286897D01*
X73368039Y-98277015D01*
X73368036Y-98277014D01*
X73362152Y-98275193D01*
X73356027Y-98274549D01*
X73356026Y-98274549D01*
X73173147Y-98255327D01*
X73173146Y-98255327D01*
X73167019Y-98254683D01*
X73044383Y-98265844D01*
X72977759Y-98271907D01*
X72977758Y-98271907D01*
X72971618Y-98272466D01*
X72965704Y-98274207D01*
X72965702Y-98274207D01*
X72922586Y-98286897D01*
X72783393Y-98327864D01*
X72777928Y-98330721D01*
X72614972Y-98415912D01*
X72614968Y-98415915D01*
X72609512Y-98418767D01*
X72604712Y-98422627D01*
X72604711Y-98422627D01*
X72570326Y-98450273D01*
X72456600Y-98541711D01*
X72330480Y-98692016D01*
X72327516Y-98697408D01*
X72327513Y-98697412D01*
X72279348Y-98785024D01*
X72235956Y-98863954D01*
X72176628Y-99050978D01*
X72154757Y-99245963D01*
X58923965Y-99245963D01*
X58906194Y-99064728D01*
X58904413Y-99058829D01*
X58904412Y-99058824D01*
X58851265Y-98882793D01*
X58849484Y-98876894D01*
X58757370Y-98703653D01*
X58633361Y-98551602D01*
X58536153Y-98471185D01*
X58496415Y-98412351D01*
X58494792Y-98341373D01*
X58531801Y-98280786D01*
X58595691Y-98249825D01*
X58616468Y-98248100D01*
X68272390Y-98248100D01*
X68283372Y-98248580D01*
X68309920Y-98250903D01*
X68309922Y-98250903D01*
X68320907Y-98251864D01*
X68357315Y-98242108D01*
X68368042Y-98239730D01*
X68371401Y-98239138D01*
X68405145Y-98233188D01*
X68414690Y-98227677D01*
X68417966Y-98226485D01*
X68421134Y-98225008D01*
X68431784Y-98222154D01*
X68462647Y-98200543D01*
X68471915Y-98194639D01*
X68495006Y-98181307D01*
X68504555Y-98175794D01*
X68528785Y-98146917D01*
X68536211Y-98138815D01*
X72069022Y-94606004D01*
X72131334Y-94571978D01*
X72202149Y-94577043D01*
X72258985Y-94619590D01*
X72270177Y-94637493D01*
X72314944Y-94724601D01*
X72436818Y-94878369D01*
X72441511Y-94882363D01*
X72441512Y-94882364D01*
X72518885Y-94948213D01*
X72586238Y-95005535D01*
X72591616Y-95008541D01*
X72591618Y-95008542D01*
X72660057Y-95046791D01*
X72757513Y-95101257D01*
X72944118Y-95161889D01*
X73138946Y-95185121D01*
X73145081Y-95184649D01*
X73145083Y-95184649D01*
X73328434Y-95170541D01*
X73328438Y-95170540D01*
X73334576Y-95170068D01*
X73523556Y-95117303D01*
X73698689Y-95028837D01*
X73717332Y-95014272D01*
X73846609Y-94913270D01*
X73853303Y-94908040D01*
X73862329Y-94897584D01*
X73977485Y-94764173D01*
X73977485Y-94764172D01*
X73981509Y-94759511D01*
X74003617Y-94720595D01*
X74050818Y-94637505D01*
X74078425Y-94588909D01*
X74140358Y-94402732D01*
X74164949Y-94208071D01*
X74165341Y-94180000D01*
X74146194Y-93984728D01*
X74144413Y-93978829D01*
X74144412Y-93978824D01*
X74091265Y-93802793D01*
X74089484Y-93796894D01*
X73997370Y-93623653D01*
X73909890Y-93516391D01*
X73908784Y-93515035D01*
X73881230Y-93449604D01*
X73893426Y-93379662D01*
X73941498Y-93327417D01*
X74006427Y-93309400D01*
X74788923Y-93309400D01*
X74857044Y-93329402D01*
X74903537Y-93383058D01*
X74913641Y-93453332D01*
X74885446Y-93516390D01*
X74829024Y-93583630D01*
X74826056Y-93589028D01*
X74826053Y-93589033D01*
X74762287Y-93705024D01*
X74729776Y-93764162D01*
X74667484Y-93960532D01*
X74666798Y-93966649D01*
X74666797Y-93966653D01*
X74664770Y-93984728D01*
X74644520Y-94165262D01*
X74661759Y-94370553D01*
X74663458Y-94376478D01*
X74713241Y-94550091D01*
X74718544Y-94568586D01*
X74721359Y-94574063D01*
X74721360Y-94574066D01*
X74798724Y-94724601D01*
X74812712Y-94751818D01*
X74940677Y-94913270D01*
X74945370Y-94917264D01*
X74945371Y-94917265D01*
X75079729Y-95031612D01*
X75097564Y-95046791D01*
X75102942Y-95049797D01*
X75102944Y-95049798D01*
X75149598Y-95075872D01*
X75277398Y-95147297D01*
X75342437Y-95168429D01*
X75401042Y-95208502D01*
X75428680Y-95273898D01*
X75416574Y-95343855D01*
X75368568Y-95396162D01*
X75342646Y-95408027D01*
X75176868Y-95462212D01*
X75167359Y-95466209D01*
X74978463Y-95564542D01*
X74969738Y-95570036D01*
X74799433Y-95697905D01*
X74791726Y-95704748D01*
X74644590Y-95858717D01*
X74638104Y-95866727D01*
X74518098Y-96042649D01*
X74513000Y-96051623D01*
X74423338Y-96244783D01*
X74419776Y-96254467D01*
X74366004Y-96448358D01*
X74328525Y-96508655D01*
X74264396Y-96539118D01*
X74193978Y-96530074D01*
X74139628Y-96484395D01*
X74123965Y-96451102D01*
X74091266Y-96342796D01*
X74091266Y-96342795D01*
X74089484Y-96336894D01*
X73997370Y-96163653D01*
X73873361Y-96011602D01*
X73722180Y-95886535D01*
X73549585Y-95793213D01*
X73455869Y-95764203D01*
X73368039Y-95737015D01*
X73368036Y-95737014D01*
X73362152Y-95735193D01*
X73356027Y-95734549D01*
X73356026Y-95734549D01*
X73173147Y-95715327D01*
X73173146Y-95715327D01*
X73167019Y-95714683D01*
X73044383Y-95725844D01*
X72977759Y-95731907D01*
X72977758Y-95731907D01*
X72971618Y-95732466D01*
X72965704Y-95734207D01*
X72965702Y-95734207D01*
X72836734Y-95772165D01*
X72783393Y-95787864D01*
X72777928Y-95790721D01*
X72614972Y-95875912D01*
X72614968Y-95875915D01*
X72609512Y-95878767D01*
X72604712Y-95882627D01*
X72604711Y-95882627D01*
X72591902Y-95892926D01*
X72456600Y-96001711D01*
X72330480Y-96152016D01*
X72327516Y-96157408D01*
X72327513Y-96157412D01*
X72279481Y-96244783D01*
X72235956Y-96323954D01*
X72176628Y-96510978D01*
X72154757Y-96705963D01*
X72171175Y-96901483D01*
X72225258Y-97090091D01*
X72228076Y-97095574D01*
X72312123Y-97259113D01*
X72312126Y-97259117D01*
X72314944Y-97264601D01*
X72436818Y-97418369D01*
X72441511Y-97422363D01*
X72441512Y-97422364D01*
X72566456Y-97528699D01*
X72586238Y-97545535D01*
X72591616Y-97548541D01*
X72591618Y-97548542D01*
X72671876Y-97593396D01*
X72757513Y-97641257D01*
X72944118Y-97701889D01*
X73138946Y-97725121D01*
X73145081Y-97724649D01*
X73145083Y-97724649D01*
X73328434Y-97710541D01*
X73328438Y-97710540D01*
X73334576Y-97710068D01*
X73523556Y-97657303D01*
X73698689Y-97568837D01*
X73709751Y-97560195D01*
X73848453Y-97451829D01*
X73853303Y-97448040D01*
X73883084Y-97413539D01*
X73977485Y-97304173D01*
X73977485Y-97304172D01*
X73981509Y-97299511D01*
X74003617Y-97260595D01*
X74066816Y-97149344D01*
X74078425Y-97128909D01*
X74093308Y-97084169D01*
X74127214Y-96982245D01*
X74167696Y-96923921D01*
X74233284Y-96896741D01*
X74303154Y-96909336D01*
X74355124Y-96957706D01*
X74369689Y-96994316D01*
X74398565Y-97122447D01*
X74401645Y-97132275D01*
X74481770Y-97329603D01*
X74486413Y-97338794D01*
X74597694Y-97520388D01*
X74603777Y-97528699D01*
X74743213Y-97689667D01*
X74750580Y-97696883D01*
X74914434Y-97832916D01*
X74922881Y-97838831D01*
X75106756Y-97946279D01*
X75116042Y-97950729D01*
X75315001Y-98026703D01*
X75329866Y-98031022D01*
X75329289Y-98033008D01*
X75384260Y-98062082D01*
X75419110Y-98123936D01*
X75414988Y-98194813D01*
X75373201Y-98252209D01*
X75331930Y-98273228D01*
X75310489Y-98279538D01*
X75310484Y-98279540D01*
X75304572Y-98281280D01*
X75122002Y-98376726D01*
X75117201Y-98380586D01*
X75117198Y-98380588D01*
X75022643Y-98456612D01*
X74961447Y-98505815D01*
X74829024Y-98663630D01*
X74826056Y-98669028D01*
X74826053Y-98669033D01*
X74762287Y-98785024D01*
X74729776Y-98844162D01*
X74667484Y-99040532D01*
X74666798Y-99046649D01*
X74666797Y-99046653D01*
X74655547Y-99146955D01*
X74644520Y-99245262D01*
X74645036Y-99251406D01*
X74659116Y-99419074D01*
X74661759Y-99450553D01*
X74663458Y-99456478D01*
X74713241Y-99630091D01*
X74718544Y-99648586D01*
X74721359Y-99654063D01*
X74721360Y-99654066D01*
X74793336Y-99794116D01*
X74812712Y-99831818D01*
X74940677Y-99993270D01*
X74945370Y-99997264D01*
X74945371Y-99997265D01*
X75079729Y-100111612D01*
X75097564Y-100126791D01*
X75102942Y-100129797D01*
X75102944Y-100129798D01*
X75146308Y-100154033D01*
X75277398Y-100227297D01*
X75372238Y-100258113D01*
X75467471Y-100289056D01*
X75467475Y-100289057D01*
X75473329Y-100290959D01*
X75677894Y-100315351D01*
X75684029Y-100314879D01*
X75684031Y-100314879D01*
X75740039Y-100310569D01*
X75883300Y-100299546D01*
X75889230Y-100297890D01*
X75889232Y-100297890D01*
X76075797Y-100245800D01*
X76075796Y-100245800D01*
X76081725Y-100244145D01*
X76087214Y-100241372D01*
X76087220Y-100241370D01*
X76260116Y-100154033D01*
X76265610Y-100151258D01*
X76324757Y-100105048D01*
X76423101Y-100028213D01*
X76427951Y-100024424D01*
X76481520Y-99962364D01*
X76558540Y-99873134D01*
X76558540Y-99873133D01*
X76562564Y-99868472D01*
X76583387Y-99831818D01*
X76604804Y-99794116D01*
X76664323Y-99689344D01*
X76729351Y-99493863D01*
X76755171Y-99289474D01*
X76755583Y-99260000D01*
X76735480Y-99054970D01*
X76675935Y-98857749D01*
X76674312Y-98854696D01*
X76666944Y-98785024D01*
X76701808Y-98718518D01*
X83606805Y-91813521D01*
X83669117Y-91779495D01*
X83739932Y-91784560D01*
X83796768Y-91827107D01*
X83821579Y-91893627D01*
X83821900Y-91902616D01*
X83821900Y-94897584D01*
X83801898Y-94965705D01*
X83784995Y-94986679D01*
X76963362Y-101808312D01*
X76901050Y-101842338D01*
X76830235Y-101837273D01*
X76773399Y-101794726D01*
X76748868Y-101731512D01*
X76737038Y-101610862D01*
X76735480Y-101594970D01*
X76675935Y-101397749D01*
X76579218Y-101215849D01*
X76481778Y-101096376D01*
X76452906Y-101060975D01*
X76452903Y-101060972D01*
X76449011Y-101056200D01*
X76444262Y-101052271D01*
X76295025Y-100928811D01*
X76295021Y-100928809D01*
X76290275Y-100924882D01*
X76109055Y-100826897D01*
X75912254Y-100765977D01*
X75906129Y-100765333D01*
X75906128Y-100765333D01*
X75713498Y-100745087D01*
X75713496Y-100745087D01*
X75707369Y-100744443D01*
X75620529Y-100752346D01*
X75508342Y-100762555D01*
X75508339Y-100762556D01*
X75502203Y-100763114D01*
X75304572Y-100821280D01*
X75122002Y-100916726D01*
X75117201Y-100920586D01*
X75117198Y-100920588D01*
X74996462Y-101017662D01*
X74961447Y-101045815D01*
X74829024Y-101203630D01*
X74826056Y-101209028D01*
X74826053Y-101209033D01*
X74732743Y-101378765D01*
X74729776Y-101384162D01*
X74667484Y-101580532D01*
X74666798Y-101586649D01*
X74666797Y-101586653D01*
X74664770Y-101604728D01*
X74644520Y-101785262D01*
X74661759Y-101990553D01*
X74663458Y-101996478D01*
X74713241Y-102170091D01*
X74718544Y-102188586D01*
X74721359Y-102194063D01*
X74721360Y-102194066D01*
X74742247Y-102234707D01*
X74812712Y-102371818D01*
X74940677Y-102533270D01*
X74945370Y-102537264D01*
X74945371Y-102537265D01*
X75079729Y-102651612D01*
X75097564Y-102666791D01*
X75277398Y-102767297D01*
X75324551Y-102782618D01*
X75359947Y-102794119D01*
X75418553Y-102834193D01*
X75446190Y-102899589D01*
X75434083Y-102969546D01*
X75426335Y-102981435D01*
X75426357Y-102981448D01*
X75420843Y-102990998D01*
X75413760Y-102999439D01*
X75409992Y-103009792D01*
X75409989Y-103009797D01*
X75407637Y-103016260D01*
X75398357Y-103036162D01*
X75389412Y-103051655D01*
X75387498Y-103062509D01*
X75387496Y-103062515D01*
X75386304Y-103069276D01*
X75380622Y-103090484D01*
X75378612Y-103096008D01*
X75374500Y-103107306D01*
X75374500Y-103248688D01*
X75354498Y-103316809D01*
X75303436Y-103359107D01*
X75304572Y-103361280D01*
X75122002Y-103456726D01*
X75117201Y-103460586D01*
X75117198Y-103460588D01*
X75019136Y-103539432D01*
X74961447Y-103585815D01*
X74829024Y-103743630D01*
X74826056Y-103749028D01*
X74826053Y-103749033D01*
X74760532Y-103868216D01*
X74729776Y-103924162D01*
X74667484Y-104120532D01*
X74666798Y-104126649D01*
X74666797Y-104126653D01*
X74664770Y-104144728D01*
X74644520Y-104325262D01*
X74645036Y-104331406D01*
X74658682Y-104493905D01*
X74661759Y-104530553D01*
X74663458Y-104536478D01*
X74713241Y-104710091D01*
X74718544Y-104728586D01*
X74721359Y-104734063D01*
X74721360Y-104734066D01*
X74798724Y-104884601D01*
X74812712Y-104911818D01*
X74940677Y-105073270D01*
X74945370Y-105077264D01*
X74945371Y-105077265D01*
X75081609Y-105193212D01*
X75097564Y-105206791D01*
X75277398Y-105307297D01*
X75371772Y-105337961D01*
X75467471Y-105369056D01*
X75467475Y-105369057D01*
X75473329Y-105370959D01*
X75677894Y-105395351D01*
X75684029Y-105394879D01*
X75684031Y-105394879D01*
X75740039Y-105390569D01*
X75883300Y-105379546D01*
X75889230Y-105377890D01*
X75889232Y-105377890D01*
X76032241Y-105337961D01*
X76081725Y-105324145D01*
X76087214Y-105321372D01*
X76087220Y-105321370D01*
X76260116Y-105234033D01*
X76265610Y-105231258D01*
X76291742Y-105210842D01*
X76354843Y-105161542D01*
X76427951Y-105104424D01*
X76460034Y-105067256D01*
X76558540Y-104953134D01*
X76558540Y-104953133D01*
X76562564Y-104948472D01*
X76583387Y-104911818D01*
X76661276Y-104774707D01*
X76664323Y-104769344D01*
X76729351Y-104573863D01*
X76755171Y-104369474D01*
X76755583Y-104340000D01*
X76735480Y-104134970D01*
X76675935Y-103937749D01*
X76579218Y-103755849D01*
X76481778Y-103636376D01*
X76452906Y-103600975D01*
X76452903Y-103600972D01*
X76449011Y-103596200D01*
X76362583Y-103524700D01*
X76322846Y-103465869D01*
X76321223Y-103394890D01*
X76353804Y-103338522D01*
X84363615Y-95328711D01*
X84371719Y-95321284D01*
X84392149Y-95304141D01*
X84400594Y-95297055D01*
X84406981Y-95285993D01*
X84419439Y-95264415D01*
X84425345Y-95255144D01*
X84432346Y-95245146D01*
X84446954Y-95224284D01*
X84449808Y-95213634D01*
X84451285Y-95210466D01*
X84452477Y-95207190D01*
X84457988Y-95197645D01*
X84464530Y-95160542D01*
X84466909Y-95149810D01*
X84467072Y-95149201D01*
X84476664Y-95113407D01*
X84473380Y-95075872D01*
X84472900Y-95064890D01*
X84472900Y-70517113D01*
X84473379Y-70506132D01*
X84475703Y-70479570D01*
X84475703Y-70479568D01*
X84476663Y-70468593D01*
X84466908Y-70432183D01*
X84464533Y-70421472D01*
X84457988Y-70384355D01*
X84452478Y-70374811D01*
X84451286Y-70371535D01*
X84449807Y-70368364D01*
X84446954Y-70357716D01*
X84425340Y-70326848D01*
X84419436Y-70317579D01*
X84406109Y-70294496D01*
X84406107Y-70294493D01*
X84400594Y-70284945D01*
X84371731Y-70260726D01*
X84363627Y-70253300D01*
X81883099Y-67772772D01*
X81849073Y-67710460D01*
X81854138Y-67639645D01*
X81896685Y-67582809D01*
X81963205Y-67557998D01*
X81988636Y-67558755D01*
X82029100Y-67564082D01*
X82037288Y-67563004D01*
X82177674Y-67544522D01*
X82185862Y-67543444D01*
X82331941Y-67482936D01*
X82457382Y-67386682D01*
X82553636Y-67261241D01*
X82614144Y-67115162D01*
X82634782Y-66958400D01*
X82614144Y-66801638D01*
X82553636Y-66655559D01*
X82457382Y-66530118D01*
X82403896Y-66489077D01*
X82362029Y-66431739D01*
X82354600Y-66389114D01*
X82354600Y-65893213D01*
X82355079Y-65882232D01*
X82357403Y-65855670D01*
X82357403Y-65855668D01*
X82358363Y-65844693D01*
X82348608Y-65808283D01*
X82346233Y-65797572D01*
X82341601Y-65771306D01*
X82339688Y-65760455D01*
X82334179Y-65750912D01*
X82332988Y-65747640D01*
X82331508Y-65744467D01*
X82328654Y-65733816D01*
X82307045Y-65702956D01*
X82301139Y-65693685D01*
X82287807Y-65670594D01*
X82282294Y-65661045D01*
X82253417Y-65636815D01*
X82245315Y-65629389D01*
X74019783Y-57403857D01*
X73985757Y-57341545D01*
X73990822Y-57270730D01*
X74033369Y-57213894D01*
X74060660Y-57198353D01*
X74068060Y-57195288D01*
X74080231Y-57192867D01*
X74090548Y-57185974D01*
X74090549Y-57185973D01*
X74136239Y-57155443D01*
X74146552Y-57148552D01*
X74190867Y-57082231D01*
X74202500Y-57023748D01*
X74202500Y-55842095D01*
X80945028Y-55842095D01*
X80970534Y-56109431D01*
X80971619Y-56113865D01*
X80971620Y-56113871D01*
X80988753Y-56183887D01*
X81034364Y-56370285D01*
X81036076Y-56374511D01*
X81036077Y-56374515D01*
X81102506Y-56538519D01*
X81135182Y-56619192D01*
X81270875Y-56850938D01*
X81292437Y-56877900D01*
X81409075Y-57023748D01*
X81438601Y-57060669D01*
X81634846Y-57243991D01*
X81727039Y-57307948D01*
X81851746Y-57394461D01*
X81851751Y-57394464D01*
X81855499Y-57397064D01*
X81859584Y-57399096D01*
X81859587Y-57399098D01*
X81911048Y-57424699D01*
X82095938Y-57516680D01*
X82100272Y-57518101D01*
X82100275Y-57518102D01*
X82346793Y-57598915D01*
X82346798Y-57598916D01*
X82351126Y-57600335D01*
X82355617Y-57601115D01*
X82355618Y-57601115D01*
X82611936Y-57645620D01*
X82611944Y-57645621D01*
X82615717Y-57646276D01*
X82619554Y-57646467D01*
X82698996Y-57650422D01*
X82699004Y-57650422D01*
X82700567Y-57650500D01*
X82868223Y-57650500D01*
X82870491Y-57650335D01*
X82870503Y-57650335D01*
X83000823Y-57640879D01*
X83067846Y-57636016D01*
X83072301Y-57635032D01*
X83072304Y-57635032D01*
X83325620Y-57579105D01*
X83325624Y-57579104D01*
X83330080Y-57578120D01*
X83497617Y-57514646D01*
X83576941Y-57484593D01*
X83576944Y-57484592D01*
X83581211Y-57482975D01*
X83815976Y-57352574D01*
X83958254Y-57243991D01*
X84025833Y-57192417D01*
X84025837Y-57192413D01*
X84029458Y-57189650D01*
X84033053Y-57185973D01*
X84159031Y-57057103D01*
X84217185Y-56997614D01*
X84313520Y-56865264D01*
X84372538Y-56784183D01*
X84372540Y-56784180D01*
X84375225Y-56780491D01*
X84464571Y-56610672D01*
X84498140Y-56546868D01*
X84498143Y-56546862D01*
X84500265Y-56542828D01*
X84506111Y-56526275D01*
X84588165Y-56293916D01*
X84588165Y-56293915D01*
X84589688Y-56289603D01*
X84624325Y-56113871D01*
X84640739Y-56030594D01*
X84640740Y-56030588D01*
X84641620Y-56026122D01*
X84641847Y-56021566D01*
X84654745Y-55762474D01*
X84654745Y-55762468D01*
X84654972Y-55757905D01*
X84629466Y-55490569D01*
X84565636Y-55229715D01*
X84559860Y-55215453D01*
X84466531Y-54985037D01*
X84466531Y-54985036D01*
X84464818Y-54980808D01*
X84329125Y-54749062D01*
X84218211Y-54610371D01*
X84164251Y-54542897D01*
X84164250Y-54542895D01*
X84161399Y-54539331D01*
X83965154Y-54356009D01*
X83805436Y-54245208D01*
X83748254Y-54205539D01*
X83748249Y-54205536D01*
X83744501Y-54202936D01*
X83740416Y-54200904D01*
X83740413Y-54200902D01*
X83568560Y-54115407D01*
X83504062Y-54083320D01*
X83499728Y-54081899D01*
X83499725Y-54081898D01*
X83253207Y-54001085D01*
X83253202Y-54001084D01*
X83248874Y-53999665D01*
X83244382Y-53998885D01*
X82988064Y-53954380D01*
X82988056Y-53954379D01*
X82984283Y-53953724D01*
X82975622Y-53953293D01*
X82901004Y-53949578D01*
X82900996Y-53949578D01*
X82899433Y-53949500D01*
X82731777Y-53949500D01*
X82729509Y-53949665D01*
X82729497Y-53949665D01*
X82599177Y-53959121D01*
X82532154Y-53963984D01*
X82527699Y-53964968D01*
X82527696Y-53964968D01*
X82274380Y-54020895D01*
X82274376Y-54020896D01*
X82269920Y-54021880D01*
X82144354Y-54069453D01*
X82023059Y-54115407D01*
X82023056Y-54115408D01*
X82018789Y-54117025D01*
X81784024Y-54247426D01*
X81780392Y-54250198D01*
X81574167Y-54407583D01*
X81574163Y-54407587D01*
X81570542Y-54410350D01*
X81382815Y-54602386D01*
X81224775Y-54819509D01*
X81222651Y-54823547D01*
X81101860Y-55053132D01*
X81101857Y-55053138D01*
X81099735Y-55057172D01*
X81098215Y-55061477D01*
X81098213Y-55061481D01*
X81019545Y-55284252D01*
X81010312Y-55310397D01*
X80958380Y-55573878D01*
X80958153Y-55578431D01*
X80958153Y-55578434D01*
X80946381Y-55814924D01*
X80945028Y-55842095D01*
X74202500Y-55842095D01*
X74202500Y-55284252D01*
X74190867Y-55225769D01*
X74146552Y-55159448D01*
X74080231Y-55115133D01*
X74068062Y-55112712D01*
X74068061Y-55112712D01*
X74027816Y-55104707D01*
X74021748Y-55103500D01*
X72282252Y-55103500D01*
X72276184Y-55104707D01*
X72235939Y-55112712D01*
X72235938Y-55112712D01*
X72223769Y-55115133D01*
X72157448Y-55159448D01*
X72113133Y-55225769D01*
X72101500Y-55284252D01*
X72101500Y-56877900D01*
X72081498Y-56946021D01*
X72027842Y-56992514D01*
X71975500Y-57003900D01*
X69494416Y-57003900D01*
X69426295Y-56983898D01*
X69405321Y-56966995D01*
X67091411Y-54653085D01*
X67083984Y-54644981D01*
X67066841Y-54624551D01*
X67066842Y-54624551D01*
X67059755Y-54616106D01*
X67050206Y-54610593D01*
X67027115Y-54597261D01*
X67017844Y-54591355D01*
X66996015Y-54576070D01*
X66986984Y-54569746D01*
X66976334Y-54566892D01*
X66973166Y-54565415D01*
X66969890Y-54564223D01*
X66960345Y-54558712D01*
X66926601Y-54552762D01*
X66923242Y-54552170D01*
X66912515Y-54549792D01*
X66876107Y-54540036D01*
X66865122Y-54540997D01*
X66865120Y-54540997D01*
X66838572Y-54543320D01*
X66827590Y-54543800D01*
X65124398Y-54543800D01*
X65113416Y-54543320D01*
X65086880Y-54540998D01*
X65086878Y-54540998D01*
X65075893Y-54540037D01*
X65065243Y-54542891D01*
X65065241Y-54542891D01*
X65039504Y-54549788D01*
X65028769Y-54552168D01*
X65028758Y-54552170D01*
X64991655Y-54558712D01*
X64982107Y-54564224D01*
X64978830Y-54565417D01*
X64975662Y-54566894D01*
X64965016Y-54569747D01*
X64955987Y-54576069D01*
X64934153Y-54591357D01*
X64924885Y-54597261D01*
X64892245Y-54616106D01*
X64885159Y-54624551D01*
X64885157Y-54624553D01*
X64868026Y-54644969D01*
X64860600Y-54653073D01*
X63172682Y-56340992D01*
X61513454Y-58000220D01*
X61451142Y-58034246D01*
X61380327Y-58029181D01*
X61326717Y-57990761D01*
X61264912Y-57914981D01*
X61264903Y-57914971D01*
X61261011Y-57910200D01*
X61223414Y-57879097D01*
X61107025Y-57782811D01*
X61107021Y-57782809D01*
X61102275Y-57778882D01*
X60921055Y-57680897D01*
X60724254Y-57619977D01*
X60718129Y-57619333D01*
X60718128Y-57619333D01*
X60525498Y-57599087D01*
X60525496Y-57599087D01*
X60519369Y-57598443D01*
X60432529Y-57606346D01*
X60320342Y-57616555D01*
X60320339Y-57616556D01*
X60314203Y-57617114D01*
X60116572Y-57675280D01*
X59934002Y-57770726D01*
X59929201Y-57774586D01*
X59929198Y-57774588D01*
X59818723Y-57863412D01*
X59773447Y-57899815D01*
X59641024Y-58057630D01*
X59638056Y-58063028D01*
X59638053Y-58063033D01*
X59611789Y-58110808D01*
X59541776Y-58238162D01*
X59479484Y-58434532D01*
X59478798Y-58440649D01*
X59478797Y-58440653D01*
X59472975Y-58492558D01*
X59456520Y-58639262D01*
X59473759Y-58844553D01*
X59530544Y-59042586D01*
X59533359Y-59048063D01*
X59533360Y-59048066D01*
X59574804Y-59128707D01*
X59624712Y-59225818D01*
X59752677Y-59387270D01*
X59757370Y-59391264D01*
X59757371Y-59391265D01*
X59850537Y-59470556D01*
X59889450Y-59529939D01*
X59890081Y-59600933D01*
X59857969Y-59655605D01*
X59120485Y-60393089D01*
X59112382Y-60400515D01*
X59083506Y-60424745D01*
X59077993Y-60434294D01*
X59064661Y-60457385D01*
X59058755Y-60466656D01*
X59037146Y-60497516D01*
X59034291Y-60508169D01*
X59032819Y-60511327D01*
X59031626Y-60514605D01*
X59026112Y-60524155D01*
X59025373Y-60528344D01*
X58985753Y-60582154D01*
X58919431Y-60607491D01*
X58849940Y-60592950D01*
X58811804Y-60561523D01*
X58724906Y-60454975D01*
X58724903Y-60454972D01*
X58721011Y-60450200D01*
X58701784Y-60434294D01*
X58567025Y-60322811D01*
X58567021Y-60322809D01*
X58562275Y-60318882D01*
X58381055Y-60220897D01*
X58184254Y-60159977D01*
X58178129Y-60159333D01*
X58178128Y-60159333D01*
X57985498Y-60139087D01*
X57985496Y-60139087D01*
X57979369Y-60138443D01*
X57894263Y-60146188D01*
X57780342Y-60156555D01*
X57780339Y-60156556D01*
X57774203Y-60157114D01*
X57576572Y-60215280D01*
X57394002Y-60310726D01*
X57389201Y-60314586D01*
X57389198Y-60314588D01*
X57252190Y-60424745D01*
X57233447Y-60439815D01*
X57101024Y-60597630D01*
X57098056Y-60603028D01*
X57098053Y-60603033D01*
X57071456Y-60651414D01*
X57001776Y-60778162D01*
X56939484Y-60974532D01*
X56938798Y-60980649D01*
X56938797Y-60980653D01*
X56933609Y-61026910D01*
X56916520Y-61179262D01*
X56933759Y-61384553D01*
X56990544Y-61582586D01*
X56993359Y-61588063D01*
X56993360Y-61588066D01*
X57072756Y-61742554D01*
X57084712Y-61765818D01*
X57212677Y-61927270D01*
X57217370Y-61931264D01*
X57217371Y-61931265D01*
X57307938Y-62008343D01*
X57369564Y-62060791D01*
X57549398Y-62161297D01*
X57644238Y-62192113D01*
X57739471Y-62223056D01*
X57739475Y-62223057D01*
X57745329Y-62224959D01*
X57949894Y-62249351D01*
X57956029Y-62248879D01*
X57956031Y-62248879D01*
X58012039Y-62244569D01*
X58155300Y-62233546D01*
X58161230Y-62231890D01*
X58161232Y-62231890D01*
X58347797Y-62179800D01*
X58347796Y-62179800D01*
X58353725Y-62178145D01*
X58359214Y-62175372D01*
X58359220Y-62175370D01*
X58506860Y-62100791D01*
X58537610Y-62085258D01*
X58699951Y-61958424D01*
X58734437Y-61918472D01*
X58789818Y-61854311D01*
X58849471Y-61815814D01*
X58920467Y-61815678D01*
X58980267Y-61853948D01*
X59009883Y-61918472D01*
X59011200Y-61936642D01*
X59011200Y-63163784D01*
X58991198Y-63231905D01*
X58974295Y-63252879D01*
X56578485Y-65648689D01*
X56570381Y-65656116D01*
X56541506Y-65680345D01*
X56535993Y-65689894D01*
X56522661Y-65712985D01*
X56516755Y-65722256D01*
X56495146Y-65753116D01*
X56492292Y-65763766D01*
X56490815Y-65766934D01*
X56489623Y-65770210D01*
X56484112Y-65779755D01*
X56480971Y-65797572D01*
X56477570Y-65816858D01*
X56475192Y-65827585D01*
X56465436Y-65863993D01*
X56466397Y-65874978D01*
X56466397Y-65874980D01*
X56468720Y-65901528D01*
X56469200Y-65912510D01*
X56469200Y-67621857D01*
X56449198Y-67689978D01*
X56395542Y-67736471D01*
X56325268Y-67746575D01*
X56310179Y-67742435D01*
X56308231Y-67741133D01*
X56298064Y-67739111D01*
X56298058Y-67739109D01*
X56255816Y-67730707D01*
X56249748Y-67729500D01*
X54510252Y-67729500D01*
X54504184Y-67730707D01*
X54463939Y-67738712D01*
X54463938Y-67738712D01*
X54451769Y-67741133D01*
X54385448Y-67785448D01*
X54341133Y-67851769D01*
X54329500Y-67910252D01*
X54329500Y-69649748D01*
X54341133Y-69708231D01*
X54385448Y-69774552D01*
X54451769Y-69818867D01*
X54463938Y-69821288D01*
X54463939Y-69821288D01*
X54504184Y-69829293D01*
X54510252Y-69830500D01*
X56249748Y-69830500D01*
X56308231Y-69818867D01*
X56318548Y-69811973D01*
X56319227Y-69811692D01*
X56389817Y-69804104D01*
X56453303Y-69835885D01*
X56483282Y-69881139D01*
X56484112Y-69885845D01*
X56489626Y-69895395D01*
X56490819Y-69898673D01*
X56492291Y-69901831D01*
X56495146Y-69912484D01*
X56501470Y-69921515D01*
X56516755Y-69943344D01*
X56522661Y-69952615D01*
X56535993Y-69975706D01*
X56541506Y-69985255D01*
X56549951Y-69992341D01*
X56570382Y-70009485D01*
X56578485Y-70016911D01*
X56972489Y-70410915D01*
X56979916Y-70419019D01*
X57004145Y-70447894D01*
X57013694Y-70453407D01*
X57036785Y-70466739D01*
X57046056Y-70472645D01*
X57076916Y-70494254D01*
X57087567Y-70497108D01*
X57092047Y-70499197D01*
X57101788Y-70504268D01*
X57103555Y-70505288D01*
X57103556Y-70505288D01*
X57101483Y-70508878D01*
X57141514Y-70538348D01*
X57166856Y-70604667D01*
X57152320Y-70674160D01*
X57137776Y-70695650D01*
X57090480Y-70752016D01*
X57087516Y-70757408D01*
X57087513Y-70757412D01*
X57009804Y-70898765D01*
X56995956Y-70923954D01*
X56936628Y-71110978D01*
X56914757Y-71305963D01*
X56931175Y-71501483D01*
X56985258Y-71690091D01*
X56999109Y-71717043D01*
X57072123Y-71859113D01*
X57072126Y-71859117D01*
X57074944Y-71864601D01*
X57196818Y-72018369D01*
X57201511Y-72022363D01*
X57201512Y-72022364D01*
X57324963Y-72127429D01*
X57363876Y-72186812D01*
X57364507Y-72257806D01*
X57332395Y-72312478D01*
X56407148Y-73237725D01*
X56344836Y-73271751D01*
X56274021Y-73266686D01*
X56220410Y-73228266D01*
X56132906Y-73120975D01*
X56132903Y-73120972D01*
X56129011Y-73116200D01*
X56111786Y-73101950D01*
X55975025Y-72988811D01*
X55975021Y-72988809D01*
X55970275Y-72984882D01*
X55789055Y-72886897D01*
X55592254Y-72825977D01*
X55586129Y-72825333D01*
X55586128Y-72825333D01*
X55393498Y-72805087D01*
X55393496Y-72805087D01*
X55387369Y-72804443D01*
X55300529Y-72812346D01*
X55188342Y-72822555D01*
X55188339Y-72822556D01*
X55182203Y-72823114D01*
X54984572Y-72881280D01*
X54802002Y-72976726D01*
X54797201Y-72980586D01*
X54797198Y-72980588D01*
X54646254Y-73101950D01*
X54641447Y-73105815D01*
X54509024Y-73263630D01*
X54506056Y-73269028D01*
X54506053Y-73269033D01*
X54468444Y-73337445D01*
X54409776Y-73444162D01*
X54347484Y-73640532D01*
X54346798Y-73646649D01*
X54346797Y-73646653D01*
X54343095Y-73679658D01*
X54324520Y-73845262D01*
X54341759Y-74050553D01*
X54343458Y-74056478D01*
X54393241Y-74230091D01*
X54398544Y-74248586D01*
X54401359Y-74254063D01*
X54401360Y-74254066D01*
X54422247Y-74294707D01*
X54492712Y-74431818D01*
X54620677Y-74593270D01*
X54625370Y-74597264D01*
X54625371Y-74597265D01*
X54718591Y-74676602D01*
X54757504Y-74735985D01*
X54758135Y-74806979D01*
X54726023Y-74861651D01*
X51926485Y-77661189D01*
X51918381Y-77668616D01*
X51889506Y-77692845D01*
X51883993Y-77702394D01*
X51870661Y-77725485D01*
X51864755Y-77734756D01*
X51843146Y-77765616D01*
X51840292Y-77776266D01*
X51838815Y-77779434D01*
X51837623Y-77782710D01*
X51832112Y-77792255D01*
X51826162Y-77825999D01*
X51825570Y-77829358D01*
X51823192Y-77840085D01*
X51813436Y-77876493D01*
X51814397Y-77887478D01*
X51814397Y-77887480D01*
X51816720Y-77914028D01*
X51817200Y-77925010D01*
X51817200Y-105374290D01*
X51816720Y-105385272D01*
X51814627Y-105409198D01*
X51813436Y-105422807D01*
X51435000Y-105422807D01*
X51435000Y-71305262D01*
X54324520Y-71305262D01*
X54341759Y-71510553D01*
X54343458Y-71516478D01*
X54393241Y-71690091D01*
X54398544Y-71708586D01*
X54401359Y-71714063D01*
X54401360Y-71714066D01*
X54478724Y-71864601D01*
X54492712Y-71891818D01*
X54620677Y-72053270D01*
X54625370Y-72057264D01*
X54625371Y-72057265D01*
X54759729Y-72171612D01*
X54777564Y-72186791D01*
X54782942Y-72189797D01*
X54782944Y-72189798D01*
X54814563Y-72207469D01*
X54957398Y-72287297D01*
X55022377Y-72308410D01*
X55147471Y-72349056D01*
X55147475Y-72349057D01*
X55153329Y-72350959D01*
X55357894Y-72375351D01*
X55364029Y-72374879D01*
X55364031Y-72374879D01*
X55420039Y-72370569D01*
X55563300Y-72359546D01*
X55569230Y-72357890D01*
X55569232Y-72357890D01*
X55755797Y-72305800D01*
X55755796Y-72305800D01*
X55761725Y-72304145D01*
X55767214Y-72301372D01*
X55767220Y-72301370D01*
X55940116Y-72214033D01*
X55945610Y-72211258D01*
X55961418Y-72198908D01*
X56052907Y-72127429D01*
X56107951Y-72084424D01*
X56131613Y-72057012D01*
X56238540Y-71933134D01*
X56238540Y-71933133D01*
X56242564Y-71928472D01*
X56263387Y-71891818D01*
X56341276Y-71754707D01*
X56344323Y-71749344D01*
X56409351Y-71553863D01*
X56435171Y-71349474D01*
X56435401Y-71332986D01*
X56435534Y-71323522D01*
X56435534Y-71323518D01*
X56435583Y-71320000D01*
X56415480Y-71114970D01*
X56355935Y-70917749D01*
X56259218Y-70735849D01*
X56161778Y-70616376D01*
X56132906Y-70580975D01*
X56132903Y-70580972D01*
X56129011Y-70576200D01*
X56061319Y-70520200D01*
X55975025Y-70448811D01*
X55975021Y-70448809D01*
X55970275Y-70444882D01*
X55789055Y-70346897D01*
X55592254Y-70285977D01*
X55586129Y-70285333D01*
X55586128Y-70285333D01*
X55393498Y-70265087D01*
X55393496Y-70265087D01*
X55387369Y-70264443D01*
X55300529Y-70272346D01*
X55188342Y-70282555D01*
X55188339Y-70282556D01*
X55182203Y-70283114D01*
X54984572Y-70341280D01*
X54802002Y-70436726D01*
X54797201Y-70440586D01*
X54797198Y-70440588D01*
X54708868Y-70511607D01*
X54641447Y-70565815D01*
X54509024Y-70723630D01*
X54506056Y-70729028D01*
X54506053Y-70729033D01*
X54412743Y-70898765D01*
X54409776Y-70904162D01*
X54347484Y-71100532D01*
X54346798Y-71106649D01*
X54346797Y-71106653D01*
X54344770Y-71124728D01*
X54324520Y-71305262D01*
X51435000Y-71305262D01*
X51435000Y-58639262D01*
X56916520Y-58639262D01*
X56933759Y-58844553D01*
X56990544Y-59042586D01*
X56993359Y-59048063D01*
X56993360Y-59048066D01*
X57034804Y-59128707D01*
X57084712Y-59225818D01*
X57212677Y-59387270D01*
X57217370Y-59391264D01*
X57217371Y-59391265D01*
X57306588Y-59467194D01*
X57369564Y-59520791D01*
X57549398Y-59621297D01*
X57644238Y-59652113D01*
X57739471Y-59683056D01*
X57739475Y-59683057D01*
X57745329Y-59684959D01*
X57949894Y-59709351D01*
X57956029Y-59708879D01*
X57956031Y-59708879D01*
X58028625Y-59703293D01*
X58155300Y-59693546D01*
X58161230Y-59691890D01*
X58161232Y-59691890D01*
X58347797Y-59639800D01*
X58347796Y-59639800D01*
X58353725Y-59638145D01*
X58359214Y-59635372D01*
X58359220Y-59635370D01*
X58500907Y-59563798D01*
X58537610Y-59545258D01*
X58699951Y-59418424D01*
X58827509Y-59270646D01*
X58830540Y-59267134D01*
X58830540Y-59267133D01*
X58834564Y-59262472D01*
X58855387Y-59225818D01*
X58913600Y-59123344D01*
X58936323Y-59083344D01*
X59001351Y-58887863D01*
X59027171Y-58683474D01*
X59027583Y-58654000D01*
X59007480Y-58448970D01*
X58947935Y-58251749D01*
X58851218Y-58069849D01*
X58749021Y-57944543D01*
X58724906Y-57914975D01*
X58724903Y-57914972D01*
X58721011Y-57910200D01*
X58683414Y-57879097D01*
X58567025Y-57782811D01*
X58567021Y-57782809D01*
X58562275Y-57778882D01*
X58381055Y-57680897D01*
X58184254Y-57619977D01*
X58178129Y-57619333D01*
X58178128Y-57619333D01*
X57985498Y-57599087D01*
X57985496Y-57599087D01*
X57979369Y-57598443D01*
X57892529Y-57606346D01*
X57780342Y-57616555D01*
X57780339Y-57616556D01*
X57774203Y-57617114D01*
X57576572Y-57675280D01*
X57394002Y-57770726D01*
X57389201Y-57774586D01*
X57389198Y-57774588D01*
X57278723Y-57863412D01*
X57233447Y-57899815D01*
X57101024Y-58057630D01*
X57098056Y-58063028D01*
X57098053Y-58063033D01*
X57071789Y-58110808D01*
X57001776Y-58238162D01*
X56939484Y-58434532D01*
X56938798Y-58440649D01*
X56938797Y-58440653D01*
X56932975Y-58492558D01*
X56916520Y-58639262D01*
X51435000Y-58639262D01*
X51435000Y-52196000D01*
X51455002Y-52127879D01*
X51508658Y-52081386D01*
X51561000Y-52070000D01*
X86234000Y-52070000D01*
X86302121Y-52090002D01*
G37*
G04 #@! TD.AperFunction*
G04 #@! TA.AperFunction,Conductor*
G36*
X76962730Y-81487956D02*
G01*
X83160471Y-87685697D01*
X83194497Y-87748009D01*
X83189432Y-87818824D01*
X83146885Y-87875660D01*
X83080365Y-87900471D01*
X83024686Y-87891822D01*
X82882801Y-87835216D01*
X82871773Y-87831949D01*
X82683382Y-87794476D01*
X82671935Y-87793273D01*
X82479877Y-87790759D01*
X82468397Y-87791662D01*
X82279097Y-87824190D01*
X82267977Y-87827170D01*
X82087765Y-87893653D01*
X82077391Y-87898601D01*
X81993785Y-87948342D01*
X81984188Y-87958675D01*
X81987675Y-87967065D01*
X82831515Y-88810905D01*
X82865541Y-88873217D01*
X82860476Y-88944032D01*
X82831515Y-88989095D01*
X82561400Y-89259210D01*
X81990663Y-89829948D01*
X81984467Y-89841294D01*
X81994349Y-89853784D01*
X82025639Y-89874691D01*
X82035749Y-89880181D01*
X82212235Y-89956005D01*
X82223178Y-89959560D01*
X82410520Y-90001952D01*
X82421930Y-90003454D01*
X82613869Y-90010995D01*
X82625351Y-90010393D01*
X82815445Y-89982832D01*
X82826640Y-89980144D01*
X83008527Y-89918401D01*
X83020350Y-89913137D01*
X83090717Y-89903702D01*
X83155014Y-89933807D01*
X83192828Y-89993896D01*
X83197600Y-90028243D01*
X83197600Y-91249884D01*
X83177598Y-91318005D01*
X83160695Y-91338979D01*
X77187219Y-97312455D01*
X77124907Y-97346481D01*
X77054092Y-97341416D01*
X76997256Y-97298869D01*
X76972445Y-97232349D01*
X76977566Y-97186731D01*
X77030377Y-97012910D01*
X77032555Y-97002837D01*
X77033986Y-96991962D01*
X77031775Y-96977778D01*
X77018617Y-96974000D01*
X75572000Y-96974000D01*
X75503879Y-96953998D01*
X75457386Y-96900342D01*
X75446000Y-96848000D01*
X75446000Y-96592000D01*
X75466002Y-96523879D01*
X75519658Y-96477386D01*
X75572000Y-96466000D01*
X77018344Y-96466000D01*
X77031875Y-96462027D01*
X77033180Y-96452947D01*
X76991214Y-96285875D01*
X76987894Y-96276124D01*
X76902972Y-96080814D01*
X76898105Y-96071739D01*
X76782426Y-95892926D01*
X76776136Y-95884757D01*
X76632806Y-95727240D01*
X76625273Y-95720215D01*
X76458139Y-95588222D01*
X76449552Y-95582517D01*
X76263117Y-95479599D01*
X76253705Y-95475369D01*
X76062031Y-95407493D01*
X76004495Y-95365899D01*
X75978579Y-95299801D01*
X75992513Y-95230185D01*
X76041872Y-95179154D01*
X76070206Y-95167362D01*
X76075790Y-95165803D01*
X76075799Y-95165800D01*
X76081725Y-95164145D01*
X76087214Y-95161372D01*
X76087220Y-95161370D01*
X76219952Y-95094322D01*
X76265610Y-95071258D01*
X76324757Y-95025048D01*
X76423101Y-94948213D01*
X76427951Y-94944424D01*
X76481520Y-94882364D01*
X76558540Y-94793134D01*
X76558540Y-94793133D01*
X76562564Y-94788472D01*
X76583387Y-94751818D01*
X76661276Y-94614707D01*
X76664323Y-94609344D01*
X76729351Y-94413863D01*
X76755171Y-94209474D01*
X76755583Y-94180000D01*
X76735480Y-93974970D01*
X76675935Y-93777749D01*
X76674312Y-93774696D01*
X76666944Y-93705024D01*
X76701808Y-93638518D01*
X78058815Y-92281511D01*
X78066919Y-92274084D01*
X78087349Y-92256941D01*
X78095794Y-92249855D01*
X78108011Y-92228694D01*
X78114639Y-92217215D01*
X78120545Y-92207944D01*
X78126235Y-92199818D01*
X78142154Y-92177084D01*
X78145008Y-92166434D01*
X78146485Y-92163266D01*
X78147677Y-92159990D01*
X78153188Y-92150445D01*
X78159730Y-92113342D01*
X78162109Y-92102610D01*
X78171864Y-92066207D01*
X78169839Y-92043056D01*
X78168580Y-92028672D01*
X78168100Y-92017690D01*
X78168100Y-89519748D01*
X79760900Y-89519748D01*
X79772533Y-89578231D01*
X79816848Y-89644552D01*
X79883169Y-89688867D01*
X79895338Y-89691288D01*
X79895339Y-89691288D01*
X79935584Y-89699293D01*
X79941652Y-89700500D01*
X81181148Y-89700500D01*
X81187216Y-89699293D01*
X81227461Y-89691288D01*
X81227462Y-89691288D01*
X81239631Y-89688867D01*
X81305952Y-89644552D01*
X81350267Y-89578231D01*
X81361900Y-89519748D01*
X81361900Y-89513561D01*
X81362507Y-89507398D01*
X81364680Y-89507612D01*
X81381902Y-89448959D01*
X81435558Y-89402466D01*
X81505832Y-89392362D01*
X81570412Y-89421856D01*
X81597020Y-89454081D01*
X81601067Y-89461090D01*
X81607188Y-89469751D01*
X81617777Y-89478140D01*
X81631076Y-89471113D01*
X82189379Y-88912811D01*
X82196992Y-88898868D01*
X82196861Y-88897034D01*
X82192610Y-88890420D01*
X81629938Y-88327749D01*
X81617563Y-88320992D01*
X81611596Y-88325459D01*
X81599408Y-88348624D01*
X81549989Y-88399596D01*
X81480856Y-88415759D01*
X81413960Y-88391980D01*
X81370540Y-88335809D01*
X81361900Y-88289956D01*
X81361900Y-88280252D01*
X81357626Y-88258767D01*
X81352688Y-88233939D01*
X81352688Y-88233938D01*
X81350267Y-88221769D01*
X81305952Y-88155448D01*
X81239631Y-88111133D01*
X81227462Y-88108712D01*
X81227461Y-88108712D01*
X81187216Y-88100707D01*
X81181148Y-88099500D01*
X79941652Y-88099500D01*
X79935584Y-88100707D01*
X79895339Y-88108712D01*
X79895338Y-88108712D01*
X79883169Y-88111133D01*
X79816848Y-88155448D01*
X79772533Y-88221769D01*
X79770112Y-88233938D01*
X79770112Y-88233939D01*
X79765174Y-88258767D01*
X79760900Y-88280252D01*
X79760900Y-89519748D01*
X78168100Y-89519748D01*
X78168100Y-87054210D01*
X78168580Y-87043228D01*
X78170903Y-87016680D01*
X78170903Y-87016678D01*
X78171864Y-87005693D01*
X78162108Y-86969285D01*
X78159730Y-86958558D01*
X78158333Y-86950638D01*
X78153188Y-86921455D01*
X78147677Y-86911910D01*
X78146485Y-86908634D01*
X78145008Y-86905466D01*
X78142154Y-86894816D01*
X78120545Y-86863956D01*
X78114639Y-86854685D01*
X78101307Y-86831594D01*
X78095794Y-86822045D01*
X78066917Y-86797815D01*
X78058815Y-86790389D01*
X76411211Y-85142785D01*
X76403784Y-85134681D01*
X76386641Y-85114251D01*
X76386642Y-85114251D01*
X76379555Y-85105806D01*
X76370006Y-85100293D01*
X76346915Y-85086961D01*
X76337644Y-85081055D01*
X76324528Y-85071871D01*
X76280200Y-85016414D01*
X76272891Y-84945794D01*
X76304922Y-84882434D01*
X76319220Y-84869374D01*
X76427951Y-84784424D01*
X76481520Y-84722364D01*
X76558540Y-84633134D01*
X76558540Y-84633133D01*
X76562564Y-84628472D01*
X76583387Y-84591818D01*
X76649102Y-84476138D01*
X76664323Y-84449344D01*
X76729351Y-84253863D01*
X76755171Y-84049474D01*
X76755583Y-84020000D01*
X76735480Y-83814970D01*
X76675935Y-83617749D01*
X76579218Y-83435849D01*
X76505859Y-83345902D01*
X76452906Y-83280975D01*
X76452903Y-83280972D01*
X76449011Y-83276200D01*
X76423512Y-83255105D01*
X76295025Y-83148811D01*
X76295021Y-83148809D01*
X76290275Y-83144882D01*
X76109055Y-83046897D01*
X75912254Y-82985977D01*
X75906129Y-82985333D01*
X75906128Y-82985333D01*
X75713498Y-82965087D01*
X75713496Y-82965087D01*
X75707369Y-82964443D01*
X75620529Y-82972346D01*
X75508342Y-82982555D01*
X75508339Y-82982556D01*
X75502203Y-82983114D01*
X75304572Y-83041280D01*
X75122002Y-83136726D01*
X75117201Y-83140586D01*
X75117198Y-83140588D01*
X74966254Y-83261950D01*
X74961447Y-83265815D01*
X74948010Y-83281829D01*
X74845108Y-83404462D01*
X74785999Y-83443789D01*
X74715011Y-83444915D01*
X74659492Y-83412566D01*
X73923411Y-82676485D01*
X73915984Y-82668381D01*
X73909437Y-82660579D01*
X73891755Y-82639506D01*
X73882206Y-82633993D01*
X73859115Y-82620661D01*
X73849844Y-82614755D01*
X73828015Y-82599470D01*
X73818984Y-82593146D01*
X73808334Y-82590292D01*
X73805166Y-82588815D01*
X73801890Y-82587623D01*
X73792345Y-82582112D01*
X73758601Y-82576162D01*
X73755242Y-82575570D01*
X73744512Y-82573191D01*
X73729244Y-82569100D01*
X73717214Y-82565876D01*
X73656592Y-82528926D01*
X73625570Y-82465065D01*
X73633998Y-82394571D01*
X73679200Y-82339824D01*
X73693009Y-82331707D01*
X73693189Y-82331616D01*
X73693195Y-82331612D01*
X73698689Y-82328837D01*
X73724670Y-82308539D01*
X73848453Y-82211829D01*
X73853303Y-82208040D01*
X73883084Y-82173539D01*
X73977485Y-82064173D01*
X73977485Y-82064172D01*
X73981509Y-82059511D01*
X74078425Y-81888909D01*
X74085859Y-81866562D01*
X74112073Y-81787761D01*
X74152555Y-81729436D01*
X74218143Y-81702257D01*
X74288013Y-81714852D01*
X74307703Y-81727782D01*
X74312245Y-81733194D01*
X74327743Y-81742142D01*
X74345733Y-81754739D01*
X74359439Y-81766240D01*
X74369792Y-81770008D01*
X74369797Y-81770011D01*
X74376260Y-81772363D01*
X74396162Y-81781643D01*
X74411655Y-81790588D01*
X74422509Y-81792502D01*
X74422515Y-81792504D01*
X74429276Y-81793696D01*
X74450484Y-81799378D01*
X74456008Y-81801388D01*
X74467306Y-81805500D01*
X74609211Y-81805500D01*
X74677332Y-81825502D01*
X74721278Y-81873906D01*
X74749670Y-81929150D01*
X74812712Y-82051818D01*
X74940677Y-82213270D01*
X74945370Y-82217264D01*
X74945371Y-82217265D01*
X75083838Y-82335109D01*
X75097564Y-82346791D01*
X75102942Y-82349797D01*
X75102944Y-82349798D01*
X75134563Y-82367469D01*
X75277398Y-82447297D01*
X75347480Y-82470068D01*
X75467471Y-82509056D01*
X75467475Y-82509057D01*
X75473329Y-82510959D01*
X75677894Y-82535351D01*
X75684029Y-82534879D01*
X75684031Y-82534879D01*
X75749542Y-82529838D01*
X75883300Y-82519546D01*
X75889230Y-82517890D01*
X75889232Y-82517890D01*
X76075797Y-82465800D01*
X76075796Y-82465800D01*
X76081725Y-82464145D01*
X76087214Y-82461372D01*
X76087220Y-82461370D01*
X76242990Y-82382684D01*
X76265610Y-82371258D01*
X76324757Y-82325048D01*
X76354843Y-82301542D01*
X76427951Y-82244424D01*
X76481520Y-82182364D01*
X76558540Y-82093134D01*
X76558540Y-82093133D01*
X76562564Y-82088472D01*
X76583387Y-82051818D01*
X76619974Y-81987412D01*
X76664323Y-81909344D01*
X76729351Y-81713863D01*
X76748629Y-81561259D01*
X76777010Y-81496183D01*
X76836070Y-81456781D01*
X76907056Y-81455564D01*
X76962730Y-81487956D01*
G37*
G04 #@! TD.AperFunction*
G04 #@! TA.AperFunction,Conductor*
G36*
X67074544Y-55565775D02*
G01*
X67106811Y-55589137D01*
X68906079Y-57388405D01*
X68940105Y-57450717D01*
X68935040Y-57521532D01*
X68892493Y-57578368D01*
X68825973Y-57603179D01*
X68816984Y-57603500D01*
X67262252Y-57603500D01*
X67256184Y-57604707D01*
X67215939Y-57612712D01*
X67215938Y-57612712D01*
X67203769Y-57615133D01*
X67137448Y-57659448D01*
X67093133Y-57725769D01*
X67081500Y-57784252D01*
X67081500Y-59523748D01*
X67082707Y-59529816D01*
X67087879Y-59555815D01*
X67093133Y-59582231D01*
X67137448Y-59648552D01*
X67203769Y-59692867D01*
X67215938Y-59695288D01*
X67215939Y-59695288D01*
X67256184Y-59703293D01*
X67262252Y-59704500D01*
X69001748Y-59704500D01*
X69007816Y-59703293D01*
X69048061Y-59695288D01*
X69048062Y-59695288D01*
X69060231Y-59692867D01*
X69126552Y-59648552D01*
X69170867Y-59582231D01*
X69176122Y-59555815D01*
X69181293Y-59529816D01*
X69182500Y-59523748D01*
X69182500Y-57784252D01*
X69184954Y-57784252D01*
X69196175Y-57725126D01*
X69245022Y-57673605D01*
X69297351Y-57657023D01*
X69316143Y-57655379D01*
X69327124Y-57654900D01*
X72410013Y-57654900D01*
X72478134Y-57674902D01*
X72524627Y-57728558D01*
X72534731Y-57798832D01*
X72505237Y-57863412D01*
X72488965Y-57879097D01*
X72413447Y-57939815D01*
X72281024Y-58097630D01*
X72278056Y-58103028D01*
X72278053Y-58103033D01*
X72273779Y-58110808D01*
X72181776Y-58278162D01*
X72119484Y-58474532D01*
X72118798Y-58480649D01*
X72118797Y-58480653D01*
X72097207Y-58673137D01*
X72096520Y-58679262D01*
X72097036Y-58685406D01*
X72110898Y-58850478D01*
X72113759Y-58884553D01*
X72115458Y-58890478D01*
X72165710Y-59065727D01*
X72170544Y-59082586D01*
X72173359Y-59088063D01*
X72173360Y-59088066D01*
X72194247Y-59128707D01*
X72264712Y-59265818D01*
X72392677Y-59427270D01*
X72397370Y-59431264D01*
X72397371Y-59431265D01*
X72534576Y-59548035D01*
X72549564Y-59560791D01*
X72554942Y-59563797D01*
X72554944Y-59563798D01*
X72636160Y-59609188D01*
X72729398Y-59661297D01*
X72735255Y-59663200D01*
X72739441Y-59664560D01*
X72798045Y-59704636D01*
X72825679Y-59770034D01*
X72826500Y-59784392D01*
X72826500Y-59926694D01*
X72832197Y-59942345D01*
X72832621Y-59943510D01*
X72838305Y-59964724D01*
X72841412Y-59982345D01*
X72850360Y-59997844D01*
X72859639Y-60017743D01*
X72865760Y-60034560D01*
X72872847Y-60043006D01*
X72878357Y-60052550D01*
X72875783Y-60054036D01*
X72897358Y-60103332D01*
X72886142Y-60173437D01*
X72838804Y-60226349D01*
X72807948Y-60240158D01*
X72762491Y-60253537D01*
X72762482Y-60253540D01*
X72756572Y-60255280D01*
X72574002Y-60350726D01*
X72569201Y-60354586D01*
X72569198Y-60354588D01*
X72418254Y-60475950D01*
X72413447Y-60479815D01*
X72281024Y-60637630D01*
X72278056Y-60643028D01*
X72278053Y-60643033D01*
X72273446Y-60651414D01*
X72181776Y-60818162D01*
X72119484Y-61014532D01*
X72118798Y-61020649D01*
X72118797Y-61020653D01*
X72097207Y-61213137D01*
X72096520Y-61219262D01*
X72097036Y-61225406D01*
X72110898Y-61390478D01*
X72113759Y-61424553D01*
X72115458Y-61430478D01*
X72160646Y-61588066D01*
X72170544Y-61622586D01*
X72173359Y-61628063D01*
X72173360Y-61628066D01*
X72194247Y-61668707D01*
X72264712Y-61805818D01*
X72392677Y-61967270D01*
X72397370Y-61971264D01*
X72397371Y-61971265D01*
X72526861Y-62081469D01*
X72549564Y-62100791D01*
X72729398Y-62201297D01*
X72796365Y-62223056D01*
X72919471Y-62263056D01*
X72919475Y-62263057D01*
X72925329Y-62264959D01*
X73129894Y-62289351D01*
X73136029Y-62288879D01*
X73136031Y-62288879D01*
X73192039Y-62284569D01*
X73335300Y-62273546D01*
X73341230Y-62271890D01*
X73341232Y-62271890D01*
X73476874Y-62234018D01*
X73533725Y-62218145D01*
X73539214Y-62215372D01*
X73539220Y-62215370D01*
X73712116Y-62128033D01*
X73717610Y-62125258D01*
X73879951Y-61998424D01*
X73911208Y-61962213D01*
X74010540Y-61847134D01*
X74010540Y-61847133D01*
X74014564Y-61842472D01*
X74027568Y-61819582D01*
X74113276Y-61668707D01*
X74116323Y-61663344D01*
X74181351Y-61467863D01*
X74191127Y-61390478D01*
X74202525Y-61300255D01*
X74230907Y-61235178D01*
X74289966Y-61195777D01*
X74360953Y-61194560D01*
X74416626Y-61226952D01*
X79102183Y-65912510D01*
X83784995Y-70595322D01*
X83819021Y-70657634D01*
X83821900Y-70684417D01*
X83821900Y-81283866D01*
X83801898Y-81351987D01*
X83748242Y-81398480D01*
X83677968Y-81408584D01*
X83642650Y-81398061D01*
X83472053Y-81318510D01*
X83461761Y-81314764D01*
X83251312Y-81258375D01*
X83240519Y-81256472D01*
X83023475Y-81237483D01*
X83012525Y-81237483D01*
X82795481Y-81256472D01*
X82784688Y-81258375D01*
X82574239Y-81314764D01*
X82563947Y-81318510D01*
X82366489Y-81410586D01*
X82356994Y-81416069D01*
X82304952Y-81452509D01*
X82296576Y-81462988D01*
X82303644Y-81476434D01*
X83288115Y-82460905D01*
X83322141Y-82523217D01*
X83317076Y-82594032D01*
X83288115Y-82639095D01*
X82302923Y-83624287D01*
X82296493Y-83636062D01*
X82305789Y-83648077D01*
X82356994Y-83683931D01*
X82366489Y-83689414D01*
X82563947Y-83781490D01*
X82574239Y-83785236D01*
X82784688Y-83841625D01*
X82795481Y-83843528D01*
X83012525Y-83862517D01*
X83023475Y-83862517D01*
X83240519Y-83843528D01*
X83251312Y-83841625D01*
X83461761Y-83785236D01*
X83472053Y-83781490D01*
X83642650Y-83701939D01*
X83712842Y-83691278D01*
X83777654Y-83720258D01*
X83816511Y-83779678D01*
X83821900Y-83816134D01*
X83821900Y-87122284D01*
X83801898Y-87190405D01*
X83748242Y-87236898D01*
X83677968Y-87247002D01*
X83613388Y-87217508D01*
X83606805Y-87211379D01*
X80118028Y-83722602D01*
X80084002Y-83660290D01*
X80089067Y-83589475D01*
X80131614Y-83532639D01*
X80198134Y-83507828D01*
X80246057Y-83513674D01*
X80302118Y-83531889D01*
X80496946Y-83555121D01*
X80503081Y-83554649D01*
X80503083Y-83554649D01*
X80686434Y-83540541D01*
X80686438Y-83540540D01*
X80692576Y-83540068D01*
X80881556Y-83487303D01*
X81056689Y-83398837D01*
X81086515Y-83375535D01*
X81181005Y-83301711D01*
X81211303Y-83278040D01*
X81217775Y-83270543D01*
X81335485Y-83134173D01*
X81335485Y-83134172D01*
X81339509Y-83129511D01*
X81436425Y-82958909D01*
X81456643Y-82898133D01*
X81490513Y-82796316D01*
X81530995Y-82737991D01*
X81596583Y-82710812D01*
X81666453Y-82723407D01*
X81718423Y-82771777D01*
X81731778Y-82803477D01*
X81782764Y-82993761D01*
X81786510Y-83004053D01*
X81878586Y-83201511D01*
X81884069Y-83211006D01*
X81920509Y-83263048D01*
X81930988Y-83271424D01*
X81944434Y-83264356D01*
X82645978Y-82562812D01*
X82653592Y-82548868D01*
X82653461Y-82547035D01*
X82649210Y-82540420D01*
X81943713Y-81834923D01*
X81931938Y-81828493D01*
X81919923Y-81837789D01*
X81884069Y-81888994D01*
X81878586Y-81898489D01*
X81786510Y-82095947D01*
X81782764Y-82106239D01*
X81730989Y-82299468D01*
X81694037Y-82360091D01*
X81630177Y-82391112D01*
X81559682Y-82382684D01*
X81504935Y-82337481D01*
X81488660Y-82303275D01*
X81461486Y-82213270D01*
X81447484Y-82166894D01*
X81355370Y-81993653D01*
X81231361Y-81841602D01*
X81080180Y-81716535D01*
X80907585Y-81623213D01*
X80810128Y-81593045D01*
X80726039Y-81567015D01*
X80726036Y-81567014D01*
X80720152Y-81565193D01*
X80714027Y-81564549D01*
X80714026Y-81564549D01*
X80531147Y-81545327D01*
X80531146Y-81545327D01*
X80525019Y-81544683D01*
X80402383Y-81555844D01*
X80335759Y-81561907D01*
X80335758Y-81561907D01*
X80329618Y-81562466D01*
X80323704Y-81564207D01*
X80323702Y-81564207D01*
X80225720Y-81593045D01*
X80141393Y-81617864D01*
X80135928Y-81620721D01*
X79972972Y-81705912D01*
X79972968Y-81705915D01*
X79967512Y-81708767D01*
X79962712Y-81712627D01*
X79962711Y-81712627D01*
X79941805Y-81729436D01*
X79814600Y-81831711D01*
X79688480Y-81982016D01*
X79685516Y-81987408D01*
X79685513Y-81987412D01*
X79632901Y-82083114D01*
X79593956Y-82153954D01*
X79592095Y-82159821D01*
X79592094Y-82159823D01*
X79587743Y-82173539D01*
X79534628Y-82340978D01*
X79512757Y-82535963D01*
X79529175Y-82731483D01*
X79541003Y-82772732D01*
X79556604Y-82827138D01*
X79556154Y-82898133D01*
X79517392Y-82957615D01*
X79452625Y-82986698D01*
X79382417Y-82976148D01*
X79346390Y-82950964D01*
X76483811Y-80088385D01*
X76476384Y-80080281D01*
X76467045Y-80069151D01*
X76452155Y-80051406D01*
X76442606Y-80045893D01*
X76419515Y-80032561D01*
X76410244Y-80026655D01*
X76401697Y-80020670D01*
X76379384Y-80005046D01*
X76368731Y-80002191D01*
X76365573Y-80000719D01*
X76363029Y-79999793D01*
X76361822Y-79998904D01*
X76360585Y-79998392D01*
X76359266Y-79997777D01*
X76358764Y-79997487D01*
X76358855Y-79997293D01*
X76354512Y-79995032D01*
X76352745Y-79994012D01*
X76352744Y-79994012D01*
X76353469Y-79992756D01*
X76305852Y-79957706D01*
X76280506Y-79891388D01*
X76295037Y-79821894D01*
X76328535Y-79782097D01*
X76423095Y-79708219D01*
X76423101Y-79708213D01*
X76427951Y-79704424D01*
X76432024Y-79699706D01*
X76558540Y-79553134D01*
X76558540Y-79553133D01*
X76562564Y-79548472D01*
X76585774Y-79507616D01*
X76661276Y-79374707D01*
X76664323Y-79369344D01*
X76729351Y-79173863D01*
X76755171Y-78969474D01*
X76755583Y-78940000D01*
X76735480Y-78734970D01*
X76675935Y-78537749D01*
X76579218Y-78355849D01*
X76481778Y-78236376D01*
X76452906Y-78200975D01*
X76452903Y-78200972D01*
X76449011Y-78196200D01*
X76442173Y-78190543D01*
X76295025Y-78068811D01*
X76295021Y-78068809D01*
X76290275Y-78064882D01*
X76109055Y-77966897D01*
X75912254Y-77905977D01*
X75906129Y-77905333D01*
X75906128Y-77905333D01*
X75713498Y-77885087D01*
X75713496Y-77885087D01*
X75707369Y-77884443D01*
X75622263Y-77892188D01*
X75508342Y-77902555D01*
X75508339Y-77902556D01*
X75502203Y-77903114D01*
X75304572Y-77961280D01*
X75299107Y-77964137D01*
X75283518Y-77972287D01*
X75122002Y-78056726D01*
X75117201Y-78060586D01*
X75117198Y-78060588D01*
X75038787Y-78123632D01*
X74961447Y-78185815D01*
X74829024Y-78343630D01*
X74826053Y-78349033D01*
X74826051Y-78349037D01*
X74823800Y-78353132D01*
X74773457Y-78403193D01*
X74704041Y-78418089D01*
X74637590Y-78393091D01*
X74601997Y-78349153D01*
X74600754Y-78344516D01*
X74579140Y-78313648D01*
X74573236Y-78304379D01*
X74559907Y-78281292D01*
X74559904Y-78281288D01*
X74554394Y-78271745D01*
X74525530Y-78247525D01*
X74517427Y-78240100D01*
X73715304Y-77437978D01*
X73707877Y-77429872D01*
X73696353Y-77416138D01*
X73667889Y-77351098D01*
X73679107Y-77280993D01*
X73715302Y-77235859D01*
X73848447Y-77131835D01*
X73848453Y-77131829D01*
X73853303Y-77128040D01*
X73871684Y-77106746D01*
X73977485Y-76984173D01*
X73977485Y-76984172D01*
X73981509Y-76979511D01*
X74078425Y-76808909D01*
X74105869Y-76726410D01*
X74112073Y-76707761D01*
X74152555Y-76649436D01*
X74218143Y-76622257D01*
X74288013Y-76634852D01*
X74307703Y-76647782D01*
X74312245Y-76653194D01*
X74327743Y-76662142D01*
X74345733Y-76674739D01*
X74359439Y-76686240D01*
X74369792Y-76690008D01*
X74369797Y-76690011D01*
X74376260Y-76692363D01*
X74396162Y-76701643D01*
X74411655Y-76710588D01*
X74422509Y-76712502D01*
X74422515Y-76712504D01*
X74429276Y-76713696D01*
X74450484Y-76719378D01*
X74456008Y-76721388D01*
X74467306Y-76725500D01*
X74609211Y-76725500D01*
X74677332Y-76745502D01*
X74721278Y-76793906D01*
X74795906Y-76939116D01*
X74812712Y-76971818D01*
X74940677Y-77133270D01*
X74945370Y-77137264D01*
X74945371Y-77137265D01*
X75079729Y-77251612D01*
X75097564Y-77266791D01*
X75102942Y-77269797D01*
X75102944Y-77269798D01*
X75122975Y-77280993D01*
X75277398Y-77367297D01*
X75372238Y-77398113D01*
X75467471Y-77429056D01*
X75467475Y-77429057D01*
X75473329Y-77430959D01*
X75677894Y-77455351D01*
X75684029Y-77454879D01*
X75684031Y-77454879D01*
X75740039Y-77450569D01*
X75883300Y-77439546D01*
X75889230Y-77437890D01*
X75889232Y-77437890D01*
X76075797Y-77385800D01*
X76075796Y-77385800D01*
X76081725Y-77384145D01*
X76087214Y-77381372D01*
X76087220Y-77381370D01*
X76247288Y-77300513D01*
X76265610Y-77291258D01*
X76324757Y-77245048D01*
X76361166Y-77216602D01*
X76427951Y-77164424D01*
X76481520Y-77102364D01*
X76558540Y-77013134D01*
X76558540Y-77013133D01*
X76562564Y-77008472D01*
X76583387Y-76971818D01*
X76661276Y-76834707D01*
X76664323Y-76829344D01*
X76729351Y-76633863D01*
X76755171Y-76429474D01*
X76755583Y-76400000D01*
X76735480Y-76194970D01*
X76675935Y-75997749D01*
X76579218Y-75815849D01*
X76481778Y-75696376D01*
X76452906Y-75660975D01*
X76452903Y-75660972D01*
X76449011Y-75656200D01*
X76442168Y-75650539D01*
X76295025Y-75528811D01*
X76295021Y-75528809D01*
X76290275Y-75524882D01*
X76109055Y-75426897D01*
X75912254Y-75365977D01*
X75906129Y-75365333D01*
X75906128Y-75365333D01*
X75713498Y-75345087D01*
X75713496Y-75345087D01*
X75707369Y-75344443D01*
X75622263Y-75352188D01*
X75508342Y-75362555D01*
X75508339Y-75362556D01*
X75502203Y-75363114D01*
X75304572Y-75421280D01*
X75122002Y-75516726D01*
X75117201Y-75520586D01*
X75117198Y-75520588D01*
X74966254Y-75641950D01*
X74961447Y-75645815D01*
X74869303Y-75755628D01*
X74850537Y-75777992D01*
X74791427Y-75817318D01*
X74720440Y-75818444D01*
X74664921Y-75786095D01*
X73957624Y-75078798D01*
X73923598Y-75016486D01*
X73928663Y-74945671D01*
X73974447Y-74886491D01*
X73999468Y-74868970D01*
X74007873Y-74861918D01*
X74161916Y-74707875D01*
X74168972Y-74699467D01*
X74293931Y-74521007D01*
X74299414Y-74511511D01*
X74391490Y-74314053D01*
X74395236Y-74303761D01*
X74441462Y-74131241D01*
X74478414Y-74070618D01*
X74542274Y-74039597D01*
X74612769Y-74048025D01*
X74667516Y-74093228D01*
X74684288Y-74129121D01*
X74718544Y-74248586D01*
X74721359Y-74254063D01*
X74721360Y-74254066D01*
X74742247Y-74294707D01*
X74812712Y-74431818D01*
X74940677Y-74593270D01*
X74945370Y-74597264D01*
X74945371Y-74597265D01*
X75079729Y-74711612D01*
X75097564Y-74726791D01*
X75102942Y-74729797D01*
X75102944Y-74729798D01*
X75131934Y-74746000D01*
X75277398Y-74827297D01*
X75372238Y-74858113D01*
X75467471Y-74889056D01*
X75467475Y-74889057D01*
X75473329Y-74890959D01*
X75677894Y-74915351D01*
X75684029Y-74914879D01*
X75684031Y-74914879D01*
X75740039Y-74910569D01*
X75883300Y-74899546D01*
X75889230Y-74897890D01*
X75889232Y-74897890D01*
X76075797Y-74845800D01*
X76075796Y-74845800D01*
X76081725Y-74844145D01*
X76087214Y-74841372D01*
X76087220Y-74841370D01*
X76232106Y-74768182D01*
X76265610Y-74751258D01*
X76324757Y-74705048D01*
X76361166Y-74676602D01*
X76427951Y-74624424D01*
X76481520Y-74562364D01*
X76558540Y-74473134D01*
X76558540Y-74473133D01*
X76562564Y-74468472D01*
X76583387Y-74431818D01*
X76661276Y-74294707D01*
X76664323Y-74289344D01*
X76729351Y-74093863D01*
X76755171Y-73889474D01*
X76755583Y-73860000D01*
X76735480Y-73654970D01*
X76675935Y-73457749D01*
X76579218Y-73275849D01*
X76481778Y-73156376D01*
X76452906Y-73120975D01*
X76452903Y-73120972D01*
X76449011Y-73116200D01*
X76431786Y-73101950D01*
X76295025Y-72988811D01*
X76295021Y-72988809D01*
X76290275Y-72984882D01*
X76109055Y-72886897D01*
X75912254Y-72825977D01*
X75906129Y-72825333D01*
X75906128Y-72825333D01*
X75713498Y-72805087D01*
X75713496Y-72805087D01*
X75707369Y-72804443D01*
X75620529Y-72812346D01*
X75508342Y-72822555D01*
X75508339Y-72822556D01*
X75502203Y-72823114D01*
X75304572Y-72881280D01*
X75122002Y-72976726D01*
X75117201Y-72980586D01*
X75117198Y-72980588D01*
X74966254Y-73101950D01*
X74961447Y-73105815D01*
X74829024Y-73263630D01*
X74826056Y-73269028D01*
X74826053Y-73269033D01*
X74788444Y-73337445D01*
X74729776Y-73444162D01*
X74684161Y-73587961D01*
X74682766Y-73592358D01*
X74643103Y-73651242D01*
X74577901Y-73679335D01*
X74507861Y-73667718D01*
X74455221Y-73620078D01*
X74440957Y-73586872D01*
X74395235Y-73416236D01*
X74391490Y-73405947D01*
X74299414Y-73208489D01*
X74293931Y-73198993D01*
X74168972Y-73020533D01*
X74161916Y-73012125D01*
X74007875Y-72858084D01*
X73999467Y-72851028D01*
X73821007Y-72726069D01*
X73811511Y-72720586D01*
X73614053Y-72628510D01*
X73603761Y-72624764D01*
X73393312Y-72568375D01*
X73382520Y-72566472D01*
X73327520Y-72561660D01*
X73261402Y-72535797D01*
X73219762Y-72478293D01*
X73215821Y-72407406D01*
X73250830Y-72345642D01*
X73313674Y-72312609D01*
X73327766Y-72310658D01*
X73328430Y-72310541D01*
X73334576Y-72310068D01*
X73523556Y-72257303D01*
X73698689Y-72168837D01*
X73728515Y-72145535D01*
X73848453Y-72051829D01*
X73853303Y-72048040D01*
X73866001Y-72033330D01*
X73977485Y-71904173D01*
X73977485Y-71904172D01*
X73981509Y-71899511D01*
X74004455Y-71859120D01*
X74050818Y-71777505D01*
X74078425Y-71728909D01*
X74140358Y-71542732D01*
X74164949Y-71348071D01*
X74165341Y-71320000D01*
X74146194Y-71124728D01*
X74144413Y-71118829D01*
X74144412Y-71118824D01*
X74091265Y-70942793D01*
X74089484Y-70936894D01*
X73997370Y-70763653D01*
X73873361Y-70611602D01*
X73722180Y-70486535D01*
X73549585Y-70393213D01*
X73455869Y-70364203D01*
X73368039Y-70337015D01*
X73368036Y-70337014D01*
X73362152Y-70335193D01*
X73356027Y-70334549D01*
X73356026Y-70334549D01*
X73173147Y-70315327D01*
X73173146Y-70315327D01*
X73167019Y-70314683D01*
X73044383Y-70325844D01*
X72977759Y-70331907D01*
X72977758Y-70331907D01*
X72971618Y-70332466D01*
X72965704Y-70334207D01*
X72965702Y-70334207D01*
X72885826Y-70357716D01*
X72783393Y-70387864D01*
X72777928Y-70390721D01*
X72614972Y-70475912D01*
X72614968Y-70475915D01*
X72609512Y-70478767D01*
X72604712Y-70482627D01*
X72604711Y-70482627D01*
X72584102Y-70499197D01*
X72456600Y-70601711D01*
X72330480Y-70752016D01*
X72327516Y-70757408D01*
X72327513Y-70757412D01*
X72235956Y-70923954D01*
X72234816Y-70923327D01*
X72193881Y-70972871D01*
X72123292Y-70994500D01*
X72054411Y-70994500D01*
X72043429Y-70994020D01*
X72016879Y-70991697D01*
X72016878Y-70991697D01*
X72005894Y-70990736D01*
X71995243Y-70993590D01*
X71995242Y-70993590D01*
X71969492Y-71000489D01*
X71958765Y-71002867D01*
X71932515Y-71007496D01*
X71932510Y-71007498D01*
X71921655Y-71009412D01*
X71912107Y-71014925D01*
X71908831Y-71016117D01*
X71905669Y-71017591D01*
X71895016Y-71020446D01*
X71885985Y-71026770D01*
X71864156Y-71042055D01*
X71854885Y-71047961D01*
X71831794Y-71061293D01*
X71822245Y-71066806D01*
X71815159Y-71075251D01*
X71798015Y-71095682D01*
X71790589Y-71103785D01*
X70811479Y-72082895D01*
X70749167Y-72116921D01*
X70722384Y-72119800D01*
X58826569Y-72119800D01*
X58758448Y-72099798D01*
X58711955Y-72046142D01*
X58701851Y-71975868D01*
X58731188Y-71911468D01*
X58737484Y-71904174D01*
X58737485Y-71904173D01*
X58741509Y-71899511D01*
X58764455Y-71859120D01*
X58810818Y-71777505D01*
X58838425Y-71728909D01*
X58900358Y-71542732D01*
X58924949Y-71348071D01*
X58925341Y-71320000D01*
X58906194Y-71124728D01*
X58904413Y-71118829D01*
X58904412Y-71118824D01*
X58851265Y-70942793D01*
X58849484Y-70936894D01*
X58757370Y-70763653D01*
X58633361Y-70611602D01*
X58482180Y-70486535D01*
X58311571Y-70394287D01*
X58261162Y-70344292D01*
X58245500Y-70283451D01*
X58245500Y-70213999D01*
X58265502Y-70145878D01*
X58319158Y-70099385D01*
X58371500Y-70087999D01*
X58764669Y-70087999D01*
X58771490Y-70087629D01*
X58822352Y-70082105D01*
X58837604Y-70078479D01*
X58958054Y-70033324D01*
X58973649Y-70024786D01*
X59075724Y-69948285D01*
X59088285Y-69935724D01*
X59164786Y-69833649D01*
X59173324Y-69818054D01*
X59218478Y-69697606D01*
X59222105Y-69682351D01*
X59227631Y-69631486D01*
X59228000Y-69624672D01*
X59228000Y-69052115D01*
X59223525Y-69036876D01*
X59222135Y-69035671D01*
X59214452Y-69034000D01*
X57792000Y-69034000D01*
X57723879Y-69013998D01*
X57677386Y-68960342D01*
X57666000Y-68908000D01*
X57666000Y-68507885D01*
X58174000Y-68507885D01*
X58178475Y-68523124D01*
X58179865Y-68524329D01*
X58187548Y-68526000D01*
X59209884Y-68526000D01*
X59225123Y-68521525D01*
X59226328Y-68520135D01*
X59227999Y-68512452D01*
X59227999Y-67935331D01*
X59227629Y-67928510D01*
X59222105Y-67877648D01*
X59218479Y-67862396D01*
X59173324Y-67741946D01*
X59164786Y-67726351D01*
X59088285Y-67624276D01*
X59075724Y-67611715D01*
X58973649Y-67535214D01*
X58958054Y-67526676D01*
X58837606Y-67481522D01*
X58822351Y-67477895D01*
X58771486Y-67472369D01*
X58764672Y-67472000D01*
X58192115Y-67472000D01*
X58176876Y-67476475D01*
X58175671Y-67477865D01*
X58174000Y-67485548D01*
X58174000Y-68507885D01*
X57666000Y-68507885D01*
X57666000Y-67490116D01*
X57661525Y-67474877D01*
X57660135Y-67473672D01*
X57652452Y-67472001D01*
X57246200Y-67472001D01*
X57178079Y-67451999D01*
X57131586Y-67398343D01*
X57120200Y-67346001D01*
X57120200Y-66079816D01*
X57140202Y-66011695D01*
X57157105Y-65990721D01*
X59552915Y-63594911D01*
X59561019Y-63587484D01*
X59581449Y-63570341D01*
X59589894Y-63563255D01*
X59595407Y-63553706D01*
X59608739Y-63530615D01*
X59614645Y-63521344D01*
X59629930Y-63499515D01*
X59636254Y-63490484D01*
X59639108Y-63479834D01*
X59640585Y-63476666D01*
X59641777Y-63473390D01*
X59647288Y-63463845D01*
X59653830Y-63426742D01*
X59656209Y-63416010D01*
X59665964Y-63379607D01*
X59662679Y-63342057D01*
X59662200Y-63331076D01*
X59662200Y-62122957D01*
X59682202Y-62054836D01*
X59735858Y-62008343D01*
X59806132Y-61998239D01*
X59869863Y-62027003D01*
X59909564Y-62060791D01*
X60089398Y-62161297D01*
X60184238Y-62192113D01*
X60279471Y-62223056D01*
X60279475Y-62223057D01*
X60285329Y-62224959D01*
X60489894Y-62249351D01*
X60496029Y-62248879D01*
X60496031Y-62248879D01*
X60552039Y-62244569D01*
X60695300Y-62233546D01*
X60701230Y-62231890D01*
X60701232Y-62231890D01*
X60887797Y-62179800D01*
X60887796Y-62179800D01*
X60893725Y-62178145D01*
X60899214Y-62175372D01*
X60899220Y-62175370D01*
X61046860Y-62100791D01*
X61077610Y-62085258D01*
X61239951Y-61958424D01*
X61274437Y-61918472D01*
X61370540Y-61807134D01*
X61370540Y-61807133D01*
X61374564Y-61802472D01*
X61387356Y-61779955D01*
X61453600Y-61663344D01*
X61476323Y-61623344D01*
X61541351Y-61427863D01*
X61567171Y-61223474D01*
X61567583Y-61194000D01*
X61566138Y-61179262D01*
X61996520Y-61179262D01*
X62013759Y-61384553D01*
X62070544Y-61582586D01*
X62073359Y-61588063D01*
X62073360Y-61588066D01*
X62152756Y-61742554D01*
X62164712Y-61765818D01*
X62292677Y-61927270D01*
X62297370Y-61931264D01*
X62297371Y-61931265D01*
X62387938Y-62008343D01*
X62449564Y-62060791D01*
X62629398Y-62161297D01*
X62724238Y-62192113D01*
X62819471Y-62223056D01*
X62819475Y-62223057D01*
X62825329Y-62224959D01*
X63029894Y-62249351D01*
X63036029Y-62248879D01*
X63036031Y-62248879D01*
X63092039Y-62244569D01*
X63235300Y-62233546D01*
X63241230Y-62231890D01*
X63241232Y-62231890D01*
X63427797Y-62179800D01*
X63427796Y-62179800D01*
X63433725Y-62178145D01*
X63439214Y-62175372D01*
X63439220Y-62175370D01*
X63586860Y-62100791D01*
X63617610Y-62085258D01*
X63779951Y-61958424D01*
X63814437Y-61918472D01*
X63910540Y-61807134D01*
X63910540Y-61807133D01*
X63914564Y-61802472D01*
X63927356Y-61779955D01*
X63993600Y-61663344D01*
X63996486Y-61658263D01*
X64047525Y-61608913D01*
X64106042Y-61594500D01*
X64539756Y-61594500D01*
X64607877Y-61614502D01*
X64651823Y-61662906D01*
X64691172Y-61739471D01*
X64704712Y-61765818D01*
X64832677Y-61927270D01*
X64837370Y-61931264D01*
X64837371Y-61931265D01*
X64927938Y-62008343D01*
X64989564Y-62060791D01*
X65169398Y-62161297D01*
X65264238Y-62192113D01*
X65359471Y-62223056D01*
X65359475Y-62223057D01*
X65365329Y-62224959D01*
X65569894Y-62249351D01*
X65576029Y-62248879D01*
X65576031Y-62248879D01*
X65632039Y-62244569D01*
X65775300Y-62233546D01*
X65781230Y-62231890D01*
X65781232Y-62231890D01*
X65967797Y-62179800D01*
X65967796Y-62179800D01*
X65973725Y-62178145D01*
X65979214Y-62175372D01*
X65979220Y-62175370D01*
X66126860Y-62100791D01*
X66157610Y-62085258D01*
X66319951Y-61958424D01*
X66351012Y-61922439D01*
X66406448Y-61858216D01*
X66466101Y-61819718D01*
X66537097Y-61819582D01*
X66590925Y-61851451D01*
X68337689Y-63598215D01*
X68345116Y-63606319D01*
X68369345Y-63635194D01*
X68378894Y-63640707D01*
X68401985Y-63654039D01*
X68411256Y-63659945D01*
X68442116Y-63681554D01*
X68452769Y-63684409D01*
X68455931Y-63685883D01*
X68459207Y-63687075D01*
X68468755Y-63692588D01*
X68479610Y-63694502D01*
X68479615Y-63694504D01*
X68505865Y-63699133D01*
X68516592Y-63701511D01*
X68542348Y-63708412D01*
X68542351Y-63708412D01*
X68552994Y-63711264D01*
X68563969Y-63710304D01*
X68563971Y-63710304D01*
X68590544Y-63707979D01*
X68601525Y-63707500D01*
X69180284Y-63707500D01*
X69248405Y-63727502D01*
X69269379Y-63744405D01*
X73098394Y-67573421D01*
X73132420Y-67635733D01*
X73127355Y-67706549D01*
X73084808Y-67763384D01*
X73020720Y-67787997D01*
X72977759Y-67791907D01*
X72977758Y-67791907D01*
X72971618Y-67792466D01*
X72965704Y-67794207D01*
X72965702Y-67794207D01*
X72836734Y-67832165D01*
X72783393Y-67847864D01*
X72777928Y-67850721D01*
X72614972Y-67935912D01*
X72614968Y-67935915D01*
X72609512Y-67938767D01*
X72456600Y-68061711D01*
X72330480Y-68212016D01*
X72327516Y-68217408D01*
X72327513Y-68217412D01*
X72298759Y-68269716D01*
X72235956Y-68383954D01*
X72176628Y-68570978D01*
X72154757Y-68765963D01*
X72171175Y-68961483D01*
X72225258Y-69150091D01*
X72228076Y-69155574D01*
X72312123Y-69319113D01*
X72312126Y-69319117D01*
X72314944Y-69324601D01*
X72436818Y-69478369D01*
X72441511Y-69482363D01*
X72441512Y-69482364D01*
X72514433Y-69544424D01*
X72586238Y-69605535D01*
X72591616Y-69608541D01*
X72591618Y-69608542D01*
X72627932Y-69628837D01*
X72757513Y-69701257D01*
X72944118Y-69761889D01*
X73138946Y-69785121D01*
X73145081Y-69784649D01*
X73145083Y-69784649D01*
X73328434Y-69770541D01*
X73328438Y-69770540D01*
X73334576Y-69770068D01*
X73523556Y-69717303D01*
X73698689Y-69628837D01*
X73728515Y-69605535D01*
X73848453Y-69511829D01*
X73853303Y-69508040D01*
X73936952Y-69411132D01*
X73996604Y-69372635D01*
X74067601Y-69372499D01*
X74127400Y-69410769D01*
X74128769Y-69412680D01*
X74128908Y-69412563D01*
X74135994Y-69421008D01*
X74141506Y-69430555D01*
X74149951Y-69437641D01*
X74170382Y-69454785D01*
X74178485Y-69462211D01*
X74907689Y-70191415D01*
X74915116Y-70199519D01*
X74939345Y-70228394D01*
X74948894Y-70233907D01*
X74971985Y-70247239D01*
X74981256Y-70253145D01*
X75012116Y-70274754D01*
X75022767Y-70277608D01*
X75027247Y-70279697D01*
X75037116Y-70284842D01*
X75037243Y-70284915D01*
X75086173Y-70336356D01*
X75099526Y-70406085D01*
X75073060Y-70471965D01*
X75053062Y-70492155D01*
X74966258Y-70561946D01*
X74966254Y-70561950D01*
X74961447Y-70565815D01*
X74829024Y-70723630D01*
X74826056Y-70729028D01*
X74826053Y-70729033D01*
X74732743Y-70898765D01*
X74729776Y-70904162D01*
X74667484Y-71100532D01*
X74666798Y-71106649D01*
X74666797Y-71106653D01*
X74664770Y-71124728D01*
X74644520Y-71305262D01*
X74661759Y-71510553D01*
X74663458Y-71516478D01*
X74713241Y-71690091D01*
X74718544Y-71708586D01*
X74721359Y-71714063D01*
X74721360Y-71714066D01*
X74798724Y-71864601D01*
X74812712Y-71891818D01*
X74940677Y-72053270D01*
X74945370Y-72057264D01*
X74945371Y-72057265D01*
X75079729Y-72171612D01*
X75097564Y-72186791D01*
X75102942Y-72189797D01*
X75102944Y-72189798D01*
X75134563Y-72207469D01*
X75277398Y-72287297D01*
X75342377Y-72308410D01*
X75467471Y-72349056D01*
X75467475Y-72349057D01*
X75473329Y-72350959D01*
X75677894Y-72375351D01*
X75684029Y-72374879D01*
X75684031Y-72374879D01*
X75740039Y-72370569D01*
X75883300Y-72359546D01*
X75889230Y-72357890D01*
X75889232Y-72357890D01*
X76075797Y-72305800D01*
X76075796Y-72305800D01*
X76081725Y-72304145D01*
X76087214Y-72301372D01*
X76087220Y-72301370D01*
X76260116Y-72214033D01*
X76265610Y-72211258D01*
X76281418Y-72198908D01*
X76372907Y-72127429D01*
X76427951Y-72084424D01*
X76451613Y-72057012D01*
X76558540Y-71933134D01*
X76558540Y-71933133D01*
X76562564Y-71928472D01*
X76583387Y-71891818D01*
X76661276Y-71754707D01*
X76664323Y-71749344D01*
X76729351Y-71553863D01*
X76749033Y-71398063D01*
X76777415Y-71332986D01*
X76836474Y-71293585D01*
X76907460Y-71292368D01*
X76963132Y-71324758D01*
X77895497Y-72257124D01*
X77929521Y-72319434D01*
X77932400Y-72346217D01*
X77932400Y-75381414D01*
X77912398Y-75449535D01*
X77883104Y-75481377D01*
X77843967Y-75511408D01*
X77829618Y-75522418D01*
X77733364Y-75647859D01*
X77672856Y-75793938D01*
X77671778Y-75802126D01*
X77666941Y-75838869D01*
X77652218Y-75950700D01*
X77672856Y-76107462D01*
X77733364Y-76253541D01*
X77738391Y-76260092D01*
X77816887Y-76362390D01*
X77829618Y-76378982D01*
X77955059Y-76475236D01*
X78101138Y-76535744D01*
X78257900Y-76556382D01*
X78266088Y-76555304D01*
X78406474Y-76536822D01*
X78414662Y-76535744D01*
X78560741Y-76475236D01*
X78686182Y-76378982D01*
X78698914Y-76362390D01*
X78777409Y-76260092D01*
X78782436Y-76253541D01*
X78842944Y-76107462D01*
X78863582Y-75950700D01*
X78848859Y-75838869D01*
X78844022Y-75802126D01*
X78842944Y-75793938D01*
X78782436Y-75647859D01*
X78686182Y-75522418D01*
X78671834Y-75511408D01*
X78632696Y-75481377D01*
X78590829Y-75424039D01*
X78583400Y-75381414D01*
X78583400Y-72178898D01*
X78583880Y-72167916D01*
X78586202Y-72141380D01*
X78586202Y-72141378D01*
X78587163Y-72130393D01*
X78577412Y-72094003D01*
X78575032Y-72083269D01*
X78570402Y-72057012D01*
X78568488Y-72046155D01*
X78562976Y-72036607D01*
X78561783Y-72033330D01*
X78560306Y-72030162D01*
X78557453Y-72019516D01*
X78535842Y-71988652D01*
X78529938Y-71979384D01*
X78527908Y-71975868D01*
X78511094Y-71946745D01*
X78482223Y-71922520D01*
X78474118Y-71915092D01*
X76346483Y-69787457D01*
X76312457Y-69725145D01*
X76317522Y-69654330D01*
X76358004Y-69599073D01*
X76423100Y-69548214D01*
X76427951Y-69544424D01*
X76481520Y-69482364D01*
X76558540Y-69393134D01*
X76558540Y-69393133D01*
X76562564Y-69388472D01*
X76664323Y-69209344D01*
X76729351Y-69013863D01*
X76755171Y-68809474D01*
X76755583Y-68780000D01*
X76735480Y-68574970D01*
X76675935Y-68377749D01*
X76579218Y-68195849D01*
X76473666Y-68066430D01*
X76452906Y-68040975D01*
X76452903Y-68040972D01*
X76449011Y-68036200D01*
X76327784Y-67935912D01*
X76295025Y-67908811D01*
X76295021Y-67908809D01*
X76290275Y-67904882D01*
X76109055Y-67806897D01*
X75912254Y-67745977D01*
X75906129Y-67745333D01*
X75906128Y-67745333D01*
X75713498Y-67725087D01*
X75713496Y-67725087D01*
X75707369Y-67724443D01*
X75620529Y-67732346D01*
X75508342Y-67742555D01*
X75508339Y-67742556D01*
X75502203Y-67743114D01*
X75304572Y-67801280D01*
X75122002Y-67896726D01*
X75117201Y-67900586D01*
X75117198Y-67900588D01*
X75073264Y-67935912D01*
X74961447Y-68025815D01*
X74829024Y-68183630D01*
X74827089Y-68182007D01*
X74780629Y-68219910D01*
X74710086Y-68227923D01*
X74648147Y-68197383D01*
X74647894Y-68196945D01*
X74619031Y-68172726D01*
X74610927Y-68165300D01*
X69611410Y-63165784D01*
X69603983Y-63157680D01*
X69586841Y-63137251D01*
X69586842Y-63137251D01*
X69579755Y-63128806D01*
X69570206Y-63123293D01*
X69547115Y-63109961D01*
X69537844Y-63104055D01*
X69516015Y-63088770D01*
X69506984Y-63082446D01*
X69496334Y-63079592D01*
X69493166Y-63078115D01*
X69489890Y-63076923D01*
X69480345Y-63071412D01*
X69446601Y-63065462D01*
X69443242Y-63064870D01*
X69432515Y-63062492D01*
X69396107Y-63052736D01*
X69385122Y-63053697D01*
X69385120Y-63053697D01*
X69358572Y-63056020D01*
X69347590Y-63056500D01*
X68768816Y-63056500D01*
X68700695Y-63036498D01*
X68679721Y-63019595D01*
X68117504Y-62457378D01*
X68083478Y-62395066D01*
X68088543Y-62324251D01*
X68131090Y-62267415D01*
X68196932Y-62242654D01*
X68309159Y-62234019D01*
X68309164Y-62234018D01*
X68315300Y-62233546D01*
X68321230Y-62231890D01*
X68321232Y-62231890D01*
X68507797Y-62179800D01*
X68507796Y-62179800D01*
X68513725Y-62178145D01*
X68519214Y-62175372D01*
X68519220Y-62175370D01*
X68666860Y-62100791D01*
X68697610Y-62085258D01*
X68859951Y-61958424D01*
X68894437Y-61918472D01*
X68990540Y-61807134D01*
X68990540Y-61807133D01*
X68994564Y-61802472D01*
X69007356Y-61779955D01*
X69073600Y-61663344D01*
X69096323Y-61623344D01*
X69161351Y-61427863D01*
X69187171Y-61223474D01*
X69187583Y-61194000D01*
X69167480Y-60988970D01*
X69107935Y-60791749D01*
X69011218Y-60609849D01*
X68909021Y-60484543D01*
X68884906Y-60454975D01*
X68884903Y-60454972D01*
X68881011Y-60450200D01*
X68861784Y-60434294D01*
X68727025Y-60322811D01*
X68727021Y-60322809D01*
X68722275Y-60318882D01*
X68541055Y-60220897D01*
X68344254Y-60159977D01*
X68338129Y-60159333D01*
X68338128Y-60159333D01*
X68145498Y-60139087D01*
X68145496Y-60139087D01*
X68139369Y-60138443D01*
X68054263Y-60146188D01*
X67940342Y-60156555D01*
X67940339Y-60156556D01*
X67934203Y-60157114D01*
X67736572Y-60215280D01*
X67554002Y-60310726D01*
X67549201Y-60314586D01*
X67549198Y-60314588D01*
X67412190Y-60424745D01*
X67393447Y-60439815D01*
X67290805Y-60562139D01*
X67231695Y-60601465D01*
X67160708Y-60602591D01*
X67100380Y-60565160D01*
X67078747Y-60529025D01*
X67077888Y-60524155D01*
X67072377Y-60514608D01*
X67071184Y-60511331D01*
X67069708Y-60508166D01*
X67066854Y-60497516D01*
X67045245Y-60466656D01*
X67039339Y-60457385D01*
X67026007Y-60434294D01*
X67020494Y-60424745D01*
X66991617Y-60400515D01*
X66983515Y-60393089D01*
X66246005Y-59655579D01*
X66211979Y-59593267D01*
X66217044Y-59522452D01*
X66257528Y-59467194D01*
X66315097Y-59422217D01*
X66315101Y-59422213D01*
X66319951Y-59418424D01*
X66447509Y-59270646D01*
X66450540Y-59267134D01*
X66450540Y-59267133D01*
X66454564Y-59262472D01*
X66475387Y-59225818D01*
X66533600Y-59123344D01*
X66556323Y-59083344D01*
X66621351Y-58887863D01*
X66647171Y-58683474D01*
X66647583Y-58654000D01*
X66627480Y-58448970D01*
X66567935Y-58251749D01*
X66471218Y-58069849D01*
X66369021Y-57944543D01*
X66344906Y-57914975D01*
X66344903Y-57914972D01*
X66341011Y-57910200D01*
X66303414Y-57879097D01*
X66187025Y-57782811D01*
X66187021Y-57782809D01*
X66182275Y-57778882D01*
X66001055Y-57680897D01*
X65952646Y-57665912D01*
X65893486Y-57626661D01*
X65864938Y-57561657D01*
X65876066Y-57491538D01*
X65923337Y-57438567D01*
X65953696Y-57424861D01*
X66089255Y-57384191D01*
X66098842Y-57380433D01*
X66290098Y-57286738D01*
X66298944Y-57281465D01*
X66346247Y-57247723D01*
X66354648Y-57237023D01*
X66347660Y-57223870D01*
X65609812Y-56486022D01*
X65595868Y-56478408D01*
X65594035Y-56478539D01*
X65587420Y-56482790D01*
X64843737Y-57226473D01*
X64836977Y-57238853D01*
X64842258Y-57245907D01*
X65003756Y-57340279D01*
X65013042Y-57344729D01*
X65212009Y-57420706D01*
X65225751Y-57424699D01*
X65285586Y-57462913D01*
X65315262Y-57527409D01*
X65305358Y-57597712D01*
X65259017Y-57651499D01*
X65226169Y-57666569D01*
X65202489Y-57673538D01*
X65202484Y-57673540D01*
X65196572Y-57675280D01*
X65014002Y-57770726D01*
X65009201Y-57774586D01*
X65009198Y-57774588D01*
X64898723Y-57863412D01*
X64853447Y-57899815D01*
X64721024Y-58057630D01*
X64718056Y-58063028D01*
X64718053Y-58063033D01*
X64691789Y-58110808D01*
X64621776Y-58238162D01*
X64559484Y-58434532D01*
X64558798Y-58440649D01*
X64558797Y-58440653D01*
X64552975Y-58492558D01*
X64536520Y-58639262D01*
X64553759Y-58844553D01*
X64610544Y-59042586D01*
X64613359Y-59048063D01*
X64613360Y-59048066D01*
X64654804Y-59128707D01*
X64704712Y-59225818D01*
X64832677Y-59387270D01*
X64837370Y-59391264D01*
X64837371Y-59391265D01*
X64926588Y-59467194D01*
X64989564Y-59520791D01*
X65169398Y-59621297D01*
X65175255Y-59623200D01*
X65179441Y-59624560D01*
X65238045Y-59664636D01*
X65265679Y-59730034D01*
X65266500Y-59744392D01*
X65266500Y-59886694D01*
X65272621Y-59903510D01*
X65278305Y-59924724D01*
X65281412Y-59942345D01*
X65290360Y-59957844D01*
X65299638Y-59977740D01*
X65305760Y-59994560D01*
X65312847Y-60003006D01*
X65318357Y-60012550D01*
X65315783Y-60014036D01*
X65337358Y-60063332D01*
X65326142Y-60133437D01*
X65278804Y-60186349D01*
X65247948Y-60200158D01*
X65202491Y-60213537D01*
X65202482Y-60213540D01*
X65196572Y-60215280D01*
X65014002Y-60310726D01*
X65009201Y-60314586D01*
X65009198Y-60314588D01*
X64872190Y-60424745D01*
X64853447Y-60439815D01*
X64721024Y-60597630D01*
X64718054Y-60603033D01*
X64718053Y-60603034D01*
X64649242Y-60728201D01*
X64598896Y-60778260D01*
X64538827Y-60793500D01*
X64104575Y-60793500D01*
X64036454Y-60773498D01*
X63993323Y-60726653D01*
X63934111Y-60615290D01*
X63931218Y-60609849D01*
X63829021Y-60484543D01*
X63804906Y-60454975D01*
X63804903Y-60454972D01*
X63801011Y-60450200D01*
X63781784Y-60434294D01*
X63647025Y-60322811D01*
X63647021Y-60322809D01*
X63642275Y-60318882D01*
X63461055Y-60220897D01*
X63264254Y-60159977D01*
X63258129Y-60159333D01*
X63258128Y-60159333D01*
X63065498Y-60139087D01*
X63065496Y-60139087D01*
X63059369Y-60138443D01*
X62974263Y-60146188D01*
X62860342Y-60156555D01*
X62860339Y-60156556D01*
X62854203Y-60157114D01*
X62656572Y-60215280D01*
X62474002Y-60310726D01*
X62469201Y-60314586D01*
X62469198Y-60314588D01*
X62332190Y-60424745D01*
X62313447Y-60439815D01*
X62181024Y-60597630D01*
X62178056Y-60603028D01*
X62178053Y-60603033D01*
X62151456Y-60651414D01*
X62081776Y-60778162D01*
X62019484Y-60974532D01*
X62018798Y-60980649D01*
X62018797Y-60980653D01*
X62013609Y-61026910D01*
X61996520Y-61179262D01*
X61566138Y-61179262D01*
X61547480Y-60988970D01*
X61487935Y-60791749D01*
X61391218Y-60609849D01*
X61289021Y-60484543D01*
X61264906Y-60454975D01*
X61264903Y-60454972D01*
X61261011Y-60450200D01*
X61241784Y-60434294D01*
X61107025Y-60322811D01*
X61107021Y-60322809D01*
X61102275Y-60318882D01*
X60921055Y-60220897D01*
X60853968Y-60200130D01*
X60794808Y-60160879D01*
X60766261Y-60095874D01*
X60777390Y-60025755D01*
X60785803Y-60012645D01*
X60785643Y-60012552D01*
X60791157Y-60003002D01*
X60798240Y-59994561D01*
X60802008Y-59984208D01*
X60802011Y-59984203D01*
X60804363Y-59977740D01*
X60813644Y-59957836D01*
X60817076Y-59951892D01*
X60817077Y-59951890D01*
X60822588Y-59942345D01*
X60824502Y-59931490D01*
X60824504Y-59931485D01*
X60825696Y-59924724D01*
X60831378Y-59903516D01*
X60833730Y-59897052D01*
X60837500Y-59886694D01*
X60837500Y-59744062D01*
X60857502Y-59675941D01*
X60906690Y-59631596D01*
X61072113Y-59548035D01*
X61072116Y-59548033D01*
X61077610Y-59545258D01*
X61239951Y-59418424D01*
X61367509Y-59270646D01*
X61370540Y-59267134D01*
X61370540Y-59267133D01*
X61374564Y-59262472D01*
X61395387Y-59225818D01*
X61473275Y-59088709D01*
X61473276Y-59088707D01*
X61476323Y-59083344D01*
X61482184Y-59065726D01*
X61522666Y-59007403D01*
X61588254Y-58980224D01*
X61601741Y-58979500D01*
X61744694Y-58979500D01*
X61761514Y-58973378D01*
X61782724Y-58967695D01*
X61789490Y-58966502D01*
X61800345Y-58964588D01*
X61815844Y-58955640D01*
X61835743Y-58946361D01*
X61852560Y-58940240D01*
X61861006Y-58933153D01*
X61870550Y-58927643D01*
X61872094Y-58930317D01*
X61921024Y-58908903D01*
X61991129Y-58920122D01*
X62044039Y-58967461D01*
X62058091Y-58999159D01*
X62070544Y-59042586D01*
X62073359Y-59048063D01*
X62073360Y-59048066D01*
X62114804Y-59128707D01*
X62164712Y-59225818D01*
X62292677Y-59387270D01*
X62297370Y-59391264D01*
X62297371Y-59391265D01*
X62386588Y-59467194D01*
X62449564Y-59520791D01*
X62629398Y-59621297D01*
X62724238Y-59652113D01*
X62819471Y-59683056D01*
X62819475Y-59683057D01*
X62825329Y-59684959D01*
X63029894Y-59709351D01*
X63036029Y-59708879D01*
X63036031Y-59708879D01*
X63108625Y-59703293D01*
X63235300Y-59693546D01*
X63241230Y-59691890D01*
X63241232Y-59691890D01*
X63427797Y-59639800D01*
X63427796Y-59639800D01*
X63433725Y-59638145D01*
X63439214Y-59635372D01*
X63439220Y-59635370D01*
X63580907Y-59563798D01*
X63617610Y-59545258D01*
X63779951Y-59418424D01*
X63907509Y-59270646D01*
X63910540Y-59267134D01*
X63910540Y-59267133D01*
X63914564Y-59262472D01*
X63935387Y-59225818D01*
X63993600Y-59123344D01*
X64016323Y-59083344D01*
X64081351Y-58887863D01*
X64107171Y-58683474D01*
X64107583Y-58654000D01*
X64087480Y-58448970D01*
X64027935Y-58251749D01*
X63931218Y-58069849D01*
X63829021Y-57944543D01*
X63804906Y-57914975D01*
X63804903Y-57914972D01*
X63801011Y-57910200D01*
X63763414Y-57879097D01*
X63647025Y-57782811D01*
X63647021Y-57782809D01*
X63642275Y-57778882D01*
X63461055Y-57680897D01*
X63264254Y-57619977D01*
X63258131Y-57619334D01*
X63258129Y-57619333D01*
X63119856Y-57604800D01*
X63054199Y-57577787D01*
X63013570Y-57519565D01*
X63010867Y-57448620D01*
X63043932Y-57390395D01*
X64064374Y-56369953D01*
X64126686Y-56335927D01*
X64197501Y-56340992D01*
X64254337Y-56383539D01*
X64276386Y-56431347D01*
X64295565Y-56516446D01*
X64298645Y-56526275D01*
X64378770Y-56723603D01*
X64383413Y-56732794D01*
X64463460Y-56863420D01*
X64473916Y-56872880D01*
X64482694Y-56869096D01*
X65507905Y-55843885D01*
X65570217Y-55809859D01*
X65641032Y-55814924D01*
X65686095Y-55843885D01*
X66707474Y-56865264D01*
X66719484Y-56871823D01*
X66731223Y-56862855D01*
X66762004Y-56820019D01*
X66767315Y-56811180D01*
X66861670Y-56620267D01*
X66865469Y-56610672D01*
X66927376Y-56406915D01*
X66929555Y-56396834D01*
X66957590Y-56183887D01*
X66958109Y-56177212D01*
X66959572Y-56117364D01*
X66959378Y-56110646D01*
X66941781Y-55896604D01*
X66940096Y-55886424D01*
X66895512Y-55708928D01*
X66898316Y-55637987D01*
X66939029Y-55579823D01*
X67004724Y-55552904D01*
X67074544Y-55565775D01*
G37*
G04 #@! TD.AperFunction*
G04 #@! TA.AperFunction,Conductor*
G36*
X72202149Y-71717043D02*
G01*
X72258985Y-71759590D01*
X72270177Y-71777493D01*
X72314944Y-71864601D01*
X72436818Y-72018369D01*
X72441511Y-72022363D01*
X72441512Y-72022364D01*
X72552617Y-72116921D01*
X72586238Y-72145535D01*
X72591616Y-72148541D01*
X72591618Y-72148542D01*
X72660057Y-72186791D01*
X72757513Y-72241257D01*
X72944118Y-72301889D01*
X72981162Y-72306306D01*
X73010443Y-72309798D01*
X73075716Y-72337726D01*
X73115529Y-72396509D01*
X73117241Y-72467485D01*
X73080308Y-72528119D01*
X73016458Y-72559161D01*
X73006505Y-72560433D01*
X72937480Y-72566472D01*
X72926688Y-72568375D01*
X72716239Y-72624764D01*
X72705947Y-72628510D01*
X72508489Y-72720586D01*
X72498993Y-72726069D01*
X72320533Y-72851028D01*
X72312125Y-72858084D01*
X72158084Y-73012125D01*
X72151028Y-73020533D01*
X72026069Y-73198993D01*
X72020586Y-73208489D01*
X71928510Y-73405947D01*
X71924764Y-73416239D01*
X71878606Y-73588503D01*
X71878942Y-73602599D01*
X71886884Y-73606000D01*
X73288000Y-73606000D01*
X73356121Y-73626002D01*
X73402614Y-73679658D01*
X73414000Y-73732000D01*
X73414000Y-73988000D01*
X73393998Y-74056121D01*
X73340342Y-74102614D01*
X73288000Y-74114000D01*
X71892033Y-74114000D01*
X71878502Y-74117973D01*
X71877273Y-74126522D01*
X71924764Y-74303761D01*
X71928510Y-74314053D01*
X72020586Y-74511511D01*
X72026072Y-74521012D01*
X72044780Y-74547730D01*
X72067468Y-74615004D01*
X72050183Y-74683864D01*
X71998413Y-74732448D01*
X71941567Y-74746000D01*
X68408686Y-74746000D01*
X68340565Y-74725998D01*
X68308723Y-74696704D01*
X68302255Y-74688274D01*
X68267682Y-74643218D01*
X68142241Y-74546964D01*
X67996162Y-74486456D01*
X67839400Y-74465818D01*
X67682638Y-74486456D01*
X67536559Y-74546964D01*
X67411118Y-74643218D01*
X67314864Y-74768659D01*
X67254356Y-74914738D01*
X67233718Y-75071500D01*
X67254356Y-75228262D01*
X67257515Y-75235889D01*
X67257516Y-75235892D01*
X67292803Y-75321082D01*
X67300392Y-75391672D01*
X67268612Y-75455159D01*
X67207554Y-75491386D01*
X67176394Y-75495300D01*
X62654786Y-75495300D01*
X62586665Y-75475298D01*
X62554823Y-75446004D01*
X62518805Y-75399064D01*
X62513782Y-75392518D01*
X62388341Y-75296264D01*
X62242262Y-75235756D01*
X62085500Y-75215118D01*
X61928738Y-75235756D01*
X61782659Y-75296264D01*
X61657218Y-75392518D01*
X61560964Y-75517959D01*
X61521972Y-75612096D01*
X61516738Y-75624731D01*
X61472190Y-75680012D01*
X61404827Y-75702433D01*
X61336035Y-75684875D01*
X61311234Y-75665608D01*
X59289411Y-73643785D01*
X59281984Y-73635681D01*
X59264841Y-73615251D01*
X59264842Y-73615251D01*
X59257755Y-73606806D01*
X59248206Y-73601293D01*
X59225115Y-73587961D01*
X59215844Y-73582055D01*
X59194015Y-73566770D01*
X59184984Y-73560446D01*
X59174334Y-73557592D01*
X59171166Y-73556115D01*
X59167890Y-73554923D01*
X59158345Y-73549412D01*
X59124601Y-73543462D01*
X59121242Y-73542870D01*
X59110515Y-73540492D01*
X59074107Y-73530736D01*
X59063122Y-73531697D01*
X59063120Y-73531697D01*
X59036572Y-73534020D01*
X59025590Y-73534500D01*
X58955821Y-73534500D01*
X58887700Y-73514498D01*
X58844570Y-73467653D01*
X58835203Y-73450035D01*
X58757370Y-73303653D01*
X58633361Y-73151602D01*
X58482180Y-73026535D01*
X58447227Y-73007636D01*
X58396819Y-72957641D01*
X58381441Y-72888330D01*
X58405977Y-72821708D01*
X58462637Y-72778927D01*
X58507156Y-72770800D01*
X70889690Y-72770800D01*
X70900672Y-72771280D01*
X70927220Y-72773603D01*
X70927222Y-72773603D01*
X70938207Y-72774564D01*
X70974615Y-72764808D01*
X70985342Y-72762430D01*
X70988701Y-72761838D01*
X71022445Y-72755888D01*
X71031990Y-72750377D01*
X71035266Y-72749185D01*
X71038434Y-72747708D01*
X71049084Y-72744854D01*
X71079944Y-72723245D01*
X71089215Y-72717339D01*
X71112306Y-72704007D01*
X71121855Y-72698494D01*
X71146085Y-72669617D01*
X71153511Y-72661515D01*
X72069022Y-71746004D01*
X72131334Y-71711978D01*
X72202149Y-71717043D01*
G37*
G04 #@! TD.AperFunction*
M02*
