M48
; DRILL file {KiCad (6.0.7)} date Mon Sep 12 18:06:33 2022
; FORMAT={3:3/ absolute / metric / suppress leading zeros}
; #@! TF.CreationDate,2022-09-12T18:06:33-07:00
; #@! TF.GenerationSoftware,Kicad,Pcbnew,(6.0.7)
; #@! TF.FileFunction,MixedPlating,1,2
FMAT,2
METRIC,TZ
; #@! TA.AperFunction,Plated,PTH,ViaDrill
T1C0.400
; #@! TA.AperFunction,Plated,PTH,ComponentDrill
T2C0.600
; #@! TA.AperFunction,Plated,PTH,ComponentDrill
T3C0.800
; #@! TA.AperFunction,Plated,PTH,ComponentDrill
T4C1.000
; #@! TA.AperFunction,NonPlated,NPTH,ComponentDrill
T5C3.200
%
G90
G05
T1
X52984Y-111240
X62086Y-75821
X63754Y-84633
X64475Y-90701
X65249Y-81457
X65792Y-91976
X67839Y-75072
X69402Y-104131
X70040Y-93050
X70284Y-87244
X70313Y-80878
X78258Y-75951
X82029Y-66958
T2
X80561Y-88900
X82561Y-88900
T3
X57920Y-68780
X57920Y-71320
X57920Y-73860
X57920Y-76400
X57920Y-78940
X57920Y-81480
X57920Y-84020
X57920Y-86560
X57920Y-89100
X57920Y-91640
X57920Y-94180
X57920Y-96720
X57920Y-99260
X57920Y-101800
X57920Y-104340
X57920Y-106880
X57920Y-109420
X57920Y-111960
X57920Y-114500
X57920Y-117040
X73160Y-68780
X73160Y-71320
X73160Y-73860
X73160Y-76400
X73160Y-78940
X73160Y-81480
X73160Y-84020
X73160Y-86560
X73160Y-89100
X73160Y-91640
X73160Y-94180
X73160Y-96720
X73160Y-99260
X73160Y-101800
X73160Y-104340
X73160Y-106880
X73160Y-109420
X73160Y-111960
X73160Y-114500
X73160Y-117040
X80518Y-82550
X83018Y-82550
T4
X55380Y-68780
X55380Y-71320
X55380Y-73860
X55380Y-76400
X55380Y-78940
X55380Y-81480
X55380Y-84020
X55380Y-86560
X55380Y-89100
X55380Y-91640
X55380Y-94180
X55380Y-96720
X55380Y-99260
X55380Y-101800
X55380Y-104340
X55380Y-106880
X55380Y-109420
X55380Y-111960
X55380Y-114500
X55380Y-117040
X57972Y-58654
X57972Y-61194
X60512Y-58654
X60512Y-61194
X63052Y-58654
X63052Y-61194
X65592Y-58654
X65592Y-61194
X65597Y-56114
X68132Y-58654
X68132Y-61194
X73152Y-56154
X73152Y-58694
X73152Y-61234
X75700Y-68780
X75700Y-71320
X75700Y-73860
X75700Y-76400
X75700Y-78940
X75700Y-81480
X75700Y-84020
X75700Y-86560
X75700Y-89100
X75700Y-91640
X75700Y-94180
X75700Y-96720
X75700Y-99260
X75700Y-101800
X75700Y-104340
X75700Y-106880
X75700Y-109420
X75700Y-111960
X75700Y-114500
X75700Y-117040
T5
X82800Y-55800
X82800Y-120800
T0
M30
