G04 #@! TF.GenerationSoftware,KiCad,Pcbnew,(6.0.7)*
G04 #@! TF.CreationDate,2022-09-12T18:05:54-07:00*
G04 #@! TF.ProjectId,emu6802,656d7536-3830-4322-9e6b-696361645f70,rev?*
G04 #@! TF.SameCoordinates,Original*
G04 #@! TF.FileFunction,Soldermask,Bot*
G04 #@! TF.FilePolarity,Negative*
%FSLAX46Y46*%
G04 Gerber Fmt 4.6, Leading zero omitted, Abs format (unit mm)*
G04 Created by KiCad (PCBNEW (6.0.7)) date 2022-09-12 18:05:54*
%MOMM*%
%LPD*%
G01*
G04 APERTURE LIST*
%ADD10R,1.600000X1.600000*%
%ADD11O,1.600000X1.600000*%
%ADD12R,1.700000X1.700000*%
%ADD13O,1.700000X1.700000*%
%ADD14C,3.200000*%
%ADD15C,1.200000*%
%ADD16R,1.200000X1.200000*%
%ADD17C,1.600000*%
%ADD18C,1.700000*%
G04 APERTURE END LIST*
D10*
X57920000Y-68780000D03*
D11*
X57920000Y-71320000D03*
X57920000Y-73860000D03*
X57920000Y-76400000D03*
X57920000Y-78940000D03*
X57920000Y-81480000D03*
X57920000Y-84020000D03*
X57920000Y-86560000D03*
X57920000Y-89100000D03*
X57920000Y-91640000D03*
X57920000Y-94180000D03*
X57920000Y-96720000D03*
X57920000Y-99260000D03*
X57920000Y-101800000D03*
X57920000Y-104340000D03*
X57920000Y-106880000D03*
X57920000Y-109420000D03*
X57920000Y-111960000D03*
X57920000Y-114500000D03*
X57920000Y-117040000D03*
X73160000Y-117040000D03*
X73160000Y-114500000D03*
X73160000Y-111960000D03*
X73160000Y-109420000D03*
X73160000Y-106880000D03*
X73160000Y-104340000D03*
X73160000Y-101800000D03*
X73160000Y-99260000D03*
X73160000Y-96720000D03*
X73160000Y-94180000D03*
X73160000Y-91640000D03*
X73160000Y-89100000D03*
X73160000Y-86560000D03*
X73160000Y-84020000D03*
X73160000Y-81480000D03*
X73160000Y-78940000D03*
X73160000Y-76400000D03*
X73160000Y-73860000D03*
X73160000Y-71320000D03*
X73160000Y-68780000D03*
D12*
X55380000Y-68780000D03*
D13*
X55380000Y-71320000D03*
X55380000Y-73860000D03*
X55380000Y-76400000D03*
X55380000Y-78940000D03*
X55380000Y-81480000D03*
X55380000Y-84020000D03*
X55380000Y-86560000D03*
X55380000Y-89100000D03*
X55380000Y-91640000D03*
X55380000Y-94180000D03*
X55380000Y-96720000D03*
X55380000Y-99260000D03*
X55380000Y-101800000D03*
X55380000Y-104340000D03*
X55380000Y-106880000D03*
X55380000Y-109420000D03*
X55380000Y-111960000D03*
X55380000Y-114500000D03*
X55380000Y-117040000D03*
D12*
X75700000Y-117040000D03*
D13*
X75700000Y-114500000D03*
X75700000Y-111960000D03*
X75700000Y-109420000D03*
X75700000Y-106880000D03*
X75700000Y-104340000D03*
X75700000Y-101800000D03*
X75700000Y-99260000D03*
X75700000Y-96720000D03*
X75700000Y-94180000D03*
X75700000Y-91640000D03*
X75700000Y-89100000D03*
X75700000Y-86560000D03*
X75700000Y-84020000D03*
X75700000Y-81480000D03*
X75700000Y-78940000D03*
X75700000Y-76400000D03*
X75700000Y-73860000D03*
X75700000Y-71320000D03*
X75700000Y-68780000D03*
D14*
X82800000Y-120800000D03*
X82800000Y-55800000D03*
D15*
X82561400Y-88900000D03*
D16*
X80561400Y-88900000D03*
D13*
X57972000Y-61194000D03*
X57972000Y-58654000D03*
X60512000Y-61194000D03*
X60512000Y-58654000D03*
X63052000Y-61194000D03*
X63052000Y-58654000D03*
X65592000Y-61194000D03*
X65592000Y-58654000D03*
X68132000Y-61194000D03*
D12*
X68132000Y-58654000D03*
D17*
X80518000Y-82550000D03*
X83018000Y-82550000D03*
D18*
X65597000Y-56114000D03*
D12*
X73152000Y-56154000D03*
D13*
X73152000Y-58694000D03*
X73152000Y-61234000D03*
M02*
