G04 #@! TF.GenerationSoftware,KiCad,Pcbnew,(6.0.7)*
G04 #@! TF.CreationDate,2022-09-12T18:05:54-07:00*
G04 #@! TF.ProjectId,emu6802,656d7536-3830-4322-9e6b-696361645f70,rev?*
G04 #@! TF.SameCoordinates,Original*
G04 #@! TF.FileFunction,Legend,Top*
G04 #@! TF.FilePolarity,Positive*
%FSLAX46Y46*%
G04 Gerber Fmt 4.6, Leading zero omitted, Abs format (unit mm)*
G04 Created by KiCad (PCBNEW (6.0.7)) date 2022-09-12 18:05:54*
%MOMM*%
%LPD*%
G01*
G04 APERTURE LIST*
%ADD10C,0.150000*%
%ADD11C,0.120000*%
G04 APERTURE END LIST*
D10*
X68306904Y-64997571D02*
X67506904Y-64997571D01*
X68306904Y-64540428D01*
X67506904Y-64540428D01*
X68230714Y-63702333D02*
X68268809Y-63740428D01*
X68306904Y-63854714D01*
X68306904Y-63930904D01*
X68268809Y-64045190D01*
X68192619Y-64121380D01*
X68116428Y-64159476D01*
X67964047Y-64197571D01*
X67849761Y-64197571D01*
X67697380Y-64159476D01*
X67621190Y-64121380D01*
X67545000Y-64045190D01*
X67506904Y-63930904D01*
X67506904Y-63854714D01*
X67545000Y-63740428D01*
X67583095Y-63702333D01*
X63049142Y-65397571D02*
X63049142Y-64788047D01*
X63353904Y-65092809D02*
X62744380Y-65092809D01*
X62553904Y-64026142D02*
X62553904Y-64407095D01*
X62934857Y-64445190D01*
X62896761Y-64407095D01*
X62858666Y-64330904D01*
X62858666Y-64140428D01*
X62896761Y-64064238D01*
X62934857Y-64026142D01*
X63011047Y-63988047D01*
X63201523Y-63988047D01*
X63277714Y-64026142D01*
X63315809Y-64064238D01*
X63353904Y-64140428D01*
X63353904Y-64330904D01*
X63315809Y-64407095D01*
X63277714Y-64445190D01*
X62553904Y-63759476D02*
X63353904Y-63492809D01*
X62553904Y-63226142D01*
X57969142Y-65397571D02*
X57969142Y-64788047D01*
X58273904Y-65092809D02*
X57664380Y-65092809D01*
X57473904Y-64026142D02*
X57473904Y-64407095D01*
X57854857Y-64445190D01*
X57816761Y-64407095D01*
X57778666Y-64330904D01*
X57778666Y-64140428D01*
X57816761Y-64064238D01*
X57854857Y-64026142D01*
X57931047Y-63988047D01*
X58121523Y-63988047D01*
X58197714Y-64026142D01*
X58235809Y-64064238D01*
X58273904Y-64140428D01*
X58273904Y-64330904D01*
X58235809Y-64407095D01*
X58197714Y-64445190D01*
X57473904Y-63759476D02*
X58273904Y-63492809D01*
X57473904Y-63226142D01*
X65589142Y-65397571D02*
X65589142Y-64788047D01*
X65893904Y-65092809D02*
X65284380Y-65092809D01*
X65093904Y-64026142D02*
X65093904Y-64407095D01*
X65474857Y-64445190D01*
X65436761Y-64407095D01*
X65398666Y-64330904D01*
X65398666Y-64140428D01*
X65436761Y-64064238D01*
X65474857Y-64026142D01*
X65551047Y-63988047D01*
X65741523Y-63988047D01*
X65817714Y-64026142D01*
X65855809Y-64064238D01*
X65893904Y-64140428D01*
X65893904Y-64330904D01*
X65855809Y-64407095D01*
X65817714Y-64445190D01*
X65093904Y-63759476D02*
X65893904Y-63492809D01*
X65093904Y-63226142D01*
X60509142Y-65397571D02*
X60509142Y-64788047D01*
X60813904Y-65092809D02*
X60204380Y-65092809D01*
X60013904Y-64026142D02*
X60013904Y-64407095D01*
X60394857Y-64445190D01*
X60356761Y-64407095D01*
X60318666Y-64330904D01*
X60318666Y-64140428D01*
X60356761Y-64064238D01*
X60394857Y-64026142D01*
X60471047Y-63988047D01*
X60661523Y-63988047D01*
X60737714Y-64026142D01*
X60775809Y-64064238D01*
X60813904Y-64140428D01*
X60813904Y-64330904D01*
X60775809Y-64407095D01*
X60737714Y-64445190D01*
X60013904Y-63759476D02*
X60813904Y-63492809D01*
X60013904Y-63226142D01*
X79751904Y-65246190D02*
X79370952Y-65512857D01*
X79751904Y-65703333D02*
X78951904Y-65703333D01*
X78951904Y-65398571D01*
X78990000Y-65322380D01*
X79028095Y-65284285D01*
X79104285Y-65246190D01*
X79218571Y-65246190D01*
X79294761Y-65284285D01*
X79332857Y-65322380D01*
X79370952Y-65398571D01*
X79370952Y-65703333D01*
X79523333Y-64941428D02*
X79523333Y-64560476D01*
X79751904Y-65017619D02*
X78951904Y-64750952D01*
X79751904Y-64484285D01*
X79218571Y-63874761D02*
X79751904Y-63874761D01*
X78913809Y-64065238D02*
X79485238Y-64255714D01*
X79485238Y-63760476D01*
X85451904Y-75252285D02*
X85070952Y-75518952D01*
X85451904Y-75709428D02*
X84651904Y-75709428D01*
X84651904Y-75404666D01*
X84690000Y-75328476D01*
X84728095Y-75290380D01*
X84804285Y-75252285D01*
X84918571Y-75252285D01*
X84994761Y-75290380D01*
X85032857Y-75328476D01*
X85070952Y-75404666D01*
X85070952Y-75709428D01*
X85032857Y-74909428D02*
X85032857Y-74642761D01*
X85451904Y-74528476D02*
X85451904Y-74909428D01*
X84651904Y-74909428D01*
X84651904Y-74528476D01*
X64688904Y-53454285D02*
X64307952Y-53720952D01*
X64688904Y-53911428D02*
X63888904Y-53911428D01*
X63888904Y-53606666D01*
X63927000Y-53530476D01*
X63965095Y-53492380D01*
X64041285Y-53454285D01*
X64155571Y-53454285D01*
X64231761Y-53492380D01*
X64269857Y-53530476D01*
X64307952Y-53606666D01*
X64307952Y-53911428D01*
X64269857Y-53111428D02*
X64269857Y-52844761D01*
X64688904Y-52730476D02*
X64688904Y-53111428D01*
X63888904Y-53111428D01*
X63888904Y-52730476D01*
X75215809Y-56495904D02*
X74949142Y-56114952D01*
X74758666Y-56495904D02*
X74758666Y-55695904D01*
X75063428Y-55695904D01*
X75139619Y-55734000D01*
X75177714Y-55772095D01*
X75215809Y-55848285D01*
X75215809Y-55962571D01*
X75177714Y-56038761D01*
X75139619Y-56076857D01*
X75063428Y-56114952D01*
X74758666Y-56114952D01*
X75520571Y-56267333D02*
X75901523Y-56267333D01*
X75444380Y-56495904D02*
X75711047Y-55695904D01*
X75977714Y-56495904D01*
X76587238Y-55962571D02*
X76587238Y-56495904D01*
X76396761Y-55657809D02*
X76206285Y-56229238D01*
X76701523Y-56229238D01*
X59853000Y-56869476D02*
X59853000Y-56031380D01*
X60878904Y-56679000D02*
X60078904Y-56679000D01*
X60459857Y-56679000D02*
X60459857Y-56221857D01*
X60878904Y-56221857D02*
X60078904Y-56221857D01*
X59853000Y-56031380D02*
X59853000Y-55345666D01*
X60650333Y-55879000D02*
X60650333Y-55498047D01*
X60878904Y-55955190D02*
X60078904Y-55688523D01*
X60878904Y-55421857D01*
X59853000Y-55345666D02*
X59853000Y-54698047D01*
X60878904Y-54774238D02*
X60878904Y-55155190D01*
X60078904Y-55155190D01*
X59853000Y-54698047D02*
X59853000Y-54088523D01*
X60078904Y-54621857D02*
X60078904Y-54164714D01*
X60878904Y-54393285D02*
X60078904Y-54393285D01*
X79462142Y-73088569D02*
X79462142Y-72479045D01*
X79766904Y-72783807D02*
X79157380Y-72783807D01*
X78966904Y-71717140D02*
X78966904Y-72098093D01*
X79347857Y-72136188D01*
X79309761Y-72098093D01*
X79271666Y-72021902D01*
X79271666Y-71831426D01*
X79309761Y-71755236D01*
X79347857Y-71717140D01*
X79424047Y-71679045D01*
X79614523Y-71679045D01*
X79690714Y-71717140D01*
X79728809Y-71755236D01*
X79766904Y-71831426D01*
X79766904Y-72021902D01*
X79728809Y-72098093D01*
X79690714Y-72136188D01*
X78966904Y-71450474D02*
X79766904Y-71183807D01*
X78966904Y-70917140D01*
X79447142Y-69354571D02*
X79447142Y-68745047D01*
X79751904Y-69049809D02*
X79142380Y-69049809D01*
X78951904Y-67983142D02*
X78951904Y-68364095D01*
X79332857Y-68402190D01*
X79294761Y-68364095D01*
X79256666Y-68287904D01*
X79256666Y-68097428D01*
X79294761Y-68021238D01*
X79332857Y-67983142D01*
X79409047Y-67945047D01*
X79599523Y-67945047D01*
X79675714Y-67983142D01*
X79713809Y-68021238D01*
X79751904Y-68097428D01*
X79751904Y-68287904D01*
X79713809Y-68364095D01*
X79675714Y-68402190D01*
X78951904Y-67716476D02*
X79751904Y-67449809D01*
X78951904Y-67183142D01*
X65200000Y-53949523D02*
X65161904Y-54025714D01*
X65161904Y-54140000D01*
X65200000Y-54254285D01*
X65276190Y-54330476D01*
X65352380Y-54368571D01*
X65504761Y-54406666D01*
X65619047Y-54406666D01*
X65771428Y-54368571D01*
X65847619Y-54330476D01*
X65923809Y-54254285D01*
X65961904Y-54140000D01*
X65961904Y-54063809D01*
X65923809Y-53949523D01*
X65885714Y-53911428D01*
X65619047Y-53911428D01*
X65619047Y-54063809D01*
X65961904Y-53568571D02*
X65161904Y-53568571D01*
X65961904Y-53111428D01*
X65161904Y-53111428D01*
X65961904Y-52730476D02*
X65161904Y-52730476D01*
X65161904Y-52540000D01*
X65200000Y-52425714D01*
X65276190Y-52349523D01*
X65352380Y-52311428D01*
X65504761Y-52273333D01*
X65619047Y-52273333D01*
X65771428Y-52311428D01*
X65847619Y-52349523D01*
X65923809Y-52425714D01*
X65961904Y-52540000D01*
X65961904Y-52730476D01*
X75196761Y-61575904D02*
X74930095Y-61194952D01*
X74739619Y-61575904D02*
X74739619Y-60775904D01*
X75044380Y-60775904D01*
X75120571Y-60814000D01*
X75158666Y-60852095D01*
X75196761Y-60928285D01*
X75196761Y-61042571D01*
X75158666Y-61118761D01*
X75120571Y-61156857D01*
X75044380Y-61194952D01*
X74739619Y-61194952D01*
X75539619Y-61156857D02*
X75806285Y-61156857D01*
X75920571Y-61575904D02*
X75539619Y-61575904D01*
X75539619Y-60775904D01*
X75920571Y-60775904D01*
X76225333Y-60852095D02*
X76263428Y-60814000D01*
X76339619Y-60775904D01*
X76530095Y-60775904D01*
X76606285Y-60814000D01*
X76644380Y-60852095D01*
X76682476Y-60928285D01*
X76682476Y-61004476D01*
X76644380Y-61118761D01*
X76187238Y-61575904D01*
X76682476Y-61575904D01*
X57313000Y-57123523D02*
X57313000Y-56742571D01*
X58338904Y-56933047D02*
X57538904Y-56933047D01*
X57313000Y-56742571D02*
X57313000Y-55942571D01*
X58338904Y-56094952D02*
X57957952Y-56361619D01*
X58338904Y-56552095D02*
X57538904Y-56552095D01*
X57538904Y-56247333D01*
X57577000Y-56171142D01*
X57615095Y-56133047D01*
X57691285Y-56094952D01*
X57805571Y-56094952D01*
X57881761Y-56133047D01*
X57919857Y-56171142D01*
X57957952Y-56247333D01*
X57957952Y-56552095D01*
X57313000Y-55942571D02*
X57313000Y-55104476D01*
X58415095Y-55218761D02*
X58377000Y-55294952D01*
X58300809Y-55371142D01*
X58186523Y-55485428D01*
X58148428Y-55561619D01*
X58148428Y-55637809D01*
X58338904Y-55599714D02*
X58300809Y-55675904D01*
X58224619Y-55752095D01*
X58072238Y-55790190D01*
X57805571Y-55790190D01*
X57653190Y-55752095D01*
X57577000Y-55675904D01*
X57538904Y-55599714D01*
X57538904Y-55447333D01*
X57577000Y-55371142D01*
X57653190Y-55294952D01*
X57805571Y-55256857D01*
X58072238Y-55256857D01*
X58224619Y-55294952D01*
X58300809Y-55371142D01*
X58338904Y-55447333D01*
X58338904Y-55599714D01*
X84426000Y-69716476D02*
X84426000Y-68878380D01*
X85451904Y-69526000D02*
X84651904Y-69526000D01*
X85032857Y-69526000D02*
X85032857Y-69068857D01*
X85451904Y-69068857D02*
X84651904Y-69068857D01*
X84426000Y-68878380D02*
X84426000Y-68192666D01*
X85223333Y-68726000D02*
X85223333Y-68345047D01*
X85451904Y-68802190D02*
X84651904Y-68535523D01*
X85451904Y-68268857D01*
X84426000Y-68192666D02*
X84426000Y-67545047D01*
X85451904Y-67621238D02*
X85451904Y-68002190D01*
X84651904Y-68002190D01*
X84426000Y-67545047D02*
X84426000Y-66935523D01*
X84651904Y-67468857D02*
X84651904Y-67011714D01*
X85451904Y-67240285D02*
X84651904Y-67240285D01*
X84426000Y-65779523D02*
X84426000Y-65398571D01*
X85451904Y-65589047D02*
X84651904Y-65589047D01*
X84426000Y-65398571D02*
X84426000Y-64598571D01*
X85451904Y-64750952D02*
X85070952Y-65017619D01*
X85451904Y-65208095D02*
X84651904Y-65208095D01*
X84651904Y-64903333D01*
X84690000Y-64827142D01*
X84728095Y-64789047D01*
X84804285Y-64750952D01*
X84918571Y-64750952D01*
X84994761Y-64789047D01*
X85032857Y-64827142D01*
X85070952Y-64903333D01*
X85070952Y-65208095D01*
X84426000Y-64598571D02*
X84426000Y-63760476D01*
X85528095Y-63874761D02*
X85490000Y-63950952D01*
X85413809Y-64027142D01*
X85299523Y-64141428D01*
X85261428Y-64217619D01*
X85261428Y-64293809D01*
X85451904Y-64255714D02*
X85413809Y-64331904D01*
X85337619Y-64408095D01*
X85185238Y-64446190D01*
X84918571Y-64446190D01*
X84766190Y-64408095D01*
X84690000Y-64331904D01*
X84651904Y-64255714D01*
X84651904Y-64103333D01*
X84690000Y-64027142D01*
X84766190Y-63950952D01*
X84918571Y-63912857D01*
X85185238Y-63912857D01*
X85337619Y-63950952D01*
X85413809Y-64027142D01*
X85451904Y-64103333D01*
X85451904Y-64255714D01*
X79005000Y-75747523D02*
X78966904Y-75823714D01*
X78966904Y-75938000D01*
X79005000Y-76052285D01*
X79081190Y-76128476D01*
X79157380Y-76166571D01*
X79309761Y-76204666D01*
X79424047Y-76204666D01*
X79576428Y-76166571D01*
X79652619Y-76128476D01*
X79728809Y-76052285D01*
X79766904Y-75938000D01*
X79766904Y-75861809D01*
X79728809Y-75747523D01*
X79690714Y-75709428D01*
X79424047Y-75709428D01*
X79424047Y-75861809D01*
X79766904Y-75366571D02*
X78966904Y-75366571D01*
X79766904Y-74909428D01*
X78966904Y-74909428D01*
X79766904Y-74528476D02*
X78966904Y-74528476D01*
X78966904Y-74338000D01*
X79005000Y-74223714D01*
X79081190Y-74147523D01*
X79157380Y-74109428D01*
X79309761Y-74071333D01*
X79424047Y-74071333D01*
X79576428Y-74109428D01*
X79652619Y-74147523D01*
X79728809Y-74223714D01*
X79766904Y-74338000D01*
X79766904Y-74528476D01*
X62393000Y-57180666D02*
X62393000Y-56342571D01*
X63418904Y-56990190D02*
X62618904Y-56990190D01*
X63418904Y-56533047D01*
X62618904Y-56533047D01*
X62393000Y-56342571D02*
X62393000Y-55428285D01*
X63418904Y-56152095D02*
X62618904Y-56152095D01*
X63190333Y-55885428D01*
X62618904Y-55618761D01*
X63418904Y-55618761D01*
X62393000Y-55428285D02*
X62393000Y-55047333D01*
X63418904Y-55237809D02*
X62618904Y-55237809D01*
X84426000Y-73126664D02*
X84426000Y-72288569D01*
X85451904Y-72936188D02*
X84651904Y-72936188D01*
X85451904Y-72479045D01*
X84651904Y-72479045D01*
X84426000Y-72288569D02*
X84426000Y-71374283D01*
X85451904Y-72098093D02*
X84651904Y-72098093D01*
X85223333Y-71831426D01*
X84651904Y-71564759D01*
X85451904Y-71564759D01*
X84426000Y-71374283D02*
X84426000Y-70993331D01*
X85451904Y-71183807D02*
X84651904Y-71183807D01*
X68079857Y-55764714D02*
X68117952Y-55650428D01*
X68156047Y-55612333D01*
X68232238Y-55574238D01*
X68346523Y-55574238D01*
X68422714Y-55612333D01*
X68460809Y-55650428D01*
X68498904Y-55726619D01*
X68498904Y-56031380D01*
X67698904Y-56031380D01*
X67698904Y-55764714D01*
X67737000Y-55688523D01*
X67775095Y-55650428D01*
X67851285Y-55612333D01*
X67927476Y-55612333D01*
X68003666Y-55650428D01*
X68041761Y-55688523D01*
X68079857Y-55764714D01*
X68079857Y-56031380D01*
X68270333Y-55269476D02*
X68270333Y-54888523D01*
X68498904Y-55345666D02*
X67698904Y-55079000D01*
X68498904Y-54812333D01*
X60937238Y-120746571D02*
X61270571Y-120746571D01*
X61413428Y-121270380D02*
X60937238Y-121270380D01*
X60937238Y-120270380D01*
X61413428Y-120270380D01*
X61842000Y-121270380D02*
X61842000Y-120270380D01*
X62175333Y-120984666D01*
X62508666Y-120270380D01*
X62508666Y-121270380D01*
X62984857Y-120270380D02*
X62984857Y-121079904D01*
X63032476Y-121175142D01*
X63080095Y-121222761D01*
X63175333Y-121270380D01*
X63365809Y-121270380D01*
X63461047Y-121222761D01*
X63508666Y-121175142D01*
X63556285Y-121079904D01*
X63556285Y-120270380D01*
X64461047Y-120270380D02*
X64270571Y-120270380D01*
X64175333Y-120318000D01*
X64127714Y-120365619D01*
X64032476Y-120508476D01*
X63984857Y-120698952D01*
X63984857Y-121079904D01*
X64032476Y-121175142D01*
X64080095Y-121222761D01*
X64175333Y-121270380D01*
X64365809Y-121270380D01*
X64461047Y-121222761D01*
X64508666Y-121175142D01*
X64556285Y-121079904D01*
X64556285Y-120841809D01*
X64508666Y-120746571D01*
X64461047Y-120698952D01*
X64365809Y-120651333D01*
X64175333Y-120651333D01*
X64080095Y-120698952D01*
X64032476Y-120746571D01*
X63984857Y-120841809D01*
X65127714Y-120698952D02*
X65032476Y-120651333D01*
X64984857Y-120603714D01*
X64937238Y-120508476D01*
X64937238Y-120460857D01*
X64984857Y-120365619D01*
X65032476Y-120318000D01*
X65127714Y-120270380D01*
X65318190Y-120270380D01*
X65413428Y-120318000D01*
X65461047Y-120365619D01*
X65508666Y-120460857D01*
X65508666Y-120508476D01*
X65461047Y-120603714D01*
X65413428Y-120651333D01*
X65318190Y-120698952D01*
X65127714Y-120698952D01*
X65032476Y-120746571D01*
X64984857Y-120794190D01*
X64937238Y-120889428D01*
X64937238Y-121079904D01*
X64984857Y-121175142D01*
X65032476Y-121222761D01*
X65127714Y-121270380D01*
X65318190Y-121270380D01*
X65413428Y-121222761D01*
X65461047Y-121175142D01*
X65508666Y-121079904D01*
X65508666Y-120889428D01*
X65461047Y-120794190D01*
X65413428Y-120746571D01*
X65318190Y-120698952D01*
X66127714Y-120270380D02*
X66222952Y-120270380D01*
X66318190Y-120318000D01*
X66365809Y-120365619D01*
X66413428Y-120460857D01*
X66461047Y-120651333D01*
X66461047Y-120889428D01*
X66413428Y-121079904D01*
X66365809Y-121175142D01*
X66318190Y-121222761D01*
X66222952Y-121270380D01*
X66127714Y-121270380D01*
X66032476Y-121222761D01*
X65984857Y-121175142D01*
X65937238Y-121079904D01*
X65889619Y-120889428D01*
X65889619Y-120651333D01*
X65937238Y-120460857D01*
X65984857Y-120365619D01*
X66032476Y-120318000D01*
X66127714Y-120270380D01*
X66842000Y-120365619D02*
X66889619Y-120318000D01*
X66984857Y-120270380D01*
X67222952Y-120270380D01*
X67318190Y-120318000D01*
X67365809Y-120365619D01*
X67413428Y-120460857D01*
X67413428Y-120556095D01*
X67365809Y-120698952D01*
X66794380Y-121270380D01*
X67413428Y-121270380D01*
X68937238Y-120746571D02*
X68603904Y-120746571D01*
X68603904Y-121270380D02*
X68603904Y-120270380D01*
X69080095Y-120270380D01*
X69651523Y-120270380D02*
X69842000Y-120270380D01*
X69937238Y-120318000D01*
X70032476Y-120413238D01*
X70080095Y-120603714D01*
X70080095Y-120937047D01*
X70032476Y-121127523D01*
X69937238Y-121222761D01*
X69842000Y-121270380D01*
X69651523Y-121270380D01*
X69556285Y-121222761D01*
X69461047Y-121127523D01*
X69413428Y-120937047D01*
X69413428Y-120603714D01*
X69461047Y-120413238D01*
X69556285Y-120318000D01*
X69651523Y-120270380D01*
X71080095Y-121270380D02*
X70746761Y-120794190D01*
X70508666Y-121270380D02*
X70508666Y-120270380D01*
X70889619Y-120270380D01*
X70984857Y-120318000D01*
X71032476Y-120365619D01*
X71080095Y-120460857D01*
X71080095Y-120603714D01*
X71032476Y-120698952D01*
X70984857Y-120746571D01*
X70889619Y-120794190D01*
X70508666Y-120794190D01*
X72270571Y-120746571D02*
X72603904Y-120746571D01*
X72746761Y-121270380D02*
X72270571Y-121270380D01*
X72270571Y-120270380D01*
X72746761Y-120270380D01*
X73175333Y-121270380D02*
X73175333Y-120270380D01*
X73508666Y-120984666D01*
X73842000Y-120270380D01*
X73842000Y-121270380D01*
X74318190Y-120270380D02*
X74318190Y-121079904D01*
X74365809Y-121175142D01*
X74413428Y-121222761D01*
X74508666Y-121270380D01*
X74699142Y-121270380D01*
X74794380Y-121222761D01*
X74842000Y-121175142D01*
X74889619Y-121079904D01*
X74889619Y-120270380D01*
X75270571Y-120270380D02*
X75937238Y-120270380D01*
X75270571Y-121270380D01*
X75937238Y-121270380D01*
X76461047Y-120698952D02*
X76365809Y-120651333D01*
X76318190Y-120603714D01*
X76270571Y-120508476D01*
X76270571Y-120460857D01*
X76318190Y-120365619D01*
X76365809Y-120318000D01*
X76461047Y-120270380D01*
X76651523Y-120270380D01*
X76746761Y-120318000D01*
X76794380Y-120365619D01*
X76842000Y-120460857D01*
X76842000Y-120508476D01*
X76794380Y-120603714D01*
X76746761Y-120651333D01*
X76651523Y-120698952D01*
X76461047Y-120698952D01*
X76365809Y-120746571D01*
X76318190Y-120794190D01*
X76270571Y-120889428D01*
X76270571Y-121079904D01*
X76318190Y-121175142D01*
X76365809Y-121222761D01*
X76461047Y-121270380D01*
X76651523Y-121270380D01*
X76746761Y-121222761D01*
X76794380Y-121175142D01*
X76842000Y-121079904D01*
X76842000Y-120889428D01*
X76794380Y-120794190D01*
X76746761Y-120746571D01*
X76651523Y-120698952D01*
X77461047Y-120270380D02*
X77556285Y-120270380D01*
X77651523Y-120318000D01*
X77699142Y-120365619D01*
X77746761Y-120460857D01*
X77794380Y-120651333D01*
X77794380Y-120889428D01*
X77746761Y-121079904D01*
X77699142Y-121175142D01*
X77651523Y-121222761D01*
X77556285Y-121270380D01*
X77461047Y-121270380D01*
X77365809Y-121222761D01*
X77318190Y-121175142D01*
X77270571Y-121079904D01*
X77222952Y-120889428D01*
X77222952Y-120651333D01*
X77270571Y-120460857D01*
X77318190Y-120365619D01*
X77365809Y-120318000D01*
X77461047Y-120270380D01*
X68294380Y-122880380D02*
X67961047Y-122404190D01*
X67722952Y-122880380D02*
X67722952Y-121880380D01*
X68103904Y-121880380D01*
X68199142Y-121928000D01*
X68246761Y-121975619D01*
X68294380Y-122070857D01*
X68294380Y-122213714D01*
X68246761Y-122308952D01*
X68199142Y-122356571D01*
X68103904Y-122404190D01*
X67722952Y-122404190D01*
X68722952Y-122356571D02*
X69056285Y-122356571D01*
X69199142Y-122880380D02*
X68722952Y-122880380D01*
X68722952Y-121880380D01*
X69199142Y-121880380D01*
X69484857Y-121880380D02*
X69818190Y-122880380D01*
X70151523Y-121880380D01*
X71008666Y-122880380D02*
X70437238Y-122880380D01*
X70722952Y-122880380D02*
X70722952Y-121880380D01*
X70627714Y-122023238D01*
X70532476Y-122118476D01*
X70437238Y-122166095D01*
X63556285Y-123585619D02*
X63603904Y-123538000D01*
X63699142Y-123490380D01*
X63937238Y-123490380D01*
X64032476Y-123538000D01*
X64080095Y-123585619D01*
X64127714Y-123680857D01*
X64127714Y-123776095D01*
X64080095Y-123918952D01*
X63508666Y-124490380D01*
X64127714Y-124490380D01*
X64746761Y-123490380D02*
X64842000Y-123490380D01*
X64937238Y-123538000D01*
X64984857Y-123585619D01*
X65032476Y-123680857D01*
X65080095Y-123871333D01*
X65080095Y-124109428D01*
X65032476Y-124299904D01*
X64984857Y-124395142D01*
X64937238Y-124442761D01*
X64842000Y-124490380D01*
X64746761Y-124490380D01*
X64651523Y-124442761D01*
X64603904Y-124395142D01*
X64556285Y-124299904D01*
X64508666Y-124109428D01*
X64508666Y-123871333D01*
X64556285Y-123680857D01*
X64603904Y-123585619D01*
X64651523Y-123538000D01*
X64746761Y-123490380D01*
X65461047Y-123585619D02*
X65508666Y-123538000D01*
X65603904Y-123490380D01*
X65842000Y-123490380D01*
X65937238Y-123538000D01*
X65984857Y-123585619D01*
X66032476Y-123680857D01*
X66032476Y-123776095D01*
X65984857Y-123918952D01*
X65413428Y-124490380D01*
X66032476Y-124490380D01*
X66413428Y-123585619D02*
X66461047Y-123538000D01*
X66556285Y-123490380D01*
X66794380Y-123490380D01*
X66889619Y-123538000D01*
X66937238Y-123585619D01*
X66984857Y-123680857D01*
X66984857Y-123776095D01*
X66937238Y-123918952D01*
X66365809Y-124490380D01*
X66984857Y-124490380D01*
X68746761Y-124490380D02*
X68413428Y-124014190D01*
X68175333Y-124490380D02*
X68175333Y-123490380D01*
X68556285Y-123490380D01*
X68651523Y-123538000D01*
X68699142Y-123585619D01*
X68746761Y-123680857D01*
X68746761Y-123823714D01*
X68699142Y-123918952D01*
X68651523Y-123966571D01*
X68556285Y-124014190D01*
X68175333Y-124014190D01*
X69080095Y-123823714D02*
X69318190Y-124490380D01*
X69556285Y-123823714D02*
X69318190Y-124490380D01*
X69222952Y-124728476D01*
X69175333Y-124776095D01*
X69080095Y-124823714D01*
X70365809Y-123823714D02*
X70365809Y-124490380D01*
X69937238Y-123823714D02*
X69937238Y-124347523D01*
X69984857Y-124442761D01*
X70080095Y-124490380D01*
X70222952Y-124490380D01*
X70318190Y-124442761D01*
X70365809Y-124395142D01*
X70794380Y-124442761D02*
X70937238Y-124490380D01*
X71175333Y-124490380D01*
X71270571Y-124442761D01*
X71318190Y-124395142D01*
X71365809Y-124299904D01*
X71365809Y-124204666D01*
X71318190Y-124109428D01*
X71270571Y-124061809D01*
X71175333Y-124014190D01*
X70984857Y-123966571D01*
X70889619Y-123918952D01*
X70842000Y-123871333D01*
X70794380Y-123776095D01*
X70794380Y-123680857D01*
X70842000Y-123585619D01*
X70889619Y-123538000D01*
X70984857Y-123490380D01*
X71222952Y-123490380D01*
X71365809Y-123538000D01*
X71651523Y-123823714D02*
X72032476Y-123823714D01*
X71794380Y-123490380D02*
X71794380Y-124347523D01*
X71842000Y-124442761D01*
X71937238Y-124490380D01*
X72032476Y-124490380D01*
X72794380Y-123823714D02*
X72794380Y-124490380D01*
X72365809Y-123823714D02*
X72365809Y-124347523D01*
X72413428Y-124442761D01*
X72508666Y-124490380D01*
X72651523Y-124490380D01*
X72746761Y-124442761D01*
X72794380Y-124395142D01*
X73699142Y-124490380D02*
X73699142Y-123490380D01*
X73699142Y-124442761D02*
X73603904Y-124490380D01*
X73413428Y-124490380D01*
X73318190Y-124442761D01*
X73270571Y-124395142D01*
X73222952Y-124299904D01*
X73222952Y-124014190D01*
X73270571Y-123918952D01*
X73318190Y-123871333D01*
X73413428Y-123823714D01*
X73603904Y-123823714D01*
X73699142Y-123871333D01*
X74175333Y-124490380D02*
X74175333Y-123823714D01*
X74175333Y-123490380D02*
X74127714Y-123538000D01*
X74175333Y-123585619D01*
X74222952Y-123538000D01*
X74175333Y-123490380D01*
X74175333Y-123585619D01*
X74794380Y-124490380D02*
X74699142Y-124442761D01*
X74651523Y-124395142D01*
X74603904Y-124299904D01*
X74603904Y-124014190D01*
X74651523Y-123918952D01*
X74699142Y-123871333D01*
X74794380Y-123823714D01*
X74937238Y-123823714D01*
X75032476Y-123871333D01*
X75080095Y-123918952D01*
X75127714Y-124014190D01*
X75127714Y-124299904D01*
X75080095Y-124395142D01*
X75032476Y-124442761D01*
X74937238Y-124490380D01*
X74794380Y-124490380D01*
X75196761Y-59035904D02*
X74930095Y-58654952D01*
X74739619Y-59035904D02*
X74739619Y-58235904D01*
X75044380Y-58235904D01*
X75120571Y-58274000D01*
X75158666Y-58312095D01*
X75196761Y-58388285D01*
X75196761Y-58502571D01*
X75158666Y-58578761D01*
X75120571Y-58616857D01*
X75044380Y-58654952D01*
X74739619Y-58654952D01*
X75539619Y-58616857D02*
X75806285Y-58616857D01*
X75920571Y-59035904D02*
X75539619Y-59035904D01*
X75539619Y-58235904D01*
X75920571Y-58235904D01*
X76682476Y-59035904D02*
X76225333Y-59035904D01*
X76453904Y-59035904D02*
X76453904Y-58235904D01*
X76377714Y-58350190D01*
X76301523Y-58426380D01*
X76225333Y-58464476D01*
X66683095Y-65902380D02*
X66683095Y-66711904D01*
X66730714Y-66807142D01*
X66778333Y-66854761D01*
X66873571Y-66902380D01*
X67064047Y-66902380D01*
X67159285Y-66854761D01*
X67206904Y-66807142D01*
X67254523Y-66711904D01*
X67254523Y-65902380D01*
X68254523Y-66902380D02*
X67683095Y-66902380D01*
X67968809Y-66902380D02*
X67968809Y-65902380D01*
X67873571Y-66045238D01*
X67778333Y-66140476D01*
X67683095Y-66188095D01*
X55503866Y-65057380D02*
X55503866Y-65771666D01*
X55456247Y-65914523D01*
X55361009Y-66009761D01*
X55218152Y-66057380D01*
X55122914Y-66057380D01*
X56503866Y-66057380D02*
X55932438Y-66057380D01*
X56218152Y-66057380D02*
X56218152Y-65057380D01*
X56122914Y-65200238D01*
X56027676Y-65295476D01*
X55932438Y-65343095D01*
X78406666Y-117822380D02*
X78406666Y-118536666D01*
X78359047Y-118679523D01*
X78263809Y-118774761D01*
X78120952Y-118822380D01*
X78025714Y-118822380D01*
X78835238Y-117917619D02*
X78882857Y-117870000D01*
X78978095Y-117822380D01*
X79216190Y-117822380D01*
X79311428Y-117870000D01*
X79359047Y-117917619D01*
X79406666Y-118012857D01*
X79406666Y-118108095D01*
X79359047Y-118250952D01*
X78787619Y-118822380D01*
X79406666Y-118822380D01*
X84204733Y-86717142D02*
X84157114Y-86764761D01*
X84014257Y-86812380D01*
X83919019Y-86812380D01*
X83776161Y-86764761D01*
X83680923Y-86669523D01*
X83633304Y-86574285D01*
X83585685Y-86383809D01*
X83585685Y-86240952D01*
X83633304Y-86050476D01*
X83680923Y-85955238D01*
X83776161Y-85860000D01*
X83919019Y-85812380D01*
X84014257Y-85812380D01*
X84157114Y-85860000D01*
X84204733Y-85907619D01*
X84585685Y-85907619D02*
X84633304Y-85860000D01*
X84728542Y-85812380D01*
X84966638Y-85812380D01*
X85061876Y-85860000D01*
X85109495Y-85907619D01*
X85157114Y-86002857D01*
X85157114Y-86098095D01*
X85109495Y-86240952D01*
X84538066Y-86812380D01*
X85157114Y-86812380D01*
X54889380Y-60257333D02*
X55603666Y-60257333D01*
X55746523Y-60304952D01*
X55841761Y-60400190D01*
X55889380Y-60543047D01*
X55889380Y-60638285D01*
X54889380Y-59304952D02*
X54889380Y-59781142D01*
X55365571Y-59828761D01*
X55317952Y-59781142D01*
X55270333Y-59685904D01*
X55270333Y-59447809D01*
X55317952Y-59352571D01*
X55365571Y-59304952D01*
X55460809Y-59257333D01*
X55698904Y-59257333D01*
X55794142Y-59304952D01*
X55841761Y-59352571D01*
X55889380Y-59447809D01*
X55889380Y-59685904D01*
X55841761Y-59781142D01*
X55794142Y-59828761D01*
X84121333Y-80657142D02*
X84073714Y-80704761D01*
X83930857Y-80752380D01*
X83835619Y-80752380D01*
X83692761Y-80704761D01*
X83597523Y-80609523D01*
X83549904Y-80514285D01*
X83502285Y-80323809D01*
X83502285Y-80180952D01*
X83549904Y-79990476D01*
X83597523Y-79895238D01*
X83692761Y-79800000D01*
X83835619Y-79752380D01*
X83930857Y-79752380D01*
X84073714Y-79800000D01*
X84121333Y-79847619D01*
X85073714Y-80752380D02*
X84502285Y-80752380D01*
X84788000Y-80752380D02*
X84788000Y-79752380D01*
X84692761Y-79895238D01*
X84597523Y-79990476D01*
X84502285Y-80038095D01*
X62444380Y-53907333D02*
X63158666Y-53907333D01*
X63301523Y-53954952D01*
X63396761Y-54050190D01*
X63444380Y-54193047D01*
X63444380Y-54288285D01*
X62777714Y-53002571D02*
X63444380Y-53002571D01*
X62396761Y-53240666D02*
X63111047Y-53478761D01*
X63111047Y-52859714D01*
X75144380Y-53927333D02*
X75858666Y-53927333D01*
X76001523Y-53974952D01*
X76096761Y-54070190D01*
X76144380Y-54213047D01*
X76144380Y-54308285D01*
X75144380Y-53546380D02*
X75144380Y-52927333D01*
X75525333Y-53260666D01*
X75525333Y-53117809D01*
X75572952Y-53022571D01*
X75620571Y-52974952D01*
X75715809Y-52927333D01*
X75953904Y-52927333D01*
X76049142Y-52974952D01*
X76096761Y-53022571D01*
X76144380Y-53117809D01*
X76144380Y-53403523D01*
X76096761Y-53498761D01*
X76049142Y-53546380D01*
D11*
X59080000Y-118370000D02*
X72000000Y-118370000D01*
X72000000Y-118370000D02*
X72000000Y-67450000D01*
X64540000Y-67450000D02*
X59080000Y-67450000D01*
X72000000Y-67450000D02*
X66540000Y-67450000D01*
X59080000Y-67450000D02*
X59080000Y-118370000D01*
X64540000Y-67450000D02*
G75*
G03*
X66540000Y-67450000I1000000J0D01*
G01*
X54250000Y-118370000D02*
X56510000Y-118370000D01*
X54250000Y-70050000D02*
X56510000Y-70050000D01*
X54250000Y-70050000D02*
X54250000Y-118370000D01*
X54250000Y-68780000D02*
X54250000Y-67450000D01*
X56510000Y-70050000D02*
X56510000Y-118370000D01*
X54250000Y-67450000D02*
X55380000Y-67450000D01*
X76830000Y-117040000D02*
X76830000Y-118370000D01*
X76830000Y-115770000D02*
X76830000Y-67450000D01*
X76830000Y-118370000D02*
X75700000Y-118370000D01*
X74570000Y-115770000D02*
X74570000Y-67450000D01*
X76830000Y-67450000D02*
X74570000Y-67450000D01*
X76830000Y-115770000D02*
X74570000Y-115770000D01*
X83681400Y-88900000D02*
G75*
G03*
X83681400Y-88900000I-2120000J0D01*
G01*
X82442400Y-89740000D02*
X82442400Y-90789000D01*
X82201400Y-89740000D02*
X82201400Y-90882000D01*
X82602400Y-89740000D02*
X82602400Y-90708000D01*
X83202400Y-87596000D02*
X83202400Y-88060000D01*
X83002400Y-87384000D02*
X83002400Y-88060000D01*
X83002400Y-89740000D02*
X83002400Y-90416000D01*
X83562400Y-88236000D02*
X83562400Y-89564000D01*
X81841400Y-89740000D02*
X81841400Y-90962000D01*
X82922400Y-87313000D02*
X82922400Y-88060000D01*
X83322400Y-89740000D02*
X83322400Y-90042000D01*
X82482400Y-87030000D02*
X82482400Y-88060000D01*
X81881400Y-86844000D02*
X81881400Y-88060000D01*
X83202400Y-89740000D02*
X83202400Y-90204000D01*
X82802400Y-89740000D02*
X82802400Y-90580000D01*
X83362400Y-89740000D02*
X83362400Y-89980000D01*
X82081400Y-86884000D02*
X82081400Y-88060000D01*
X79491599Y-87505000D02*
X79491599Y-87905000D01*
X81761400Y-89740000D02*
X81761400Y-90971000D01*
X81641400Y-86821000D02*
X81641400Y-90979000D01*
X83042400Y-87422000D02*
X83042400Y-88060000D01*
X83602400Y-88363000D02*
X83602400Y-89437000D01*
X83282400Y-87700000D02*
X83282400Y-88060000D01*
X81841400Y-86838000D02*
X81841400Y-88060000D01*
X82962400Y-87348000D02*
X82962400Y-88060000D01*
X82642400Y-89740000D02*
X82642400Y-90685000D01*
X82522400Y-89740000D02*
X82522400Y-90751000D01*
X83442400Y-87960000D02*
X83442400Y-89840000D01*
X82842400Y-87250000D02*
X82842400Y-88060000D01*
X83322400Y-87758000D02*
X83322400Y-88060000D01*
X82282400Y-89740000D02*
X82282400Y-90854000D01*
X81801400Y-89740000D02*
X81801400Y-90967000D01*
X81601400Y-86820000D02*
X81601400Y-90980000D01*
X83282400Y-89740000D02*
X83282400Y-90100000D01*
X82722400Y-89740000D02*
X82722400Y-90635000D01*
X82802400Y-87220000D02*
X82802400Y-88060000D01*
X82882400Y-89740000D02*
X82882400Y-90519000D01*
X83242400Y-89740000D02*
X83242400Y-90154000D01*
X82842400Y-89740000D02*
X82842400Y-90550000D01*
X82322400Y-86960000D02*
X82322400Y-88060000D01*
X82442400Y-87011000D02*
X82442400Y-88060000D01*
X82201400Y-86918000D02*
X82201400Y-88060000D01*
X82161400Y-86906000D02*
X82161400Y-88060000D01*
X81761400Y-86829000D02*
X81761400Y-88060000D01*
X83122400Y-87504000D02*
X83122400Y-88060000D01*
X83042400Y-89740000D02*
X83042400Y-90378000D01*
X81561400Y-86820000D02*
X81561400Y-90980000D01*
X82041400Y-86875000D02*
X82041400Y-88060000D01*
X82081400Y-89740000D02*
X82081400Y-90916000D01*
X82762400Y-87192000D02*
X82762400Y-88060000D01*
X81801400Y-86833000D02*
X81801400Y-88060000D01*
X81961400Y-86858000D02*
X81961400Y-88060000D01*
X81881400Y-89740000D02*
X81881400Y-90956000D01*
X83082400Y-87462000D02*
X83082400Y-88060000D01*
X82001400Y-86866000D02*
X82001400Y-88060000D01*
X83082400Y-89740000D02*
X83082400Y-90338000D01*
X83522400Y-88132000D02*
X83522400Y-89668000D01*
X81721400Y-86826000D02*
X81721400Y-90974000D01*
X81921400Y-89740000D02*
X81921400Y-90950000D01*
X82322400Y-89740000D02*
X82322400Y-90840000D01*
X82241400Y-86932000D02*
X82241400Y-88060000D01*
X83362400Y-87820000D02*
X83362400Y-88060000D01*
X82041400Y-89740000D02*
X82041400Y-90925000D01*
X83162400Y-89740000D02*
X83162400Y-90251000D01*
X82642400Y-87115000D02*
X82642400Y-88060000D01*
X82362400Y-86976000D02*
X82362400Y-88060000D01*
X82922400Y-89740000D02*
X82922400Y-90487000D01*
X81681400Y-86823000D02*
X81681400Y-90977000D01*
X82562400Y-87070000D02*
X82562400Y-88060000D01*
X81961400Y-89740000D02*
X81961400Y-90942000D01*
X83162400Y-87549000D02*
X83162400Y-88060000D01*
X82762400Y-89740000D02*
X82762400Y-90608000D01*
X83242400Y-87646000D02*
X83242400Y-88060000D01*
X82482400Y-89740000D02*
X82482400Y-90770000D01*
X83482400Y-88041000D02*
X83482400Y-89759000D01*
X82402400Y-89740000D02*
X82402400Y-90807000D01*
X83122400Y-89740000D02*
X83122400Y-90296000D01*
X82121400Y-86895000D02*
X82121400Y-88060000D01*
X82362400Y-89740000D02*
X82362400Y-90824000D01*
X82682400Y-89740000D02*
X82682400Y-90660000D01*
X82682400Y-87140000D02*
X82682400Y-88060000D01*
X82602400Y-87092000D02*
X82602400Y-88060000D01*
X82402400Y-86993000D02*
X82402400Y-88060000D01*
X83642400Y-88530000D02*
X83642400Y-89270000D01*
X82161400Y-89740000D02*
X82161400Y-90894000D01*
X82241400Y-89740000D02*
X82241400Y-90868000D01*
X82722400Y-87165000D02*
X82722400Y-88060000D01*
X81921400Y-86850000D02*
X81921400Y-88060000D01*
X82522400Y-87049000D02*
X82522400Y-88060000D01*
X82962400Y-89740000D02*
X82962400Y-90452000D01*
X82121400Y-89740000D02*
X82121400Y-90905000D01*
X82282400Y-86946000D02*
X82282400Y-88060000D01*
X79291599Y-87705000D02*
X79691599Y-87705000D01*
X83402400Y-87887000D02*
X83402400Y-89913000D01*
X82001400Y-89740000D02*
X82001400Y-90934000D01*
X82562400Y-89740000D02*
X82562400Y-90730000D01*
X82882400Y-87281000D02*
X82882400Y-88060000D01*
X81230000Y-63770000D02*
G75*
G03*
X80530000Y-64470000I-1J-699999D01*
G01*
X80530000Y-65070000D02*
G75*
G03*
X81230000Y-65770000I699999J-1D01*
G01*
X83330000Y-64470000D02*
G75*
G03*
X82630000Y-63770000I-700000J0D01*
G01*
X82630000Y-65770000D02*
G75*
G03*
X83330000Y-65070000I0J700000D01*
G01*
X82630000Y-65770000D02*
X81230000Y-65770000D01*
X83330000Y-64470000D02*
X83330000Y-65070000D01*
X80530000Y-65070000D02*
X80530000Y-64470000D01*
X81230000Y-63770000D02*
X82630000Y-63770000D01*
X81230000Y-67326000D02*
G75*
G03*
X80530000Y-68026000I-1J-699999D01*
G01*
X83330000Y-68026000D02*
G75*
G03*
X82630000Y-67326000I-700000J0D01*
G01*
X82630000Y-69326000D02*
G75*
G03*
X83330000Y-68626000I0J700000D01*
G01*
X80530000Y-68626000D02*
G75*
G03*
X81230000Y-69326000I699999J-1D01*
G01*
X80530000Y-68626000D02*
X80530000Y-68026000D01*
X81230000Y-67326000D02*
X82630000Y-67326000D01*
X83330000Y-68026000D02*
X83330000Y-68626000D01*
X82630000Y-69326000D02*
X81230000Y-69326000D01*
X69462000Y-57663400D02*
X69462000Y-58654000D01*
X69462000Y-59924000D02*
X69462000Y-62524000D01*
X66862000Y-57638000D02*
X56642000Y-57638000D01*
X66862000Y-59924000D02*
X69462000Y-59924000D01*
X69462000Y-62524000D02*
X56642000Y-62524000D01*
X68132000Y-57663400D02*
X69462000Y-57663400D01*
X66862000Y-57638000D02*
X66862000Y-59924000D01*
X56642000Y-57638000D02*
X56642000Y-62524000D01*
X80148000Y-83605000D02*
X80148000Y-83670000D01*
X80148000Y-81430000D02*
X83388000Y-81430000D01*
X83388000Y-83605000D02*
X83388000Y-83670000D01*
X80148000Y-81430000D02*
X80148000Y-81495000D01*
X80148000Y-83670000D02*
X83388000Y-83670000D01*
X83388000Y-81430000D02*
X83388000Y-81495000D01*
X81230000Y-70882000D02*
G75*
G03*
X80530000Y-71582000I-1J-699999D01*
G01*
X80530000Y-72182000D02*
G75*
G03*
X81230000Y-72882000I699999J-1D01*
G01*
X83330000Y-71582000D02*
G75*
G03*
X82630000Y-70882000I-700000J0D01*
G01*
X82630000Y-72882000D02*
G75*
G03*
X83330000Y-72182000I0J700000D01*
G01*
X82630000Y-72882000D02*
X81230000Y-72882000D01*
X80530000Y-72182000D02*
X80530000Y-71582000D01*
X81230000Y-70882000D02*
X82630000Y-70882000D01*
X83330000Y-71582000D02*
X83330000Y-72182000D01*
X81230000Y-73930000D02*
G75*
G03*
X80530000Y-74630000I-1J-699999D01*
G01*
X83330000Y-74630000D02*
G75*
G03*
X82630000Y-73930000I-700000J0D01*
G01*
X82630000Y-75930000D02*
G75*
G03*
X83330000Y-75230000I0J700000D01*
G01*
X80530000Y-75230000D02*
G75*
G03*
X81230000Y-75930000I699999J-1D01*
G01*
X80530000Y-75230000D02*
X80530000Y-74630000D01*
X81230000Y-73930000D02*
X82630000Y-73930000D01*
X82630000Y-75930000D02*
X81230000Y-75930000D01*
X83330000Y-74630000D02*
X83330000Y-75230000D01*
X66927000Y-57282400D02*
X66927000Y-54784000D01*
X66867000Y-54784000D02*
X66927000Y-54784000D01*
X64276200Y-57261600D02*
X64276200Y-55931600D01*
X66917800Y-57257000D02*
X66892400Y-57257000D01*
X65597000Y-57282400D02*
X64267000Y-57282400D01*
X66867000Y-57307800D02*
X66867000Y-54784000D01*
X71822000Y-54824000D02*
X73152000Y-54824000D01*
X71822000Y-57424000D02*
X74482000Y-57424000D01*
X71822000Y-56154000D02*
X71822000Y-54824000D01*
X71822000Y-62564000D02*
X74482000Y-62564000D01*
X71822000Y-57424000D02*
X71822000Y-62564000D01*
X74482000Y-57424000D02*
X74482000Y-62564000D01*
M02*
