G04 #@! TF.GenerationSoftware,KiCad,Pcbnew,(6.0.7)*
G04 #@! TF.CreationDate,2022-09-12T18:05:54-07:00*
G04 #@! TF.ProjectId,emu6802,656d7536-3830-4322-9e6b-696361645f70,rev?*
G04 #@! TF.SameCoordinates,Original*
G04 #@! TF.FileFunction,Soldermask,Top*
G04 #@! TF.FilePolarity,Negative*
%FSLAX46Y46*%
G04 Gerber Fmt 4.6, Leading zero omitted, Abs format (unit mm)*
G04 Created by KiCad (PCBNEW (6.0.7)) date 2022-09-12 18:05:54*
%MOMM*%
%LPD*%
G01*
G04 APERTURE LIST*
G04 Aperture macros list*
%AMFreePoly0*
4,1,20,0.000000,0.744959,0.073905,0.744508,0.209726,0.703889,0.328688,0.626782,0.421226,0.519385,0.479903,0.390333,0.500000,0.250000,0.500000,-0.250000,0.499851,-0.262216,0.476331,-0.402017,0.414519,-0.529596,0.319384,-0.634700,0.198574,-0.708877,0.061801,-0.746166,0.000000,-0.745033,0.000000,-0.750000,-0.500000,-0.750000,-0.500000,0.750000,0.000000,0.750000,0.000000,0.744959,
0.000000,0.744959,$1*%
%AMFreePoly1*
4,1,22,0.500000,-0.750000,0.000000,-0.750000,0.000000,-0.745033,-0.079941,-0.743568,-0.215256,-0.701293,-0.333266,-0.622738,-0.424486,-0.514219,-0.481581,-0.384460,-0.499164,-0.250000,-0.500000,-0.250000,-0.500000,0.250000,-0.499164,0.250000,-0.499963,0.256109,-0.478152,0.396186,-0.417904,0.524511,-0.324060,0.630769,-0.204165,0.706417,-0.067858,0.745374,0.000000,0.744959,0.000000,0.750000,
0.500000,0.750000,0.500000,-0.750000,0.500000,-0.750000,$1*%
G04 Aperture macros list end*
%ADD10R,1.600000X1.600000*%
%ADD11O,1.600000X1.600000*%
%ADD12R,1.700000X1.700000*%
%ADD13O,1.700000X1.700000*%
%ADD14C,3.200000*%
%ADD15C,1.200000*%
%ADD16R,1.200000X1.200000*%
%ADD17FreePoly0,0.000000*%
%ADD18FreePoly1,0.000000*%
%ADD19C,1.600000*%
%ADD20C,1.700000*%
G04 APERTURE END LIST*
D10*
X57920000Y-68780000D03*
D11*
X57920000Y-71320000D03*
X57920000Y-73860000D03*
X57920000Y-76400000D03*
X57920000Y-78940000D03*
X57920000Y-81480000D03*
X57920000Y-84020000D03*
X57920000Y-86560000D03*
X57920000Y-89100000D03*
X57920000Y-91640000D03*
X57920000Y-94180000D03*
X57920000Y-96720000D03*
X57920000Y-99260000D03*
X57920000Y-101800000D03*
X57920000Y-104340000D03*
X57920000Y-106880000D03*
X57920000Y-109420000D03*
X57920000Y-111960000D03*
X57920000Y-114500000D03*
X57920000Y-117040000D03*
X73160000Y-117040000D03*
X73160000Y-114500000D03*
X73160000Y-111960000D03*
X73160000Y-109420000D03*
X73160000Y-106880000D03*
X73160000Y-104340000D03*
X73160000Y-101800000D03*
X73160000Y-99260000D03*
X73160000Y-96720000D03*
X73160000Y-94180000D03*
X73160000Y-91640000D03*
X73160000Y-89100000D03*
X73160000Y-86560000D03*
X73160000Y-84020000D03*
X73160000Y-81480000D03*
X73160000Y-78940000D03*
X73160000Y-76400000D03*
X73160000Y-73860000D03*
X73160000Y-71320000D03*
X73160000Y-68780000D03*
D12*
X55380000Y-68780000D03*
D13*
X55380000Y-71320000D03*
X55380000Y-73860000D03*
X55380000Y-76400000D03*
X55380000Y-78940000D03*
X55380000Y-81480000D03*
X55380000Y-84020000D03*
X55380000Y-86560000D03*
X55380000Y-89100000D03*
X55380000Y-91640000D03*
X55380000Y-94180000D03*
X55380000Y-96720000D03*
X55380000Y-99260000D03*
X55380000Y-101800000D03*
X55380000Y-104340000D03*
X55380000Y-106880000D03*
X55380000Y-109420000D03*
X55380000Y-111960000D03*
X55380000Y-114500000D03*
X55380000Y-117040000D03*
D12*
X75700000Y-117040000D03*
D13*
X75700000Y-114500000D03*
X75700000Y-111960000D03*
X75700000Y-109420000D03*
X75700000Y-106880000D03*
X75700000Y-104340000D03*
X75700000Y-101800000D03*
X75700000Y-99260000D03*
X75700000Y-96720000D03*
X75700000Y-94180000D03*
X75700000Y-91640000D03*
X75700000Y-89100000D03*
X75700000Y-86560000D03*
X75700000Y-84020000D03*
X75700000Y-81480000D03*
X75700000Y-78940000D03*
X75700000Y-76400000D03*
X75700000Y-73860000D03*
X75700000Y-71320000D03*
X75700000Y-68780000D03*
D14*
X82800000Y-120800000D03*
X82800000Y-55800000D03*
D15*
X82561400Y-88900000D03*
D16*
X80561400Y-88900000D03*
D17*
X82580000Y-64770000D03*
D18*
X81280000Y-64770000D03*
D17*
X82580000Y-68326000D03*
D18*
X81280000Y-68326000D03*
D13*
X57972000Y-61194000D03*
X57972000Y-58654000D03*
X60512000Y-61194000D03*
X60512000Y-58654000D03*
X63052000Y-61194000D03*
X63052000Y-58654000D03*
X65592000Y-61194000D03*
X65592000Y-58654000D03*
X68132000Y-61194000D03*
D12*
X68132000Y-58654000D03*
D19*
X80518000Y-82550000D03*
X83018000Y-82550000D03*
D17*
X82580000Y-71882000D03*
D18*
X81280000Y-71882000D03*
D17*
X82580000Y-74930000D03*
D18*
X81280000Y-74930000D03*
D20*
X65597000Y-56114000D03*
D12*
X73152000Y-56154000D03*
D13*
X73152000Y-58694000D03*
X73152000Y-61234000D03*
M02*
