G04 #@! TF.GenerationSoftware,KiCad,Pcbnew,(6.0.7)*
G04 #@! TF.CreationDate,2022-08-25T15:57:15-07:00*
G04 #@! TF.ProjectId,emu6802,656d7536-3830-4322-9e6b-696361645f70,rev?*
G04 #@! TF.SameCoordinates,Original*
G04 #@! TF.FileFunction,Copper,L1,Top*
G04 #@! TF.FilePolarity,Positive*
%FSLAX46Y46*%
G04 Gerber Fmt 4.6, Leading zero omitted, Abs format (unit mm)*
G04 Created by KiCad (PCBNEW (6.0.7)) date 2022-08-25 15:57:15*
%MOMM*%
%LPD*%
G01*
G04 APERTURE LIST*
G04 Aperture macros list*
%AMFreePoly0*
4,1,22,0.500000,-0.750000,0.000000,-0.750000,0.000000,-0.745033,-0.079941,-0.743568,-0.215256,-0.701293,-0.333266,-0.622738,-0.424486,-0.514219,-0.481581,-0.384460,-0.499164,-0.250000,-0.500000,-0.250000,-0.500000,0.250000,-0.499164,0.250000,-0.499963,0.256109,-0.478152,0.396186,-0.417904,0.524511,-0.324060,0.630769,-0.204165,0.706417,-0.067858,0.745374,0.000000,0.744959,0.000000,0.750000,
0.500000,0.750000,0.500000,-0.750000,0.500000,-0.750000,$1*%
%AMFreePoly1*
4,1,20,0.000000,0.744959,0.073905,0.744508,0.209726,0.703889,0.328688,0.626782,0.421226,0.519385,0.479903,0.390333,0.500000,0.250000,0.500000,-0.250000,0.499851,-0.262216,0.476331,-0.402017,0.414519,-0.529596,0.319384,-0.634700,0.198574,-0.708877,0.061801,-0.746166,0.000000,-0.745033,0.000000,-0.750000,-0.500000,-0.750000,-0.500000,0.750000,0.000000,0.750000,0.000000,0.744959,
0.000000,0.744959,$1*%
G04 Aperture macros list end*
G04 #@! TA.AperFunction,ComponentPad*
%ADD10R,1.200000X1.200000*%
G04 #@! TD*
G04 #@! TA.AperFunction,ComponentPad*
%ADD11C,1.200000*%
G04 #@! TD*
G04 #@! TA.AperFunction,SMDPad,CuDef*
%ADD12FreePoly0,0.000000*%
G04 #@! TD*
G04 #@! TA.AperFunction,SMDPad,CuDef*
%ADD13FreePoly1,0.000000*%
G04 #@! TD*
G04 #@! TA.AperFunction,ComponentPad*
%ADD14R,1.700000X1.700000*%
G04 #@! TD*
G04 #@! TA.AperFunction,ComponentPad*
%ADD15O,1.700000X1.700000*%
G04 #@! TD*
G04 #@! TA.AperFunction,ComponentPad*
%ADD16C,1.600000*%
G04 #@! TD*
G04 #@! TA.AperFunction,ComponentPad*
%ADD17R,1.600000X1.600000*%
G04 #@! TD*
G04 #@! TA.AperFunction,ComponentPad*
%ADD18O,1.600000X1.600000*%
G04 #@! TD*
G04 #@! TA.AperFunction,ComponentPad*
%ADD19C,1.700000*%
G04 #@! TD*
G04 #@! TA.AperFunction,ViaPad*
%ADD20C,0.800000*%
G04 #@! TD*
G04 #@! TA.AperFunction,Conductor*
%ADD21C,0.400000*%
G04 #@! TD*
G04 #@! TA.AperFunction,Conductor*
%ADD22C,0.250000*%
G04 #@! TD*
G04 APERTURE END LIST*
G36*
X55480000Y-62276000D02*
G01*
X54980000Y-62276000D01*
X54980000Y-61676000D01*
X55480000Y-61676000D01*
X55480000Y-62276000D01*
G37*
G36*
X55480000Y-65832000D02*
G01*
X54980000Y-65832000D01*
X54980000Y-65232000D01*
X55480000Y-65232000D01*
X55480000Y-65832000D01*
G37*
G36*
X55480000Y-69388000D02*
G01*
X54980000Y-69388000D01*
X54980000Y-68788000D01*
X55480000Y-68788000D01*
X55480000Y-69388000D01*
G37*
G36*
X55480000Y-72436000D02*
G01*
X54980000Y-72436000D01*
X54980000Y-71836000D01*
X55480000Y-71836000D01*
X55480000Y-72436000D01*
G37*
D10*
X54570000Y-85090000D03*
D11*
X56570000Y-85090000D03*
D12*
X54580000Y-61976000D03*
D13*
X55880000Y-61976000D03*
D12*
X54580000Y-65532000D03*
D13*
X55880000Y-65532000D03*
D14*
X81280000Y-66040000D03*
D15*
X81280000Y-68580000D03*
X81280000Y-71120000D03*
X81280000Y-73660000D03*
X81280000Y-76200000D03*
X81280000Y-78740000D03*
X81280000Y-81280000D03*
X81280000Y-83820000D03*
X81280000Y-86360000D03*
X81280000Y-88900000D03*
X81280000Y-91440000D03*
X81280000Y-93980000D03*
X81280000Y-96520000D03*
X81280000Y-99060000D03*
X81280000Y-101600000D03*
X81280000Y-104140000D03*
X81280000Y-106680000D03*
X81280000Y-109220000D03*
X81280000Y-111760000D03*
X81280000Y-114300000D03*
D14*
X73655000Y-57150000D03*
D15*
X73655000Y-59690000D03*
X71115000Y-57150000D03*
X71115000Y-59690000D03*
X68575000Y-57150000D03*
X68575000Y-59690000D03*
X66035000Y-57150000D03*
X66035000Y-59690000D03*
X63495000Y-57150000D03*
X63495000Y-59690000D03*
D16*
X54610000Y-78740000D03*
X57110000Y-78740000D03*
D12*
X54580000Y-69088000D03*
D13*
X55880000Y-69088000D03*
D12*
X54580000Y-72136000D03*
D13*
X55880000Y-72136000D03*
D17*
X63500000Y-66040000D03*
D18*
X63500000Y-68580000D03*
X63500000Y-71120000D03*
X63500000Y-73660000D03*
X63500000Y-76200000D03*
X63500000Y-78740000D03*
X63500000Y-81280000D03*
X63500000Y-83820000D03*
X63500000Y-86360000D03*
X63500000Y-88900000D03*
X63500000Y-91440000D03*
X63500000Y-93980000D03*
X63500000Y-96520000D03*
X63500000Y-99060000D03*
X63500000Y-101600000D03*
X63500000Y-104140000D03*
X63500000Y-106680000D03*
X63500000Y-109220000D03*
X63500000Y-111760000D03*
X63500000Y-114300000D03*
X78740000Y-114300000D03*
X78740000Y-111760000D03*
X78740000Y-109220000D03*
X78740000Y-106680000D03*
X78740000Y-104140000D03*
X78740000Y-101600000D03*
X78740000Y-99060000D03*
X78740000Y-96520000D03*
X78740000Y-93980000D03*
X78740000Y-91440000D03*
X78740000Y-88900000D03*
X78740000Y-86360000D03*
X78740000Y-83820000D03*
X78740000Y-81280000D03*
X78740000Y-78740000D03*
X78740000Y-76200000D03*
X78740000Y-73660000D03*
X78740000Y-71120000D03*
X78740000Y-68580000D03*
X78740000Y-66040000D03*
D19*
X71120000Y-54610000D03*
D14*
X60960000Y-66040000D03*
D15*
X60960000Y-68580000D03*
X60960000Y-71120000D03*
X60960000Y-73660000D03*
X60960000Y-76200000D03*
X60960000Y-78740000D03*
X60960000Y-81280000D03*
X60960000Y-83820000D03*
X60960000Y-86360000D03*
X60960000Y-88900000D03*
X60960000Y-91440000D03*
X60960000Y-93980000D03*
X60960000Y-96520000D03*
X60960000Y-99060000D03*
X60960000Y-101600000D03*
X60960000Y-104140000D03*
X60960000Y-106680000D03*
X60960000Y-109220000D03*
X60960000Y-111760000D03*
X60960000Y-114300000D03*
D14*
X78740000Y-54630000D03*
D15*
X78740000Y-57170000D03*
X78740000Y-59710000D03*
D20*
X56638700Y-70680500D03*
X59784600Y-97768300D03*
X64925600Y-73614100D03*
X72114800Y-94150400D03*
X57879200Y-71421500D03*
X71512200Y-90435700D03*
X74609800Y-86360000D03*
X73725100Y-83916600D03*
X73439300Y-70292800D03*
X82258800Y-63675000D03*
D21*
X54580000Y-76210000D02*
X54580000Y-72136000D01*
X79940300Y-112274600D02*
X79940300Y-88431900D01*
X79115200Y-72320300D02*
X79940300Y-73145400D01*
X78740000Y-71120000D02*
X78740000Y-72320300D01*
X78740000Y-113099700D02*
X79115200Y-113099700D01*
X79115200Y-113099700D02*
X79940300Y-112274600D01*
X79940300Y-73145400D02*
X79940300Y-84288100D01*
X79940300Y-88431900D02*
X80761900Y-87610300D01*
X78740000Y-114300000D02*
X78740000Y-113099700D01*
X78740000Y-72320300D02*
X79115200Y-72320300D01*
X79940300Y-84288100D02*
X80761900Y-85109700D01*
X80761900Y-87610300D02*
X81280000Y-87610300D01*
X81280000Y-86360000D02*
X81280000Y-87610300D01*
X57110000Y-78740000D02*
X54580000Y-76210000D01*
X81280000Y-86360000D02*
X81280000Y-85109700D01*
X80761900Y-85109700D02*
X81280000Y-85109700D01*
D22*
X57563400Y-67215400D02*
X62191800Y-67215400D01*
X64859700Y-62593500D02*
X64859700Y-59133200D01*
X62796700Y-67454700D02*
X62374600Y-67032600D01*
X63500000Y-67454700D02*
X62796700Y-67454700D01*
X62191800Y-67215400D02*
X62374600Y-67032600D01*
X63500000Y-68580000D02*
X63500000Y-67454700D01*
X65667600Y-58325300D02*
X66035000Y-58325300D01*
X66035000Y-57150000D02*
X66035000Y-58325300D01*
X62374600Y-65078600D02*
X64859700Y-62593500D01*
X62374600Y-67032600D02*
X62374600Y-65078600D01*
X55880000Y-65532000D02*
X57563400Y-67215400D01*
X64859700Y-59133200D02*
X65667600Y-58325300D01*
X62374700Y-73660000D02*
X62374700Y-73378700D01*
X62374700Y-73378700D02*
X61337900Y-72341900D01*
X60706000Y-57150000D02*
X55880000Y-61976000D01*
X63500000Y-73660000D02*
X62374700Y-73660000D01*
X61337900Y-72341900D02*
X57757700Y-72341900D01*
X56638700Y-71222900D02*
X56638700Y-70680500D01*
X57757700Y-72341900D02*
X56638700Y-71222900D01*
X63495000Y-57150000D02*
X60706000Y-57150000D01*
X60592700Y-110584700D02*
X59784600Y-109776600D01*
X59784600Y-109776600D02*
X59784600Y-97768300D01*
X60960000Y-111760000D02*
X60960000Y-110584700D01*
X60960000Y-110584700D02*
X60592700Y-110584700D01*
X64925600Y-73614100D02*
X64925600Y-70146200D01*
X67399700Y-67079700D02*
X67399700Y-59133200D01*
X56642000Y-69850000D02*
X64629400Y-69850000D01*
X68207600Y-58325300D02*
X68575000Y-58325300D01*
X68575000Y-57150000D02*
X68575000Y-58325300D01*
X67399700Y-59133200D02*
X68207600Y-58325300D01*
X55880000Y-69088000D02*
X56642000Y-69850000D01*
X64629400Y-69850000D02*
X67399700Y-67079700D01*
X64925600Y-70146200D02*
X64629400Y-69850000D01*
X74830300Y-69927600D02*
X74830300Y-59133200D01*
X73655000Y-57150000D02*
X73655000Y-58325300D01*
X64603200Y-80154700D02*
X74830300Y-69927600D01*
X63500000Y-80154700D02*
X64603200Y-80154700D01*
X63500000Y-81280000D02*
X63500000Y-80154700D01*
X74830300Y-59133200D02*
X74022400Y-58325300D01*
X74022400Y-58325300D02*
X73655000Y-58325300D01*
D21*
X58934100Y-85090000D02*
X61544300Y-85090000D01*
X54570000Y-85090000D02*
X54570000Y-84089700D01*
X54747500Y-78877500D02*
X54610000Y-78740000D01*
X54580000Y-65532000D02*
X54580000Y-64957400D01*
X54570000Y-84089700D02*
X54747500Y-83912200D01*
X53678700Y-69989300D02*
X54580000Y-69088000D01*
X53678700Y-77808700D02*
X53678700Y-69989300D01*
X59847400Y-59690000D02*
X62244700Y-59690000D01*
X54580000Y-64957400D02*
X59847400Y-59690000D01*
X63500000Y-85020300D02*
X63124800Y-85020300D01*
X63495000Y-59690000D02*
X62244700Y-59690000D01*
X54747500Y-83912200D02*
X54747500Y-78877500D01*
X54610000Y-78740000D02*
X53678700Y-77808700D01*
X60960000Y-91440000D02*
X60960000Y-90189700D01*
X63124800Y-85020300D02*
X62299700Y-85845400D01*
X54747500Y-83912200D02*
X57756300Y-83912200D01*
X62299700Y-89368100D02*
X61478100Y-90189700D01*
X62299700Y-85845400D02*
X62299700Y-89368100D01*
X61478100Y-90189700D02*
X60960000Y-90189700D01*
X54580000Y-69088000D02*
X54580000Y-65532000D01*
X63500000Y-83820000D02*
X63500000Y-85020300D01*
X57756300Y-83912200D02*
X58934100Y-85090000D01*
X61544300Y-85090000D02*
X62299700Y-85845400D01*
D22*
X72074900Y-94150400D02*
X72114800Y-94150400D01*
X63500000Y-101600000D02*
X64625300Y-101600000D01*
X64625300Y-101600000D02*
X72074900Y-94150400D01*
X59483200Y-71421500D02*
X59784700Y-71120000D01*
X60960000Y-71120000D02*
X59784700Y-71120000D01*
X57879200Y-71421500D02*
X59483200Y-71421500D01*
X62135300Y-81280000D02*
X62135300Y-81573900D01*
X60960000Y-81280000D02*
X62135300Y-81280000D01*
X63756300Y-82455300D02*
X71512200Y-90211200D01*
X62135300Y-81573900D02*
X63016700Y-82455300D01*
X71512200Y-90211200D02*
X71512200Y-90435700D01*
X63016700Y-82455300D02*
X63756300Y-82455300D01*
X73164200Y-106227800D02*
X63866200Y-115525800D01*
X78458600Y-90025300D02*
X77614700Y-90869200D01*
X60592700Y-95155300D02*
X60960000Y-95155300D01*
X78740000Y-90025300D02*
X78458600Y-90025300D01*
X73164200Y-104785700D02*
X73164200Y-106227800D01*
X78740000Y-88900000D02*
X78740000Y-90025300D01*
X77614700Y-90869200D02*
X77614700Y-100335200D01*
X77614700Y-100335200D02*
X73164200Y-104785700D01*
X59052500Y-114118300D02*
X59052500Y-96695500D01*
X60960000Y-93980000D02*
X60960000Y-95155300D01*
X60460000Y-115525800D02*
X59052500Y-114118300D01*
X63866200Y-115525800D02*
X60460000Y-115525800D01*
X59052500Y-96695500D02*
X60592700Y-95155300D01*
X60960000Y-101600000D02*
X62135300Y-101600000D01*
X62135300Y-101306100D02*
X63016700Y-100424700D01*
X74609800Y-89602500D02*
X74609800Y-86360000D01*
X63016700Y-100424700D02*
X63787600Y-100424700D01*
X62135300Y-101600000D02*
X62135300Y-101306100D01*
X63787600Y-100424700D02*
X74609800Y-89602500D01*
X73725100Y-83916600D02*
X73725100Y-89304000D01*
X65094500Y-97934600D02*
X63017100Y-97934600D01*
X62135300Y-98816400D02*
X62135300Y-99060000D01*
X73725100Y-89304000D02*
X65094500Y-97934600D01*
X60960000Y-99060000D02*
X62135300Y-99060000D01*
X63017100Y-97934600D02*
X62135300Y-98816400D01*
X66591400Y-74842700D02*
X58586700Y-74842700D01*
X71482400Y-58325300D02*
X71115000Y-58325300D01*
X72290300Y-59133200D02*
X71482400Y-58325300D01*
X72290300Y-69143800D02*
X66591400Y-74842700D01*
X72290300Y-69143800D02*
X72290300Y-59133200D01*
X71115000Y-57150000D02*
X71115000Y-58325300D01*
X58586700Y-74842700D02*
X55880000Y-72136000D01*
X73439300Y-70292800D02*
X72290300Y-69143800D01*
X78740000Y-73660000D02*
X78740000Y-74785300D01*
X60960000Y-114300000D02*
X60960000Y-113124700D01*
X62135300Y-112316800D02*
X62135300Y-111454200D01*
X60960000Y-113124700D02*
X61327400Y-113124700D01*
X62979900Y-110609600D02*
X63740500Y-110609600D01*
X76534200Y-97815900D02*
X76534200Y-76709800D01*
X62135300Y-111454200D02*
X62979900Y-110609600D01*
X76534200Y-76709800D02*
X78458700Y-74785300D01*
X61327400Y-113124700D02*
X62135300Y-112316800D01*
X63740500Y-110609600D02*
X76534200Y-97815900D01*
X78458700Y-74785300D02*
X78740000Y-74785300D01*
X80912600Y-72484700D02*
X79915300Y-71487400D01*
X79915300Y-71487400D02*
X79915300Y-56613200D01*
X54580000Y-61495800D02*
X60270500Y-55805300D01*
X54580000Y-61976000D02*
X54580000Y-61495800D01*
X60270500Y-55805300D02*
X76389400Y-55805300D01*
X76389400Y-55805300D02*
X77564700Y-54630000D01*
X78740000Y-54630000D02*
X78740000Y-55805300D01*
X79915300Y-56613200D02*
X79107400Y-55805300D01*
X79107400Y-55805300D02*
X78740000Y-55805300D01*
X81280000Y-73660000D02*
X81280000Y-72484700D01*
X78740000Y-54630000D02*
X77564700Y-54630000D01*
X81280000Y-72484700D02*
X80912600Y-72484700D01*
X62135300Y-104140000D02*
X62135300Y-103850000D01*
X62135300Y-103850000D02*
X63004700Y-102980600D01*
X78740000Y-59710000D02*
X78740000Y-60885300D01*
X75439700Y-64185600D02*
X78740000Y-60885300D01*
X64320300Y-102980600D02*
X75439700Y-91861200D01*
X75439700Y-91861200D02*
X75439700Y-64185600D01*
X60960000Y-104140000D02*
X62135300Y-104140000D01*
X63004700Y-102980600D02*
X64320300Y-102980600D01*
X82455400Y-63871600D02*
X82258800Y-63675000D01*
X81280000Y-78740000D02*
X81280000Y-77564700D01*
X81647300Y-77564700D02*
X82455400Y-76756600D01*
X82455400Y-76756600D02*
X82455400Y-63871600D01*
X81280000Y-77564700D02*
X81647300Y-77564700D01*
G04 #@! TA.AperFunction,Conductor*
G36*
X90112121Y-52090002D02*
G01*
X90158614Y-52143658D01*
X90170000Y-52196000D01*
X90170000Y-125604000D01*
X90149998Y-125672121D01*
X90096342Y-125718614D01*
X90044000Y-125730000D01*
X52196000Y-125730000D01*
X52127879Y-125709998D01*
X52081386Y-125656342D01*
X52070000Y-125604000D01*
X52070000Y-122132703D01*
X53690743Y-122132703D01*
X53728268Y-122417734D01*
X53804129Y-122695036D01*
X53916923Y-122959476D01*
X54064561Y-123206161D01*
X54244313Y-123430528D01*
X54452851Y-123628423D01*
X54686317Y-123796186D01*
X54690112Y-123798195D01*
X54690113Y-123798196D01*
X54711869Y-123809715D01*
X54940392Y-123930712D01*
X55210373Y-124029511D01*
X55491264Y-124090755D01*
X55519841Y-124093004D01*
X55714282Y-124108307D01*
X55714291Y-124108307D01*
X55716739Y-124108500D01*
X55872271Y-124108500D01*
X55874407Y-124108354D01*
X55874418Y-124108354D01*
X56082548Y-124094165D01*
X56082554Y-124094164D01*
X56086825Y-124093873D01*
X56091020Y-124093004D01*
X56091022Y-124093004D01*
X56227583Y-124064724D01*
X56368342Y-124035574D01*
X56639343Y-123939607D01*
X56894812Y-123807750D01*
X56898313Y-123805289D01*
X56898317Y-123805287D01*
X57012418Y-123725095D01*
X57130023Y-123642441D01*
X57340622Y-123446740D01*
X57522713Y-123224268D01*
X57672927Y-122979142D01*
X57788483Y-122715898D01*
X57867244Y-122439406D01*
X57907751Y-122154784D01*
X57907845Y-122136951D01*
X57907867Y-122132703D01*
X84330743Y-122132703D01*
X84368268Y-122417734D01*
X84444129Y-122695036D01*
X84556923Y-122959476D01*
X84704561Y-123206161D01*
X84884313Y-123430528D01*
X85092851Y-123628423D01*
X85326317Y-123796186D01*
X85330112Y-123798195D01*
X85330113Y-123798196D01*
X85351869Y-123809715D01*
X85580392Y-123930712D01*
X85850373Y-124029511D01*
X86131264Y-124090755D01*
X86159841Y-124093004D01*
X86354282Y-124108307D01*
X86354291Y-124108307D01*
X86356739Y-124108500D01*
X86512271Y-124108500D01*
X86514407Y-124108354D01*
X86514418Y-124108354D01*
X86722548Y-124094165D01*
X86722554Y-124094164D01*
X86726825Y-124093873D01*
X86731020Y-124093004D01*
X86731022Y-124093004D01*
X86867583Y-124064724D01*
X87008342Y-124035574D01*
X87279343Y-123939607D01*
X87534812Y-123807750D01*
X87538313Y-123805289D01*
X87538317Y-123805287D01*
X87652418Y-123725095D01*
X87770023Y-123642441D01*
X87980622Y-123446740D01*
X88162713Y-123224268D01*
X88312927Y-122979142D01*
X88428483Y-122715898D01*
X88507244Y-122439406D01*
X88547751Y-122154784D01*
X88547845Y-122136951D01*
X88549235Y-121871583D01*
X88549235Y-121871576D01*
X88549257Y-121867297D01*
X88511732Y-121582266D01*
X88435871Y-121304964D01*
X88323077Y-121040524D01*
X88175439Y-120793839D01*
X87995687Y-120569472D01*
X87787149Y-120371577D01*
X87553683Y-120203814D01*
X87531843Y-120192250D01*
X87508654Y-120179972D01*
X87299608Y-120069288D01*
X87029627Y-119970489D01*
X86748736Y-119909245D01*
X86717685Y-119906801D01*
X86525718Y-119891693D01*
X86525709Y-119891693D01*
X86523261Y-119891500D01*
X86367729Y-119891500D01*
X86365593Y-119891646D01*
X86365582Y-119891646D01*
X86157452Y-119905835D01*
X86157446Y-119905836D01*
X86153175Y-119906127D01*
X86148980Y-119906996D01*
X86148978Y-119906996D01*
X86012416Y-119935277D01*
X85871658Y-119964426D01*
X85600657Y-120060393D01*
X85345188Y-120192250D01*
X85341687Y-120194711D01*
X85341683Y-120194713D01*
X85331594Y-120201804D01*
X85109977Y-120357559D01*
X84899378Y-120553260D01*
X84717287Y-120775732D01*
X84567073Y-121020858D01*
X84451517Y-121284102D01*
X84372756Y-121560594D01*
X84332249Y-121845216D01*
X84332227Y-121849505D01*
X84332226Y-121849512D01*
X84330765Y-122128417D01*
X84330743Y-122132703D01*
X57907867Y-122132703D01*
X57909235Y-121871583D01*
X57909235Y-121871576D01*
X57909257Y-121867297D01*
X57871732Y-121582266D01*
X57795871Y-121304964D01*
X57683077Y-121040524D01*
X57535439Y-120793839D01*
X57355687Y-120569472D01*
X57147149Y-120371577D01*
X56913683Y-120203814D01*
X56891843Y-120192250D01*
X56868654Y-120179972D01*
X56659608Y-120069288D01*
X56389627Y-119970489D01*
X56108736Y-119909245D01*
X56077685Y-119906801D01*
X55885718Y-119891693D01*
X55885709Y-119891693D01*
X55883261Y-119891500D01*
X55727729Y-119891500D01*
X55725593Y-119891646D01*
X55725582Y-119891646D01*
X55517452Y-119905835D01*
X55517446Y-119905836D01*
X55513175Y-119906127D01*
X55508980Y-119906996D01*
X55508978Y-119906996D01*
X55372416Y-119935277D01*
X55231658Y-119964426D01*
X54960657Y-120060393D01*
X54705188Y-120192250D01*
X54701687Y-120194711D01*
X54701683Y-120194713D01*
X54691594Y-120201804D01*
X54469977Y-120357559D01*
X54259378Y-120553260D01*
X54077287Y-120775732D01*
X53927073Y-121020858D01*
X53811517Y-121284102D01*
X53732756Y-121560594D01*
X53692249Y-121845216D01*
X53692227Y-121849505D01*
X53692226Y-121849512D01*
X53690765Y-122128417D01*
X53690743Y-122132703D01*
X52070000Y-122132703D01*
X52070000Y-77846052D01*
X52965975Y-77846052D01*
X52967280Y-77853529D01*
X52967280Y-77853530D01*
X52976961Y-77908999D01*
X52977923Y-77915521D01*
X52985598Y-77978942D01*
X52988281Y-77986043D01*
X52988922Y-77988652D01*
X52993385Y-78004962D01*
X52994150Y-78007498D01*
X52995457Y-78014984D01*
X53000137Y-78025644D01*
X53021142Y-78073495D01*
X53023633Y-78079599D01*
X53024706Y-78082438D01*
X53040864Y-78125199D01*
X53046213Y-78139356D01*
X53050517Y-78145619D01*
X53051754Y-78147985D01*
X53059999Y-78162797D01*
X53061332Y-78165051D01*
X53064385Y-78172005D01*
X53069007Y-78178028D01*
X53103279Y-78222691D01*
X53107159Y-78228032D01*
X53139039Y-78274420D01*
X53139044Y-78274425D01*
X53143343Y-78280681D01*
X53149013Y-78285732D01*
X53149014Y-78285734D01*
X53189870Y-78322135D01*
X53195146Y-78327116D01*
X53280018Y-78411988D01*
X53314044Y-78474300D01*
X53316444Y-78512063D01*
X53296502Y-78740000D01*
X53316457Y-78968087D01*
X53317881Y-78973400D01*
X53317881Y-78973402D01*
X53365851Y-79152425D01*
X53375716Y-79189243D01*
X53378039Y-79194224D01*
X53378039Y-79194225D01*
X53470151Y-79391762D01*
X53470154Y-79391767D01*
X53472477Y-79396749D01*
X53475634Y-79401257D01*
X53579078Y-79548990D01*
X53603802Y-79584300D01*
X53765700Y-79746198D01*
X53770208Y-79749355D01*
X53770211Y-79749357D01*
X53810445Y-79777529D01*
X53953251Y-79877523D01*
X53958235Y-79879847D01*
X53966249Y-79883584D01*
X54019535Y-79930501D01*
X54039000Y-79997779D01*
X54039000Y-83573165D01*
X54016087Y-83645616D01*
X54002872Y-83664419D01*
X53998939Y-83669714D01*
X53959524Y-83719982D01*
X53956401Y-83726898D01*
X53955017Y-83729184D01*
X53946643Y-83743865D01*
X53945378Y-83746225D01*
X53941010Y-83752439D01*
X53938250Y-83759518D01*
X53938249Y-83759520D01*
X53917798Y-83811975D01*
X53915247Y-83818044D01*
X53888955Y-83876273D01*
X53887571Y-83883740D01*
X53886770Y-83886295D01*
X53882136Y-83902565D01*
X53881477Y-83905132D01*
X53878718Y-83912209D01*
X53877726Y-83919740D01*
X53876513Y-83924467D01*
X53840200Y-83985474D01*
X53798700Y-84011117D01*
X53778581Y-84018659D01*
X53731705Y-84036232D01*
X53731704Y-84036233D01*
X53723295Y-84039385D01*
X53606739Y-84126739D01*
X53519385Y-84243295D01*
X53468255Y-84379684D01*
X53461500Y-84441866D01*
X53461500Y-85738134D01*
X53468255Y-85800316D01*
X53519385Y-85936705D01*
X53606739Y-86053261D01*
X53723295Y-86140615D01*
X53859684Y-86191745D01*
X53921866Y-86198500D01*
X55218134Y-86198500D01*
X55280316Y-86191745D01*
X55416705Y-86140615D01*
X55533261Y-86053261D01*
X55549724Y-86031294D01*
X55993066Y-86031294D01*
X56002948Y-86043783D01*
X56034239Y-86064691D01*
X56044349Y-86070181D01*
X56220835Y-86146005D01*
X56231778Y-86149560D01*
X56419120Y-86191952D01*
X56430530Y-86193454D01*
X56622469Y-86200995D01*
X56633951Y-86200393D01*
X56824045Y-86172832D01*
X56835240Y-86170144D01*
X57017131Y-86108400D01*
X57027628Y-86103726D01*
X57138032Y-86041898D01*
X57147895Y-86031821D01*
X57144940Y-86024151D01*
X56582811Y-85462021D01*
X56568868Y-85454408D01*
X56567034Y-85454539D01*
X56560420Y-85458790D01*
X55999259Y-86019952D01*
X55993066Y-86031294D01*
X55549724Y-86031294D01*
X55620615Y-85936705D01*
X55671745Y-85800316D01*
X55678500Y-85738134D01*
X55678500Y-85674480D01*
X55698502Y-85606359D01*
X55715405Y-85585384D01*
X56480905Y-84819885D01*
X56543217Y-84785860D01*
X56614033Y-84790925D01*
X56659095Y-84819885D01*
X57500239Y-85661028D01*
X57512614Y-85667785D01*
X57519194Y-85662859D01*
X57583726Y-85547628D01*
X57588400Y-85537131D01*
X57650144Y-85355240D01*
X57652832Y-85344045D01*
X57680689Y-85151911D01*
X57681319Y-85144528D01*
X57681434Y-85140148D01*
X57703215Y-85072575D01*
X57758071Y-85027505D01*
X57828586Y-85019246D01*
X57896486Y-85054356D01*
X58412650Y-85570520D01*
X58418504Y-85576785D01*
X58456539Y-85620385D01*
X58462757Y-85624755D01*
X58508797Y-85657112D01*
X58514093Y-85661045D01*
X58564382Y-85700477D01*
X58571304Y-85703602D01*
X58573552Y-85704964D01*
X58588285Y-85713368D01*
X58590624Y-85714622D01*
X58596839Y-85718990D01*
X58603915Y-85721749D01*
X58603919Y-85721751D01*
X58656369Y-85742200D01*
X58662434Y-85744749D01*
X58720673Y-85771045D01*
X58728138Y-85772429D01*
X58730682Y-85773226D01*
X58746948Y-85777859D01*
X58749528Y-85778521D01*
X58756609Y-85781282D01*
X58764142Y-85782274D01*
X58764143Y-85782274D01*
X58796799Y-85786573D01*
X58819957Y-85789622D01*
X58826455Y-85790650D01*
X58889287Y-85802296D01*
X58896867Y-85801859D01*
X58896868Y-85801859D01*
X58951498Y-85798709D01*
X58958751Y-85798500D01*
X59540172Y-85798500D01*
X59608293Y-85818502D01*
X59654786Y-85872158D01*
X59664890Y-85942432D01*
X59661589Y-85958172D01*
X59620989Y-86104570D01*
X59597251Y-86326695D01*
X59597548Y-86331848D01*
X59597548Y-86331851D01*
X59599171Y-86360000D01*
X59610110Y-86549715D01*
X59611247Y-86554761D01*
X59611248Y-86554767D01*
X59624597Y-86614000D01*
X59659222Y-86767639D01*
X59743266Y-86974616D01*
X59859987Y-87165088D01*
X60006250Y-87333938D01*
X60178126Y-87476632D01*
X60245163Y-87515805D01*
X60251445Y-87519476D01*
X60300169Y-87571114D01*
X60313240Y-87640897D01*
X60286509Y-87706669D01*
X60246055Y-87740027D01*
X60233607Y-87746507D01*
X60229474Y-87749610D01*
X60229471Y-87749612D01*
X60208132Y-87765634D01*
X60054965Y-87880635D01*
X59900629Y-88042138D01*
X59897715Y-88046410D01*
X59897714Y-88046411D01*
X59888300Y-88060211D01*
X59774743Y-88226680D01*
X59680688Y-88429305D01*
X59620989Y-88644570D01*
X59597251Y-88866695D01*
X59597548Y-88871848D01*
X59597548Y-88871851D01*
X59608254Y-89057527D01*
X59610110Y-89089715D01*
X59611247Y-89094761D01*
X59611248Y-89094767D01*
X59619955Y-89133402D01*
X59659222Y-89307639D01*
X59743266Y-89514616D01*
X59859987Y-89705088D01*
X60006250Y-89873938D01*
X60178126Y-90016632D01*
X60182583Y-90019236D01*
X60182588Y-90019240D01*
X60189324Y-90023176D01*
X60238049Y-90074813D01*
X60251754Y-90132617D01*
X60251714Y-90140352D01*
X60251665Y-90141738D01*
X60251500Y-90142994D01*
X60251500Y-90180938D01*
X60251498Y-90181596D01*
X60251375Y-90205200D01*
X60251345Y-90210887D01*
X60230988Y-90278902D01*
X60201000Y-90310989D01*
X60120017Y-90371793D01*
X60054965Y-90420635D01*
X59900629Y-90582138D01*
X59897715Y-90586410D01*
X59897714Y-90586411D01*
X59861995Y-90638773D01*
X59774743Y-90766680D01*
X59680688Y-90969305D01*
X59620989Y-91184570D01*
X59597251Y-91406695D01*
X59597548Y-91411848D01*
X59597548Y-91411851D01*
X59603011Y-91506590D01*
X59610110Y-91629715D01*
X59611247Y-91634761D01*
X59611248Y-91634767D01*
X59619955Y-91673402D01*
X59659222Y-91847639D01*
X59743266Y-92054616D01*
X59859987Y-92245088D01*
X60006250Y-92413938D01*
X60178126Y-92556632D01*
X60237462Y-92591305D01*
X60251445Y-92599476D01*
X60300169Y-92651114D01*
X60313240Y-92720897D01*
X60286509Y-92786669D01*
X60246055Y-92820027D01*
X60233607Y-92826507D01*
X60229474Y-92829610D01*
X60229471Y-92829612D01*
X60208132Y-92845634D01*
X60054965Y-92960635D01*
X59900629Y-93122138D01*
X59897715Y-93126410D01*
X59897714Y-93126411D01*
X59888300Y-93140211D01*
X59774743Y-93306680D01*
X59741842Y-93377559D01*
X59693361Y-93482004D01*
X59680688Y-93509305D01*
X59620989Y-93724570D01*
X59597251Y-93946695D01*
X59597548Y-93951848D01*
X59597548Y-93951851D01*
X59603011Y-94046590D01*
X59610110Y-94169715D01*
X59611247Y-94174761D01*
X59611248Y-94174767D01*
X59619955Y-94213402D01*
X59659222Y-94387639D01*
X59743266Y-94594616D01*
X59859987Y-94785088D01*
X59876708Y-94804391D01*
X59879283Y-94807364D01*
X59908765Y-94871950D01*
X59898650Y-94942222D01*
X59873140Y-94978956D01*
X58660247Y-96191848D01*
X58651961Y-96199388D01*
X58645482Y-96203500D01*
X58640057Y-96209277D01*
X58598857Y-96253151D01*
X58596102Y-96255993D01*
X58576365Y-96275730D01*
X58573885Y-96278927D01*
X58566182Y-96287947D01*
X58535914Y-96320179D01*
X58532095Y-96327125D01*
X58532093Y-96327128D01*
X58526152Y-96337934D01*
X58515301Y-96354453D01*
X58502886Y-96370459D01*
X58499741Y-96377728D01*
X58499738Y-96377732D01*
X58485326Y-96411037D01*
X58480109Y-96421687D01*
X58458805Y-96460440D01*
X58456834Y-96468115D01*
X58456834Y-96468116D01*
X58453767Y-96480062D01*
X58447363Y-96498766D01*
X58439319Y-96517355D01*
X58438080Y-96525178D01*
X58438077Y-96525188D01*
X58432401Y-96561024D01*
X58429995Y-96572644D01*
X58419000Y-96615470D01*
X58419000Y-96635724D01*
X58417449Y-96655434D01*
X58414280Y-96675443D01*
X58415026Y-96683335D01*
X58418441Y-96719461D01*
X58419000Y-96731319D01*
X58419000Y-114039533D01*
X58418473Y-114050716D01*
X58416798Y-114058209D01*
X58417047Y-114066135D01*
X58417047Y-114066136D01*
X58418938Y-114126286D01*
X58419000Y-114130245D01*
X58419000Y-114158156D01*
X58419497Y-114162090D01*
X58419497Y-114162091D01*
X58419505Y-114162156D01*
X58420438Y-114173993D01*
X58421827Y-114218189D01*
X58427478Y-114237639D01*
X58431487Y-114257000D01*
X58434026Y-114277097D01*
X58436945Y-114284468D01*
X58436945Y-114284470D01*
X58450304Y-114318212D01*
X58454149Y-114329442D01*
X58466482Y-114371893D01*
X58470515Y-114378712D01*
X58470517Y-114378717D01*
X58476793Y-114389328D01*
X58485488Y-114407076D01*
X58492948Y-114425917D01*
X58497610Y-114432333D01*
X58497610Y-114432334D01*
X58518936Y-114461687D01*
X58525452Y-114471607D01*
X58547958Y-114509662D01*
X58562279Y-114523983D01*
X58575119Y-114539016D01*
X58587028Y-114555407D01*
X58620308Y-114582939D01*
X58621105Y-114583598D01*
X58629884Y-114591588D01*
X59956343Y-115918047D01*
X59963887Y-115926337D01*
X59968000Y-115932818D01*
X59973777Y-115938243D01*
X60017667Y-115979458D01*
X60020509Y-115982213D01*
X60040231Y-116001935D01*
X60043355Y-116004358D01*
X60043359Y-116004362D01*
X60043424Y-116004412D01*
X60052445Y-116012117D01*
X60084679Y-116042386D01*
X60091627Y-116046205D01*
X60091629Y-116046207D01*
X60102432Y-116052146D01*
X60118959Y-116063002D01*
X60128698Y-116070557D01*
X60128700Y-116070558D01*
X60134960Y-116075414D01*
X60175540Y-116092974D01*
X60186188Y-116098191D01*
X60210976Y-116111818D01*
X60224940Y-116119495D01*
X60232616Y-116121466D01*
X60232619Y-116121467D01*
X60244562Y-116124533D01*
X60263267Y-116130937D01*
X60281855Y-116138981D01*
X60289678Y-116140220D01*
X60289688Y-116140223D01*
X60325524Y-116145899D01*
X60337144Y-116148305D01*
X60368959Y-116156473D01*
X60379970Y-116159300D01*
X60400224Y-116159300D01*
X60419934Y-116160851D01*
X60439943Y-116164020D01*
X60447835Y-116163274D01*
X60466580Y-116161502D01*
X60483962Y-116159859D01*
X60495819Y-116159300D01*
X63787433Y-116159300D01*
X63798616Y-116159827D01*
X63806109Y-116161502D01*
X63814035Y-116161253D01*
X63814036Y-116161253D01*
X63874186Y-116159362D01*
X63878145Y-116159300D01*
X63906056Y-116159300D01*
X63909991Y-116158803D01*
X63910056Y-116158795D01*
X63921893Y-116157862D01*
X63954151Y-116156848D01*
X63958170Y-116156722D01*
X63966089Y-116156473D01*
X63985543Y-116150821D01*
X64004900Y-116146813D01*
X64017130Y-116145268D01*
X64017131Y-116145268D01*
X64024997Y-116144274D01*
X64032368Y-116141355D01*
X64032370Y-116141355D01*
X64066112Y-116127996D01*
X64077342Y-116124151D01*
X64112183Y-116114029D01*
X64112184Y-116114029D01*
X64119793Y-116111818D01*
X64126612Y-116107785D01*
X64126617Y-116107783D01*
X64137228Y-116101507D01*
X64154976Y-116092812D01*
X64173817Y-116085352D01*
X64209587Y-116059364D01*
X64219507Y-116052848D01*
X64250735Y-116034380D01*
X64250738Y-116034378D01*
X64257562Y-116030342D01*
X64271883Y-116016021D01*
X64286917Y-116003180D01*
X64288631Y-116001935D01*
X64303307Y-115991272D01*
X64331498Y-115957195D01*
X64339488Y-115948416D01*
X65721382Y-114566522D01*
X77457273Y-114566522D01*
X77504764Y-114743761D01*
X77508510Y-114754053D01*
X77600586Y-114951511D01*
X77606069Y-114961007D01*
X77731028Y-115139467D01*
X77738084Y-115147875D01*
X77892125Y-115301916D01*
X77900533Y-115308972D01*
X78078993Y-115433931D01*
X78088489Y-115439414D01*
X78285947Y-115531490D01*
X78296239Y-115535236D01*
X78468503Y-115581394D01*
X78482599Y-115581058D01*
X78486000Y-115573116D01*
X78486000Y-114572115D01*
X78481525Y-114556876D01*
X78480135Y-114555671D01*
X78472452Y-114554000D01*
X77472033Y-114554000D01*
X77458502Y-114557973D01*
X77457273Y-114566522D01*
X65721382Y-114566522D01*
X73556447Y-106731457D01*
X73564737Y-106723913D01*
X73571218Y-106719800D01*
X73617859Y-106670132D01*
X73620613Y-106667291D01*
X73640335Y-106647569D01*
X73642819Y-106644367D01*
X73650517Y-106635355D01*
X73675361Y-106608898D01*
X73680786Y-106603121D01*
X73690547Y-106585366D01*
X73701398Y-106568847D01*
X73713814Y-106552841D01*
X73731374Y-106512263D01*
X73736591Y-106501613D01*
X73757895Y-106462860D01*
X73762933Y-106443237D01*
X73769337Y-106424534D01*
X73774233Y-106413220D01*
X73774233Y-106413219D01*
X73777381Y-106405945D01*
X73778620Y-106398122D01*
X73778623Y-106398112D01*
X73784299Y-106362276D01*
X73786705Y-106350656D01*
X73795728Y-106315511D01*
X73795728Y-106315510D01*
X73797700Y-106307830D01*
X73797700Y-106287576D01*
X73799251Y-106267865D01*
X73801180Y-106255686D01*
X73802420Y-106247857D01*
X73798259Y-106203838D01*
X73797700Y-106191981D01*
X73797700Y-105100294D01*
X73817702Y-105032173D01*
X73834605Y-105011199D01*
X77220899Y-101624905D01*
X77283211Y-101590879D01*
X77354026Y-101595944D01*
X77410862Y-101638491D01*
X77435515Y-101703018D01*
X77446457Y-101828087D01*
X77447881Y-101833400D01*
X77447881Y-101833402D01*
X77461155Y-101882939D01*
X77505716Y-102049243D01*
X77508039Y-102054224D01*
X77508039Y-102054225D01*
X77600151Y-102251762D01*
X77600154Y-102251767D01*
X77602477Y-102256749D01*
X77605634Y-102261257D01*
X77709078Y-102408990D01*
X77733802Y-102444300D01*
X77895700Y-102606198D01*
X77900208Y-102609355D01*
X77900211Y-102609357D01*
X77940445Y-102637529D01*
X78083251Y-102737523D01*
X78088233Y-102739846D01*
X78088238Y-102739849D01*
X78122457Y-102755805D01*
X78175742Y-102802722D01*
X78195203Y-102870999D01*
X78174661Y-102938959D01*
X78122457Y-102984195D01*
X78088238Y-103000151D01*
X78088233Y-103000154D01*
X78083251Y-103002477D01*
X77978389Y-103075902D01*
X77900211Y-103130643D01*
X77900208Y-103130645D01*
X77895700Y-103133802D01*
X77733802Y-103295700D01*
X77730645Y-103300208D01*
X77730643Y-103300211D01*
X77675902Y-103378389D01*
X77602477Y-103483251D01*
X77600154Y-103488233D01*
X77600151Y-103488238D01*
X77541013Y-103615062D01*
X77505716Y-103690757D01*
X77504294Y-103696065D01*
X77504293Y-103696067D01*
X77447881Y-103906598D01*
X77446457Y-103911913D01*
X77426502Y-104140000D01*
X77446457Y-104368087D01*
X77447881Y-104373400D01*
X77447881Y-104373402D01*
X77483596Y-104506689D01*
X77505716Y-104589243D01*
X77508039Y-104594224D01*
X77508039Y-104594225D01*
X77600151Y-104791762D01*
X77600154Y-104791767D01*
X77602477Y-104796749D01*
X77627869Y-104833012D01*
X77709078Y-104948990D01*
X77733802Y-104984300D01*
X77895700Y-105146198D01*
X77900208Y-105149355D01*
X77900211Y-105149357D01*
X77940445Y-105177529D01*
X78083251Y-105277523D01*
X78088233Y-105279846D01*
X78088238Y-105279849D01*
X78122457Y-105295805D01*
X78175742Y-105342722D01*
X78195203Y-105410999D01*
X78174661Y-105478959D01*
X78122457Y-105524195D01*
X78088238Y-105540151D01*
X78088233Y-105540154D01*
X78083251Y-105542477D01*
X77978389Y-105615902D01*
X77900211Y-105670643D01*
X77900208Y-105670645D01*
X77895700Y-105673802D01*
X77733802Y-105835700D01*
X77730645Y-105840208D01*
X77730643Y-105840211D01*
X77679532Y-105913206D01*
X77602477Y-106023251D01*
X77600154Y-106028233D01*
X77600151Y-106028238D01*
X77523797Y-106191981D01*
X77505716Y-106230757D01*
X77504294Y-106236065D01*
X77504293Y-106236067D01*
X77493149Y-106277658D01*
X77446457Y-106451913D01*
X77426502Y-106680000D01*
X77446457Y-106908087D01*
X77447881Y-106913400D01*
X77447881Y-106913402D01*
X77495259Y-107090216D01*
X77505716Y-107129243D01*
X77508039Y-107134224D01*
X77508039Y-107134225D01*
X77600151Y-107331762D01*
X77600154Y-107331767D01*
X77602477Y-107336749D01*
X77605634Y-107341257D01*
X77709078Y-107488990D01*
X77733802Y-107524300D01*
X77895700Y-107686198D01*
X77900208Y-107689355D01*
X77900211Y-107689357D01*
X77940445Y-107717529D01*
X78083251Y-107817523D01*
X78088233Y-107819846D01*
X78088238Y-107819849D01*
X78122457Y-107835805D01*
X78175742Y-107882722D01*
X78195203Y-107950999D01*
X78174661Y-108018959D01*
X78122457Y-108064195D01*
X78088238Y-108080151D01*
X78088233Y-108080154D01*
X78083251Y-108082477D01*
X77978389Y-108155902D01*
X77900211Y-108210643D01*
X77900208Y-108210645D01*
X77895700Y-108213802D01*
X77733802Y-108375700D01*
X77730645Y-108380208D01*
X77730643Y-108380211D01*
X77675902Y-108458389D01*
X77602477Y-108563251D01*
X77600154Y-108568233D01*
X77600151Y-108568238D01*
X77515719Y-108749305D01*
X77505716Y-108770757D01*
X77504294Y-108776065D01*
X77504293Y-108776067D01*
X77447881Y-108986598D01*
X77446457Y-108991913D01*
X77426502Y-109220000D01*
X77446457Y-109448087D01*
X77447881Y-109453400D01*
X77447881Y-109453402D01*
X77495259Y-109630216D01*
X77505716Y-109669243D01*
X77508039Y-109674224D01*
X77508039Y-109674225D01*
X77600151Y-109871762D01*
X77600154Y-109871767D01*
X77602477Y-109876749D01*
X77605634Y-109881257D01*
X77728961Y-110057386D01*
X77733802Y-110064300D01*
X77895700Y-110226198D01*
X77900208Y-110229355D01*
X77900211Y-110229357D01*
X77940445Y-110257529D01*
X78083251Y-110357523D01*
X78088233Y-110359846D01*
X78088238Y-110359849D01*
X78122457Y-110375805D01*
X78175742Y-110422722D01*
X78195203Y-110490999D01*
X78174661Y-110558959D01*
X78122457Y-110604195D01*
X78088238Y-110620151D01*
X78088233Y-110620154D01*
X78083251Y-110622477D01*
X77978389Y-110695902D01*
X77900211Y-110750643D01*
X77900208Y-110750645D01*
X77895700Y-110753802D01*
X77733802Y-110915700D01*
X77730647Y-110920206D01*
X77730643Y-110920211D01*
X77675902Y-110998389D01*
X77602477Y-111103251D01*
X77600154Y-111108233D01*
X77600151Y-111108238D01*
X77515719Y-111289305D01*
X77505716Y-111310757D01*
X77504294Y-111316065D01*
X77504293Y-111316067D01*
X77447881Y-111526598D01*
X77446457Y-111531913D01*
X77426502Y-111760000D01*
X77446457Y-111988087D01*
X77447881Y-111993400D01*
X77447881Y-111993402D01*
X77461155Y-112042939D01*
X77505716Y-112209243D01*
X77508039Y-112214224D01*
X77508039Y-112214225D01*
X77600151Y-112411762D01*
X77600154Y-112411767D01*
X77602477Y-112416749D01*
X77605634Y-112421257D01*
X77722052Y-112587519D01*
X77733802Y-112604300D01*
X77895700Y-112766198D01*
X77900208Y-112769355D01*
X77900211Y-112769357D01*
X77940445Y-112797529D01*
X78083251Y-112897523D01*
X78088233Y-112899846D01*
X78088238Y-112899849D01*
X78123049Y-112916081D01*
X78176334Y-112962998D01*
X78195795Y-113031275D01*
X78175253Y-113099235D01*
X78123049Y-113144471D01*
X78088489Y-113160586D01*
X78078993Y-113166069D01*
X77900533Y-113291028D01*
X77892125Y-113298084D01*
X77738084Y-113452125D01*
X77731028Y-113460533D01*
X77606069Y-113638993D01*
X77600586Y-113648489D01*
X77508510Y-113845947D01*
X77504764Y-113856239D01*
X77458606Y-114028503D01*
X77458942Y-114042599D01*
X77466884Y-114046000D01*
X78868000Y-114046000D01*
X78936121Y-114066002D01*
X78982614Y-114119658D01*
X78994000Y-114172000D01*
X78994000Y-115567967D01*
X78997973Y-115581498D01*
X79006522Y-115582727D01*
X79183761Y-115535236D01*
X79194053Y-115531490D01*
X79391511Y-115439414D01*
X79401007Y-115433931D01*
X79579467Y-115308972D01*
X79587875Y-115301916D01*
X79741916Y-115147875D01*
X79748972Y-115139467D01*
X79877088Y-114956498D01*
X79878115Y-114957217D01*
X79925055Y-114912457D01*
X79994769Y-114899019D01*
X80060680Y-114925404D01*
X80090228Y-114958614D01*
X80179987Y-115105088D01*
X80326250Y-115273938D01*
X80498126Y-115416632D01*
X80691000Y-115529338D01*
X80695825Y-115531180D01*
X80695826Y-115531181D01*
X80706445Y-115535236D01*
X80899692Y-115609030D01*
X80904760Y-115610061D01*
X80904763Y-115610062D01*
X81012017Y-115631883D01*
X81118597Y-115653567D01*
X81123772Y-115653757D01*
X81123774Y-115653757D01*
X81336673Y-115661564D01*
X81336677Y-115661564D01*
X81341837Y-115661753D01*
X81346957Y-115661097D01*
X81346959Y-115661097D01*
X81558288Y-115634025D01*
X81558289Y-115634025D01*
X81563416Y-115633368D01*
X81568366Y-115631883D01*
X81772429Y-115570661D01*
X81772434Y-115570659D01*
X81777384Y-115569174D01*
X81977994Y-115470896D01*
X82159860Y-115341173D01*
X82199255Y-115301916D01*
X82314435Y-115187137D01*
X82318096Y-115183489D01*
X82377594Y-115100689D01*
X82445435Y-115006277D01*
X82448453Y-115002077D01*
X82470980Y-114956498D01*
X82545136Y-114806453D01*
X82545137Y-114806451D01*
X82547430Y-114801811D01*
X82612370Y-114588069D01*
X82641529Y-114366590D01*
X82643156Y-114300000D01*
X82624852Y-114077361D01*
X82570431Y-113860702D01*
X82481354Y-113655840D01*
X82441906Y-113594862D01*
X82362822Y-113472617D01*
X82362818Y-113472612D01*
X82360014Y-113468277D01*
X82209670Y-113303051D01*
X82205619Y-113299852D01*
X82205615Y-113299848D01*
X82038414Y-113167800D01*
X82038410Y-113167798D01*
X82034359Y-113164598D01*
X81993053Y-113141796D01*
X81943084Y-113091364D01*
X81928312Y-113021921D01*
X81953428Y-112955516D01*
X81980780Y-112928909D01*
X82029207Y-112894366D01*
X82159860Y-112801173D01*
X82191788Y-112769357D01*
X82314435Y-112647137D01*
X82318096Y-112643489D01*
X82349498Y-112599789D01*
X82445435Y-112466277D01*
X82448453Y-112462077D01*
X82468628Y-112421257D01*
X82545136Y-112266453D01*
X82545137Y-112266451D01*
X82547430Y-112261811D01*
X82612370Y-112048069D01*
X82641529Y-111826590D01*
X82643156Y-111760000D01*
X82624852Y-111537361D01*
X82570431Y-111320702D01*
X82481354Y-111115840D01*
X82360014Y-110928277D01*
X82209670Y-110763051D01*
X82205619Y-110759852D01*
X82205615Y-110759848D01*
X82038414Y-110627800D01*
X82038410Y-110627798D01*
X82034359Y-110624598D01*
X81993053Y-110601796D01*
X81943084Y-110551364D01*
X81928312Y-110481921D01*
X81953428Y-110415516D01*
X81980780Y-110388909D01*
X82029207Y-110354366D01*
X82159860Y-110261173D01*
X82191788Y-110229357D01*
X82314435Y-110107137D01*
X82318096Y-110103489D01*
X82349498Y-110059789D01*
X82445435Y-109926277D01*
X82448453Y-109922077D01*
X82468628Y-109881257D01*
X82545136Y-109726453D01*
X82545137Y-109726451D01*
X82547430Y-109721811D01*
X82612370Y-109508069D01*
X82641529Y-109286590D01*
X82643156Y-109220000D01*
X82624852Y-108997361D01*
X82570431Y-108780702D01*
X82481354Y-108575840D01*
X82360014Y-108388277D01*
X82209670Y-108223051D01*
X82205619Y-108219852D01*
X82205615Y-108219848D01*
X82038414Y-108087800D01*
X82038410Y-108087798D01*
X82034359Y-108084598D01*
X81993053Y-108061796D01*
X81943084Y-108011364D01*
X81928312Y-107941921D01*
X81953428Y-107875516D01*
X81980780Y-107848909D01*
X82029207Y-107814366D01*
X82159860Y-107721173D01*
X82191788Y-107689357D01*
X82314435Y-107567137D01*
X82318096Y-107563489D01*
X82349498Y-107519789D01*
X82445435Y-107386277D01*
X82448453Y-107382077D01*
X82468628Y-107341257D01*
X82545136Y-107186453D01*
X82545137Y-107186451D01*
X82547430Y-107181811D01*
X82612370Y-106968069D01*
X82641529Y-106746590D01*
X82641899Y-106731457D01*
X82643074Y-106683365D01*
X82643074Y-106683361D01*
X82643156Y-106680000D01*
X82624852Y-106457361D01*
X82570431Y-106240702D01*
X82481354Y-106035840D01*
X82435782Y-105965396D01*
X82362822Y-105852617D01*
X82362820Y-105852614D01*
X82360014Y-105848277D01*
X82209670Y-105683051D01*
X82205619Y-105679852D01*
X82205615Y-105679848D01*
X82038414Y-105547800D01*
X82038410Y-105547798D01*
X82034359Y-105544598D01*
X81993053Y-105521796D01*
X81943084Y-105471364D01*
X81928312Y-105401921D01*
X81953428Y-105335516D01*
X81980780Y-105308909D01*
X82029207Y-105274366D01*
X82159860Y-105181173D01*
X82191788Y-105149357D01*
X82293395Y-105048104D01*
X82318096Y-105023489D01*
X82349498Y-104979789D01*
X82445435Y-104846277D01*
X82448453Y-104842077D01*
X82452585Y-104833718D01*
X82545136Y-104646453D01*
X82545137Y-104646451D01*
X82547430Y-104641811D01*
X82604370Y-104454399D01*
X82610865Y-104433023D01*
X82610865Y-104433021D01*
X82612370Y-104428069D01*
X82641529Y-104206590D01*
X82643156Y-104140000D01*
X82624852Y-103917361D01*
X82570431Y-103700702D01*
X82481354Y-103495840D01*
X82360014Y-103308277D01*
X82209670Y-103143051D01*
X82205619Y-103139852D01*
X82205615Y-103139848D01*
X82038414Y-103007800D01*
X82038410Y-103007798D01*
X82034359Y-103004598D01*
X81993053Y-102981796D01*
X81943084Y-102931364D01*
X81928312Y-102861921D01*
X81953428Y-102795516D01*
X81980780Y-102768909D01*
X82029207Y-102734366D01*
X82159860Y-102641173D01*
X82191788Y-102609357D01*
X82247572Y-102553767D01*
X82318096Y-102483489D01*
X82345487Y-102445371D01*
X82445435Y-102306277D01*
X82448453Y-102302077D01*
X82452585Y-102293718D01*
X82545136Y-102106453D01*
X82545137Y-102106451D01*
X82547430Y-102101811D01*
X82612370Y-101888069D01*
X82641529Y-101666590D01*
X82642216Y-101638491D01*
X82643074Y-101603365D01*
X82643074Y-101603361D01*
X82643156Y-101600000D01*
X82624852Y-101377361D01*
X82570431Y-101160702D01*
X82481354Y-100955840D01*
X82360014Y-100768277D01*
X82209670Y-100603051D01*
X82205619Y-100599852D01*
X82205615Y-100599848D01*
X82038414Y-100467800D01*
X82038410Y-100467798D01*
X82034359Y-100464598D01*
X81993053Y-100441796D01*
X81943084Y-100391364D01*
X81928312Y-100321921D01*
X81953428Y-100255516D01*
X81980780Y-100228909D01*
X82029207Y-100194366D01*
X82159860Y-100101173D01*
X82188338Y-100072795D01*
X82285353Y-99976118D01*
X82318096Y-99943489D01*
X82349498Y-99899789D01*
X82445435Y-99766277D01*
X82448453Y-99762077D01*
X82452585Y-99753718D01*
X82545136Y-99566453D01*
X82545137Y-99566451D01*
X82547430Y-99561811D01*
X82612370Y-99348069D01*
X82641529Y-99126590D01*
X82643156Y-99060000D01*
X82624852Y-98837361D01*
X82570431Y-98620702D01*
X82481354Y-98415840D01*
X82441906Y-98354862D01*
X82362822Y-98232617D01*
X82362820Y-98232614D01*
X82360014Y-98228277D01*
X82209670Y-98063051D01*
X82205619Y-98059852D01*
X82205615Y-98059848D01*
X82038414Y-97927800D01*
X82038408Y-97927796D01*
X82034359Y-97924598D01*
X81993053Y-97901796D01*
X81943084Y-97851364D01*
X81928312Y-97781921D01*
X81953428Y-97715516D01*
X81980780Y-97688909D01*
X82029207Y-97654366D01*
X82159860Y-97561173D01*
X82191788Y-97529357D01*
X82314435Y-97407137D01*
X82318096Y-97403489D01*
X82349498Y-97359789D01*
X82445435Y-97226277D01*
X82448453Y-97222077D01*
X82469693Y-97179102D01*
X82545136Y-97026453D01*
X82545137Y-97026451D01*
X82547430Y-97021811D01*
X82612370Y-96808069D01*
X82641529Y-96586590D01*
X82641870Y-96572644D01*
X82643074Y-96523365D01*
X82643074Y-96523361D01*
X82643156Y-96520000D01*
X82624852Y-96297361D01*
X82570431Y-96080702D01*
X82481354Y-95875840D01*
X82360014Y-95688277D01*
X82209670Y-95523051D01*
X82205619Y-95519852D01*
X82205615Y-95519848D01*
X82038414Y-95387800D01*
X82038410Y-95387798D01*
X82034359Y-95384598D01*
X81993053Y-95361796D01*
X81943084Y-95311364D01*
X81928312Y-95241921D01*
X81953428Y-95175516D01*
X81980780Y-95148909D01*
X82029207Y-95114366D01*
X82159860Y-95021173D01*
X82191788Y-94989357D01*
X82314435Y-94867137D01*
X82318096Y-94863489D01*
X82349498Y-94819789D01*
X82445435Y-94686277D01*
X82448453Y-94682077D01*
X82468628Y-94641257D01*
X82545136Y-94486453D01*
X82545137Y-94486451D01*
X82547430Y-94481811D01*
X82612370Y-94268069D01*
X82641529Y-94046590D01*
X82643156Y-93980000D01*
X82624852Y-93757361D01*
X82570431Y-93540702D01*
X82481354Y-93335840D01*
X82421469Y-93243272D01*
X82362822Y-93152617D01*
X82362820Y-93152614D01*
X82360014Y-93148277D01*
X82209670Y-92983051D01*
X82205619Y-92979852D01*
X82205615Y-92979848D01*
X82038414Y-92847800D01*
X82038410Y-92847798D01*
X82034359Y-92844598D01*
X81993053Y-92821796D01*
X81943084Y-92771364D01*
X81928312Y-92701921D01*
X81953428Y-92635516D01*
X81980780Y-92608909D01*
X82029207Y-92574366D01*
X82159860Y-92481173D01*
X82191788Y-92449357D01*
X82314435Y-92327137D01*
X82318096Y-92323489D01*
X82349498Y-92279789D01*
X82445435Y-92146277D01*
X82448453Y-92142077D01*
X82468628Y-92101257D01*
X82545136Y-91946453D01*
X82545137Y-91946451D01*
X82547430Y-91941811D01*
X82612370Y-91728069D01*
X82641529Y-91506590D01*
X82643156Y-91440000D01*
X82624852Y-91217361D01*
X82570431Y-91000702D01*
X82481354Y-90795840D01*
X82379743Y-90638773D01*
X82362822Y-90612617D01*
X82362820Y-90612614D01*
X82360014Y-90608277D01*
X82209670Y-90443051D01*
X82205619Y-90439852D01*
X82205615Y-90439848D01*
X82038414Y-90307800D01*
X82038410Y-90307798D01*
X82034359Y-90304598D01*
X81993053Y-90281796D01*
X81943084Y-90231364D01*
X81928312Y-90161921D01*
X81953428Y-90095516D01*
X81980780Y-90068909D01*
X82044895Y-90023176D01*
X82159860Y-89941173D01*
X82191788Y-89909357D01*
X82310313Y-89791245D01*
X82318096Y-89783489D01*
X82333724Y-89761741D01*
X82445435Y-89606277D01*
X82448453Y-89602077D01*
X82464509Y-89569591D01*
X82545136Y-89406453D01*
X82545137Y-89406451D01*
X82547430Y-89401811D01*
X82612370Y-89188069D01*
X82641529Y-88966590D01*
X82643156Y-88900000D01*
X82624852Y-88677361D01*
X82570431Y-88460702D01*
X82481354Y-88255840D01*
X82360014Y-88068277D01*
X82209670Y-87903051D01*
X82205619Y-87899852D01*
X82205615Y-87899848D01*
X82038414Y-87767800D01*
X82038410Y-87767798D01*
X82034359Y-87764598D01*
X81992569Y-87741529D01*
X81942598Y-87691097D01*
X81927826Y-87621654D01*
X81952942Y-87555248D01*
X81980294Y-87528641D01*
X82155328Y-87403792D01*
X82163200Y-87397139D01*
X82314052Y-87246812D01*
X82320730Y-87238965D01*
X82445003Y-87066020D01*
X82450313Y-87057183D01*
X82544670Y-86866267D01*
X82548469Y-86856672D01*
X82610377Y-86652910D01*
X82612555Y-86642837D01*
X82613986Y-86631962D01*
X82611775Y-86617778D01*
X82598617Y-86614000D01*
X81152000Y-86614000D01*
X81083879Y-86593998D01*
X81037386Y-86540342D01*
X81026000Y-86488000D01*
X81026000Y-86232000D01*
X81046002Y-86163879D01*
X81099658Y-86117386D01*
X81152000Y-86106000D01*
X82598344Y-86106000D01*
X82611875Y-86102027D01*
X82613180Y-86092947D01*
X82571214Y-85925875D01*
X82567894Y-85916124D01*
X82482972Y-85720814D01*
X82478105Y-85711739D01*
X82362426Y-85532926D01*
X82356136Y-85524757D01*
X82212806Y-85367240D01*
X82205273Y-85360215D01*
X82038139Y-85228222D01*
X82029556Y-85222520D01*
X81992602Y-85202120D01*
X81942631Y-85151687D01*
X81927859Y-85082245D01*
X81952975Y-85015839D01*
X81980327Y-84989232D01*
X82003797Y-84972491D01*
X82159860Y-84861173D01*
X82191784Y-84829361D01*
X82314435Y-84707137D01*
X82318096Y-84703489D01*
X82349498Y-84659789D01*
X82445435Y-84526277D01*
X82448453Y-84522077D01*
X82468628Y-84481257D01*
X82545136Y-84326453D01*
X82545137Y-84326451D01*
X82547430Y-84321811D01*
X82606698Y-84126739D01*
X82610865Y-84113023D01*
X82610865Y-84113021D01*
X82612370Y-84108069D01*
X82641529Y-83886590D01*
X82643156Y-83820000D01*
X82624852Y-83597361D01*
X82570431Y-83380702D01*
X82481354Y-83175840D01*
X82398525Y-83047806D01*
X82362822Y-82992617D01*
X82362820Y-82992614D01*
X82360014Y-82988277D01*
X82209670Y-82823051D01*
X82205619Y-82819852D01*
X82205615Y-82819848D01*
X82038414Y-82687800D01*
X82038410Y-82687798D01*
X82034359Y-82684598D01*
X81993053Y-82661796D01*
X81943084Y-82611364D01*
X81928312Y-82541921D01*
X81953428Y-82475516D01*
X81980780Y-82448909D01*
X82029207Y-82414366D01*
X82159860Y-82321173D01*
X82175195Y-82305892D01*
X82264601Y-82216797D01*
X82318096Y-82163489D01*
X82349498Y-82119789D01*
X82445435Y-81986277D01*
X82448453Y-81982077D01*
X82468628Y-81941257D01*
X82545136Y-81786453D01*
X82545137Y-81786451D01*
X82547430Y-81781811D01*
X82612370Y-81568069D01*
X82641529Y-81346590D01*
X82643156Y-81280000D01*
X82624852Y-81057361D01*
X82570431Y-80840702D01*
X82481354Y-80635840D01*
X82360014Y-80448277D01*
X82209670Y-80283051D01*
X82205619Y-80279852D01*
X82205615Y-80279848D01*
X82038414Y-80147800D01*
X82038410Y-80147798D01*
X82034359Y-80144598D01*
X81993053Y-80121796D01*
X81943084Y-80071364D01*
X81928312Y-80001921D01*
X81953428Y-79935516D01*
X81980780Y-79908909D01*
X82034298Y-79870735D01*
X82159860Y-79781173D01*
X82191788Y-79749357D01*
X82314435Y-79627137D01*
X82318096Y-79623489D01*
X82349498Y-79579789D01*
X82445435Y-79446277D01*
X82448453Y-79442077D01*
X82468628Y-79401257D01*
X82545136Y-79246453D01*
X82545137Y-79246451D01*
X82547430Y-79241811D01*
X82612370Y-79028069D01*
X82641529Y-78806590D01*
X82641611Y-78803240D01*
X82643074Y-78743365D01*
X82643074Y-78743361D01*
X82643156Y-78740000D01*
X82624852Y-78517361D01*
X82570431Y-78300702D01*
X82481354Y-78095840D01*
X82360014Y-77908277D01*
X82357348Y-77905347D01*
X82331757Y-77839502D01*
X82345897Y-77769928D01*
X82368206Y-77739698D01*
X82568946Y-77538959D01*
X82847658Y-77260247D01*
X82855937Y-77252713D01*
X82862418Y-77248600D01*
X82909044Y-77198948D01*
X82911798Y-77196107D01*
X82931535Y-77176370D01*
X82934015Y-77173173D01*
X82941720Y-77164151D01*
X82966559Y-77137700D01*
X82971986Y-77131921D01*
X82975805Y-77124975D01*
X82975807Y-77124972D01*
X82981748Y-77114166D01*
X82992599Y-77097647D01*
X83000158Y-77087901D01*
X83005014Y-77081641D01*
X83008159Y-77074372D01*
X83008162Y-77074368D01*
X83022574Y-77041063D01*
X83027791Y-77030413D01*
X83049095Y-76991660D01*
X83054133Y-76972037D01*
X83060537Y-76953334D01*
X83065433Y-76942020D01*
X83065433Y-76942019D01*
X83068581Y-76934745D01*
X83069820Y-76926922D01*
X83069823Y-76926912D01*
X83075499Y-76891076D01*
X83077905Y-76879456D01*
X83086928Y-76844311D01*
X83086928Y-76844310D01*
X83088900Y-76836630D01*
X83088900Y-76816376D01*
X83090451Y-76796665D01*
X83092380Y-76784486D01*
X83093620Y-76776657D01*
X83089459Y-76732638D01*
X83088900Y-76720781D01*
X83088900Y-64080137D01*
X83095067Y-64041201D01*
X83150302Y-63871206D01*
X83152342Y-63864928D01*
X83172304Y-63675000D01*
X83152342Y-63485072D01*
X83093327Y-63303444D01*
X82997840Y-63138056D01*
X82950519Y-63085500D01*
X82874475Y-63001045D01*
X82874474Y-63001044D01*
X82870053Y-62996134D01*
X82763256Y-62918541D01*
X82720894Y-62887763D01*
X82720893Y-62887762D01*
X82715552Y-62883882D01*
X82709524Y-62881198D01*
X82709522Y-62881197D01*
X82547119Y-62808891D01*
X82547118Y-62808891D01*
X82541088Y-62806206D01*
X82447688Y-62786353D01*
X82360744Y-62767872D01*
X82360739Y-62767872D01*
X82354287Y-62766500D01*
X82163313Y-62766500D01*
X82156861Y-62767872D01*
X82156856Y-62767872D01*
X82069912Y-62786353D01*
X81976512Y-62806206D01*
X81970482Y-62808891D01*
X81970481Y-62808891D01*
X81808078Y-62881197D01*
X81808076Y-62881198D01*
X81802048Y-62883882D01*
X81796707Y-62887762D01*
X81796706Y-62887763D01*
X81754344Y-62918541D01*
X81647547Y-62996134D01*
X81643126Y-63001044D01*
X81643125Y-63001045D01*
X81567082Y-63085500D01*
X81519760Y-63138056D01*
X81424273Y-63303444D01*
X81365258Y-63485072D01*
X81345296Y-63675000D01*
X81365258Y-63864928D01*
X81424273Y-64046556D01*
X81519760Y-64211944D01*
X81524178Y-64216851D01*
X81524179Y-64216852D01*
X81643125Y-64348955D01*
X81647547Y-64353866D01*
X81652889Y-64357747D01*
X81652891Y-64357749D01*
X81692345Y-64386414D01*
X81755190Y-64432073D01*
X81769961Y-64442805D01*
X81813315Y-64499027D01*
X81821900Y-64544741D01*
X81821900Y-64555500D01*
X81801898Y-64623621D01*
X81748242Y-64670114D01*
X81695900Y-64681500D01*
X80674800Y-64681500D01*
X80606679Y-64661498D01*
X80560186Y-64607842D01*
X80548800Y-64555500D01*
X80548800Y-56691967D01*
X80549327Y-56680784D01*
X80551002Y-56673291D01*
X80550629Y-56661406D01*
X80548862Y-56605214D01*
X80548800Y-56601255D01*
X80548800Y-56573344D01*
X80548295Y-56569344D01*
X80547362Y-56557501D01*
X80546222Y-56521229D01*
X80545973Y-56513310D01*
X80540322Y-56493858D01*
X80536314Y-56474506D01*
X80534767Y-56462263D01*
X80533774Y-56454403D01*
X80530856Y-56447032D01*
X80517500Y-56413297D01*
X80513655Y-56402070D01*
X80513021Y-56399887D01*
X80501318Y-56359607D01*
X80491007Y-56342172D01*
X80482312Y-56324424D01*
X80474852Y-56305583D01*
X80448864Y-56269813D01*
X80442348Y-56259893D01*
X80423880Y-56228665D01*
X80423878Y-56228662D01*
X80419842Y-56221838D01*
X80405521Y-56207517D01*
X80392680Y-56192483D01*
X80385431Y-56182506D01*
X80380772Y-56176093D01*
X80374667Y-56171042D01*
X80374662Y-56171037D01*
X80346696Y-56147901D01*
X80337918Y-56139913D01*
X80130708Y-55932703D01*
X84330743Y-55932703D01*
X84368268Y-56217734D01*
X84369401Y-56221874D01*
X84369401Y-56221876D01*
X84384052Y-56275431D01*
X84444129Y-56495036D01*
X84445813Y-56498984D01*
X84531258Y-56699305D01*
X84556923Y-56759476D01*
X84704561Y-57006161D01*
X84884313Y-57230528D01*
X84901397Y-57246740D01*
X85025772Y-57364767D01*
X85092851Y-57428423D01*
X85326317Y-57596186D01*
X85330112Y-57598195D01*
X85330113Y-57598196D01*
X85351869Y-57609715D01*
X85580392Y-57730712D01*
X85604699Y-57739607D01*
X85839899Y-57825678D01*
X85850373Y-57829511D01*
X86131264Y-57890755D01*
X86159841Y-57893004D01*
X86354282Y-57908307D01*
X86354291Y-57908307D01*
X86356739Y-57908500D01*
X86512271Y-57908500D01*
X86514407Y-57908354D01*
X86514418Y-57908354D01*
X86722548Y-57894165D01*
X86722554Y-57894164D01*
X86726825Y-57893873D01*
X86731020Y-57893004D01*
X86731022Y-57893004D01*
X86924059Y-57853028D01*
X87008342Y-57835574D01*
X87279343Y-57739607D01*
X87534812Y-57607750D01*
X87538313Y-57605289D01*
X87538317Y-57605287D01*
X87652418Y-57525095D01*
X87770023Y-57442441D01*
X87980622Y-57246740D01*
X88162713Y-57024268D01*
X88312927Y-56779142D01*
X88364610Y-56661406D01*
X88426757Y-56519830D01*
X88428483Y-56515898D01*
X88507244Y-56239406D01*
X88547751Y-55954784D01*
X88547845Y-55936951D01*
X88549235Y-55671583D01*
X88549235Y-55671576D01*
X88549257Y-55667297D01*
X88511732Y-55382266D01*
X88509442Y-55373893D01*
X88457231Y-55183044D01*
X88435871Y-55104964D01*
X88398781Y-55018009D01*
X88324763Y-54844476D01*
X88324761Y-54844472D01*
X88323077Y-54840524D01*
X88222943Y-54673212D01*
X88177643Y-54597521D01*
X88177640Y-54597517D01*
X88175439Y-54593839D01*
X87995687Y-54369472D01*
X87787149Y-54171577D01*
X87553683Y-54003814D01*
X87546399Y-53999957D01*
X87417740Y-53931836D01*
X87299608Y-53869288D01*
X87029627Y-53770489D01*
X86748736Y-53709245D01*
X86717685Y-53706801D01*
X86525718Y-53691693D01*
X86525709Y-53691693D01*
X86523261Y-53691500D01*
X86367729Y-53691500D01*
X86365593Y-53691646D01*
X86365582Y-53691646D01*
X86157452Y-53705835D01*
X86157446Y-53705836D01*
X86153175Y-53706127D01*
X86148980Y-53706996D01*
X86148978Y-53706996D01*
X86045289Y-53728469D01*
X85871658Y-53764426D01*
X85600657Y-53860393D01*
X85345188Y-53992250D01*
X85341687Y-53994711D01*
X85341683Y-53994713D01*
X85334222Y-53999957D01*
X85109977Y-54157559D01*
X84899378Y-54353260D01*
X84717287Y-54575732D01*
X84567073Y-54820858D01*
X84565347Y-54824791D01*
X84565346Y-54824792D01*
X84528348Y-54909076D01*
X84451517Y-55084102D01*
X84450342Y-55088229D01*
X84450341Y-55088230D01*
X84426394Y-55172297D01*
X84372756Y-55360594D01*
X84332249Y-55645216D01*
X84332227Y-55649505D01*
X84332226Y-55649512D01*
X84330782Y-55925229D01*
X84330743Y-55932703D01*
X80130708Y-55932703D01*
X80065445Y-55867440D01*
X80031419Y-55805128D01*
X80036484Y-55734313D01*
X80038943Y-55728936D01*
X80040615Y-55726705D01*
X80091745Y-55590316D01*
X80098500Y-55528134D01*
X80098500Y-53731866D01*
X80091745Y-53669684D01*
X80040615Y-53533295D01*
X79953261Y-53416739D01*
X79836705Y-53329385D01*
X79700316Y-53278255D01*
X79638134Y-53271500D01*
X77841866Y-53271500D01*
X77779684Y-53278255D01*
X77643295Y-53329385D01*
X77526739Y-53416739D01*
X77439385Y-53533295D01*
X77388255Y-53669684D01*
X77381500Y-53731866D01*
X77381500Y-53931836D01*
X77361498Y-53999957D01*
X77310618Y-54043161D01*
X77311104Y-54043983D01*
X77306315Y-54046815D01*
X77306311Y-54046818D01*
X77304282Y-54048018D01*
X77304278Y-54048020D01*
X77293668Y-54054294D01*
X77275918Y-54062990D01*
X77264456Y-54067528D01*
X77264451Y-54067531D01*
X77257083Y-54070448D01*
X77250668Y-54075109D01*
X77221325Y-54096427D01*
X77211407Y-54102943D01*
X77192719Y-54113995D01*
X77173337Y-54125458D01*
X77159013Y-54139782D01*
X77143981Y-54152621D01*
X77127593Y-54164528D01*
X77099412Y-54198593D01*
X77091422Y-54207373D01*
X76163900Y-55134895D01*
X76101588Y-55168921D01*
X76074805Y-55171800D01*
X72538650Y-55171800D01*
X72470529Y-55151798D01*
X72424036Y-55098142D01*
X72413932Y-55027868D01*
X72418092Y-55009171D01*
X72450376Y-54902915D01*
X72452555Y-54892834D01*
X72480590Y-54679887D01*
X72481109Y-54673212D01*
X72482572Y-54613364D01*
X72482378Y-54606646D01*
X72464781Y-54392604D01*
X72463096Y-54382424D01*
X72411214Y-54175875D01*
X72407894Y-54166124D01*
X72322972Y-53970814D01*
X72318105Y-53961739D01*
X72253063Y-53861197D01*
X72242377Y-53851995D01*
X72232812Y-53856398D01*
X71209095Y-54880115D01*
X71146783Y-54914141D01*
X71075968Y-54909076D01*
X71030905Y-54880115D01*
X70009849Y-53859059D01*
X69998313Y-53852759D01*
X69986031Y-53862382D01*
X69938089Y-53932662D01*
X69933004Y-53941613D01*
X69843338Y-54134783D01*
X69839775Y-54144470D01*
X69782864Y-54349681D01*
X69780933Y-54359800D01*
X69758302Y-54571574D01*
X69758050Y-54581863D01*
X69770309Y-54794477D01*
X69771745Y-54804697D01*
X69819701Y-55017489D01*
X69817394Y-55018009D01*
X69818485Y-55079135D01*
X69781174Y-55139537D01*
X69717129Y-55170178D01*
X69696975Y-55171800D01*
X60349267Y-55171800D01*
X60338084Y-55171273D01*
X60330591Y-55169598D01*
X60322665Y-55169847D01*
X60322664Y-55169847D01*
X60262514Y-55171738D01*
X60258555Y-55171800D01*
X60230644Y-55171800D01*
X60226710Y-55172297D01*
X60226709Y-55172297D01*
X60226644Y-55172305D01*
X60214807Y-55173238D01*
X60182990Y-55174238D01*
X60178529Y-55174378D01*
X60170610Y-55174627D01*
X60152954Y-55179756D01*
X60151158Y-55180278D01*
X60131806Y-55184286D01*
X60124735Y-55185180D01*
X60111703Y-55186826D01*
X60104334Y-55189743D01*
X60104332Y-55189744D01*
X60070597Y-55203100D01*
X60059369Y-55206945D01*
X60016907Y-55219282D01*
X60010085Y-55223316D01*
X60010079Y-55223319D01*
X59999468Y-55229594D01*
X59981718Y-55238290D01*
X59970256Y-55242828D01*
X59970251Y-55242831D01*
X59962883Y-55245748D01*
X59956468Y-55250409D01*
X59927125Y-55271727D01*
X59917207Y-55278243D01*
X59898519Y-55289295D01*
X59879137Y-55300758D01*
X59864813Y-55315082D01*
X59849781Y-55327921D01*
X59833393Y-55339828D01*
X59805212Y-55373893D01*
X59797222Y-55382673D01*
X54490686Y-60689209D01*
X54428374Y-60723235D01*
X54418695Y-60724947D01*
X54404966Y-60726828D01*
X54374716Y-60730971D01*
X54374711Y-60730972D01*
X54370273Y-60731580D01*
X54365966Y-60732811D01*
X54365961Y-60732812D01*
X54301474Y-60751243D01*
X54232564Y-60770937D01*
X54099602Y-60830414D01*
X54095820Y-60832800D01*
X54095813Y-60832804D01*
X54047682Y-60863173D01*
X53978474Y-60906840D01*
X53867548Y-61001246D01*
X53864577Y-61004610D01*
X53831084Y-61042534D01*
X53772740Y-61108597D01*
X53770285Y-61112334D01*
X53770283Y-61112337D01*
X53702811Y-61215054D01*
X53692774Y-61230334D01*
X53631905Y-61359979D01*
X53589317Y-61499277D01*
X53567283Y-61640795D01*
X53565503Y-61786438D01*
X53566063Y-61790723D01*
X53566271Y-61797760D01*
X53566271Y-62187047D01*
X53566273Y-62187047D01*
X53566682Y-62190014D01*
X53565504Y-62286438D01*
X53566085Y-62290880D01*
X53566085Y-62290883D01*
X53573427Y-62347027D01*
X53584074Y-62428452D01*
X53623245Y-62568748D01*
X53680928Y-62699841D01*
X53757897Y-62823496D01*
X53760779Y-62826924D01*
X53760780Y-62826926D01*
X53831676Y-62911268D01*
X53850054Y-62933131D01*
X53958639Y-63030218D01*
X53962372Y-63032703D01*
X53962376Y-63032706D01*
X54059192Y-63097152D01*
X54077864Y-63109581D01*
X54209333Y-63172289D01*
X54213612Y-63173626D01*
X54213615Y-63173627D01*
X54289078Y-63197203D01*
X54346039Y-63214999D01*
X54350463Y-63215716D01*
X54350465Y-63215716D01*
X54370241Y-63218919D01*
X54489821Y-63238287D01*
X54556782Y-63239514D01*
X54628539Y-63240830D01*
X54628541Y-63240830D01*
X54633020Y-63240912D01*
X54637465Y-63240359D01*
X54641944Y-63240122D01*
X54641951Y-63240249D01*
X54650339Y-63239729D01*
X54991511Y-63239729D01*
X55059632Y-63259731D01*
X55106125Y-63313387D01*
X55116229Y-63383661D01*
X55086735Y-63448241D01*
X55080606Y-63454824D01*
X54205443Y-64329987D01*
X54167800Y-64355908D01*
X54099602Y-64386414D01*
X53978474Y-64462840D01*
X53867548Y-64557246D01*
X53772740Y-64664597D01*
X53770285Y-64668334D01*
X53770283Y-64668337D01*
X53728465Y-64732000D01*
X53692774Y-64786334D01*
X53690869Y-64790391D01*
X53690867Y-64790395D01*
X53663410Y-64848876D01*
X53631905Y-64915979D01*
X53630596Y-64920262D01*
X53630594Y-64920266D01*
X53620983Y-64951703D01*
X53589317Y-65055277D01*
X53567283Y-65196795D01*
X53567228Y-65201262D01*
X53567228Y-65201267D01*
X53567102Y-65211592D01*
X53565503Y-65342438D01*
X53566063Y-65346723D01*
X53566271Y-65353760D01*
X53566271Y-65743047D01*
X53566273Y-65743047D01*
X53566682Y-65746014D01*
X53565504Y-65842438D01*
X53584074Y-65984452D01*
X53623245Y-66124748D01*
X53680928Y-66255841D01*
X53757897Y-66379496D01*
X53760779Y-66382924D01*
X53760780Y-66382926D01*
X53841951Y-66479491D01*
X53870472Y-66544507D01*
X53871500Y-66560566D01*
X53871500Y-68061097D01*
X53851498Y-68129218D01*
X53839942Y-68144504D01*
X53772740Y-68220597D01*
X53770285Y-68224334D01*
X53770283Y-68224337D01*
X53707715Y-68319588D01*
X53692774Y-68342334D01*
X53690869Y-68346391D01*
X53690867Y-68346395D01*
X53685703Y-68357394D01*
X53631905Y-68471979D01*
X53630596Y-68476262D01*
X53630594Y-68476266D01*
X53595025Y-68592608D01*
X53589317Y-68611277D01*
X53567283Y-68752795D01*
X53567228Y-68757262D01*
X53567228Y-68757267D01*
X53567102Y-68767592D01*
X53565503Y-68898438D01*
X53566063Y-68902723D01*
X53566271Y-68909760D01*
X53566271Y-69047569D01*
X53546269Y-69115690D01*
X53529366Y-69136664D01*
X53198172Y-69467858D01*
X53191906Y-69473712D01*
X53154040Y-69506744D01*
X53154037Y-69506747D01*
X53148315Y-69511739D01*
X53143948Y-69517953D01*
X53111572Y-69564019D01*
X53107639Y-69569314D01*
X53068224Y-69619582D01*
X53065101Y-69626498D01*
X53063717Y-69628784D01*
X53055343Y-69643465D01*
X53054078Y-69645825D01*
X53049710Y-69652039D01*
X53046950Y-69659118D01*
X53046949Y-69659120D01*
X53026498Y-69711575D01*
X53023947Y-69717644D01*
X52997655Y-69775873D01*
X52996271Y-69783340D01*
X52995470Y-69785895D01*
X52990841Y-69802148D01*
X52990178Y-69804728D01*
X52987418Y-69811809D01*
X52979174Y-69874434D01*
X52979079Y-69875152D01*
X52978048Y-69881659D01*
X52966404Y-69944486D01*
X52966841Y-69952066D01*
X52966841Y-69952067D01*
X52969991Y-70006692D01*
X52970200Y-70013946D01*
X52970200Y-77779788D01*
X52969908Y-77788358D01*
X52967458Y-77824302D01*
X52965975Y-77846052D01*
X52070000Y-77846052D01*
X52070000Y-55932703D01*
X53690743Y-55932703D01*
X53728268Y-56217734D01*
X53729401Y-56221874D01*
X53729401Y-56221876D01*
X53744052Y-56275431D01*
X53804129Y-56495036D01*
X53805813Y-56498984D01*
X53891258Y-56699305D01*
X53916923Y-56759476D01*
X54064561Y-57006161D01*
X54244313Y-57230528D01*
X54261397Y-57246740D01*
X54385772Y-57364767D01*
X54452851Y-57428423D01*
X54686317Y-57596186D01*
X54690112Y-57598195D01*
X54690113Y-57598196D01*
X54711869Y-57609715D01*
X54940392Y-57730712D01*
X54964699Y-57739607D01*
X55199899Y-57825678D01*
X55210373Y-57829511D01*
X55491264Y-57890755D01*
X55519841Y-57893004D01*
X55714282Y-57908307D01*
X55714291Y-57908307D01*
X55716739Y-57908500D01*
X55872271Y-57908500D01*
X55874407Y-57908354D01*
X55874418Y-57908354D01*
X56082548Y-57894165D01*
X56082554Y-57894164D01*
X56086825Y-57893873D01*
X56091020Y-57893004D01*
X56091022Y-57893004D01*
X56284059Y-57853028D01*
X56368342Y-57835574D01*
X56639343Y-57739607D01*
X56894812Y-57607750D01*
X56898313Y-57605289D01*
X56898317Y-57605287D01*
X57012418Y-57525095D01*
X57130023Y-57442441D01*
X57340622Y-57246740D01*
X57522713Y-57024268D01*
X57672927Y-56779142D01*
X57724610Y-56661406D01*
X57786757Y-56519830D01*
X57788483Y-56515898D01*
X57867244Y-56239406D01*
X57907751Y-55954784D01*
X57907845Y-55936951D01*
X57909235Y-55671583D01*
X57909235Y-55671576D01*
X57909257Y-55667297D01*
X57871732Y-55382266D01*
X57869442Y-55373893D01*
X57817231Y-55183044D01*
X57795871Y-55104964D01*
X57758781Y-55018009D01*
X57684763Y-54844476D01*
X57684761Y-54844472D01*
X57683077Y-54840524D01*
X57582943Y-54673212D01*
X57537643Y-54597521D01*
X57537640Y-54597517D01*
X57535439Y-54593839D01*
X57355687Y-54369472D01*
X57147149Y-54171577D01*
X56913683Y-54003814D01*
X56906399Y-53999957D01*
X56777740Y-53931836D01*
X56659608Y-53869288D01*
X56389627Y-53770489D01*
X56108736Y-53709245D01*
X56077685Y-53706801D01*
X55885718Y-53691693D01*
X55885709Y-53691693D01*
X55883261Y-53691500D01*
X55727729Y-53691500D01*
X55725593Y-53691646D01*
X55725582Y-53691646D01*
X55517452Y-53705835D01*
X55517446Y-53705836D01*
X55513175Y-53706127D01*
X55508980Y-53706996D01*
X55508978Y-53706996D01*
X55405289Y-53728469D01*
X55231658Y-53764426D01*
X54960657Y-53860393D01*
X54705188Y-53992250D01*
X54701687Y-53994711D01*
X54701683Y-53994713D01*
X54694222Y-53999957D01*
X54469977Y-54157559D01*
X54259378Y-54353260D01*
X54077287Y-54575732D01*
X53927073Y-54820858D01*
X53925347Y-54824791D01*
X53925346Y-54824792D01*
X53888348Y-54909076D01*
X53811517Y-55084102D01*
X53810342Y-55088229D01*
X53810341Y-55088230D01*
X53786394Y-55172297D01*
X53732756Y-55360594D01*
X53692249Y-55645216D01*
X53692227Y-55649505D01*
X53692226Y-55649512D01*
X53690782Y-55925229D01*
X53690743Y-55932703D01*
X52070000Y-55932703D01*
X52070000Y-53486427D01*
X70361223Y-53486427D01*
X70367968Y-53498758D01*
X71107188Y-54237978D01*
X71121132Y-54245592D01*
X71122965Y-54245461D01*
X71129580Y-54241210D01*
X71873389Y-53497401D01*
X71880410Y-53484544D01*
X71873611Y-53475213D01*
X71869554Y-53472518D01*
X71683117Y-53369599D01*
X71673705Y-53365369D01*
X71472959Y-53294280D01*
X71462989Y-53291646D01*
X71253327Y-53254301D01*
X71243073Y-53253331D01*
X71030116Y-53250728D01*
X71019832Y-53251448D01*
X70809321Y-53283661D01*
X70799293Y-53286050D01*
X70596868Y-53352212D01*
X70587359Y-53356209D01*
X70398466Y-53454540D01*
X70389734Y-53460039D01*
X70369677Y-53475099D01*
X70361223Y-53486427D01*
X52070000Y-53486427D01*
X52070000Y-52196000D01*
X52090002Y-52127879D01*
X52143658Y-52081386D01*
X52196000Y-52070000D01*
X90044000Y-52070000D01*
X90112121Y-52090002D01*
G37*
G04 #@! TD.AperFunction*
G04 #@! TA.AperFunction,Conductor*
G36*
X80060984Y-112385895D02*
G01*
X80090527Y-112419102D01*
X80177287Y-112560684D01*
X80177295Y-112560694D01*
X80179987Y-112565088D01*
X80326250Y-112733938D01*
X80498126Y-112876632D01*
X80565163Y-112915805D01*
X80571445Y-112919476D01*
X80620169Y-112971114D01*
X80633240Y-113040897D01*
X80606509Y-113106669D01*
X80566055Y-113140027D01*
X80553607Y-113146507D01*
X80549474Y-113149610D01*
X80549471Y-113149612D01*
X80525247Y-113167800D01*
X80374965Y-113280635D01*
X80220629Y-113442138D01*
X80217715Y-113446410D01*
X80217714Y-113446411D01*
X80198220Y-113474989D01*
X80094743Y-113626680D01*
X80092565Y-113631371D01*
X80090621Y-113634794D01*
X80039581Y-113684143D01*
X79969963Y-113698065D01*
X79903870Y-113672138D01*
X79878196Y-113642726D01*
X79877088Y-113643502D01*
X79748972Y-113460533D01*
X79741916Y-113452125D01*
X79587875Y-113298084D01*
X79579467Y-113291028D01*
X79401007Y-113166069D01*
X79391511Y-113160586D01*
X79356951Y-113144471D01*
X79303666Y-113097554D01*
X79284205Y-113029277D01*
X79304747Y-112961317D01*
X79356951Y-112916081D01*
X79391762Y-112899849D01*
X79391767Y-112899846D01*
X79396749Y-112897523D01*
X79539555Y-112797529D01*
X79579789Y-112769357D01*
X79579792Y-112769355D01*
X79584300Y-112766198D01*
X79746198Y-112604300D01*
X79757949Y-112587519D01*
X79877523Y-112416749D01*
X79878613Y-112417512D01*
X79925360Y-112372942D01*
X79995073Y-112359507D01*
X80060984Y-112385895D01*
G37*
G04 #@! TD.AperFunction*
G04 #@! TA.AperFunction,Conductor*
G36*
X80061267Y-86985402D02*
G01*
X80090810Y-87018609D01*
X80177688Y-87160380D01*
X80183777Y-87168699D01*
X80323213Y-87329667D01*
X80330580Y-87336883D01*
X80494434Y-87472916D01*
X80502881Y-87478831D01*
X80571969Y-87519203D01*
X80620693Y-87570842D01*
X80633764Y-87640625D01*
X80607033Y-87706396D01*
X80566584Y-87739752D01*
X80553607Y-87746507D01*
X80549474Y-87749610D01*
X80549471Y-87749612D01*
X80528132Y-87765634D01*
X80374965Y-87880635D01*
X80220629Y-88042138D01*
X80217715Y-88046410D01*
X80217714Y-88046411D01*
X80199838Y-88072617D01*
X80094743Y-88226680D01*
X80092566Y-88231369D01*
X80090907Y-88234290D01*
X80039866Y-88283639D01*
X79970247Y-88297559D01*
X79904154Y-88271630D01*
X79878685Y-88242438D01*
X79877523Y-88243251D01*
X79749357Y-88060211D01*
X79749355Y-88060208D01*
X79746198Y-88055700D01*
X79584300Y-87893802D01*
X79579792Y-87890645D01*
X79579789Y-87890643D01*
X79501611Y-87835902D01*
X79396749Y-87762477D01*
X79391767Y-87760154D01*
X79391762Y-87760151D01*
X79357543Y-87744195D01*
X79304258Y-87697278D01*
X79284797Y-87629001D01*
X79305339Y-87561041D01*
X79357543Y-87515805D01*
X79391762Y-87499849D01*
X79391767Y-87499846D01*
X79396749Y-87497523D01*
X79501611Y-87424098D01*
X79579789Y-87369357D01*
X79579792Y-87369355D01*
X79584300Y-87366198D01*
X79746198Y-87204300D01*
X79770923Y-87168990D01*
X79877523Y-87016749D01*
X79878480Y-87017419D01*
X79925642Y-86972450D01*
X79995356Y-86959015D01*
X80061267Y-86985402D01*
G37*
G04 #@! TD.AperFunction*
G04 #@! TA.AperFunction,Conductor*
G36*
X80060984Y-84445895D02*
G01*
X80090527Y-84479102D01*
X80177287Y-84620684D01*
X80177295Y-84620694D01*
X80179987Y-84625088D01*
X80326250Y-84793938D01*
X80498126Y-84936632D01*
X80565163Y-84975805D01*
X80571955Y-84979774D01*
X80620679Y-85031412D01*
X80633750Y-85101195D01*
X80607019Y-85166967D01*
X80566562Y-85200327D01*
X80558457Y-85204546D01*
X80549738Y-85210036D01*
X80379433Y-85337905D01*
X80371726Y-85344748D01*
X80224590Y-85498717D01*
X80218104Y-85506727D01*
X80098095Y-85682653D01*
X80091199Y-85694792D01*
X80040159Y-85744142D01*
X79970541Y-85758063D01*
X79904447Y-85732136D01*
X79878592Y-85702503D01*
X79877523Y-85703251D01*
X79749357Y-85520211D01*
X79749355Y-85520208D01*
X79746198Y-85515700D01*
X79584300Y-85353802D01*
X79579792Y-85350645D01*
X79579789Y-85350643D01*
X79488022Y-85286387D01*
X79396749Y-85222477D01*
X79391767Y-85220154D01*
X79391762Y-85220151D01*
X79357543Y-85204195D01*
X79304258Y-85157278D01*
X79284797Y-85089001D01*
X79305339Y-85021041D01*
X79357543Y-84975805D01*
X79391762Y-84959849D01*
X79391767Y-84959846D01*
X79396749Y-84957523D01*
X79539555Y-84857529D01*
X79579789Y-84829357D01*
X79579792Y-84829355D01*
X79584300Y-84826198D01*
X79746198Y-84664300D01*
X79770923Y-84628990D01*
X79877523Y-84476749D01*
X79878613Y-84477512D01*
X79925360Y-84432942D01*
X79995073Y-84419507D01*
X80060984Y-84445895D01*
G37*
G04 #@! TD.AperFunction*
G04 #@! TA.AperFunction,Conductor*
G36*
X55380000Y-70351729D02*
G01*
X55619814Y-70351729D01*
X55687935Y-70371731D01*
X55734428Y-70425387D01*
X55745124Y-70490898D01*
X55725196Y-70680500D01*
X55730725Y-70733101D01*
X55717953Y-70802938D01*
X55669452Y-70854785D01*
X55605415Y-70872271D01*
X55380000Y-70872271D01*
X55348014Y-70874559D01*
X55313627Y-70877018D01*
X55313626Y-70877018D01*
X55306889Y-70877500D01*
X55227382Y-70900845D01*
X55175235Y-70916157D01*
X55175233Y-70916158D01*
X55166589Y-70918696D01*
X55159010Y-70923567D01*
X55051159Y-70992878D01*
X55051156Y-70992880D01*
X55043579Y-70997750D01*
X55037678Y-71004560D01*
X54953726Y-71101445D01*
X54953724Y-71101448D01*
X54947824Y-71108257D01*
X54944080Y-71116454D01*
X54944080Y-71116455D01*
X54927941Y-71151794D01*
X54887081Y-71241266D01*
X54866271Y-71386000D01*
X54866271Y-71847047D01*
X54866273Y-71847047D01*
X54866682Y-71850015D01*
X54865503Y-71946438D01*
X54866063Y-71950723D01*
X54866271Y-71957760D01*
X54866271Y-72347047D01*
X54866273Y-72347047D01*
X54866682Y-72350015D01*
X54865503Y-72446438D01*
X54866063Y-72450723D01*
X54866271Y-72457760D01*
X54866271Y-72886000D01*
X54871500Y-72959111D01*
X54884222Y-73002438D01*
X54904722Y-73072253D01*
X54912696Y-73099411D01*
X54931187Y-73128183D01*
X54986878Y-73214841D01*
X54986880Y-73214844D01*
X54991750Y-73222421D01*
X54998560Y-73228322D01*
X55095445Y-73312274D01*
X55095448Y-73312276D01*
X55102257Y-73318176D01*
X55235266Y-73378919D01*
X55244189Y-73380202D01*
X55260100Y-73382490D01*
X55380000Y-73399729D01*
X55867322Y-73399729D01*
X55869630Y-73399750D01*
X55933020Y-73400912D01*
X55960382Y-73397504D01*
X56073128Y-73383460D01*
X56073132Y-73383459D01*
X56077565Y-73382907D01*
X56127595Y-73369267D01*
X56198575Y-73370646D01*
X56249831Y-73401735D01*
X57167197Y-74319102D01*
X58083048Y-75234953D01*
X58090588Y-75243239D01*
X58094700Y-75249718D01*
X58100477Y-75255143D01*
X58144351Y-75296343D01*
X58147193Y-75299098D01*
X58166930Y-75318835D01*
X58170127Y-75321315D01*
X58179147Y-75329018D01*
X58211379Y-75359286D01*
X58218325Y-75363105D01*
X58218328Y-75363107D01*
X58229134Y-75369048D01*
X58245653Y-75379899D01*
X58261659Y-75392314D01*
X58268928Y-75395459D01*
X58268932Y-75395462D01*
X58302237Y-75409874D01*
X58312887Y-75415091D01*
X58351640Y-75436395D01*
X58359315Y-75438366D01*
X58359316Y-75438366D01*
X58371262Y-75441433D01*
X58389967Y-75447837D01*
X58408555Y-75455881D01*
X58416378Y-75457120D01*
X58416388Y-75457123D01*
X58452224Y-75462799D01*
X58463844Y-75465205D01*
X58495659Y-75473373D01*
X58506670Y-75476200D01*
X58526924Y-75476200D01*
X58546634Y-75477751D01*
X58566643Y-75480920D01*
X58574535Y-75480174D01*
X58593280Y-75478402D01*
X58610662Y-75476759D01*
X58622519Y-75476200D01*
X59600775Y-75476200D01*
X59668896Y-75496202D01*
X59715389Y-75549858D01*
X59725493Y-75620132D01*
X59715063Y-75655250D01*
X59680688Y-75729305D01*
X59620989Y-75944570D01*
X59597251Y-76166695D01*
X59597548Y-76171848D01*
X59597548Y-76171851D01*
X59609812Y-76384547D01*
X59610110Y-76389715D01*
X59611247Y-76394761D01*
X59611248Y-76394767D01*
X59619955Y-76433402D01*
X59659222Y-76607639D01*
X59720673Y-76758976D01*
X59731032Y-76784486D01*
X59743266Y-76814616D01*
X59745965Y-76819020D01*
X59856012Y-76998601D01*
X59859987Y-77005088D01*
X60006250Y-77173938D01*
X60178126Y-77316632D01*
X60245163Y-77355805D01*
X60251445Y-77359476D01*
X60300169Y-77411114D01*
X60313240Y-77480897D01*
X60286509Y-77546669D01*
X60246055Y-77580027D01*
X60233607Y-77586507D01*
X60229474Y-77589610D01*
X60229471Y-77589612D01*
X60159019Y-77642509D01*
X60054965Y-77720635D01*
X59900629Y-77882138D01*
X59897715Y-77886410D01*
X59897714Y-77886411D01*
X59877854Y-77915525D01*
X59774743Y-78066680D01*
X59680688Y-78269305D01*
X59620989Y-78484570D01*
X59597251Y-78706695D01*
X59597548Y-78711848D01*
X59597548Y-78711851D01*
X59603011Y-78806590D01*
X59610110Y-78929715D01*
X59611247Y-78934761D01*
X59611248Y-78934767D01*
X59619935Y-78973312D01*
X59659222Y-79147639D01*
X59697461Y-79241811D01*
X59737526Y-79340479D01*
X59743266Y-79354616D01*
X59859987Y-79545088D01*
X60006250Y-79713938D01*
X60178126Y-79856632D01*
X60224249Y-79883584D01*
X60251445Y-79899476D01*
X60300169Y-79951114D01*
X60313240Y-80020897D01*
X60286509Y-80086669D01*
X60246055Y-80120027D01*
X60233607Y-80126507D01*
X60229474Y-80129610D01*
X60229471Y-80129612D01*
X60059100Y-80257530D01*
X60054965Y-80260635D01*
X59900629Y-80422138D01*
X59897715Y-80426410D01*
X59897714Y-80426411D01*
X59888300Y-80440211D01*
X59774743Y-80606680D01*
X59760248Y-80637907D01*
X59710158Y-80745818D01*
X59680688Y-80809305D01*
X59620989Y-81024570D01*
X59597251Y-81246695D01*
X59597548Y-81251848D01*
X59597548Y-81251851D01*
X59603011Y-81346590D01*
X59610110Y-81469715D01*
X59611247Y-81474761D01*
X59611248Y-81474767D01*
X59619955Y-81513402D01*
X59659222Y-81687639D01*
X59743266Y-81894616D01*
X59859987Y-82085088D01*
X60006250Y-82253938D01*
X60178126Y-82396632D01*
X60245163Y-82435805D01*
X60251445Y-82439476D01*
X60300169Y-82491114D01*
X60313240Y-82560897D01*
X60286509Y-82626669D01*
X60246055Y-82660027D01*
X60233607Y-82666507D01*
X60229474Y-82669610D01*
X60229471Y-82669612D01*
X60208132Y-82685634D01*
X60054965Y-82800635D01*
X59900629Y-82962138D01*
X59897715Y-82966410D01*
X59897714Y-82966411D01*
X59888300Y-82980211D01*
X59774743Y-83146680D01*
X59740283Y-83220918D01*
X59684479Y-83341139D01*
X59680688Y-83349305D01*
X59620989Y-83564570D01*
X59597251Y-83786695D01*
X59597548Y-83791848D01*
X59597548Y-83791851D01*
X59604488Y-83912209D01*
X59610110Y-84009715D01*
X59611247Y-84014761D01*
X59611248Y-84014767D01*
X59659222Y-84227639D01*
X59656797Y-84228186D01*
X59657847Y-84288903D01*
X59620501Y-84349284D01*
X59556440Y-84379889D01*
X59536355Y-84381500D01*
X59279760Y-84381500D01*
X59211639Y-84361498D01*
X59190665Y-84344595D01*
X58277750Y-83431680D01*
X58271896Y-83425415D01*
X58254097Y-83405012D01*
X58233861Y-83381815D01*
X58181580Y-83345071D01*
X58176286Y-83341139D01*
X58131993Y-83306409D01*
X58126018Y-83301724D01*
X58119102Y-83298601D01*
X58116816Y-83297217D01*
X58102135Y-83288843D01*
X58099775Y-83287578D01*
X58093561Y-83283210D01*
X58086482Y-83280450D01*
X58086480Y-83280449D01*
X58034025Y-83259998D01*
X58027956Y-83257447D01*
X57969727Y-83231155D01*
X57962260Y-83229771D01*
X57959705Y-83228970D01*
X57943452Y-83224341D01*
X57940872Y-83223678D01*
X57933791Y-83220918D01*
X57926260Y-83219927D01*
X57926258Y-83219926D01*
X57896639Y-83216027D01*
X57870439Y-83212578D01*
X57863941Y-83211548D01*
X57801114Y-83199904D01*
X57793534Y-83200341D01*
X57793533Y-83200341D01*
X57738908Y-83203491D01*
X57731654Y-83203700D01*
X55582000Y-83203700D01*
X55513879Y-83183698D01*
X55467386Y-83130042D01*
X55456000Y-83077700D01*
X55456000Y-79826062D01*
X56388493Y-79826062D01*
X56397789Y-79838077D01*
X56448994Y-79873931D01*
X56458489Y-79879414D01*
X56655947Y-79971490D01*
X56666239Y-79975236D01*
X56876688Y-80031625D01*
X56887481Y-80033528D01*
X57104525Y-80052517D01*
X57115475Y-80052517D01*
X57332519Y-80033528D01*
X57343312Y-80031625D01*
X57553761Y-79975236D01*
X57564053Y-79971490D01*
X57761511Y-79879414D01*
X57771006Y-79873931D01*
X57823048Y-79837491D01*
X57831424Y-79827012D01*
X57824356Y-79813566D01*
X57122812Y-79112022D01*
X57108868Y-79104408D01*
X57107035Y-79104539D01*
X57100420Y-79108790D01*
X56394923Y-79814287D01*
X56388493Y-79826062D01*
X55456000Y-79826062D01*
X55456000Y-79796688D01*
X55476002Y-79728567D01*
X55492905Y-79707593D01*
X55616198Y-79584300D01*
X55640923Y-79548990D01*
X55744369Y-79401253D01*
X55747523Y-79396749D01*
X55749847Y-79391765D01*
X55751171Y-79389472D01*
X55802553Y-79340479D01*
X55872267Y-79327043D01*
X55938178Y-79353429D01*
X55969409Y-79389472D01*
X55976066Y-79401002D01*
X56012509Y-79453048D01*
X56022988Y-79461424D01*
X56036434Y-79454356D01*
X56737978Y-78752812D01*
X56744356Y-78741132D01*
X57474408Y-78741132D01*
X57474539Y-78742965D01*
X57478790Y-78749580D01*
X58184287Y-79455077D01*
X58196062Y-79461507D01*
X58208077Y-79452211D01*
X58243931Y-79401006D01*
X58249414Y-79391511D01*
X58341490Y-79194053D01*
X58345236Y-79183761D01*
X58401625Y-78973312D01*
X58403528Y-78962519D01*
X58422517Y-78745475D01*
X58422517Y-78734525D01*
X58403528Y-78517481D01*
X58401625Y-78506688D01*
X58345236Y-78296239D01*
X58341490Y-78285947D01*
X58249414Y-78088489D01*
X58243931Y-78078994D01*
X58207491Y-78026952D01*
X58197012Y-78018576D01*
X58183566Y-78025644D01*
X57482022Y-78727188D01*
X57474408Y-78741132D01*
X56744356Y-78741132D01*
X56745592Y-78738868D01*
X56745461Y-78737035D01*
X56741210Y-78730420D01*
X56035713Y-78024923D01*
X56023938Y-78018493D01*
X56011923Y-78027789D01*
X55976066Y-78078998D01*
X55969409Y-78090528D01*
X55918027Y-78139521D01*
X55848313Y-78152958D01*
X55782402Y-78126571D01*
X55751171Y-78090528D01*
X55749847Y-78088235D01*
X55747523Y-78083251D01*
X55628048Y-77912623D01*
X55619357Y-77900211D01*
X55619355Y-77900208D01*
X55616198Y-77895700D01*
X55454300Y-77733802D01*
X55449792Y-77730645D01*
X55449789Y-77730643D01*
X55338886Y-77652988D01*
X56388576Y-77652988D01*
X56395644Y-77666434D01*
X57097188Y-78367978D01*
X57111132Y-78375592D01*
X57112965Y-78375461D01*
X57119580Y-78371210D01*
X57825077Y-77665713D01*
X57831507Y-77653938D01*
X57822211Y-77641923D01*
X57771006Y-77606069D01*
X57761511Y-77600586D01*
X57564053Y-77508510D01*
X57553761Y-77504764D01*
X57343312Y-77448375D01*
X57332519Y-77446472D01*
X57115475Y-77427483D01*
X57104525Y-77427483D01*
X56887481Y-77446472D01*
X56876688Y-77448375D01*
X56666239Y-77504764D01*
X56655947Y-77508510D01*
X56458489Y-77600586D01*
X56448994Y-77606069D01*
X56396952Y-77642509D01*
X56388576Y-77652988D01*
X55338886Y-77652988D01*
X55323920Y-77642509D01*
X55266749Y-77602477D01*
X55261767Y-77600154D01*
X55261762Y-77600151D01*
X55064225Y-77508039D01*
X55064224Y-77508039D01*
X55059243Y-77505716D01*
X55053935Y-77504294D01*
X55053933Y-77504293D01*
X54843402Y-77447881D01*
X54843400Y-77447881D01*
X54838087Y-77446457D01*
X54610000Y-77426502D01*
X54524181Y-77434010D01*
X54454577Y-77420021D01*
X54403584Y-77370621D01*
X54387200Y-77308489D01*
X54387200Y-70476737D01*
X54407202Y-70408616D01*
X54460858Y-70362123D01*
X54515509Y-70350758D01*
X54628539Y-70352830D01*
X54628541Y-70352830D01*
X54633020Y-70352912D01*
X54637465Y-70352359D01*
X54641944Y-70352122D01*
X54641951Y-70352249D01*
X54650339Y-70351729D01*
X55080000Y-70351729D01*
X55111986Y-70349441D01*
X55146373Y-70346982D01*
X55146374Y-70346982D01*
X55153111Y-70346500D01*
X55189440Y-70335833D01*
X55242868Y-70332012D01*
X55380000Y-70351729D01*
G37*
G04 #@! TD.AperFunction*
G04 #@! TA.AperFunction,Conductor*
G36*
X79199833Y-61425539D02*
G01*
X79256668Y-61468086D01*
X79281479Y-61534606D01*
X79281800Y-61543595D01*
X79281800Y-64666310D01*
X79261798Y-64734431D01*
X79208142Y-64780924D01*
X79137868Y-64791028D01*
X79123196Y-64788019D01*
X78968087Y-64746457D01*
X78740000Y-64726502D01*
X78511913Y-64746457D01*
X78506600Y-64747881D01*
X78506598Y-64747881D01*
X78296067Y-64804293D01*
X78296065Y-64804294D01*
X78290757Y-64805716D01*
X78285776Y-64808039D01*
X78285775Y-64808039D01*
X78088238Y-64900151D01*
X78088233Y-64900154D01*
X78083251Y-64902477D01*
X78035220Y-64936109D01*
X77900211Y-65030643D01*
X77900208Y-65030645D01*
X77895700Y-65033802D01*
X77733802Y-65195700D01*
X77602477Y-65383251D01*
X77600154Y-65388233D01*
X77600151Y-65388238D01*
X77508039Y-65585775D01*
X77505716Y-65590757D01*
X77504294Y-65596065D01*
X77504293Y-65596067D01*
X77447881Y-65806598D01*
X77446457Y-65811913D01*
X77426502Y-66040000D01*
X77446457Y-66268087D01*
X77505716Y-66489243D01*
X77508039Y-66494224D01*
X77508039Y-66494225D01*
X77600151Y-66691762D01*
X77600154Y-66691767D01*
X77602477Y-66696749D01*
X77605634Y-66701257D01*
X77717491Y-66861005D01*
X77733802Y-66884300D01*
X77895700Y-67046198D01*
X77900208Y-67049355D01*
X77900211Y-67049357D01*
X77941195Y-67078054D01*
X78083251Y-67177523D01*
X78088233Y-67179846D01*
X78088238Y-67179849D01*
X78122457Y-67195805D01*
X78175742Y-67242722D01*
X78195203Y-67310999D01*
X78174661Y-67378959D01*
X78122457Y-67424195D01*
X78088238Y-67440151D01*
X78088233Y-67440154D01*
X78083251Y-67442477D01*
X78013125Y-67491580D01*
X77900211Y-67570643D01*
X77900208Y-67570645D01*
X77895700Y-67573802D01*
X77733802Y-67735700D01*
X77730645Y-67740208D01*
X77730643Y-67740211D01*
X77697324Y-67787796D01*
X77602477Y-67923251D01*
X77600154Y-67928233D01*
X77600151Y-67928238D01*
X77513881Y-68113246D01*
X77505716Y-68130757D01*
X77504294Y-68136065D01*
X77504293Y-68136067D01*
X77447881Y-68346598D01*
X77446457Y-68351913D01*
X77426502Y-68580000D01*
X77446457Y-68808087D01*
X77447881Y-68813400D01*
X77447881Y-68813402D01*
X77495259Y-68990216D01*
X77505716Y-69029243D01*
X77508039Y-69034224D01*
X77508039Y-69034225D01*
X77600151Y-69231762D01*
X77600154Y-69231767D01*
X77602477Y-69236749D01*
X77605634Y-69241257D01*
X77705794Y-69384300D01*
X77733802Y-69424300D01*
X77895700Y-69586198D01*
X77900208Y-69589355D01*
X77900211Y-69589357D01*
X77912009Y-69597618D01*
X78083251Y-69717523D01*
X78088233Y-69719846D01*
X78088238Y-69719849D01*
X78123049Y-69736081D01*
X78176334Y-69782998D01*
X78195795Y-69851275D01*
X78175253Y-69919235D01*
X78123049Y-69964471D01*
X78088489Y-69980586D01*
X78078993Y-69986069D01*
X77900533Y-70111028D01*
X77892125Y-70118084D01*
X77738084Y-70272125D01*
X77731028Y-70280533D01*
X77606069Y-70458993D01*
X77600586Y-70468489D01*
X77508510Y-70665947D01*
X77504764Y-70676239D01*
X77458606Y-70848503D01*
X77458942Y-70862599D01*
X77466884Y-70866000D01*
X78868000Y-70866000D01*
X78936121Y-70886002D01*
X78982614Y-70939658D01*
X78994000Y-70992000D01*
X78994000Y-71248000D01*
X78973998Y-71316121D01*
X78920342Y-71362614D01*
X78868000Y-71374000D01*
X77472033Y-71374000D01*
X77458502Y-71377973D01*
X77457273Y-71386522D01*
X77504764Y-71563761D01*
X77508510Y-71574053D01*
X77600586Y-71771511D01*
X77606069Y-71781007D01*
X77731028Y-71959467D01*
X77738084Y-71967875D01*
X77892125Y-72121916D01*
X77900533Y-72128972D01*
X78078993Y-72253931D01*
X78088489Y-72259414D01*
X78123049Y-72275529D01*
X78176334Y-72322446D01*
X78195795Y-72390723D01*
X78175253Y-72458683D01*
X78123049Y-72503919D01*
X78088238Y-72520151D01*
X78088233Y-72520154D01*
X78083251Y-72522477D01*
X77978389Y-72595902D01*
X77900211Y-72650643D01*
X77900208Y-72650645D01*
X77895700Y-72653802D01*
X77733802Y-72815700D01*
X77602477Y-73003251D01*
X77600154Y-73008233D01*
X77600151Y-73008238D01*
X77531972Y-73154450D01*
X77505716Y-73210757D01*
X77504294Y-73216065D01*
X77504293Y-73216067D01*
X77452407Y-73409707D01*
X77446457Y-73431913D01*
X77426502Y-73660000D01*
X77446457Y-73888087D01*
X77447881Y-73893400D01*
X77447881Y-73893402D01*
X77470917Y-73979371D01*
X77505716Y-74109243D01*
X77508039Y-74114224D01*
X77508039Y-74114225D01*
X77600151Y-74311762D01*
X77600154Y-74311767D01*
X77602477Y-74316749D01*
X77605633Y-74321257D01*
X77605637Y-74321263D01*
X77718459Y-74482390D01*
X77741147Y-74549664D01*
X77723862Y-74618524D01*
X77704341Y-74643755D01*
X76288295Y-76059800D01*
X76225983Y-76093826D01*
X76155167Y-76088761D01*
X76098332Y-76046214D01*
X76073521Y-75979694D01*
X76073200Y-75970705D01*
X76073200Y-64500194D01*
X76093202Y-64432073D01*
X76110105Y-64411099D01*
X79066705Y-61454500D01*
X79129017Y-61420474D01*
X79199833Y-61425539D01*
G37*
G04 #@! TD.AperFunction*
G04 #@! TA.AperFunction,Conductor*
G36*
X79676932Y-72150646D02*
G01*
X79702163Y-72170167D01*
X80192821Y-72660825D01*
X80226847Y-72723137D01*
X80221782Y-72793952D01*
X80207814Y-72820924D01*
X80102438Y-72975400D01*
X80094743Y-72986680D01*
X80092566Y-72991369D01*
X80090907Y-72994290D01*
X80039866Y-73043639D01*
X79970247Y-73057559D01*
X79904154Y-73031630D01*
X79878685Y-73002438D01*
X79877523Y-73003251D01*
X79749357Y-72820211D01*
X79749355Y-72820208D01*
X79746198Y-72815700D01*
X79584300Y-72653802D01*
X79579792Y-72650645D01*
X79579789Y-72650643D01*
X79501611Y-72595902D01*
X79396749Y-72522477D01*
X79391767Y-72520154D01*
X79391762Y-72520151D01*
X79356951Y-72503919D01*
X79303666Y-72457002D01*
X79284205Y-72388725D01*
X79304747Y-72320765D01*
X79356951Y-72275529D01*
X79391511Y-72259414D01*
X79401007Y-72253931D01*
X79540797Y-72156049D01*
X79608071Y-72133361D01*
X79676932Y-72150646D01*
G37*
G04 #@! TD.AperFunction*
G04 #@! TA.AperFunction,Conductor*
G36*
X66720098Y-60949234D02*
G01*
X66760088Y-61007896D01*
X66766200Y-61046662D01*
X66766200Y-66765106D01*
X66746198Y-66833227D01*
X66729295Y-66854201D01*
X65019849Y-68563647D01*
X64957537Y-68597673D01*
X64886722Y-68592608D01*
X64829886Y-68550061D01*
X64805233Y-68485533D01*
X64794023Y-68357394D01*
X64794022Y-68357389D01*
X64793543Y-68351913D01*
X64792119Y-68346598D01*
X64735707Y-68136067D01*
X64735706Y-68136065D01*
X64734284Y-68130757D01*
X64726119Y-68113246D01*
X64639849Y-67928238D01*
X64639846Y-67928233D01*
X64637523Y-67923251D01*
X64542676Y-67787796D01*
X64509357Y-67740211D01*
X64509355Y-67740208D01*
X64506198Y-67735700D01*
X64344300Y-67573802D01*
X64339789Y-67570643D01*
X64335576Y-67567108D01*
X64336388Y-67566140D01*
X64295910Y-67515506D01*
X64288596Y-67444887D01*
X64320624Y-67381524D01*
X64381823Y-67345536D01*
X64398901Y-67342480D01*
X64402352Y-67342105D01*
X64417604Y-67338479D01*
X64538054Y-67293324D01*
X64553649Y-67284786D01*
X64655724Y-67208285D01*
X64668285Y-67195724D01*
X64744786Y-67093649D01*
X64753324Y-67078054D01*
X64798478Y-66957606D01*
X64802105Y-66942351D01*
X64807631Y-66891486D01*
X64808000Y-66884672D01*
X64808000Y-66312115D01*
X64803525Y-66296876D01*
X64802135Y-66295671D01*
X64794452Y-66294000D01*
X63372000Y-66294000D01*
X63303879Y-66273998D01*
X63257386Y-66220342D01*
X63246000Y-66168000D01*
X63246000Y-65912000D01*
X63266002Y-65843879D01*
X63319658Y-65797386D01*
X63372000Y-65786000D01*
X64789884Y-65786000D01*
X64805123Y-65781525D01*
X64806328Y-65780135D01*
X64807999Y-65772452D01*
X64807999Y-65195331D01*
X64807629Y-65188510D01*
X64802105Y-65137648D01*
X64798479Y-65122396D01*
X64753324Y-65001946D01*
X64744786Y-64986351D01*
X64668285Y-64884276D01*
X64655724Y-64871715D01*
X64553649Y-64795214D01*
X64538054Y-64786676D01*
X64417606Y-64741522D01*
X64402351Y-64737895D01*
X64351486Y-64732369D01*
X64344672Y-64732000D01*
X63921294Y-64732000D01*
X63853173Y-64711998D01*
X63806680Y-64658342D01*
X63796576Y-64588068D01*
X63826070Y-64523488D01*
X63832199Y-64516905D01*
X64137161Y-64211944D01*
X65251953Y-63097152D01*
X65260239Y-63089612D01*
X65266718Y-63085500D01*
X65313344Y-63035848D01*
X65316098Y-63033007D01*
X65335835Y-63013270D01*
X65338315Y-63010073D01*
X65346020Y-63001051D01*
X65346026Y-63001045D01*
X65376286Y-62968821D01*
X65380105Y-62961875D01*
X65380107Y-62961872D01*
X65386048Y-62951066D01*
X65396899Y-62934547D01*
X65404458Y-62924801D01*
X65409314Y-62918541D01*
X65412459Y-62911272D01*
X65412462Y-62911268D01*
X65426874Y-62877963D01*
X65432091Y-62867313D01*
X65453395Y-62828560D01*
X65455672Y-62819694D01*
X65458433Y-62808938D01*
X65464837Y-62790234D01*
X65469733Y-62778920D01*
X65469733Y-62778919D01*
X65472881Y-62771645D01*
X65474120Y-62763822D01*
X65474123Y-62763812D01*
X65479799Y-62727976D01*
X65482205Y-62716356D01*
X65491228Y-62681211D01*
X65491228Y-62681210D01*
X65493200Y-62673530D01*
X65493200Y-62653276D01*
X65494751Y-62633565D01*
X65496680Y-62621386D01*
X65497920Y-62613557D01*
X65493759Y-62569538D01*
X65493200Y-62557681D01*
X65493200Y-61119487D01*
X65513202Y-61051366D01*
X65566858Y-61004873D01*
X65637132Y-60994769D01*
X65651878Y-60997955D01*
X65654692Y-60999030D01*
X65873597Y-61043567D01*
X65878772Y-61043757D01*
X65878774Y-61043757D01*
X66091673Y-61051564D01*
X66091677Y-61051564D01*
X66096837Y-61051753D01*
X66101957Y-61051097D01*
X66101959Y-61051097D01*
X66313288Y-61024025D01*
X66313289Y-61024025D01*
X66318416Y-61023368D01*
X66323369Y-61021882D01*
X66527429Y-60960661D01*
X66527434Y-60960659D01*
X66532384Y-60959174D01*
X66584769Y-60933511D01*
X66654741Y-60921504D01*
X66720098Y-60949234D01*
G37*
G04 #@! TD.AperFunction*
M02*
