M48
; DRILL file {KiCad (6.0.7)} date Thu Aug 25 15:57:23 2022
; FORMAT={3:3/ absolute / metric / suppress leading zeros}
; #@! TF.CreationDate,2022-08-25T15:57:23-07:00
; #@! TF.GenerationSoftware,Kicad,Pcbnew,(6.0.7)
; #@! TF.FileFunction,MixedPlating,1,2
FMAT,2
METRIC,TZ
; #@! TA.AperFunction,Plated,PTH,ViaDrill
T1C0.400
; #@! TA.AperFunction,Plated,PTH,ComponentDrill
T2C0.600
; #@! TA.AperFunction,Plated,PTH,ComponentDrill
T3C0.800
; #@! TA.AperFunction,Plated,PTH,ComponentDrill
T4C1.000
; #@! TA.AperFunction,NonPlated,NPTH,ComponentDrill
T5C3.200
%
G90
G05
T1
X56639Y-70681
X57879Y-71422
X59785Y-97768
X64926Y-73614
X71512Y-90436
X72115Y-94150
X73439Y-70293
X73725Y-83917
X74610Y-86360
X82259Y-63675
T2
X54570Y-85090
X56570Y-85090
T3
X54610Y-78740
X57110Y-78740
X63500Y-66040
X63500Y-68580
X63500Y-71120
X63500Y-73660
X63500Y-76200
X63500Y-78740
X63500Y-81280
X63500Y-83820
X63500Y-86360
X63500Y-88900
X63500Y-91440
X63500Y-93980
X63500Y-96520
X63500Y-99060
X63500Y-101600
X63500Y-104140
X63500Y-106680
X63500Y-109220
X63500Y-111760
X63500Y-114300
X78740Y-66040
X78740Y-68580
X78740Y-71120
X78740Y-73660
X78740Y-76200
X78740Y-78740
X78740Y-81280
X78740Y-83820
X78740Y-86360
X78740Y-88900
X78740Y-91440
X78740Y-93980
X78740Y-96520
X78740Y-99060
X78740Y-101600
X78740Y-104140
X78740Y-106680
X78740Y-109220
X78740Y-111760
X78740Y-114300
T4
X60960Y-66040
X60960Y-68580
X60960Y-71120
X60960Y-73660
X60960Y-76200
X60960Y-78740
X60960Y-81280
X60960Y-83820
X60960Y-86360
X60960Y-88900
X60960Y-91440
X60960Y-93980
X60960Y-96520
X60960Y-99060
X60960Y-101600
X60960Y-104140
X60960Y-106680
X60960Y-109220
X60960Y-111760
X60960Y-114300
X63495Y-57150
X63495Y-59690
X66035Y-57150
X66035Y-59690
X68575Y-57150
X68575Y-59690
X71115Y-57150
X71115Y-59690
X71120Y-54610
X73655Y-57150
X73655Y-59690
X78740Y-54630
X78740Y-57170
X78740Y-59710
X81280Y-66040
X81280Y-68580
X81280Y-71120
X81280Y-73660
X81280Y-76200
X81280Y-78740
X81280Y-81280
X81280Y-83820
X81280Y-86360
X81280Y-88900
X81280Y-91440
X81280Y-93980
X81280Y-96520
X81280Y-99060
X81280Y-101600
X81280Y-104140
X81280Y-106680
X81280Y-109220
X81280Y-111760
X81280Y-114300
T5
X55800Y-55800
X55800Y-122000
X86440Y-55800
X86440Y-122000
T0
M30
