G04 #@! TF.GenerationSoftware,KiCad,Pcbnew,(6.0.7)*
G04 #@! TF.CreationDate,2022-08-25T15:57:15-07:00*
G04 #@! TF.ProjectId,emu6802,656d7536-3830-4322-9e6b-696361645f70,rev?*
G04 #@! TF.SameCoordinates,Original*
G04 #@! TF.FileFunction,Legend,Top*
G04 #@! TF.FilePolarity,Positive*
%FSLAX46Y46*%
G04 Gerber Fmt 4.6, Leading zero omitted, Abs format (unit mm)*
G04 Created by KiCad (PCBNEW (6.0.7)) date 2022-08-25 15:57:15*
%MOMM*%
%LPD*%
G01*
G04 APERTURE LIST*
%ADD10C,0.150000*%
%ADD11C,0.120000*%
G04 APERTURE END LIST*
D10*
X53051904Y-62452190D02*
X52670952Y-62718857D01*
X53051904Y-62909333D02*
X52251904Y-62909333D01*
X52251904Y-62604571D01*
X52290000Y-62528380D01*
X52328095Y-62490285D01*
X52404285Y-62452190D01*
X52518571Y-62452190D01*
X52594761Y-62490285D01*
X52632857Y-62528380D01*
X52670952Y-62604571D01*
X52670952Y-62909333D01*
X52823333Y-62147428D02*
X52823333Y-61766476D01*
X53051904Y-62223619D02*
X52251904Y-61956952D01*
X53051904Y-61690285D01*
X52518571Y-61080761D02*
X53051904Y-61080761D01*
X52213809Y-61271238D02*
X52785238Y-61461714D01*
X52785238Y-60966476D01*
X58415904Y-72458285D02*
X58034952Y-72724952D01*
X58415904Y-72915428D02*
X57615904Y-72915428D01*
X57615904Y-72610666D01*
X57654000Y-72534476D01*
X57692095Y-72496380D01*
X57768285Y-72458285D01*
X57882571Y-72458285D01*
X57958761Y-72496380D01*
X57996857Y-72534476D01*
X58034952Y-72610666D01*
X58034952Y-72915428D01*
X57996857Y-72115428D02*
X57996857Y-71848761D01*
X58415904Y-71734476D02*
X58415904Y-72115428D01*
X57615904Y-72115428D01*
X57615904Y-71734476D01*
X70211904Y-53454285D02*
X69830952Y-53720952D01*
X70211904Y-53911428D02*
X69411904Y-53911428D01*
X69411904Y-53606666D01*
X69450000Y-53530476D01*
X69488095Y-53492380D01*
X69564285Y-53454285D01*
X69678571Y-53454285D01*
X69754761Y-53492380D01*
X69792857Y-53530476D01*
X69830952Y-53606666D01*
X69830952Y-53911428D01*
X69792857Y-53111428D02*
X69792857Y-52844761D01*
X70211904Y-52730476D02*
X70211904Y-53111428D01*
X69411904Y-53111428D01*
X69411904Y-52730476D01*
X81438809Y-54971904D02*
X81172142Y-54590952D01*
X80981666Y-54971904D02*
X80981666Y-54171904D01*
X81286428Y-54171904D01*
X81362619Y-54210000D01*
X81400714Y-54248095D01*
X81438809Y-54324285D01*
X81438809Y-54438571D01*
X81400714Y-54514761D01*
X81362619Y-54552857D01*
X81286428Y-54590952D01*
X80981666Y-54590952D01*
X81743571Y-54743333D02*
X82124523Y-54743333D01*
X81667380Y-54971904D02*
X81934047Y-54171904D01*
X82200714Y-54971904D01*
X82810238Y-54438571D02*
X82810238Y-54971904D01*
X82619761Y-54133809D02*
X82429285Y-54705238D01*
X82924523Y-54705238D01*
X65376000Y-55365476D02*
X65376000Y-54527380D01*
X66401904Y-55175000D02*
X65601904Y-55175000D01*
X65982857Y-55175000D02*
X65982857Y-54717857D01*
X66401904Y-54717857D02*
X65601904Y-54717857D01*
X65376000Y-54527380D02*
X65376000Y-53841666D01*
X66173333Y-54375000D02*
X66173333Y-53994047D01*
X66401904Y-54451190D02*
X65601904Y-54184523D01*
X66401904Y-53917857D01*
X65376000Y-53841666D02*
X65376000Y-53194047D01*
X66401904Y-53270238D02*
X66401904Y-53651190D01*
X65601904Y-53651190D01*
X65376000Y-53194047D02*
X65376000Y-52584523D01*
X65601904Y-53117857D02*
X65601904Y-52660714D01*
X66401904Y-52889285D02*
X65601904Y-52889285D01*
X71177142Y-63893571D02*
X71177142Y-63284047D01*
X71481904Y-63588809D02*
X70872380Y-63588809D01*
X70681904Y-62522142D02*
X70681904Y-62903095D01*
X71062857Y-62941190D01*
X71024761Y-62903095D01*
X70986666Y-62826904D01*
X70986666Y-62636428D01*
X71024761Y-62560238D01*
X71062857Y-62522142D01*
X71139047Y-62484047D01*
X71329523Y-62484047D01*
X71405714Y-62522142D01*
X71443809Y-62560238D01*
X71481904Y-62636428D01*
X71481904Y-62826904D01*
X71443809Y-62903095D01*
X71405714Y-62941190D01*
X70681904Y-62255476D02*
X71481904Y-61988809D01*
X70681904Y-61722142D01*
X52762142Y-70294569D02*
X52762142Y-69685045D01*
X53066904Y-69989807D02*
X52457380Y-69989807D01*
X52266904Y-68923140D02*
X52266904Y-69304093D01*
X52647857Y-69342188D01*
X52609761Y-69304093D01*
X52571666Y-69227902D01*
X52571666Y-69037426D01*
X52609761Y-68961236D01*
X52647857Y-68923140D01*
X52724047Y-68885045D01*
X52914523Y-68885045D01*
X52990714Y-68923140D01*
X53028809Y-68961236D01*
X53066904Y-69037426D01*
X53066904Y-69227902D01*
X53028809Y-69304093D01*
X52990714Y-69342188D01*
X52266904Y-68656474D02*
X53066904Y-68389807D01*
X52266904Y-68123140D01*
X52747142Y-66560571D02*
X52747142Y-65951047D01*
X53051904Y-66255809D02*
X52442380Y-66255809D01*
X52251904Y-65189142D02*
X52251904Y-65570095D01*
X52632857Y-65608190D01*
X52594761Y-65570095D01*
X52556666Y-65493904D01*
X52556666Y-65303428D01*
X52594761Y-65227238D01*
X52632857Y-65189142D01*
X52709047Y-65151047D01*
X52899523Y-65151047D01*
X52975714Y-65189142D01*
X53013809Y-65227238D01*
X53051904Y-65303428D01*
X53051904Y-65493904D01*
X53013809Y-65570095D01*
X52975714Y-65608190D01*
X52251904Y-64922476D02*
X53051904Y-64655809D01*
X52251904Y-64389142D01*
X68637142Y-63893571D02*
X68637142Y-63284047D01*
X68941904Y-63588809D02*
X68332380Y-63588809D01*
X68141904Y-62522142D02*
X68141904Y-62903095D01*
X68522857Y-62941190D01*
X68484761Y-62903095D01*
X68446666Y-62826904D01*
X68446666Y-62636428D01*
X68484761Y-62560238D01*
X68522857Y-62522142D01*
X68599047Y-62484047D01*
X68789523Y-62484047D01*
X68865714Y-62522142D01*
X68903809Y-62560238D01*
X68941904Y-62636428D01*
X68941904Y-62826904D01*
X68903809Y-62903095D01*
X68865714Y-62941190D01*
X68141904Y-62255476D02*
X68941904Y-61988809D01*
X68141904Y-61722142D01*
X63557142Y-63893571D02*
X63557142Y-63284047D01*
X63861904Y-63588809D02*
X63252380Y-63588809D01*
X63061904Y-62522142D02*
X63061904Y-62903095D01*
X63442857Y-62941190D01*
X63404761Y-62903095D01*
X63366666Y-62826904D01*
X63366666Y-62636428D01*
X63404761Y-62560238D01*
X63442857Y-62522142D01*
X63519047Y-62484047D01*
X63709523Y-62484047D01*
X63785714Y-62522142D01*
X63823809Y-62560238D01*
X63861904Y-62636428D01*
X63861904Y-62826904D01*
X63823809Y-62903095D01*
X63785714Y-62941190D01*
X63061904Y-62255476D02*
X63861904Y-61988809D01*
X63061904Y-61722142D01*
X71780476Y-52305000D02*
X71704285Y-52266904D01*
X71590000Y-52266904D01*
X71475714Y-52305000D01*
X71399523Y-52381190D01*
X71361428Y-52457380D01*
X71323333Y-52609761D01*
X71323333Y-52724047D01*
X71361428Y-52876428D01*
X71399523Y-52952619D01*
X71475714Y-53028809D01*
X71590000Y-53066904D01*
X71666190Y-53066904D01*
X71780476Y-53028809D01*
X71818571Y-52990714D01*
X71818571Y-52724047D01*
X71666190Y-52724047D01*
X72161428Y-53066904D02*
X72161428Y-52266904D01*
X72618571Y-53066904D01*
X72618571Y-52266904D01*
X72999523Y-53066904D02*
X72999523Y-52266904D01*
X73190000Y-52266904D01*
X73304285Y-52305000D01*
X73380476Y-52381190D01*
X73418571Y-52457380D01*
X73456666Y-52609761D01*
X73456666Y-52724047D01*
X73418571Y-52876428D01*
X73380476Y-52952619D01*
X73304285Y-53028809D01*
X73190000Y-53066904D01*
X72999523Y-53066904D01*
X81419761Y-60051904D02*
X81153095Y-59670952D01*
X80962619Y-60051904D02*
X80962619Y-59251904D01*
X81267380Y-59251904D01*
X81343571Y-59290000D01*
X81381666Y-59328095D01*
X81419761Y-59404285D01*
X81419761Y-59518571D01*
X81381666Y-59594761D01*
X81343571Y-59632857D01*
X81267380Y-59670952D01*
X80962619Y-59670952D01*
X81762619Y-59632857D02*
X82029285Y-59632857D01*
X82143571Y-60051904D02*
X81762619Y-60051904D01*
X81762619Y-59251904D01*
X82143571Y-59251904D01*
X82448333Y-59328095D02*
X82486428Y-59290000D01*
X82562619Y-59251904D01*
X82753095Y-59251904D01*
X82829285Y-59290000D01*
X82867380Y-59328095D01*
X82905476Y-59404285D01*
X82905476Y-59480476D01*
X82867380Y-59594761D01*
X82410238Y-60051904D01*
X82905476Y-60051904D01*
X62836000Y-55619523D02*
X62836000Y-55238571D01*
X63861904Y-55429047D02*
X63061904Y-55429047D01*
X62836000Y-55238571D02*
X62836000Y-54438571D01*
X63861904Y-54590952D02*
X63480952Y-54857619D01*
X63861904Y-55048095D02*
X63061904Y-55048095D01*
X63061904Y-54743333D01*
X63100000Y-54667142D01*
X63138095Y-54629047D01*
X63214285Y-54590952D01*
X63328571Y-54590952D01*
X63404761Y-54629047D01*
X63442857Y-54667142D01*
X63480952Y-54743333D01*
X63480952Y-55048095D01*
X62836000Y-54438571D02*
X62836000Y-53600476D01*
X63938095Y-53714761D02*
X63900000Y-53790952D01*
X63823809Y-53867142D01*
X63709523Y-53981428D01*
X63671428Y-54057619D01*
X63671428Y-54133809D01*
X63861904Y-54095714D02*
X63823809Y-54171904D01*
X63747619Y-54248095D01*
X63595238Y-54286190D01*
X63328571Y-54286190D01*
X63176190Y-54248095D01*
X63100000Y-54171904D01*
X63061904Y-54095714D01*
X63061904Y-53943333D01*
X63100000Y-53867142D01*
X63176190Y-53790952D01*
X63328571Y-53752857D01*
X63595238Y-53752857D01*
X63747619Y-53790952D01*
X63823809Y-53867142D01*
X63861904Y-53943333D01*
X63861904Y-54095714D01*
X57390000Y-66922476D02*
X57390000Y-66084380D01*
X58415904Y-66732000D02*
X57615904Y-66732000D01*
X57996857Y-66732000D02*
X57996857Y-66274857D01*
X58415904Y-66274857D02*
X57615904Y-66274857D01*
X57390000Y-66084380D02*
X57390000Y-65398666D01*
X58187333Y-65932000D02*
X58187333Y-65551047D01*
X58415904Y-66008190D02*
X57615904Y-65741523D01*
X58415904Y-65474857D01*
X57390000Y-65398666D02*
X57390000Y-64751047D01*
X58415904Y-64827238D02*
X58415904Y-65208190D01*
X57615904Y-65208190D01*
X57390000Y-64751047D02*
X57390000Y-64141523D01*
X57615904Y-64674857D02*
X57615904Y-64217714D01*
X58415904Y-64446285D02*
X57615904Y-64446285D01*
X57390000Y-62985523D02*
X57390000Y-62604571D01*
X58415904Y-62795047D02*
X57615904Y-62795047D01*
X57390000Y-62604571D02*
X57390000Y-61804571D01*
X58415904Y-61956952D02*
X58034952Y-62223619D01*
X58415904Y-62414095D02*
X57615904Y-62414095D01*
X57615904Y-62109333D01*
X57654000Y-62033142D01*
X57692095Y-61995047D01*
X57768285Y-61956952D01*
X57882571Y-61956952D01*
X57958761Y-61995047D01*
X57996857Y-62033142D01*
X58034952Y-62109333D01*
X58034952Y-62414095D01*
X57390000Y-61804571D02*
X57390000Y-60966476D01*
X58492095Y-61080761D02*
X58454000Y-61156952D01*
X58377809Y-61233142D01*
X58263523Y-61347428D01*
X58225428Y-61423619D01*
X58225428Y-61499809D01*
X58415904Y-61461714D02*
X58377809Y-61537904D01*
X58301619Y-61614095D01*
X58149238Y-61652190D01*
X57882571Y-61652190D01*
X57730190Y-61614095D01*
X57654000Y-61537904D01*
X57615904Y-61461714D01*
X57615904Y-61309333D01*
X57654000Y-61233142D01*
X57730190Y-61156952D01*
X57882571Y-61118857D01*
X58149238Y-61118857D01*
X58301619Y-61156952D01*
X58377809Y-61233142D01*
X58415904Y-61309333D01*
X58415904Y-61461714D01*
X66097142Y-63893571D02*
X66097142Y-63284047D01*
X66401904Y-63588809D02*
X65792380Y-63588809D01*
X65601904Y-62522142D02*
X65601904Y-62903095D01*
X65982857Y-62941190D01*
X65944761Y-62903095D01*
X65906666Y-62826904D01*
X65906666Y-62636428D01*
X65944761Y-62560238D01*
X65982857Y-62522142D01*
X66059047Y-62484047D01*
X66249523Y-62484047D01*
X66325714Y-62522142D01*
X66363809Y-62560238D01*
X66401904Y-62636428D01*
X66401904Y-62826904D01*
X66363809Y-62903095D01*
X66325714Y-62941190D01*
X65601904Y-62255476D02*
X66401904Y-61988809D01*
X65601904Y-61722142D01*
X52305000Y-72953523D02*
X52266904Y-73029714D01*
X52266904Y-73144000D01*
X52305000Y-73258285D01*
X52381190Y-73334476D01*
X52457380Y-73372571D01*
X52609761Y-73410666D01*
X52724047Y-73410666D01*
X52876428Y-73372571D01*
X52952619Y-73334476D01*
X53028809Y-73258285D01*
X53066904Y-73144000D01*
X53066904Y-73067809D01*
X53028809Y-72953523D01*
X52990714Y-72915428D01*
X52724047Y-72915428D01*
X52724047Y-73067809D01*
X53066904Y-72572571D02*
X52266904Y-72572571D01*
X53066904Y-72115428D01*
X52266904Y-72115428D01*
X53066904Y-71734476D02*
X52266904Y-71734476D01*
X52266904Y-71544000D01*
X52305000Y-71429714D01*
X52381190Y-71353523D01*
X52457380Y-71315428D01*
X52609761Y-71277333D01*
X52724047Y-71277333D01*
X52876428Y-71315428D01*
X52952619Y-71353523D01*
X53028809Y-71429714D01*
X53066904Y-71544000D01*
X53066904Y-71734476D01*
X67916000Y-55676666D02*
X67916000Y-54838571D01*
X68941904Y-55486190D02*
X68141904Y-55486190D01*
X68941904Y-55029047D01*
X68141904Y-55029047D01*
X67916000Y-54838571D02*
X67916000Y-53924285D01*
X68941904Y-54648095D02*
X68141904Y-54648095D01*
X68713333Y-54381428D01*
X68141904Y-54114761D01*
X68941904Y-54114761D01*
X67916000Y-53924285D02*
X67916000Y-53543333D01*
X68941904Y-53733809D02*
X68141904Y-53733809D01*
X57390000Y-70332664D02*
X57390000Y-69494569D01*
X58415904Y-70142188D02*
X57615904Y-70142188D01*
X58415904Y-69685045D01*
X57615904Y-69685045D01*
X57390000Y-69494569D02*
X57390000Y-68580283D01*
X58415904Y-69304093D02*
X57615904Y-69304093D01*
X58187333Y-69037426D01*
X57615904Y-68770759D01*
X58415904Y-68770759D01*
X57390000Y-68580283D02*
X57390000Y-68199331D01*
X58415904Y-68389807D02*
X57615904Y-68389807D01*
X73602857Y-54260714D02*
X73640952Y-54146428D01*
X73679047Y-54108333D01*
X73755238Y-54070238D01*
X73869523Y-54070238D01*
X73945714Y-54108333D01*
X73983809Y-54146428D01*
X74021904Y-54222619D01*
X74021904Y-54527380D01*
X73221904Y-54527380D01*
X73221904Y-54260714D01*
X73260000Y-54184523D01*
X73298095Y-54146428D01*
X73374285Y-54108333D01*
X73450476Y-54108333D01*
X73526666Y-54146428D01*
X73564761Y-54184523D01*
X73602857Y-54260714D01*
X73602857Y-54527380D01*
X73793333Y-53765476D02*
X73793333Y-53384523D01*
X74021904Y-53841666D02*
X73221904Y-53575000D01*
X74021904Y-53308333D01*
X63120000Y-121043571D02*
X63453333Y-121043571D01*
X63596190Y-121567380D02*
X63120000Y-121567380D01*
X63120000Y-120567380D01*
X63596190Y-120567380D01*
X64024761Y-121567380D02*
X64024761Y-120567380D01*
X64358095Y-121281666D01*
X64691428Y-120567380D01*
X64691428Y-121567380D01*
X65167619Y-120567380D02*
X65167619Y-121376904D01*
X65215238Y-121472142D01*
X65262857Y-121519761D01*
X65358095Y-121567380D01*
X65548571Y-121567380D01*
X65643809Y-121519761D01*
X65691428Y-121472142D01*
X65739047Y-121376904D01*
X65739047Y-120567380D01*
X66643809Y-120567380D02*
X66453333Y-120567380D01*
X66358095Y-120615000D01*
X66310476Y-120662619D01*
X66215238Y-120805476D01*
X66167619Y-120995952D01*
X66167619Y-121376904D01*
X66215238Y-121472142D01*
X66262857Y-121519761D01*
X66358095Y-121567380D01*
X66548571Y-121567380D01*
X66643809Y-121519761D01*
X66691428Y-121472142D01*
X66739047Y-121376904D01*
X66739047Y-121138809D01*
X66691428Y-121043571D01*
X66643809Y-120995952D01*
X66548571Y-120948333D01*
X66358095Y-120948333D01*
X66262857Y-120995952D01*
X66215238Y-121043571D01*
X66167619Y-121138809D01*
X67310476Y-120995952D02*
X67215238Y-120948333D01*
X67167619Y-120900714D01*
X67120000Y-120805476D01*
X67120000Y-120757857D01*
X67167619Y-120662619D01*
X67215238Y-120615000D01*
X67310476Y-120567380D01*
X67500952Y-120567380D01*
X67596190Y-120615000D01*
X67643809Y-120662619D01*
X67691428Y-120757857D01*
X67691428Y-120805476D01*
X67643809Y-120900714D01*
X67596190Y-120948333D01*
X67500952Y-120995952D01*
X67310476Y-120995952D01*
X67215238Y-121043571D01*
X67167619Y-121091190D01*
X67120000Y-121186428D01*
X67120000Y-121376904D01*
X67167619Y-121472142D01*
X67215238Y-121519761D01*
X67310476Y-121567380D01*
X67500952Y-121567380D01*
X67596190Y-121519761D01*
X67643809Y-121472142D01*
X67691428Y-121376904D01*
X67691428Y-121186428D01*
X67643809Y-121091190D01*
X67596190Y-121043571D01*
X67500952Y-120995952D01*
X68310476Y-120567380D02*
X68405714Y-120567380D01*
X68500952Y-120615000D01*
X68548571Y-120662619D01*
X68596190Y-120757857D01*
X68643809Y-120948333D01*
X68643809Y-121186428D01*
X68596190Y-121376904D01*
X68548571Y-121472142D01*
X68500952Y-121519761D01*
X68405714Y-121567380D01*
X68310476Y-121567380D01*
X68215238Y-121519761D01*
X68167619Y-121472142D01*
X68120000Y-121376904D01*
X68072380Y-121186428D01*
X68072380Y-120948333D01*
X68120000Y-120757857D01*
X68167619Y-120662619D01*
X68215238Y-120615000D01*
X68310476Y-120567380D01*
X69024761Y-120662619D02*
X69072380Y-120615000D01*
X69167619Y-120567380D01*
X69405714Y-120567380D01*
X69500952Y-120615000D01*
X69548571Y-120662619D01*
X69596190Y-120757857D01*
X69596190Y-120853095D01*
X69548571Y-120995952D01*
X68977142Y-121567380D01*
X69596190Y-121567380D01*
X70643809Y-120900714D02*
X71024761Y-120900714D01*
X70786666Y-121567380D02*
X70786666Y-120710238D01*
X70834285Y-120615000D01*
X70929523Y-120567380D01*
X71024761Y-120567380D01*
X71500952Y-121567380D02*
X71405714Y-121519761D01*
X71358095Y-121472142D01*
X71310476Y-121376904D01*
X71310476Y-121091190D01*
X71358095Y-120995952D01*
X71405714Y-120948333D01*
X71500952Y-120900714D01*
X71643809Y-120900714D01*
X71739047Y-120948333D01*
X71786666Y-120995952D01*
X71834285Y-121091190D01*
X71834285Y-121376904D01*
X71786666Y-121472142D01*
X71739047Y-121519761D01*
X71643809Y-121567380D01*
X71500952Y-121567380D01*
X72262857Y-121567380D02*
X72262857Y-120900714D01*
X72262857Y-121091190D02*
X72310476Y-120995952D01*
X72358095Y-120948333D01*
X72453333Y-120900714D01*
X72548571Y-120900714D01*
X73643809Y-121043571D02*
X73977142Y-121043571D01*
X74120000Y-121567380D02*
X73643809Y-121567380D01*
X73643809Y-120567380D01*
X74120000Y-120567380D01*
X74548571Y-121567380D02*
X74548571Y-120567380D01*
X74881904Y-121281666D01*
X75215238Y-120567380D01*
X75215238Y-121567380D01*
X75691428Y-120567380D02*
X75691428Y-121376904D01*
X75739047Y-121472142D01*
X75786666Y-121519761D01*
X75881904Y-121567380D01*
X76072380Y-121567380D01*
X76167619Y-121519761D01*
X76215238Y-121472142D01*
X76262857Y-121376904D01*
X76262857Y-120567380D01*
X76643809Y-120567380D02*
X77310476Y-120567380D01*
X76643809Y-121567380D01*
X77310476Y-121567380D01*
X77834285Y-120995952D02*
X77739047Y-120948333D01*
X77691428Y-120900714D01*
X77643809Y-120805476D01*
X77643809Y-120757857D01*
X77691428Y-120662619D01*
X77739047Y-120615000D01*
X77834285Y-120567380D01*
X78024761Y-120567380D01*
X78120000Y-120615000D01*
X78167619Y-120662619D01*
X78215238Y-120757857D01*
X78215238Y-120805476D01*
X78167619Y-120900714D01*
X78120000Y-120948333D01*
X78024761Y-120995952D01*
X77834285Y-120995952D01*
X77739047Y-121043571D01*
X77691428Y-121091190D01*
X77643809Y-121186428D01*
X77643809Y-121376904D01*
X77691428Y-121472142D01*
X77739047Y-121519761D01*
X77834285Y-121567380D01*
X78024761Y-121567380D01*
X78120000Y-121519761D01*
X78167619Y-121472142D01*
X78215238Y-121376904D01*
X78215238Y-121186428D01*
X78167619Y-121091190D01*
X78120000Y-121043571D01*
X78024761Y-120995952D01*
X78834285Y-120567380D02*
X78929523Y-120567380D01*
X79024761Y-120615000D01*
X79072380Y-120662619D01*
X79120000Y-120757857D01*
X79167619Y-120948333D01*
X79167619Y-121186428D01*
X79120000Y-121376904D01*
X79072380Y-121472142D01*
X79024761Y-121519761D01*
X78929523Y-121567380D01*
X78834285Y-121567380D01*
X78739047Y-121519761D01*
X78691428Y-121472142D01*
X78643809Y-121376904D01*
X78596190Y-121186428D01*
X78596190Y-120948333D01*
X78643809Y-120757857D01*
X78691428Y-120662619D01*
X78739047Y-120615000D01*
X78834285Y-120567380D01*
X65334285Y-122272619D02*
X65381904Y-122225000D01*
X65477142Y-122177380D01*
X65715238Y-122177380D01*
X65810476Y-122225000D01*
X65858095Y-122272619D01*
X65905714Y-122367857D01*
X65905714Y-122463095D01*
X65858095Y-122605952D01*
X65286666Y-123177380D01*
X65905714Y-123177380D01*
X66524761Y-122177380D02*
X66620000Y-122177380D01*
X66715238Y-122225000D01*
X66762857Y-122272619D01*
X66810476Y-122367857D01*
X66858095Y-122558333D01*
X66858095Y-122796428D01*
X66810476Y-122986904D01*
X66762857Y-123082142D01*
X66715238Y-123129761D01*
X66620000Y-123177380D01*
X66524761Y-123177380D01*
X66429523Y-123129761D01*
X66381904Y-123082142D01*
X66334285Y-122986904D01*
X66286666Y-122796428D01*
X66286666Y-122558333D01*
X66334285Y-122367857D01*
X66381904Y-122272619D01*
X66429523Y-122225000D01*
X66524761Y-122177380D01*
X67239047Y-122272619D02*
X67286666Y-122225000D01*
X67381904Y-122177380D01*
X67620000Y-122177380D01*
X67715238Y-122225000D01*
X67762857Y-122272619D01*
X67810476Y-122367857D01*
X67810476Y-122463095D01*
X67762857Y-122605952D01*
X67191428Y-123177380D01*
X67810476Y-123177380D01*
X68191428Y-122272619D02*
X68239047Y-122225000D01*
X68334285Y-122177380D01*
X68572380Y-122177380D01*
X68667619Y-122225000D01*
X68715238Y-122272619D01*
X68762857Y-122367857D01*
X68762857Y-122463095D01*
X68715238Y-122605952D01*
X68143809Y-123177380D01*
X68762857Y-123177380D01*
X70524761Y-123177380D02*
X70191428Y-122701190D01*
X69953333Y-123177380D02*
X69953333Y-122177380D01*
X70334285Y-122177380D01*
X70429523Y-122225000D01*
X70477142Y-122272619D01*
X70524761Y-122367857D01*
X70524761Y-122510714D01*
X70477142Y-122605952D01*
X70429523Y-122653571D01*
X70334285Y-122701190D01*
X69953333Y-122701190D01*
X70858095Y-122510714D02*
X71096190Y-123177380D01*
X71334285Y-122510714D02*
X71096190Y-123177380D01*
X71000952Y-123415476D01*
X70953333Y-123463095D01*
X70858095Y-123510714D01*
X72143809Y-122510714D02*
X72143809Y-123177380D01*
X71715238Y-122510714D02*
X71715238Y-123034523D01*
X71762857Y-123129761D01*
X71858095Y-123177380D01*
X72000952Y-123177380D01*
X72096190Y-123129761D01*
X72143809Y-123082142D01*
X72572380Y-123129761D02*
X72715238Y-123177380D01*
X72953333Y-123177380D01*
X73048571Y-123129761D01*
X73096190Y-123082142D01*
X73143809Y-122986904D01*
X73143809Y-122891666D01*
X73096190Y-122796428D01*
X73048571Y-122748809D01*
X72953333Y-122701190D01*
X72762857Y-122653571D01*
X72667619Y-122605952D01*
X72620000Y-122558333D01*
X72572380Y-122463095D01*
X72572380Y-122367857D01*
X72620000Y-122272619D01*
X72667619Y-122225000D01*
X72762857Y-122177380D01*
X73000952Y-122177380D01*
X73143809Y-122225000D01*
X73429523Y-122510714D02*
X73810476Y-122510714D01*
X73572380Y-122177380D02*
X73572380Y-123034523D01*
X73620000Y-123129761D01*
X73715238Y-123177380D01*
X73810476Y-123177380D01*
X74572380Y-122510714D02*
X74572380Y-123177380D01*
X74143809Y-122510714D02*
X74143809Y-123034523D01*
X74191428Y-123129761D01*
X74286666Y-123177380D01*
X74429523Y-123177380D01*
X74524761Y-123129761D01*
X74572380Y-123082142D01*
X75477142Y-123177380D02*
X75477142Y-122177380D01*
X75477142Y-123129761D02*
X75381904Y-123177380D01*
X75191428Y-123177380D01*
X75096190Y-123129761D01*
X75048571Y-123082142D01*
X75000952Y-122986904D01*
X75000952Y-122701190D01*
X75048571Y-122605952D01*
X75096190Y-122558333D01*
X75191428Y-122510714D01*
X75381904Y-122510714D01*
X75477142Y-122558333D01*
X75953333Y-123177380D02*
X75953333Y-122510714D01*
X75953333Y-122177380D02*
X75905714Y-122225000D01*
X75953333Y-122272619D01*
X76000952Y-122225000D01*
X75953333Y-122177380D01*
X75953333Y-122272619D01*
X76572380Y-123177380D02*
X76477142Y-123129761D01*
X76429523Y-123082142D01*
X76381904Y-122986904D01*
X76381904Y-122701190D01*
X76429523Y-122605952D01*
X76477142Y-122558333D01*
X76572380Y-122510714D01*
X76715238Y-122510714D01*
X76810476Y-122558333D01*
X76858095Y-122605952D01*
X76905714Y-122701190D01*
X76905714Y-122986904D01*
X76858095Y-123082142D01*
X76810476Y-123129761D01*
X76715238Y-123177380D01*
X76572380Y-123177380D01*
X81419761Y-57511904D02*
X81153095Y-57130952D01*
X80962619Y-57511904D02*
X80962619Y-56711904D01*
X81267380Y-56711904D01*
X81343571Y-56750000D01*
X81381666Y-56788095D01*
X81419761Y-56864285D01*
X81419761Y-56978571D01*
X81381666Y-57054761D01*
X81343571Y-57092857D01*
X81267380Y-57130952D01*
X80962619Y-57130952D01*
X81762619Y-57092857D02*
X82029285Y-57092857D01*
X82143571Y-57511904D02*
X81762619Y-57511904D01*
X81762619Y-56711904D01*
X82143571Y-56711904D01*
X82905476Y-57511904D02*
X82448333Y-57511904D01*
X82676904Y-57511904D02*
X82676904Y-56711904D01*
X82600714Y-56826190D01*
X82524523Y-56902380D01*
X82448333Y-56940476D01*
X58213333Y-82197142D02*
X58165714Y-82244761D01*
X58022857Y-82292380D01*
X57927619Y-82292380D01*
X57784761Y-82244761D01*
X57689523Y-82149523D01*
X57641904Y-82054285D01*
X57594285Y-81863809D01*
X57594285Y-81720952D01*
X57641904Y-81530476D01*
X57689523Y-81435238D01*
X57784761Y-81340000D01*
X57927619Y-81292380D01*
X58022857Y-81292380D01*
X58165714Y-81340000D01*
X58213333Y-81387619D01*
X58594285Y-81387619D02*
X58641904Y-81340000D01*
X58737142Y-81292380D01*
X58975238Y-81292380D01*
X59070476Y-81340000D01*
X59118095Y-81387619D01*
X59165714Y-81482857D01*
X59165714Y-81578095D01*
X59118095Y-81720952D01*
X58546666Y-82292380D01*
X59165714Y-82292380D01*
X81403866Y-61682380D02*
X81403866Y-62396666D01*
X81356247Y-62539523D01*
X81261009Y-62634761D01*
X81118152Y-62682380D01*
X81022914Y-62682380D01*
X81832438Y-61777619D02*
X81880057Y-61730000D01*
X81975295Y-61682380D01*
X82213390Y-61682380D01*
X82308628Y-61730000D01*
X82356247Y-61777619D01*
X82403866Y-61872857D01*
X82403866Y-61968095D01*
X82356247Y-62110952D01*
X81784819Y-62682380D01*
X82403866Y-62682380D01*
X60412380Y-58753333D02*
X61126666Y-58753333D01*
X61269523Y-58800952D01*
X61364761Y-58896190D01*
X61412380Y-59039047D01*
X61412380Y-59134285D01*
X60412380Y-57800952D02*
X60412380Y-58277142D01*
X60888571Y-58324761D01*
X60840952Y-58277142D01*
X60793333Y-58181904D01*
X60793333Y-57943809D01*
X60840952Y-57848571D01*
X60888571Y-57800952D01*
X60983809Y-57753333D01*
X61221904Y-57753333D01*
X61317142Y-57800952D01*
X61364761Y-57848571D01*
X61412380Y-57943809D01*
X61412380Y-58181904D01*
X61364761Y-58277142D01*
X61317142Y-58324761D01*
X58213333Y-76847142D02*
X58165714Y-76894761D01*
X58022857Y-76942380D01*
X57927619Y-76942380D01*
X57784761Y-76894761D01*
X57689523Y-76799523D01*
X57641904Y-76704285D01*
X57594285Y-76513809D01*
X57594285Y-76370952D01*
X57641904Y-76180476D01*
X57689523Y-76085238D01*
X57784761Y-75990000D01*
X57927619Y-75942380D01*
X58022857Y-75942380D01*
X58165714Y-75990000D01*
X58213333Y-76037619D01*
X59165714Y-76942380D02*
X58594285Y-76942380D01*
X58880000Y-76942380D02*
X58880000Y-75942380D01*
X58784761Y-76085238D01*
X58689523Y-76180476D01*
X58594285Y-76228095D01*
X72263095Y-63162380D02*
X72263095Y-63971904D01*
X72310714Y-64067142D01*
X72358333Y-64114761D01*
X72453571Y-64162380D01*
X72644047Y-64162380D01*
X72739285Y-64114761D01*
X72786904Y-64067142D01*
X72834523Y-63971904D01*
X72834523Y-63162380D01*
X73834523Y-64162380D02*
X73263095Y-64162380D01*
X73548809Y-64162380D02*
X73548809Y-63162380D01*
X73453571Y-63305238D01*
X73358333Y-63400476D01*
X73263095Y-63448095D01*
X74382380Y-53673333D02*
X75096666Y-53673333D01*
X75239523Y-53720952D01*
X75334761Y-53816190D01*
X75382380Y-53959047D01*
X75382380Y-54054285D01*
X74715714Y-52768571D02*
X75382380Y-52768571D01*
X74334761Y-53006666D02*
X75049047Y-53244761D01*
X75049047Y-52625714D01*
X61083866Y-62317380D02*
X61083866Y-63031666D01*
X61036247Y-63174523D01*
X60941009Y-63269761D01*
X60798152Y-63317380D01*
X60702914Y-63317380D01*
X62083866Y-63317380D02*
X61512438Y-63317380D01*
X61798152Y-63317380D02*
X61798152Y-62317380D01*
X61702914Y-62460238D01*
X61607676Y-62555476D01*
X61512438Y-62603095D01*
X75652380Y-62563333D02*
X76366666Y-62563333D01*
X76509523Y-62610952D01*
X76604761Y-62706190D01*
X76652380Y-62849047D01*
X76652380Y-62944285D01*
X75652380Y-62182380D02*
X75652380Y-61563333D01*
X76033333Y-61896666D01*
X76033333Y-61753809D01*
X76080952Y-61658571D01*
X76128571Y-61610952D01*
X76223809Y-61563333D01*
X76461904Y-61563333D01*
X76557142Y-61610952D01*
X76604761Y-61658571D01*
X76652380Y-61753809D01*
X76652380Y-62039523D01*
X76604761Y-62134761D01*
X76557142Y-62182380D01*
D11*
X56891000Y-83471000D02*
X56891000Y-84250000D01*
X56571000Y-85930000D02*
X56571000Y-86920000D01*
X56010000Y-85930000D02*
X56010000Y-87124000D01*
X57411000Y-84077000D02*
X57411000Y-86103000D01*
X53300199Y-83895000D02*
X53700199Y-83895000D01*
X56291000Y-83136000D02*
X56291000Y-84250000D01*
X56130000Y-85930000D02*
X56130000Y-87095000D01*
X56971000Y-85930000D02*
X56971000Y-86642000D01*
X56531000Y-83239000D02*
X56531000Y-84250000D01*
X55930000Y-83040000D02*
X55930000Y-84250000D01*
X56731000Y-83355000D02*
X56731000Y-84250000D01*
X56250000Y-85930000D02*
X56250000Y-87058000D01*
X56170000Y-85930000D02*
X56170000Y-87084000D01*
X57651000Y-84720000D02*
X57651000Y-85460000D01*
X56411000Y-83183000D02*
X56411000Y-84250000D01*
X56611000Y-83282000D02*
X56611000Y-84250000D01*
X56691000Y-83330000D02*
X56691000Y-84250000D01*
X56691000Y-85930000D02*
X56691000Y-86850000D01*
X56371000Y-85930000D02*
X56371000Y-87014000D01*
X56130000Y-83085000D02*
X56130000Y-84250000D01*
X57131000Y-85930000D02*
X57131000Y-86486000D01*
X56411000Y-85930000D02*
X56411000Y-86997000D01*
X57491000Y-84231000D02*
X57491000Y-85949000D01*
X56491000Y-85930000D02*
X56491000Y-86960000D01*
X57251000Y-83836000D02*
X57251000Y-84250000D01*
X56771000Y-85930000D02*
X56771000Y-86798000D01*
X57171000Y-83739000D02*
X57171000Y-84250000D01*
X55970000Y-85930000D02*
X55970000Y-87132000D01*
X56571000Y-83260000D02*
X56571000Y-84250000D01*
X55690000Y-83013000D02*
X55690000Y-87167000D01*
X56931000Y-85930000D02*
X56931000Y-86677000D01*
X56371000Y-83166000D02*
X56371000Y-84250000D01*
X56651000Y-83305000D02*
X56651000Y-84250000D01*
X57171000Y-85930000D02*
X57171000Y-86441000D01*
X56050000Y-85930000D02*
X56050000Y-87115000D01*
X57371000Y-84010000D02*
X57371000Y-84250000D01*
X56250000Y-83122000D02*
X56250000Y-84250000D01*
X56331000Y-85930000D02*
X56331000Y-87030000D01*
X55930000Y-85930000D02*
X55930000Y-87140000D01*
X55730000Y-83016000D02*
X55730000Y-87164000D01*
X57531000Y-84322000D02*
X57531000Y-85858000D01*
X57091000Y-85930000D02*
X57091000Y-86528000D01*
X56010000Y-83056000D02*
X56010000Y-84250000D01*
X57091000Y-83652000D02*
X57091000Y-84250000D01*
X55890000Y-85930000D02*
X55890000Y-87146000D01*
X55970000Y-83048000D02*
X55970000Y-84250000D01*
X55810000Y-83023000D02*
X55810000Y-84250000D01*
X56771000Y-83382000D02*
X56771000Y-84250000D01*
X56090000Y-85930000D02*
X56090000Y-87106000D01*
X56050000Y-83065000D02*
X56050000Y-84250000D01*
X55570000Y-83010000D02*
X55570000Y-87170000D01*
X57051000Y-85930000D02*
X57051000Y-86568000D01*
X57131000Y-83694000D02*
X57131000Y-84250000D01*
X55770000Y-83019000D02*
X55770000Y-84250000D01*
X56170000Y-83096000D02*
X56170000Y-84250000D01*
X56210000Y-83108000D02*
X56210000Y-84250000D01*
X56451000Y-83201000D02*
X56451000Y-84250000D01*
X56331000Y-83150000D02*
X56331000Y-84250000D01*
X56851000Y-85930000D02*
X56851000Y-86740000D01*
X57251000Y-85930000D02*
X57251000Y-86344000D01*
X56891000Y-85930000D02*
X56891000Y-86709000D01*
X56811000Y-83410000D02*
X56811000Y-84250000D01*
X56731000Y-85930000D02*
X56731000Y-86825000D01*
X57291000Y-85930000D02*
X57291000Y-86290000D01*
X55610000Y-83010000D02*
X55610000Y-87170000D01*
X55810000Y-85930000D02*
X55810000Y-87157000D01*
X56291000Y-85930000D02*
X56291000Y-87044000D01*
X57331000Y-83948000D02*
X57331000Y-84250000D01*
X56851000Y-83440000D02*
X56851000Y-84250000D01*
X57451000Y-84150000D02*
X57451000Y-86030000D01*
X56531000Y-85930000D02*
X56531000Y-86941000D01*
X56651000Y-85930000D02*
X56651000Y-86875000D01*
X56971000Y-83538000D02*
X56971000Y-84250000D01*
X55850000Y-83028000D02*
X55850000Y-84250000D01*
X57291000Y-83890000D02*
X57291000Y-84250000D01*
X57611000Y-84553000D02*
X57611000Y-85627000D01*
X57051000Y-83612000D02*
X57051000Y-84250000D01*
X55650000Y-83011000D02*
X55650000Y-87169000D01*
X55770000Y-85930000D02*
X55770000Y-87161000D01*
X53500199Y-83695000D02*
X53500199Y-84095000D01*
X56090000Y-83074000D02*
X56090000Y-84250000D01*
X57371000Y-85930000D02*
X57371000Y-86170000D01*
X56811000Y-85930000D02*
X56811000Y-86770000D01*
X57211000Y-85930000D02*
X57211000Y-86394000D01*
X55890000Y-83034000D02*
X55890000Y-84250000D01*
X56491000Y-83220000D02*
X56491000Y-84250000D01*
X57331000Y-85930000D02*
X57331000Y-86232000D01*
X56931000Y-83503000D02*
X56931000Y-84250000D01*
X55850000Y-85930000D02*
X55850000Y-87152000D01*
X57571000Y-84426000D02*
X57571000Y-85754000D01*
X57011000Y-85930000D02*
X57011000Y-86606000D01*
X57011000Y-83574000D02*
X57011000Y-84250000D01*
X57211000Y-83786000D02*
X57211000Y-84250000D01*
X56611000Y-85930000D02*
X56611000Y-86898000D01*
X56210000Y-85930000D02*
X56210000Y-87072000D01*
X56451000Y-85930000D02*
X56451000Y-86979000D01*
X57690000Y-85090000D02*
G75*
G03*
X57690000Y-85090000I-2120000J0D01*
G01*
X54530000Y-60976000D02*
X55930000Y-60976000D01*
X53830000Y-62276000D02*
X53830000Y-61676000D01*
X56630000Y-61676000D02*
X56630000Y-62276000D01*
X55930000Y-62976000D02*
X54530000Y-62976000D01*
X55930000Y-62976000D02*
G75*
G03*
X56630000Y-62276000I0J700000D01*
G01*
X56630000Y-61676000D02*
G75*
G03*
X55930000Y-60976000I-700000J0D01*
G01*
X53830000Y-62276000D02*
G75*
G03*
X54530000Y-62976000I699999J-1D01*
G01*
X54530000Y-60976000D02*
G75*
G03*
X53830000Y-61676000I-1J-699999D01*
G01*
X55930000Y-66532000D02*
X54530000Y-66532000D01*
X56630000Y-65232000D02*
X56630000Y-65832000D01*
X54530000Y-64532000D02*
X55930000Y-64532000D01*
X53830000Y-65832000D02*
X53830000Y-65232000D01*
X53830000Y-65832000D02*
G75*
G03*
X54530000Y-66532000I699999J-1D01*
G01*
X55930000Y-66532000D02*
G75*
G03*
X56630000Y-65832000I0J700000D01*
G01*
X56630000Y-65232000D02*
G75*
G03*
X55930000Y-64532000I-700000J0D01*
G01*
X54530000Y-64532000D02*
G75*
G03*
X53830000Y-65232000I-1J-699999D01*
G01*
X80150000Y-66040000D02*
X80150000Y-64710000D01*
X80150000Y-67310000D02*
X80150000Y-115630000D01*
X80150000Y-64710000D02*
X81280000Y-64710000D01*
X82410000Y-67310000D02*
X82410000Y-115630000D01*
X80150000Y-115630000D02*
X82410000Y-115630000D01*
X80150000Y-67310000D02*
X82410000Y-67310000D01*
X62165000Y-56134000D02*
X62165000Y-61020000D01*
X72385000Y-56134000D02*
X72385000Y-58420000D01*
X73655000Y-56159400D02*
X74985000Y-56159400D01*
X74985000Y-61020000D02*
X62165000Y-61020000D01*
X72385000Y-58420000D02*
X74985000Y-58420000D01*
X72385000Y-56134000D02*
X62165000Y-56134000D01*
X74985000Y-58420000D02*
X74985000Y-61020000D01*
X74985000Y-56159400D02*
X74985000Y-57150000D01*
X54240000Y-79795000D02*
X54240000Y-79860000D01*
X54240000Y-77620000D02*
X57480000Y-77620000D01*
X57480000Y-79795000D02*
X57480000Y-79860000D01*
X54240000Y-77620000D02*
X54240000Y-77685000D01*
X54240000Y-79860000D02*
X57480000Y-79860000D01*
X57480000Y-77620000D02*
X57480000Y-77685000D01*
X56630000Y-68788000D02*
X56630000Y-69388000D01*
X54530000Y-68088000D02*
X55930000Y-68088000D01*
X53830000Y-69388000D02*
X53830000Y-68788000D01*
X55930000Y-70088000D02*
X54530000Y-70088000D01*
X55930000Y-70088000D02*
G75*
G03*
X56630000Y-69388000I0J700000D01*
G01*
X56630000Y-68788000D02*
G75*
G03*
X55930000Y-68088000I-700000J0D01*
G01*
X53830000Y-69388000D02*
G75*
G03*
X54530000Y-70088000I699999J-1D01*
G01*
X54530000Y-68088000D02*
G75*
G03*
X53830000Y-68788000I-1J-699999D01*
G01*
X56630000Y-71836000D02*
X56630000Y-72436000D01*
X55930000Y-73136000D02*
X54530000Y-73136000D01*
X54530000Y-71136000D02*
X55930000Y-71136000D01*
X53830000Y-72436000D02*
X53830000Y-71836000D01*
X53830000Y-72436000D02*
G75*
G03*
X54530000Y-73136000I699999J-1D01*
G01*
X55930000Y-73136000D02*
G75*
G03*
X56630000Y-72436000I0J700000D01*
G01*
X56630000Y-71836000D02*
G75*
G03*
X55930000Y-71136000I-700000J0D01*
G01*
X54530000Y-71136000D02*
G75*
G03*
X53830000Y-71836000I-1J-699999D01*
G01*
X64660000Y-115630000D02*
X77580000Y-115630000D01*
X77580000Y-115630000D02*
X77580000Y-64710000D01*
X70120000Y-64710000D02*
X64660000Y-64710000D01*
X77580000Y-64710000D02*
X72120000Y-64710000D01*
X64660000Y-64710000D02*
X64660000Y-115630000D01*
X70120000Y-64710000D02*
G75*
G03*
X72120000Y-64710000I1000000J0D01*
G01*
X72390000Y-55803800D02*
X72390000Y-53280000D01*
X71120000Y-55778400D02*
X69790000Y-55778400D01*
X72440800Y-55753000D02*
X72415400Y-55753000D01*
X69799200Y-55757600D02*
X69799200Y-54427600D01*
X72390000Y-53280000D02*
X72450000Y-53280000D01*
X72450000Y-55778400D02*
X72450000Y-53280000D01*
X59830000Y-115630000D02*
X62090000Y-115630000D01*
X59830000Y-67310000D02*
X62090000Y-67310000D01*
X59830000Y-67310000D02*
X59830000Y-115630000D01*
X59830000Y-66040000D02*
X59830000Y-64710000D01*
X62090000Y-67310000D02*
X62090000Y-115630000D01*
X59830000Y-64710000D02*
X60960000Y-64710000D01*
X77410000Y-53300000D02*
X78740000Y-53300000D01*
X77410000Y-55900000D02*
X80070000Y-55900000D01*
X77410000Y-54630000D02*
X77410000Y-53300000D01*
X77410000Y-61040000D02*
X80070000Y-61040000D01*
X77410000Y-55900000D02*
X77410000Y-61040000D01*
X80070000Y-55900000D02*
X80070000Y-61040000D01*
M02*
