G04 #@! TF.GenerationSoftware,KiCad,Pcbnew,(6.0.7)*
G04 #@! TF.CreationDate,2022-08-25T15:57:15-07:00*
G04 #@! TF.ProjectId,emu6802,656d7536-3830-4322-9e6b-696361645f70,rev?*
G04 #@! TF.SameCoordinates,Original*
G04 #@! TF.FileFunction,Copper,L2,Bot*
G04 #@! TF.FilePolarity,Positive*
%FSLAX46Y46*%
G04 Gerber Fmt 4.6, Leading zero omitted, Abs format (unit mm)*
G04 Created by KiCad (PCBNEW (6.0.7)) date 2022-08-25 15:57:15*
%MOMM*%
%LPD*%
G01*
G04 APERTURE LIST*
G04 #@! TA.AperFunction,ComponentPad*
%ADD10R,1.200000X1.200000*%
G04 #@! TD*
G04 #@! TA.AperFunction,ComponentPad*
%ADD11C,1.200000*%
G04 #@! TD*
G04 #@! TA.AperFunction,ComponentPad*
%ADD12R,1.700000X1.700000*%
G04 #@! TD*
G04 #@! TA.AperFunction,ComponentPad*
%ADD13O,1.700000X1.700000*%
G04 #@! TD*
G04 #@! TA.AperFunction,ComponentPad*
%ADD14C,1.600000*%
G04 #@! TD*
G04 #@! TA.AperFunction,ComponentPad*
%ADD15R,1.600000X1.600000*%
G04 #@! TD*
G04 #@! TA.AperFunction,ComponentPad*
%ADD16O,1.600000X1.600000*%
G04 #@! TD*
G04 #@! TA.AperFunction,ComponentPad*
%ADD17C,1.700000*%
G04 #@! TD*
G04 #@! TA.AperFunction,ViaPad*
%ADD18C,0.800000*%
G04 #@! TD*
G04 #@! TA.AperFunction,Conductor*
%ADD19C,0.400000*%
G04 #@! TD*
G04 #@! TA.AperFunction,Conductor*
%ADD20C,0.250000*%
G04 #@! TD*
G04 APERTURE END LIST*
D10*
X54570000Y-85090000D03*
D11*
X56570000Y-85090000D03*
D12*
X81280000Y-66040000D03*
D13*
X81280000Y-68580000D03*
X81280000Y-71120000D03*
X81280000Y-73660000D03*
X81280000Y-76200000D03*
X81280000Y-78740000D03*
X81280000Y-81280000D03*
X81280000Y-83820000D03*
X81280000Y-86360000D03*
X81280000Y-88900000D03*
X81280000Y-91440000D03*
X81280000Y-93980000D03*
X81280000Y-96520000D03*
X81280000Y-99060000D03*
X81280000Y-101600000D03*
X81280000Y-104140000D03*
X81280000Y-106680000D03*
X81280000Y-109220000D03*
X81280000Y-111760000D03*
X81280000Y-114300000D03*
D12*
X73655000Y-57150000D03*
D13*
X73655000Y-59690000D03*
X71115000Y-57150000D03*
X71115000Y-59690000D03*
X68575000Y-57150000D03*
X68575000Y-59690000D03*
X66035000Y-57150000D03*
X66035000Y-59690000D03*
X63495000Y-57150000D03*
X63495000Y-59690000D03*
D14*
X54610000Y-78740000D03*
X57110000Y-78740000D03*
D15*
X63500000Y-66040000D03*
D16*
X63500000Y-68580000D03*
X63500000Y-71120000D03*
X63500000Y-73660000D03*
X63500000Y-76200000D03*
X63500000Y-78740000D03*
X63500000Y-81280000D03*
X63500000Y-83820000D03*
X63500000Y-86360000D03*
X63500000Y-88900000D03*
X63500000Y-91440000D03*
X63500000Y-93980000D03*
X63500000Y-96520000D03*
X63500000Y-99060000D03*
X63500000Y-101600000D03*
X63500000Y-104140000D03*
X63500000Y-106680000D03*
X63500000Y-109220000D03*
X63500000Y-111760000D03*
X63500000Y-114300000D03*
X78740000Y-114300000D03*
X78740000Y-111760000D03*
X78740000Y-109220000D03*
X78740000Y-106680000D03*
X78740000Y-104140000D03*
X78740000Y-101600000D03*
X78740000Y-99060000D03*
X78740000Y-96520000D03*
X78740000Y-93980000D03*
X78740000Y-91440000D03*
X78740000Y-88900000D03*
X78740000Y-86360000D03*
X78740000Y-83820000D03*
X78740000Y-81280000D03*
X78740000Y-78740000D03*
X78740000Y-76200000D03*
X78740000Y-73660000D03*
X78740000Y-71120000D03*
X78740000Y-68580000D03*
X78740000Y-66040000D03*
D17*
X71120000Y-54610000D03*
D12*
X60960000Y-66040000D03*
D13*
X60960000Y-68580000D03*
X60960000Y-71120000D03*
X60960000Y-73660000D03*
X60960000Y-76200000D03*
X60960000Y-78740000D03*
X60960000Y-81280000D03*
X60960000Y-83820000D03*
X60960000Y-86360000D03*
X60960000Y-88900000D03*
X60960000Y-91440000D03*
X60960000Y-93980000D03*
X60960000Y-96520000D03*
X60960000Y-99060000D03*
X60960000Y-101600000D03*
X60960000Y-104140000D03*
X60960000Y-106680000D03*
X60960000Y-109220000D03*
X60960000Y-111760000D03*
X60960000Y-114300000D03*
D12*
X78740000Y-54630000D03*
D13*
X78740000Y-57170000D03*
X78740000Y-59710000D03*
D18*
X56638700Y-70680500D03*
X59784600Y-97768300D03*
X64925600Y-73614100D03*
X72114800Y-94150400D03*
X57879200Y-71421500D03*
X71512200Y-90435700D03*
X74609800Y-86360000D03*
X73725100Y-83916600D03*
X73439300Y-70292800D03*
X82258800Y-63675000D03*
D19*
X62299700Y-69024700D02*
X62299700Y-68065400D01*
X79956200Y-68097200D02*
X79099300Y-67240300D01*
X56570000Y-79280000D02*
X56570000Y-85090000D01*
X63500000Y-66040000D02*
X64700300Y-66040000D01*
X63124800Y-67240300D02*
X63500000Y-67240300D01*
X72385000Y-55875000D02*
X71120000Y-54610000D01*
X57110000Y-74971600D02*
X59614400Y-72467200D01*
X79115100Y-69919700D02*
X79956200Y-69078600D01*
X59614400Y-70633900D02*
X60398300Y-69850000D01*
X63500000Y-66040000D02*
X63500000Y-67240300D01*
X60398300Y-69850000D02*
X61474400Y-69850000D01*
X78740000Y-71120000D02*
X78740000Y-69919700D01*
X78740000Y-69919700D02*
X79115100Y-69919700D01*
X57110000Y-78740000D02*
X56570000Y-79280000D01*
X57110000Y-78740000D02*
X57110000Y-74971600D01*
X62299700Y-68065400D02*
X63124800Y-67240300D01*
X72385000Y-66040000D02*
X64700300Y-66040000D01*
X59614400Y-72467200D02*
X59614400Y-70633900D01*
X79956200Y-69078600D02*
X79956200Y-68097200D01*
X73585300Y-67240300D02*
X72385000Y-66040000D01*
X72385000Y-66040000D02*
X72385000Y-55875000D01*
X61474400Y-69850000D02*
X62299700Y-69024700D01*
X79099300Y-67240300D02*
X73585300Y-67240300D01*
D20*
X77587300Y-81727500D02*
X78504500Y-82644700D01*
X63500000Y-71120000D02*
X64625300Y-71120000D01*
X78418300Y-80010000D02*
X77587300Y-80841000D01*
X79876900Y-78217900D02*
X79876900Y-79205400D01*
X64625300Y-71120000D02*
X70975300Y-77470000D01*
X80104700Y-83526100D02*
X80104700Y-83820000D01*
X79129000Y-77470000D02*
X79876900Y-78217900D01*
X79072300Y-80010000D02*
X78418300Y-80010000D01*
X79223300Y-82644700D02*
X80104700Y-83526100D01*
X70975300Y-77470000D02*
X79129000Y-77470000D01*
X78504500Y-82644700D02*
X79223300Y-82644700D01*
X79876900Y-79205400D02*
X79072300Y-80010000D01*
X77587300Y-80841000D02*
X77587300Y-81727500D01*
X81280000Y-83820000D02*
X80104700Y-83820000D01*
X56638700Y-70680500D02*
X56638700Y-64814300D01*
X63495000Y-57150000D02*
X63495000Y-58325300D01*
X56638700Y-64814300D02*
X63127700Y-58325300D01*
X63127700Y-58325300D02*
X63495000Y-58325300D01*
X59294300Y-83823400D02*
X59294300Y-97278000D01*
X60567700Y-82550000D02*
X59294300Y-83823400D01*
X62374700Y-81624800D02*
X61449500Y-82550000D01*
X63500000Y-76200000D02*
X63500000Y-77325300D01*
X59294300Y-97278000D02*
X59784600Y-97768300D01*
X61449500Y-82550000D02*
X60567700Y-82550000D01*
X63500000Y-77325300D02*
X63218600Y-77325300D01*
X63218600Y-77325300D02*
X62374700Y-78169200D01*
X62374700Y-78169200D02*
X62374700Y-81624800D01*
X63500000Y-78740000D02*
X64925600Y-77314400D01*
X64925600Y-77314400D02*
X64925600Y-73614100D01*
D19*
X63495000Y-59690000D02*
X66035000Y-59690000D01*
X69780300Y-78740000D02*
X64700300Y-83820000D01*
X78740000Y-78740000D02*
X77539700Y-78740000D01*
X68575000Y-59690000D02*
X71115000Y-59690000D01*
X63500000Y-83820000D02*
X64700300Y-83820000D01*
X66035000Y-59690000D02*
X68575000Y-59690000D01*
X77539700Y-78740000D02*
X69780300Y-78740000D01*
D20*
X78958900Y-87485300D02*
X65750600Y-87485300D01*
X80104700Y-88631100D02*
X78958900Y-87485300D01*
X80104700Y-88900000D02*
X80104700Y-88631100D01*
X63500000Y-86360000D02*
X64625300Y-86360000D01*
X65750600Y-87485300D02*
X64625300Y-86360000D01*
X81280000Y-88900000D02*
X80104700Y-88900000D01*
X72906500Y-90103100D02*
X71703400Y-88900000D01*
X71703400Y-88900000D02*
X64625300Y-88900000D01*
X63500000Y-88900000D02*
X64625300Y-88900000D01*
X80104700Y-91440000D02*
X80104700Y-91146100D01*
X81280000Y-91440000D02*
X80104700Y-91440000D01*
X80104700Y-91146100D02*
X79061700Y-90103100D01*
X79061700Y-90103100D02*
X72906500Y-90103100D01*
X81280000Y-93980000D02*
X80104700Y-93980000D01*
X71812700Y-89710400D02*
X66354900Y-89710400D01*
X80104700Y-93711800D02*
X79102900Y-92710000D01*
X66354900Y-89710400D02*
X64625300Y-91440000D01*
X74812300Y-92710000D02*
X71812700Y-89710400D01*
X80104700Y-93980000D02*
X80104700Y-93711800D01*
X79102900Y-92710000D02*
X74812300Y-92710000D01*
X63500000Y-91440000D02*
X64625300Y-91440000D01*
X64625300Y-93980000D02*
X70244300Y-93980000D01*
X73959600Y-97695300D02*
X79223300Y-97695300D01*
X80104700Y-96813900D02*
X80104700Y-96520000D01*
X79223300Y-97695300D02*
X80104700Y-96813900D01*
X70244300Y-93980000D02*
X73959600Y-97695300D01*
X81280000Y-96520000D02*
X80104700Y-96520000D01*
X63500000Y-93980000D02*
X64625300Y-93980000D01*
X81280000Y-99060000D02*
X80104700Y-99060000D01*
X79245500Y-100190800D02*
X80104700Y-99331600D01*
X63500000Y-96520000D02*
X68007700Y-96520000D01*
X80104700Y-99331600D02*
X80104700Y-99060000D01*
X68007700Y-96520000D02*
X71678500Y-100190800D01*
X71678500Y-100190800D02*
X79245500Y-100190800D01*
X80104700Y-101868900D02*
X79248300Y-102725300D01*
X79248300Y-102725300D02*
X68290600Y-102725300D01*
X63500000Y-99060000D02*
X64625300Y-99060000D01*
X80104700Y-101600000D02*
X80104700Y-101868900D01*
X81280000Y-101600000D02*
X80104700Y-101600000D01*
X68290600Y-102725300D02*
X64625300Y-99060000D01*
X81280000Y-104140000D02*
X81280000Y-102964700D01*
X81680100Y-95250000D02*
X73214400Y-95250000D01*
X82455300Y-102156800D02*
X82455300Y-96025200D01*
X81280000Y-102964700D02*
X81647400Y-102964700D01*
X82455300Y-96025200D02*
X81680100Y-95250000D01*
X73214400Y-95250000D02*
X72114800Y-94150400D01*
X81647400Y-102964700D02*
X82455300Y-102156800D01*
X66036600Y-105551300D02*
X64625300Y-104140000D01*
X79258300Y-105551300D02*
X66036600Y-105551300D01*
X63500000Y-104140000D02*
X64625300Y-104140000D01*
X81280000Y-106680000D02*
X80104700Y-106680000D01*
X80104700Y-106680000D02*
X80104700Y-106397700D01*
X80104700Y-106397700D02*
X79258300Y-105551300D01*
X65990000Y-108044700D02*
X79223300Y-108044700D01*
X64625300Y-106680000D02*
X65990000Y-108044700D01*
X63500000Y-106680000D02*
X64625300Y-106680000D01*
X80104700Y-108926100D02*
X80104700Y-109220000D01*
X81280000Y-109220000D02*
X80104700Y-109220000D01*
X79223300Y-108044700D02*
X80104700Y-108926100D01*
X80104700Y-111760000D02*
X80104700Y-111466100D01*
X63500000Y-109220000D02*
X64625300Y-109220000D01*
X65990000Y-110584700D02*
X64625300Y-109220000D01*
X79223300Y-110584700D02*
X65990000Y-110584700D01*
X80104700Y-111466100D02*
X79223300Y-110584700D01*
X81280000Y-111760000D02*
X80104700Y-111760000D01*
X63500000Y-111760000D02*
X64625300Y-111760000D01*
X80104700Y-114047900D02*
X80104700Y-114300000D01*
X78942100Y-112885300D02*
X80104700Y-114047900D01*
X64625300Y-111760000D02*
X65750600Y-112885300D01*
X81280000Y-114300000D02*
X80104700Y-114300000D01*
X65750600Y-112885300D02*
X78942100Y-112885300D01*
X62374700Y-114581300D02*
X61480500Y-115475500D01*
X62374700Y-114300000D02*
X62374700Y-114581300D01*
X58604500Y-71722000D02*
X58604500Y-69056600D01*
X63500000Y-114300000D02*
X62374700Y-114300000D01*
X53472200Y-108547500D02*
X53472200Y-76854300D01*
X61480500Y-115475500D02*
X60400200Y-115475500D01*
X60400200Y-115475500D02*
X53472200Y-108547500D01*
X60960000Y-66040000D02*
X60960000Y-67215300D01*
X58604500Y-69056600D02*
X60445800Y-67215300D01*
X53472200Y-76854300D02*
X58604500Y-71722000D01*
X60445800Y-67215300D02*
X60960000Y-67215300D01*
X59054800Y-69309900D02*
X59784700Y-68580000D01*
X60960000Y-68580000D02*
X59784700Y-68580000D01*
X59054800Y-71908600D02*
X59054800Y-69309900D01*
X55795300Y-75168100D02*
X59054800Y-71908600D01*
X64036000Y-110495800D02*
X60573400Y-110495800D01*
X55795300Y-84556000D02*
X55795300Y-75168100D01*
X55600100Y-105522500D02*
X55600100Y-84751200D01*
X65300200Y-111760000D02*
X64036000Y-110495800D01*
X60573400Y-110495800D02*
X55600100Y-105522500D01*
X78740000Y-111760000D02*
X65300200Y-111760000D01*
X55600100Y-84751200D02*
X55795300Y-84556000D01*
X53021700Y-108753300D02*
X53021700Y-76279000D01*
X60243600Y-115975200D02*
X53021700Y-108753300D01*
X78740000Y-109220000D02*
X80010000Y-110490000D01*
X80010000Y-110490000D02*
X81691300Y-110490000D01*
X81691300Y-110490000D02*
X82455400Y-111254100D01*
X53021700Y-76279000D02*
X57879200Y-71421500D01*
X81311200Y-115975200D02*
X60243600Y-115975200D01*
X82455400Y-111254100D02*
X82455400Y-114831000D01*
X82455400Y-114831000D02*
X81311200Y-115975200D01*
X60592700Y-74835300D02*
X60960000Y-74835300D01*
X63910600Y-105290400D02*
X62979900Y-105290400D01*
X58368400Y-100678500D02*
X58368400Y-77059600D01*
X58368400Y-77059600D02*
X60592700Y-74835300D01*
X60559900Y-102870000D02*
X58368400Y-100678500D01*
X61408700Y-102870000D02*
X60559900Y-102870000D01*
X60960000Y-73660000D02*
X60960000Y-74835300D01*
X62170800Y-103632100D02*
X61408700Y-102870000D01*
X62979900Y-105290400D02*
X62170800Y-104481300D01*
X78740000Y-106680000D02*
X65300200Y-106680000D01*
X62170800Y-104481300D02*
X62170800Y-103632100D01*
X65300200Y-106680000D02*
X63910600Y-105290400D01*
X58818800Y-98641200D02*
X58818800Y-78341200D01*
X78740000Y-104140000D02*
X68022800Y-104140000D01*
X58818800Y-78341200D02*
X60960000Y-76200000D01*
X68022800Y-104140000D02*
X64212800Y-100330000D01*
X60507600Y-100330000D02*
X58818800Y-98641200D01*
X64212800Y-100330000D02*
X60507600Y-100330000D01*
X63016700Y-97695300D02*
X62135300Y-96813900D01*
X65739800Y-97695300D02*
X63016700Y-97695300D01*
X69644500Y-101600000D02*
X65739800Y-97695300D01*
X62135300Y-96813900D02*
X62135300Y-96520000D01*
X60960000Y-96520000D02*
X62135300Y-96520000D01*
X78740000Y-101600000D02*
X69644500Y-101600000D01*
X60592600Y-90075300D02*
X60960000Y-90075300D01*
X59784700Y-90883200D02*
X60592600Y-90075300D01*
X60960000Y-88900000D02*
X60960000Y-90075300D01*
X71502900Y-99060000D02*
X67692900Y-95250000D01*
X62374600Y-94478700D02*
X62374600Y-93730400D01*
X78740000Y-99060000D02*
X71502900Y-99060000D01*
X59784700Y-92010900D02*
X59784700Y-90883200D01*
X62374600Y-93730400D02*
X61354200Y-92710000D01*
X60483800Y-92710000D02*
X59784700Y-92010900D01*
X61354200Y-92710000D02*
X60483800Y-92710000D01*
X67692900Y-95250000D02*
X63145900Y-95250000D01*
X63145900Y-95250000D02*
X62374600Y-94478700D01*
X60960000Y-87535300D02*
X61327400Y-87535300D01*
X63233700Y-92800300D02*
X69701500Y-92800300D01*
X73421200Y-96520000D02*
X77614700Y-96520000D01*
X78740000Y-96520000D02*
X77614700Y-96520000D01*
X69701500Y-92800300D02*
X73421200Y-96520000D01*
X61327400Y-87535300D02*
X62135300Y-88343200D01*
X60960000Y-86360000D02*
X60960000Y-87535300D01*
X62135300Y-88343200D02*
X62135300Y-91701900D01*
X62135300Y-91701900D02*
X63233700Y-92800300D01*
X78740000Y-93980000D02*
X75056500Y-93980000D01*
X75056500Y-93980000D02*
X71512200Y-90435700D01*
X78740000Y-91440000D02*
X79923900Y-92623900D01*
X60960000Y-83820000D02*
X62135300Y-83820000D01*
X79236900Y-85179900D02*
X63201400Y-85179900D01*
X79974700Y-86798100D02*
X79974700Y-85917700D01*
X79923900Y-92623900D02*
X81759300Y-92623900D01*
X82457600Y-88396600D02*
X81785600Y-87724600D01*
X82457600Y-91925600D02*
X82457600Y-88396600D01*
X62135300Y-84113800D02*
X62135300Y-83820000D01*
X63201400Y-85179900D02*
X62135300Y-84113800D01*
X80901200Y-87724600D02*
X79974700Y-86798100D01*
X81785600Y-87724600D02*
X80901200Y-87724600D01*
X81759300Y-92623900D02*
X82457600Y-91925600D01*
X79974700Y-85917700D02*
X79236900Y-85179900D01*
X78740000Y-86360000D02*
X74609800Y-86360000D01*
X78740000Y-83820000D02*
X73821700Y-83820000D01*
X73821700Y-83820000D02*
X73725100Y-83916600D01*
X79865300Y-81280000D02*
X79865300Y-80998700D01*
X78740000Y-81280000D02*
X79865300Y-81280000D01*
X79865300Y-80998700D02*
X80854000Y-80010000D01*
X82489700Y-79211600D02*
X82489700Y-67249700D01*
X80854000Y-80010000D02*
X81691300Y-80010000D01*
X82489700Y-67249700D02*
X81280000Y-66040000D01*
X81691300Y-80010000D02*
X82489700Y-79211600D01*
X78740000Y-75074700D02*
X78221200Y-75074700D01*
X78740000Y-76200000D02*
X78740000Y-75074700D01*
X78221200Y-75074700D02*
X73439300Y-70292800D01*
X63271200Y-69705300D02*
X62135300Y-70841200D01*
X73001100Y-69705300D02*
X63271200Y-69705300D01*
X61327400Y-77564700D02*
X60960000Y-77564700D01*
X60960000Y-78740000D02*
X60960000Y-77564700D01*
X62135300Y-70841200D02*
X62135300Y-76756800D01*
X62135300Y-76756800D02*
X61327400Y-77564700D01*
X77614700Y-68580000D02*
X74126400Y-68580000D01*
X78740000Y-68580000D02*
X77614700Y-68580000D01*
X74126400Y-68580000D02*
X73001100Y-69705300D01*
X79865300Y-66884000D02*
X80386000Y-67404700D01*
X81280000Y-68580000D02*
X81280000Y-67404700D01*
X78740000Y-66040000D02*
X79865300Y-66040000D01*
X80386000Y-67404700D02*
X81280000Y-67404700D01*
X79865300Y-66040000D02*
X79865300Y-66884000D01*
X82258800Y-63675000D02*
X82258800Y-61496800D01*
X78740000Y-57170000D02*
X78740000Y-58345300D01*
X79107300Y-58345300D02*
X78740000Y-58345300D01*
X82258800Y-61496800D02*
X79107300Y-58345300D01*
G04 #@! TA.AperFunction,Conductor*
G36*
X90112121Y-52090002D02*
G01*
X90158614Y-52143658D01*
X90170000Y-52196000D01*
X90170000Y-125604000D01*
X90149998Y-125672121D01*
X90096342Y-125718614D01*
X90044000Y-125730000D01*
X52196000Y-125730000D01*
X52127879Y-125709998D01*
X52081386Y-125656342D01*
X52070000Y-125604000D01*
X52070000Y-122132703D01*
X53690743Y-122132703D01*
X53728268Y-122417734D01*
X53804129Y-122695036D01*
X53916923Y-122959476D01*
X54064561Y-123206161D01*
X54244313Y-123430528D01*
X54452851Y-123628423D01*
X54686317Y-123796186D01*
X54690112Y-123798195D01*
X54690113Y-123798196D01*
X54711869Y-123809715D01*
X54940392Y-123930712D01*
X55210373Y-124029511D01*
X55491264Y-124090755D01*
X55519841Y-124093004D01*
X55714282Y-124108307D01*
X55714291Y-124108307D01*
X55716739Y-124108500D01*
X55872271Y-124108500D01*
X55874407Y-124108354D01*
X55874418Y-124108354D01*
X56082548Y-124094165D01*
X56082554Y-124094164D01*
X56086825Y-124093873D01*
X56091020Y-124093004D01*
X56091022Y-124093004D01*
X56227583Y-124064724D01*
X56368342Y-124035574D01*
X56639343Y-123939607D01*
X56894812Y-123807750D01*
X56898313Y-123805289D01*
X56898317Y-123805287D01*
X57012418Y-123725095D01*
X57130023Y-123642441D01*
X57340622Y-123446740D01*
X57522713Y-123224268D01*
X57672927Y-122979142D01*
X57788483Y-122715898D01*
X57867244Y-122439406D01*
X57907751Y-122154784D01*
X57907845Y-122136951D01*
X57907867Y-122132703D01*
X84330743Y-122132703D01*
X84368268Y-122417734D01*
X84444129Y-122695036D01*
X84556923Y-122959476D01*
X84704561Y-123206161D01*
X84884313Y-123430528D01*
X85092851Y-123628423D01*
X85326317Y-123796186D01*
X85330112Y-123798195D01*
X85330113Y-123798196D01*
X85351869Y-123809715D01*
X85580392Y-123930712D01*
X85850373Y-124029511D01*
X86131264Y-124090755D01*
X86159841Y-124093004D01*
X86354282Y-124108307D01*
X86354291Y-124108307D01*
X86356739Y-124108500D01*
X86512271Y-124108500D01*
X86514407Y-124108354D01*
X86514418Y-124108354D01*
X86722548Y-124094165D01*
X86722554Y-124094164D01*
X86726825Y-124093873D01*
X86731020Y-124093004D01*
X86731022Y-124093004D01*
X86867583Y-124064724D01*
X87008342Y-124035574D01*
X87279343Y-123939607D01*
X87534812Y-123807750D01*
X87538313Y-123805289D01*
X87538317Y-123805287D01*
X87652418Y-123725095D01*
X87770023Y-123642441D01*
X87980622Y-123446740D01*
X88162713Y-123224268D01*
X88312927Y-122979142D01*
X88428483Y-122715898D01*
X88507244Y-122439406D01*
X88547751Y-122154784D01*
X88547845Y-122136951D01*
X88549235Y-121871583D01*
X88549235Y-121871576D01*
X88549257Y-121867297D01*
X88511732Y-121582266D01*
X88435871Y-121304964D01*
X88323077Y-121040524D01*
X88175439Y-120793839D01*
X87995687Y-120569472D01*
X87787149Y-120371577D01*
X87553683Y-120203814D01*
X87531843Y-120192250D01*
X87508654Y-120179972D01*
X87299608Y-120069288D01*
X87029627Y-119970489D01*
X86748736Y-119909245D01*
X86717685Y-119906801D01*
X86525718Y-119891693D01*
X86525709Y-119891693D01*
X86523261Y-119891500D01*
X86367729Y-119891500D01*
X86365593Y-119891646D01*
X86365582Y-119891646D01*
X86157452Y-119905835D01*
X86157446Y-119905836D01*
X86153175Y-119906127D01*
X86148980Y-119906996D01*
X86148978Y-119906996D01*
X86012416Y-119935277D01*
X85871658Y-119964426D01*
X85600657Y-120060393D01*
X85345188Y-120192250D01*
X85341687Y-120194711D01*
X85341683Y-120194713D01*
X85331594Y-120201804D01*
X85109977Y-120357559D01*
X84899378Y-120553260D01*
X84717287Y-120775732D01*
X84567073Y-121020858D01*
X84451517Y-121284102D01*
X84372756Y-121560594D01*
X84332249Y-121845216D01*
X84332227Y-121849505D01*
X84332226Y-121849512D01*
X84330765Y-122128417D01*
X84330743Y-122132703D01*
X57907867Y-122132703D01*
X57909235Y-121871583D01*
X57909235Y-121871576D01*
X57909257Y-121867297D01*
X57871732Y-121582266D01*
X57795871Y-121304964D01*
X57683077Y-121040524D01*
X57535439Y-120793839D01*
X57355687Y-120569472D01*
X57147149Y-120371577D01*
X56913683Y-120203814D01*
X56891843Y-120192250D01*
X56868654Y-120179972D01*
X56659608Y-120069288D01*
X56389627Y-119970489D01*
X56108736Y-119909245D01*
X56077685Y-119906801D01*
X55885718Y-119891693D01*
X55885709Y-119891693D01*
X55883261Y-119891500D01*
X55727729Y-119891500D01*
X55725593Y-119891646D01*
X55725582Y-119891646D01*
X55517452Y-119905835D01*
X55517446Y-119905836D01*
X55513175Y-119906127D01*
X55508980Y-119906996D01*
X55508978Y-119906996D01*
X55372416Y-119935277D01*
X55231658Y-119964426D01*
X54960657Y-120060393D01*
X54705188Y-120192250D01*
X54701687Y-120194711D01*
X54701683Y-120194713D01*
X54691594Y-120201804D01*
X54469977Y-120357559D01*
X54259378Y-120553260D01*
X54077287Y-120775732D01*
X53927073Y-121020858D01*
X53811517Y-121284102D01*
X53732756Y-121560594D01*
X53692249Y-121845216D01*
X53692227Y-121849505D01*
X53692226Y-121849512D01*
X53690765Y-122128417D01*
X53690743Y-122132703D01*
X52070000Y-122132703D01*
X52070000Y-76258943D01*
X52383480Y-76258943D01*
X52384226Y-76266835D01*
X52387641Y-76302961D01*
X52388200Y-76314819D01*
X52388200Y-108674533D01*
X52387673Y-108685716D01*
X52385998Y-108693209D01*
X52386247Y-108701135D01*
X52386247Y-108701136D01*
X52388138Y-108761286D01*
X52388200Y-108765245D01*
X52388200Y-108793156D01*
X52388697Y-108797090D01*
X52388697Y-108797091D01*
X52388705Y-108797156D01*
X52389638Y-108808993D01*
X52391027Y-108853189D01*
X52396678Y-108872639D01*
X52400687Y-108892000D01*
X52403226Y-108912097D01*
X52406145Y-108919468D01*
X52406145Y-108919470D01*
X52419504Y-108953212D01*
X52423349Y-108964442D01*
X52435682Y-109006893D01*
X52439715Y-109013712D01*
X52439717Y-109013717D01*
X52445993Y-109024328D01*
X52454688Y-109042076D01*
X52462148Y-109060917D01*
X52466810Y-109067333D01*
X52466810Y-109067334D01*
X52488136Y-109096687D01*
X52494652Y-109106607D01*
X52517158Y-109144662D01*
X52531479Y-109158983D01*
X52544319Y-109174016D01*
X52556228Y-109190407D01*
X52562334Y-109195458D01*
X52590305Y-109218598D01*
X52599084Y-109226588D01*
X59739948Y-116367453D01*
X59747488Y-116375739D01*
X59751600Y-116382218D01*
X59757377Y-116387643D01*
X59801251Y-116428843D01*
X59804093Y-116431598D01*
X59823830Y-116451335D01*
X59827027Y-116453815D01*
X59836047Y-116461518D01*
X59868279Y-116491786D01*
X59875225Y-116495605D01*
X59875228Y-116495607D01*
X59886034Y-116501548D01*
X59902553Y-116512399D01*
X59918559Y-116524814D01*
X59925828Y-116527959D01*
X59925832Y-116527962D01*
X59959137Y-116542374D01*
X59969787Y-116547591D01*
X60008540Y-116568895D01*
X60016215Y-116570866D01*
X60016216Y-116570866D01*
X60028162Y-116573933D01*
X60046867Y-116580337D01*
X60065455Y-116588381D01*
X60073278Y-116589620D01*
X60073288Y-116589623D01*
X60109124Y-116595299D01*
X60120744Y-116597705D01*
X60152559Y-116605873D01*
X60163570Y-116608700D01*
X60183824Y-116608700D01*
X60203534Y-116610251D01*
X60223543Y-116613420D01*
X60231435Y-116612674D01*
X60250180Y-116610902D01*
X60267562Y-116609259D01*
X60279419Y-116608700D01*
X81232433Y-116608700D01*
X81243616Y-116609227D01*
X81251109Y-116610902D01*
X81259035Y-116610653D01*
X81259036Y-116610653D01*
X81319186Y-116608762D01*
X81323145Y-116608700D01*
X81351056Y-116608700D01*
X81354991Y-116608203D01*
X81355056Y-116608195D01*
X81366893Y-116607262D01*
X81399151Y-116606248D01*
X81403170Y-116606122D01*
X81411089Y-116605873D01*
X81430543Y-116600221D01*
X81449900Y-116596213D01*
X81462130Y-116594668D01*
X81462131Y-116594668D01*
X81469997Y-116593674D01*
X81477368Y-116590755D01*
X81477370Y-116590755D01*
X81511112Y-116577396D01*
X81522342Y-116573551D01*
X81557183Y-116563429D01*
X81557184Y-116563429D01*
X81564793Y-116561218D01*
X81571612Y-116557185D01*
X81571617Y-116557183D01*
X81582228Y-116550907D01*
X81599976Y-116542212D01*
X81618817Y-116534752D01*
X81654587Y-116508764D01*
X81664507Y-116502248D01*
X81695735Y-116483780D01*
X81695738Y-116483778D01*
X81702562Y-116479742D01*
X81716883Y-116465421D01*
X81731917Y-116452580D01*
X81741894Y-116445331D01*
X81748307Y-116440672D01*
X81776498Y-116406595D01*
X81784488Y-116397816D01*
X82847647Y-115334657D01*
X82855937Y-115327113D01*
X82862418Y-115323000D01*
X82909059Y-115273332D01*
X82911813Y-115270491D01*
X82931534Y-115250770D01*
X82934012Y-115247575D01*
X82941718Y-115238553D01*
X82966558Y-115212101D01*
X82971986Y-115206321D01*
X82981746Y-115188568D01*
X82992599Y-115172045D01*
X83000153Y-115162306D01*
X83005013Y-115156041D01*
X83022576Y-115115457D01*
X83027783Y-115104827D01*
X83049095Y-115066060D01*
X83051066Y-115058383D01*
X83051068Y-115058378D01*
X83054132Y-115046442D01*
X83060538Y-115027730D01*
X83065433Y-115016419D01*
X83068581Y-115009145D01*
X83069821Y-115001317D01*
X83069823Y-115001310D01*
X83075499Y-114965476D01*
X83077905Y-114953856D01*
X83086928Y-114918711D01*
X83086928Y-114918710D01*
X83088900Y-114911030D01*
X83088900Y-114890776D01*
X83090451Y-114871065D01*
X83092380Y-114858886D01*
X83093620Y-114851057D01*
X83089459Y-114807038D01*
X83088900Y-114795181D01*
X83088900Y-111332868D01*
X83089427Y-111321685D01*
X83091102Y-111314192D01*
X83088962Y-111246101D01*
X83088900Y-111242144D01*
X83088900Y-111214244D01*
X83088396Y-111210253D01*
X83087463Y-111198411D01*
X83086323Y-111162136D01*
X83086074Y-111154211D01*
X83080421Y-111134752D01*
X83076412Y-111115393D01*
X83076246Y-111114083D01*
X83073874Y-111095303D01*
X83070958Y-111087937D01*
X83070956Y-111087931D01*
X83057600Y-111054198D01*
X83053755Y-111042968D01*
X83043630Y-111008117D01*
X83043630Y-111008116D01*
X83041419Y-111000507D01*
X83031105Y-110983066D01*
X83022408Y-110965313D01*
X83017872Y-110953858D01*
X83014952Y-110946483D01*
X82988963Y-110910712D01*
X82982447Y-110900792D01*
X82959942Y-110862738D01*
X82945621Y-110848417D01*
X82932780Y-110833383D01*
X82925532Y-110823407D01*
X82920872Y-110816993D01*
X82886801Y-110788807D01*
X82878022Y-110780818D01*
X82344700Y-110247496D01*
X82310674Y-110185184D01*
X82315739Y-110114369D01*
X82331472Y-110084875D01*
X82445435Y-109926277D01*
X82448453Y-109922077D01*
X82470856Y-109876749D01*
X82545136Y-109726453D01*
X82545137Y-109726451D01*
X82547430Y-109721811D01*
X82612370Y-109508069D01*
X82641529Y-109286590D01*
X82643156Y-109220000D01*
X82624852Y-108997361D01*
X82570431Y-108780702D01*
X82481354Y-108575840D01*
X82431229Y-108498358D01*
X82362822Y-108392617D01*
X82362820Y-108392614D01*
X82360014Y-108388277D01*
X82209670Y-108223051D01*
X82205619Y-108219852D01*
X82205615Y-108219848D01*
X82038414Y-108087800D01*
X82038410Y-108087798D01*
X82034359Y-108084598D01*
X81993053Y-108061796D01*
X81943084Y-108011364D01*
X81928312Y-107941921D01*
X81953428Y-107875516D01*
X81980780Y-107848909D01*
X82029207Y-107814366D01*
X82159860Y-107721173D01*
X82191788Y-107689357D01*
X82314435Y-107567137D01*
X82318096Y-107563489D01*
X82349498Y-107519789D01*
X82445435Y-107386277D01*
X82448453Y-107382077D01*
X82453991Y-107370873D01*
X82545136Y-107186453D01*
X82545137Y-107186451D01*
X82547430Y-107181811D01*
X82612370Y-106968069D01*
X82641529Y-106746590D01*
X82643156Y-106680000D01*
X82624852Y-106457361D01*
X82570431Y-106240702D01*
X82481354Y-106035840D01*
X82425689Y-105949795D01*
X82362822Y-105852617D01*
X82362820Y-105852614D01*
X82360014Y-105848277D01*
X82209670Y-105683051D01*
X82205619Y-105679852D01*
X82205615Y-105679848D01*
X82038414Y-105547800D01*
X82038410Y-105547798D01*
X82034359Y-105544598D01*
X81993053Y-105521796D01*
X81943084Y-105471364D01*
X81928312Y-105401921D01*
X81953428Y-105335516D01*
X81980780Y-105308909D01*
X82049215Y-105260095D01*
X82159860Y-105181173D01*
X82182064Y-105159047D01*
X82266239Y-105075165D01*
X82318096Y-105023489D01*
X82377594Y-104940689D01*
X82445435Y-104846277D01*
X82448453Y-104842077D01*
X82469693Y-104799102D01*
X82545136Y-104646453D01*
X82545137Y-104646451D01*
X82547430Y-104641811D01*
X82612370Y-104428069D01*
X82641529Y-104206590D01*
X82643156Y-104140000D01*
X82624852Y-103917361D01*
X82570431Y-103700702D01*
X82481354Y-103495840D01*
X82360014Y-103308277D01*
X82357382Y-103305384D01*
X82331800Y-103239545D01*
X82345947Y-103169972D01*
X82368250Y-103139754D01*
X82847547Y-102660457D01*
X82855837Y-102652913D01*
X82862318Y-102648800D01*
X82908959Y-102599132D01*
X82911713Y-102596291D01*
X82931434Y-102576570D01*
X82933912Y-102573375D01*
X82941618Y-102564353D01*
X82948057Y-102557496D01*
X82971886Y-102532121D01*
X82981646Y-102514368D01*
X82992499Y-102497845D01*
X83000053Y-102488106D01*
X83004913Y-102481841D01*
X83022476Y-102441257D01*
X83027683Y-102430627D01*
X83048995Y-102391860D01*
X83050966Y-102384183D01*
X83050968Y-102384178D01*
X83054032Y-102372242D01*
X83060438Y-102353530D01*
X83065333Y-102342219D01*
X83068481Y-102334945D01*
X83069721Y-102327117D01*
X83069723Y-102327110D01*
X83075399Y-102291276D01*
X83077805Y-102279656D01*
X83086828Y-102244511D01*
X83086828Y-102244510D01*
X83088800Y-102236830D01*
X83088800Y-102216576D01*
X83090351Y-102196865D01*
X83092280Y-102184686D01*
X83093520Y-102176857D01*
X83089359Y-102132838D01*
X83088800Y-102120981D01*
X83088800Y-96103963D01*
X83089327Y-96092779D01*
X83091001Y-96085291D01*
X83088862Y-96017232D01*
X83088800Y-96013275D01*
X83088800Y-95985344D01*
X83088294Y-95981338D01*
X83087361Y-95969492D01*
X83086222Y-95933237D01*
X83085973Y-95925310D01*
X83080322Y-95905858D01*
X83076314Y-95886506D01*
X83074767Y-95874263D01*
X83073774Y-95866403D01*
X83070856Y-95859032D01*
X83057500Y-95825297D01*
X83053655Y-95814070D01*
X83053021Y-95811887D01*
X83041318Y-95771607D01*
X83037284Y-95764785D01*
X83037281Y-95764779D01*
X83031006Y-95754168D01*
X83022310Y-95736418D01*
X83017772Y-95724956D01*
X83017769Y-95724951D01*
X83014852Y-95717583D01*
X83002201Y-95700170D01*
X82988873Y-95681825D01*
X82982357Y-95671907D01*
X82963875Y-95640657D01*
X82959842Y-95633837D01*
X82945518Y-95619513D01*
X82932676Y-95604478D01*
X82920772Y-95588093D01*
X82886706Y-95559911D01*
X82877927Y-95551922D01*
X82340017Y-95014012D01*
X82305991Y-94951700D01*
X82311056Y-94880885D01*
X82326789Y-94851391D01*
X82332832Y-94842982D01*
X82448453Y-94682077D01*
X82461191Y-94656305D01*
X82545136Y-94486453D01*
X82545137Y-94486451D01*
X82547430Y-94481811D01*
X82612370Y-94268069D01*
X82641529Y-94046590D01*
X82643156Y-93980000D01*
X82624852Y-93757361D01*
X82570431Y-93540702D01*
X82481354Y-93335840D01*
X82360014Y-93148277D01*
X82356532Y-93144450D01*
X82331718Y-93117179D01*
X82300667Y-93053332D01*
X82309064Y-92982834D01*
X82335818Y-92943286D01*
X82849847Y-92429257D01*
X82858137Y-92421713D01*
X82864618Y-92417600D01*
X82911259Y-92367932D01*
X82914013Y-92365091D01*
X82933734Y-92345370D01*
X82936212Y-92342175D01*
X82943918Y-92333153D01*
X82968758Y-92306701D01*
X82974186Y-92300921D01*
X82983946Y-92283168D01*
X82994799Y-92266645D01*
X83002353Y-92256906D01*
X83007213Y-92250641D01*
X83024776Y-92210057D01*
X83029983Y-92199427D01*
X83051295Y-92160660D01*
X83053266Y-92152983D01*
X83053268Y-92152978D01*
X83056332Y-92141042D01*
X83062738Y-92122330D01*
X83067634Y-92111017D01*
X83070781Y-92103745D01*
X83072461Y-92093142D01*
X83077697Y-92060081D01*
X83080104Y-92048460D01*
X83089128Y-92013311D01*
X83089128Y-92013310D01*
X83091100Y-92005630D01*
X83091100Y-91985369D01*
X83092651Y-91965658D01*
X83094579Y-91953485D01*
X83095819Y-91945657D01*
X83091659Y-91901646D01*
X83091100Y-91889789D01*
X83091100Y-88475368D01*
X83091627Y-88464185D01*
X83093302Y-88456692D01*
X83091162Y-88388601D01*
X83091100Y-88384644D01*
X83091100Y-88356744D01*
X83090596Y-88352753D01*
X83089663Y-88340911D01*
X83088576Y-88306305D01*
X83088274Y-88296711D01*
X83082621Y-88277252D01*
X83078612Y-88257893D01*
X83077172Y-88246498D01*
X83076074Y-88237803D01*
X83073158Y-88230437D01*
X83073156Y-88230431D01*
X83059800Y-88196698D01*
X83055955Y-88185468D01*
X83045830Y-88150617D01*
X83045830Y-88150616D01*
X83043619Y-88143007D01*
X83033305Y-88125566D01*
X83024608Y-88107813D01*
X83020072Y-88096358D01*
X83017152Y-88088983D01*
X82996248Y-88060211D01*
X82991163Y-88053212D01*
X82984647Y-88043292D01*
X82962142Y-88005238D01*
X82947821Y-87990917D01*
X82934980Y-87975883D01*
X82928927Y-87967551D01*
X82923072Y-87959493D01*
X82889007Y-87931312D01*
X82880226Y-87923322D01*
X82344214Y-87387309D01*
X82310189Y-87324997D01*
X82315254Y-87254181D01*
X82330988Y-87224687D01*
X82445007Y-87066013D01*
X82450313Y-87057183D01*
X82544670Y-86866267D01*
X82548469Y-86856672D01*
X82610377Y-86652910D01*
X82612555Y-86642837D01*
X82613986Y-86631962D01*
X82611775Y-86617778D01*
X82598617Y-86614000D01*
X81152000Y-86614000D01*
X81083879Y-86593998D01*
X81037386Y-86540342D01*
X81026000Y-86488000D01*
X81026000Y-86232000D01*
X81046002Y-86163879D01*
X81099658Y-86117386D01*
X81152000Y-86106000D01*
X82598344Y-86106000D01*
X82611875Y-86102027D01*
X82613180Y-86092947D01*
X82571214Y-85925875D01*
X82567894Y-85916124D01*
X82482972Y-85720814D01*
X82478105Y-85711739D01*
X82362426Y-85532926D01*
X82356136Y-85524757D01*
X82212806Y-85367240D01*
X82205273Y-85360215D01*
X82038139Y-85228222D01*
X82029556Y-85222520D01*
X81992602Y-85202120D01*
X81942631Y-85151687D01*
X81927859Y-85082245D01*
X81952975Y-85015839D01*
X81980327Y-84989232D01*
X82010253Y-84967886D01*
X82159860Y-84861173D01*
X82165692Y-84855362D01*
X82314435Y-84707137D01*
X82318096Y-84703489D01*
X82448453Y-84522077D01*
X82453991Y-84510873D01*
X82545136Y-84326453D01*
X82545137Y-84326451D01*
X82547430Y-84321811D01*
X82600199Y-84148128D01*
X82610865Y-84113023D01*
X82610865Y-84113021D01*
X82612370Y-84108069D01*
X82641529Y-83886590D01*
X82643156Y-83820000D01*
X82624852Y-83597361D01*
X82570431Y-83380702D01*
X82481354Y-83175840D01*
X82398525Y-83047806D01*
X82362822Y-82992617D01*
X82362820Y-82992614D01*
X82360014Y-82988277D01*
X82209670Y-82823051D01*
X82205619Y-82819852D01*
X82205615Y-82819848D01*
X82038414Y-82687800D01*
X82038410Y-82687798D01*
X82034359Y-82684598D01*
X81993053Y-82661796D01*
X81943084Y-82611364D01*
X81928312Y-82541921D01*
X81953428Y-82475516D01*
X81980780Y-82448909D01*
X82029207Y-82414366D01*
X82159860Y-82321173D01*
X82191788Y-82289357D01*
X82314435Y-82167137D01*
X82318096Y-82163489D01*
X82349498Y-82119789D01*
X82445435Y-81986277D01*
X82448453Y-81982077D01*
X82452701Y-81973483D01*
X82545136Y-81786453D01*
X82545137Y-81786451D01*
X82547430Y-81781811D01*
X82612370Y-81568069D01*
X82641529Y-81346590D01*
X82643156Y-81280000D01*
X82624852Y-81057361D01*
X82570431Y-80840702D01*
X82481354Y-80635840D01*
X82360014Y-80448277D01*
X82340343Y-80426659D01*
X82309291Y-80362813D01*
X82317685Y-80292315D01*
X82344441Y-80252763D01*
X82573848Y-80023357D01*
X82881958Y-79715247D01*
X82890237Y-79707713D01*
X82896718Y-79703600D01*
X82943344Y-79653948D01*
X82946098Y-79651107D01*
X82965835Y-79631370D01*
X82968315Y-79628173D01*
X82976020Y-79619151D01*
X83000859Y-79592700D01*
X83006286Y-79586921D01*
X83010105Y-79579975D01*
X83010107Y-79579972D01*
X83016048Y-79569166D01*
X83026899Y-79552647D01*
X83027259Y-79552183D01*
X83039314Y-79536641D01*
X83042459Y-79529372D01*
X83042462Y-79529368D01*
X83056874Y-79496063D01*
X83062095Y-79485405D01*
X83083395Y-79446660D01*
X83088433Y-79427037D01*
X83094837Y-79408334D01*
X83099733Y-79397020D01*
X83099733Y-79397019D01*
X83102881Y-79389745D01*
X83104120Y-79381922D01*
X83104123Y-79381912D01*
X83109799Y-79346076D01*
X83112205Y-79334456D01*
X83121228Y-79299311D01*
X83121228Y-79299310D01*
X83123200Y-79291630D01*
X83123200Y-79271376D01*
X83124751Y-79251665D01*
X83126680Y-79239486D01*
X83127920Y-79231657D01*
X83123759Y-79187638D01*
X83123200Y-79175781D01*
X83123200Y-67328467D01*
X83123727Y-67317284D01*
X83125402Y-67309791D01*
X83124991Y-67296697D01*
X83123262Y-67241714D01*
X83123200Y-67237755D01*
X83123200Y-67209844D01*
X83122695Y-67205844D01*
X83121762Y-67194001D01*
X83120622Y-67157729D01*
X83120373Y-67149810D01*
X83114722Y-67130358D01*
X83110714Y-67111006D01*
X83109167Y-67098763D01*
X83108174Y-67090903D01*
X83103087Y-67078054D01*
X83091900Y-67049797D01*
X83088055Y-67038570D01*
X83079092Y-67007721D01*
X83075718Y-66996107D01*
X83065407Y-66978672D01*
X83056712Y-66960924D01*
X83049252Y-66942083D01*
X83043901Y-66934717D01*
X83023264Y-66906313D01*
X83016748Y-66896393D01*
X82998280Y-66865165D01*
X82998278Y-66865162D01*
X82994242Y-66858338D01*
X82979921Y-66844017D01*
X82967080Y-66828983D01*
X82959831Y-66819006D01*
X82955172Y-66812593D01*
X82921095Y-66784402D01*
X82912316Y-66776412D01*
X82675405Y-66539501D01*
X82641379Y-66477189D01*
X82638500Y-66450406D01*
X82638500Y-65141866D01*
X82631745Y-65079684D01*
X82580615Y-64943295D01*
X82493261Y-64826739D01*
X82431721Y-64780618D01*
X82389209Y-64723761D01*
X82384183Y-64652943D01*
X82418243Y-64590649D01*
X82481091Y-64556548D01*
X82534624Y-64545169D01*
X82534633Y-64545166D01*
X82541088Y-64543794D01*
X82647241Y-64496532D01*
X82709522Y-64468803D01*
X82709524Y-64468802D01*
X82715552Y-64466118D01*
X82752906Y-64438979D01*
X82817943Y-64391726D01*
X82870053Y-64353866D01*
X82874475Y-64348955D01*
X82993421Y-64216852D01*
X82993422Y-64216851D01*
X82997840Y-64211944D01*
X83093327Y-64046556D01*
X83152342Y-63864928D01*
X83172304Y-63675000D01*
X83152342Y-63485072D01*
X83093327Y-63303444D01*
X82997840Y-63138056D01*
X82924663Y-63056785D01*
X82893947Y-62992779D01*
X82892300Y-62972476D01*
X82892300Y-61575567D01*
X82892827Y-61564384D01*
X82894502Y-61556891D01*
X82892362Y-61488814D01*
X82892300Y-61484855D01*
X82892300Y-61456944D01*
X82891795Y-61452944D01*
X82890862Y-61441101D01*
X82889722Y-61404830D01*
X82889473Y-61396911D01*
X82883821Y-61377457D01*
X82879813Y-61358100D01*
X82878268Y-61345870D01*
X82878268Y-61345869D01*
X82877274Y-61338003D01*
X82874355Y-61330630D01*
X82860996Y-61296888D01*
X82857151Y-61285658D01*
X82847029Y-61250817D01*
X82847029Y-61250816D01*
X82844818Y-61243207D01*
X82840785Y-61236388D01*
X82840783Y-61236383D01*
X82834507Y-61225772D01*
X82825812Y-61208024D01*
X82818352Y-61189183D01*
X82792364Y-61153413D01*
X82785848Y-61143493D01*
X82767380Y-61112265D01*
X82767378Y-61112262D01*
X82763342Y-61105438D01*
X82749021Y-61091117D01*
X82736180Y-61076083D01*
X82732897Y-61071564D01*
X82724272Y-61059693D01*
X82690195Y-61031502D01*
X82681416Y-61023512D01*
X79825899Y-58167994D01*
X79791873Y-58105682D01*
X79796938Y-58034866D01*
X79812671Y-58005373D01*
X79905435Y-57876277D01*
X79908453Y-57872077D01*
X79915908Y-57856994D01*
X80005136Y-57676453D01*
X80005137Y-57676451D01*
X80007430Y-57671811D01*
X80072370Y-57458069D01*
X80101529Y-57236590D01*
X80103156Y-57170000D01*
X80084852Y-56947361D01*
X80030431Y-56730702D01*
X79941354Y-56525840D01*
X79820014Y-56338277D01*
X79805765Y-56322617D01*
X79672798Y-56176488D01*
X79641746Y-56112642D01*
X79650141Y-56042143D01*
X79695317Y-55987375D01*
X79721761Y-55973706D01*
X79828297Y-55933767D01*
X79831135Y-55932703D01*
X84330743Y-55932703D01*
X84331302Y-55936947D01*
X84331302Y-55936951D01*
X84333084Y-55950488D01*
X84368268Y-56217734D01*
X84444129Y-56495036D01*
X84445813Y-56498984D01*
X84544650Y-56730702D01*
X84556923Y-56759476D01*
X84568693Y-56779142D01*
X84672459Y-56952522D01*
X84704561Y-57006161D01*
X84884313Y-57230528D01*
X84901397Y-57246740D01*
X85025772Y-57364767D01*
X85092851Y-57428423D01*
X85326317Y-57596186D01*
X85330112Y-57598195D01*
X85330113Y-57598196D01*
X85351869Y-57609715D01*
X85580392Y-57730712D01*
X85604699Y-57739607D01*
X85839899Y-57825678D01*
X85850373Y-57829511D01*
X86131264Y-57890755D01*
X86159841Y-57893004D01*
X86354282Y-57908307D01*
X86354291Y-57908307D01*
X86356739Y-57908500D01*
X86512271Y-57908500D01*
X86514407Y-57908354D01*
X86514418Y-57908354D01*
X86722548Y-57894165D01*
X86722554Y-57894164D01*
X86726825Y-57893873D01*
X86731020Y-57893004D01*
X86731022Y-57893004D01*
X86924059Y-57853028D01*
X87008342Y-57835574D01*
X87279343Y-57739607D01*
X87534812Y-57607750D01*
X87538313Y-57605289D01*
X87538317Y-57605287D01*
X87652418Y-57525095D01*
X87770023Y-57442441D01*
X87980622Y-57246740D01*
X88162713Y-57024268D01*
X88312927Y-56779142D01*
X88364610Y-56661406D01*
X88426757Y-56519830D01*
X88428483Y-56515898D01*
X88440874Y-56472401D01*
X88467863Y-56377652D01*
X88507244Y-56239406D01*
X88547751Y-55954784D01*
X88547845Y-55936951D01*
X88549235Y-55671583D01*
X88549235Y-55671576D01*
X88549257Y-55667297D01*
X88511732Y-55382266D01*
X88505328Y-55358855D01*
X88469747Y-55228794D01*
X88435871Y-55104964D01*
X88400601Y-55022275D01*
X88324763Y-54844476D01*
X88324761Y-54844472D01*
X88323077Y-54840524D01*
X88190845Y-54619580D01*
X88177643Y-54597521D01*
X88177640Y-54597517D01*
X88175439Y-54593839D01*
X87995687Y-54369472D01*
X87787149Y-54171577D01*
X87553683Y-54003814D01*
X87531843Y-53992250D01*
X87419300Y-53932662D01*
X87299608Y-53869288D01*
X87029627Y-53770489D01*
X86748736Y-53709245D01*
X86717685Y-53706801D01*
X86525718Y-53691693D01*
X86525709Y-53691693D01*
X86523261Y-53691500D01*
X86367729Y-53691500D01*
X86365593Y-53691646D01*
X86365582Y-53691646D01*
X86157452Y-53705835D01*
X86157446Y-53705836D01*
X86153175Y-53706127D01*
X86148980Y-53706996D01*
X86148978Y-53706996D01*
X86045289Y-53728469D01*
X85871658Y-53764426D01*
X85600657Y-53860393D01*
X85345188Y-53992250D01*
X85341687Y-53994711D01*
X85341683Y-53994713D01*
X85331594Y-54001804D01*
X85109977Y-54157559D01*
X84899378Y-54353260D01*
X84717287Y-54575732D01*
X84567073Y-54820858D01*
X84565347Y-54824791D01*
X84565346Y-54824792D01*
X84499669Y-54974408D01*
X84451517Y-55084102D01*
X84450342Y-55088229D01*
X84450341Y-55088230D01*
X84412918Y-55219603D01*
X84372756Y-55360594D01*
X84332249Y-55645216D01*
X84332227Y-55649505D01*
X84332226Y-55649512D01*
X84330866Y-55909137D01*
X84330743Y-55932703D01*
X79831135Y-55932703D01*
X79836705Y-55930615D01*
X79953261Y-55843261D01*
X80040615Y-55726705D01*
X80091745Y-55590316D01*
X80098500Y-55528134D01*
X80098500Y-53731866D01*
X80091745Y-53669684D01*
X80040615Y-53533295D01*
X79953261Y-53416739D01*
X79836705Y-53329385D01*
X79700316Y-53278255D01*
X79638134Y-53271500D01*
X77841866Y-53271500D01*
X77779684Y-53278255D01*
X77643295Y-53329385D01*
X77526739Y-53416739D01*
X77439385Y-53533295D01*
X77388255Y-53669684D01*
X77381500Y-53731866D01*
X77381500Y-55528134D01*
X77388255Y-55590316D01*
X77439385Y-55726705D01*
X77526739Y-55843261D01*
X77643295Y-55930615D01*
X77651704Y-55933767D01*
X77651705Y-55933768D01*
X77760451Y-55974535D01*
X77817216Y-56017176D01*
X77841916Y-56083738D01*
X77826709Y-56153087D01*
X77807316Y-56179568D01*
X77781409Y-56206678D01*
X77703313Y-56288401D01*
X77680629Y-56312138D01*
X77554743Y-56496680D01*
X77539003Y-56530590D01*
X77469972Y-56679305D01*
X77460688Y-56699305D01*
X77400989Y-56914570D01*
X77377251Y-57136695D01*
X77377548Y-57141848D01*
X77377548Y-57141851D01*
X77382831Y-57233475D01*
X77390110Y-57359715D01*
X77391247Y-57364761D01*
X77391248Y-57364767D01*
X77408753Y-57442441D01*
X77439222Y-57577639D01*
X77523266Y-57784616D01*
X77525965Y-57789020D01*
X77630122Y-57958989D01*
X77639987Y-57975088D01*
X77786250Y-58143938D01*
X77958126Y-58286632D01*
X77962593Y-58289242D01*
X78031445Y-58329476D01*
X78080169Y-58381114D01*
X78093240Y-58450897D01*
X78066509Y-58516669D01*
X78026054Y-58550028D01*
X78013607Y-58556507D01*
X78009465Y-58559617D01*
X77858337Y-58673087D01*
X77834965Y-58690635D01*
X77769346Y-58759301D01*
X77703313Y-58828401D01*
X77680629Y-58852138D01*
X77554743Y-59036680D01*
X77460688Y-59239305D01*
X77400989Y-59454570D01*
X77377251Y-59676695D01*
X77377548Y-59681848D01*
X77377548Y-59681851D01*
X77382049Y-59759908D01*
X77390110Y-59899715D01*
X77391247Y-59904761D01*
X77391248Y-59904767D01*
X77415304Y-60011508D01*
X77439222Y-60117639D01*
X77523266Y-60324616D01*
X77525965Y-60329020D01*
X77625035Y-60490688D01*
X77639987Y-60515088D01*
X77786250Y-60683938D01*
X77958126Y-60826632D01*
X78151000Y-60939338D01*
X78359692Y-61019030D01*
X78364760Y-61020061D01*
X78364763Y-61020062D01*
X78420993Y-61031502D01*
X78578597Y-61063567D01*
X78583772Y-61063757D01*
X78583774Y-61063757D01*
X78796673Y-61071564D01*
X78796677Y-61071564D01*
X78801837Y-61071753D01*
X78806957Y-61071097D01*
X78806959Y-61071097D01*
X79018288Y-61044025D01*
X79018289Y-61044025D01*
X79023416Y-61043368D01*
X79028366Y-61041883D01*
X79232429Y-60980661D01*
X79232434Y-60980659D01*
X79237384Y-60979174D01*
X79437994Y-60880896D01*
X79619860Y-60751173D01*
X79778096Y-60593489D01*
X79792468Y-60573489D01*
X79905435Y-60416277D01*
X79908453Y-60412077D01*
X79915908Y-60396994D01*
X79952907Y-60322131D01*
X80001021Y-60269924D01*
X80069722Y-60252017D01*
X80137198Y-60274095D01*
X80154959Y-60288863D01*
X80883280Y-61017185D01*
X81588395Y-61722300D01*
X81622421Y-61784612D01*
X81625300Y-61811395D01*
X81625300Y-62972476D01*
X81605298Y-63040597D01*
X81592942Y-63056779D01*
X81519760Y-63138056D01*
X81424273Y-63303444D01*
X81365258Y-63485072D01*
X81345296Y-63675000D01*
X81365258Y-63864928D01*
X81424273Y-64046556D01*
X81519760Y-64211944D01*
X81524178Y-64216851D01*
X81524179Y-64216852D01*
X81643125Y-64348955D01*
X81647547Y-64353866D01*
X81764695Y-64438979D01*
X81784769Y-64453564D01*
X81828123Y-64509786D01*
X81834198Y-64580523D01*
X81801066Y-64643314D01*
X81739246Y-64678226D01*
X81710708Y-64681500D01*
X80381866Y-64681500D01*
X80319684Y-64688255D01*
X80183295Y-64739385D01*
X80066739Y-64826739D01*
X79979385Y-64943295D01*
X79928255Y-65079684D01*
X79927402Y-65087540D01*
X79925575Y-65095222D01*
X79924211Y-65094898D01*
X79900210Y-65152664D01*
X79841849Y-65193093D01*
X79770894Y-65195551D01*
X79713091Y-65162593D01*
X79584300Y-65033802D01*
X79579792Y-65030645D01*
X79579789Y-65030643D01*
X79444780Y-64936109D01*
X79396749Y-64902477D01*
X79391767Y-64900154D01*
X79391762Y-64900151D01*
X79194225Y-64808039D01*
X79194224Y-64808039D01*
X79189243Y-64805716D01*
X79183935Y-64804294D01*
X79183933Y-64804293D01*
X78973402Y-64747881D01*
X78973400Y-64747881D01*
X78968087Y-64746457D01*
X78740000Y-64726502D01*
X78511913Y-64746457D01*
X78506600Y-64747881D01*
X78506598Y-64747881D01*
X78296067Y-64804293D01*
X78296065Y-64804294D01*
X78290757Y-64805716D01*
X78285776Y-64808039D01*
X78285775Y-64808039D01*
X78088238Y-64900151D01*
X78088233Y-64900154D01*
X78083251Y-64902477D01*
X78035220Y-64936109D01*
X77900211Y-65030643D01*
X77900208Y-65030645D01*
X77895700Y-65033802D01*
X77733802Y-65195700D01*
X77602477Y-65383251D01*
X77600154Y-65388233D01*
X77600151Y-65388238D01*
X77508039Y-65585775D01*
X77505716Y-65590757D01*
X77504294Y-65596065D01*
X77504293Y-65596067D01*
X77454972Y-65780135D01*
X77446457Y-65811913D01*
X77426502Y-66040000D01*
X77446457Y-66268087D01*
X77447881Y-66273400D01*
X77447881Y-66273402D01*
X77495310Y-66450406D01*
X77505716Y-66489243D01*
X77508039Y-66494224D01*
X77508039Y-66494225D01*
X77600151Y-66691762D01*
X77600154Y-66691767D01*
X77602477Y-66696749D01*
X77675902Y-66801611D01*
X77695069Y-66828983D01*
X77733802Y-66884300D01*
X77895700Y-67046198D01*
X77900208Y-67049355D01*
X77900211Y-67049357D01*
X77941195Y-67078054D01*
X78083251Y-67177523D01*
X78088233Y-67179846D01*
X78088238Y-67179849D01*
X78122457Y-67195805D01*
X78175742Y-67242722D01*
X78195203Y-67310999D01*
X78174661Y-67378959D01*
X78122457Y-67424195D01*
X78088238Y-67440151D01*
X78088233Y-67440154D01*
X78083251Y-67442477D01*
X77978955Y-67515506D01*
X77900211Y-67570643D01*
X77900208Y-67570645D01*
X77895700Y-67573802D01*
X77733802Y-67735700D01*
X77730645Y-67740208D01*
X77730643Y-67740211D01*
X77623819Y-67892771D01*
X77568362Y-67937099D01*
X77520606Y-67946500D01*
X74205168Y-67946500D01*
X74193985Y-67945973D01*
X74186492Y-67944298D01*
X74178566Y-67944547D01*
X74178565Y-67944547D01*
X74118402Y-67946438D01*
X74114444Y-67946500D01*
X74086544Y-67946500D01*
X74082554Y-67947004D01*
X74070720Y-67947936D01*
X74026511Y-67949326D01*
X74018895Y-67951539D01*
X74018893Y-67951539D01*
X74007052Y-67954979D01*
X73987693Y-67958988D01*
X73986383Y-67959154D01*
X73967603Y-67961526D01*
X73960237Y-67964442D01*
X73960231Y-67964444D01*
X73926498Y-67977800D01*
X73915268Y-67981645D01*
X73880417Y-67991770D01*
X73872807Y-67993981D01*
X73865984Y-67998016D01*
X73855366Y-68004295D01*
X73837613Y-68012992D01*
X73829968Y-68016019D01*
X73818783Y-68020448D01*
X73812368Y-68025109D01*
X73783012Y-68046437D01*
X73773095Y-68052951D01*
X73735038Y-68075458D01*
X73720717Y-68089779D01*
X73705684Y-68102619D01*
X73689293Y-68114528D01*
X73684243Y-68120632D01*
X73684238Y-68120637D01*
X73661107Y-68148598D01*
X73653117Y-68157379D01*
X72775599Y-69034896D01*
X72713287Y-69068921D01*
X72686504Y-69071800D01*
X64887088Y-69071800D01*
X64818967Y-69051798D01*
X64772474Y-68998142D01*
X64762370Y-68927868D01*
X64765381Y-68913189D01*
X64792119Y-68813402D01*
X64792119Y-68813400D01*
X64793543Y-68808087D01*
X64813498Y-68580000D01*
X64793543Y-68351913D01*
X64792119Y-68346598D01*
X64735707Y-68136067D01*
X64735706Y-68136065D01*
X64734284Y-68130757D01*
X64721164Y-68102620D01*
X64639849Y-67928238D01*
X64639846Y-67928233D01*
X64637523Y-67923251D01*
X64553461Y-67803198D01*
X64509357Y-67740211D01*
X64509355Y-67740208D01*
X64506198Y-67735700D01*
X64344300Y-67573802D01*
X64339789Y-67570643D01*
X64335576Y-67567108D01*
X64336388Y-67566140D01*
X64295910Y-67515506D01*
X64288596Y-67444887D01*
X64320624Y-67381524D01*
X64381823Y-67345536D01*
X64398901Y-67342480D01*
X64402352Y-67342105D01*
X64417604Y-67338479D01*
X64538054Y-67293324D01*
X64553649Y-67284786D01*
X64655724Y-67208285D01*
X64668285Y-67195724D01*
X64744786Y-67093649D01*
X64753324Y-67078054D01*
X64798478Y-66957606D01*
X64802105Y-66942351D01*
X64807631Y-66891486D01*
X64808000Y-66884672D01*
X64808000Y-66312115D01*
X64803525Y-66296876D01*
X64802135Y-66295671D01*
X64794452Y-66294000D01*
X63372000Y-66294000D01*
X63303879Y-66273998D01*
X63257386Y-66220342D01*
X63246000Y-66168000D01*
X63246000Y-65767885D01*
X63754000Y-65767885D01*
X63758475Y-65783124D01*
X63759865Y-65784329D01*
X63767548Y-65786000D01*
X64789884Y-65786000D01*
X64805123Y-65781525D01*
X64806328Y-65780135D01*
X64807999Y-65772452D01*
X64807999Y-65195331D01*
X64807629Y-65188510D01*
X64802105Y-65137648D01*
X64798479Y-65122396D01*
X64753324Y-65001946D01*
X64744786Y-64986351D01*
X64668285Y-64884276D01*
X64655724Y-64871715D01*
X64553649Y-64795214D01*
X64538054Y-64786676D01*
X64417606Y-64741522D01*
X64402351Y-64737895D01*
X64351486Y-64732369D01*
X64344672Y-64732000D01*
X63772115Y-64732000D01*
X63756876Y-64736475D01*
X63755671Y-64737865D01*
X63754000Y-64745548D01*
X63754000Y-65767885D01*
X63246000Y-65767885D01*
X63246000Y-64750116D01*
X63241525Y-64734877D01*
X63240135Y-64733672D01*
X63232452Y-64732001D01*
X62655331Y-64732001D01*
X62648510Y-64732371D01*
X62597648Y-64737895D01*
X62582396Y-64741521D01*
X62461946Y-64786676D01*
X62446351Y-64795214D01*
X62357180Y-64862044D01*
X62290673Y-64886892D01*
X62221291Y-64871839D01*
X62180791Y-64836786D01*
X62178643Y-64833920D01*
X62178642Y-64833919D01*
X62173261Y-64826739D01*
X62056705Y-64739385D01*
X61920316Y-64688255D01*
X61858134Y-64681500D01*
X60061866Y-64681500D01*
X59999684Y-64688255D01*
X59863295Y-64739385D01*
X59746739Y-64826739D01*
X59659385Y-64943295D01*
X59608255Y-65079684D01*
X59601500Y-65141866D01*
X59601500Y-66938134D01*
X59608255Y-67000316D01*
X59611028Y-67007714D01*
X59611030Y-67007721D01*
X59622484Y-67038275D01*
X59627667Y-67109082D01*
X59593597Y-67171598D01*
X58212247Y-68552948D01*
X58203961Y-68560488D01*
X58197482Y-68564600D01*
X58192057Y-68570377D01*
X58150857Y-68614251D01*
X58148102Y-68617093D01*
X58128365Y-68636830D01*
X58125885Y-68640027D01*
X58118182Y-68649047D01*
X58087914Y-68681279D01*
X58084095Y-68688225D01*
X58084093Y-68688228D01*
X58078152Y-68699034D01*
X58067301Y-68715553D01*
X58054886Y-68731559D01*
X58051741Y-68738828D01*
X58051738Y-68738832D01*
X58037326Y-68772137D01*
X58032109Y-68782787D01*
X58010805Y-68821540D01*
X58008834Y-68829215D01*
X58008834Y-68829216D01*
X58005767Y-68841162D01*
X57999363Y-68859866D01*
X57991319Y-68878455D01*
X57990080Y-68886278D01*
X57990077Y-68886288D01*
X57984401Y-68922124D01*
X57981995Y-68933744D01*
X57971000Y-68976570D01*
X57971000Y-68996824D01*
X57969449Y-69016534D01*
X57966280Y-69036543D01*
X57967026Y-69044435D01*
X57970441Y-69080561D01*
X57971000Y-69092419D01*
X57971000Y-70387000D01*
X57950998Y-70455121D01*
X57897342Y-70501614D01*
X57845000Y-70513000D01*
X57783713Y-70513000D01*
X57777261Y-70514372D01*
X57777256Y-70514372D01*
X57666276Y-70537962D01*
X57595485Y-70532560D01*
X57538853Y-70489743D01*
X57520246Y-70453652D01*
X57489427Y-70358802D01*
X57473227Y-70308944D01*
X57463781Y-70292582D01*
X57393066Y-70170101D01*
X57377740Y-70143556D01*
X57304563Y-70062285D01*
X57273847Y-69998279D01*
X57272200Y-69977976D01*
X57272200Y-65128894D01*
X57292202Y-65060773D01*
X57309105Y-65039799D01*
X62076976Y-60271929D01*
X62139288Y-60237903D01*
X62210103Y-60242968D01*
X62266939Y-60285515D01*
X62277280Y-60302188D01*
X62278266Y-60304616D01*
X62329019Y-60387438D01*
X62392291Y-60490688D01*
X62394987Y-60495088D01*
X62541250Y-60663938D01*
X62713126Y-60806632D01*
X62906000Y-60919338D01*
X62910825Y-60921180D01*
X62910826Y-60921181D01*
X62958375Y-60939338D01*
X63114692Y-60999030D01*
X63119760Y-61000061D01*
X63119763Y-61000062D01*
X63218067Y-61020062D01*
X63333597Y-61043567D01*
X63338772Y-61043757D01*
X63338774Y-61043757D01*
X63551673Y-61051564D01*
X63551677Y-61051564D01*
X63556837Y-61051753D01*
X63561957Y-61051097D01*
X63561959Y-61051097D01*
X63773288Y-61024025D01*
X63773289Y-61024025D01*
X63778416Y-61023368D01*
X63783366Y-61021883D01*
X63987429Y-60960661D01*
X63987434Y-60960659D01*
X63992384Y-60959174D01*
X64192994Y-60860896D01*
X64374860Y-60731173D01*
X64533096Y-60573489D01*
X64536112Y-60569292D01*
X64621132Y-60450974D01*
X64677127Y-60407326D01*
X64723455Y-60398500D01*
X64805234Y-60398500D01*
X64873355Y-60418502D01*
X64912667Y-60458665D01*
X64934987Y-60495088D01*
X65081250Y-60663938D01*
X65253126Y-60806632D01*
X65446000Y-60919338D01*
X65450825Y-60921180D01*
X65450826Y-60921181D01*
X65498375Y-60939338D01*
X65654692Y-60999030D01*
X65659760Y-61000061D01*
X65659763Y-61000062D01*
X65758067Y-61020062D01*
X65873597Y-61043567D01*
X65878772Y-61043757D01*
X65878774Y-61043757D01*
X66091673Y-61051564D01*
X66091677Y-61051564D01*
X66096837Y-61051753D01*
X66101957Y-61051097D01*
X66101959Y-61051097D01*
X66313288Y-61024025D01*
X66313289Y-61024025D01*
X66318416Y-61023368D01*
X66323366Y-61021883D01*
X66527429Y-60960661D01*
X66527434Y-60960659D01*
X66532384Y-60959174D01*
X66732994Y-60860896D01*
X66914860Y-60731173D01*
X67073096Y-60573489D01*
X67076112Y-60569292D01*
X67161132Y-60450974D01*
X67217127Y-60407326D01*
X67263455Y-60398500D01*
X67345234Y-60398500D01*
X67413355Y-60418502D01*
X67452667Y-60458665D01*
X67474987Y-60495088D01*
X67621250Y-60663938D01*
X67793126Y-60806632D01*
X67986000Y-60919338D01*
X67990825Y-60921180D01*
X67990826Y-60921181D01*
X68038375Y-60939338D01*
X68194692Y-60999030D01*
X68199760Y-61000061D01*
X68199763Y-61000062D01*
X68298067Y-61020062D01*
X68413597Y-61043567D01*
X68418772Y-61043757D01*
X68418774Y-61043757D01*
X68631673Y-61051564D01*
X68631677Y-61051564D01*
X68636837Y-61051753D01*
X68641957Y-61051097D01*
X68641959Y-61051097D01*
X68853288Y-61024025D01*
X68853289Y-61024025D01*
X68858416Y-61023368D01*
X68863366Y-61021883D01*
X69067429Y-60960661D01*
X69067434Y-60960659D01*
X69072384Y-60959174D01*
X69272994Y-60860896D01*
X69454860Y-60731173D01*
X69613096Y-60573489D01*
X69616112Y-60569292D01*
X69701132Y-60450974D01*
X69757127Y-60407326D01*
X69803455Y-60398500D01*
X69885234Y-60398500D01*
X69953355Y-60418502D01*
X69992667Y-60458665D01*
X70014987Y-60495088D01*
X70161250Y-60663938D01*
X70333126Y-60806632D01*
X70526000Y-60919338D01*
X70530825Y-60921180D01*
X70530826Y-60921181D01*
X70578375Y-60939338D01*
X70734692Y-60999030D01*
X70739760Y-61000061D01*
X70739763Y-61000062D01*
X70838067Y-61020062D01*
X70953597Y-61043567D01*
X70958772Y-61043757D01*
X70958774Y-61043757D01*
X71171673Y-61051564D01*
X71171677Y-61051564D01*
X71176837Y-61051753D01*
X71181957Y-61051097D01*
X71181959Y-61051097D01*
X71393288Y-61024025D01*
X71393289Y-61024025D01*
X71398416Y-61023368D01*
X71403366Y-61021883D01*
X71607429Y-60960661D01*
X71607434Y-60960659D01*
X71612384Y-60959174D01*
X71812994Y-60860896D01*
X71994860Y-60731173D01*
X72153096Y-60573489D01*
X72212594Y-60490689D01*
X72283453Y-60392077D01*
X72284776Y-60393028D01*
X72331645Y-60349857D01*
X72401580Y-60337625D01*
X72467026Y-60365144D01*
X72494875Y-60396994D01*
X72501275Y-60407438D01*
X72554987Y-60495088D01*
X72701250Y-60663938D01*
X72873126Y-60806632D01*
X73066000Y-60919338D01*
X73070825Y-60921180D01*
X73070826Y-60921181D01*
X73118375Y-60939338D01*
X73274692Y-60999030D01*
X73279760Y-61000061D01*
X73279763Y-61000062D01*
X73378067Y-61020062D01*
X73493597Y-61043567D01*
X73498772Y-61043757D01*
X73498774Y-61043757D01*
X73711673Y-61051564D01*
X73711677Y-61051564D01*
X73716837Y-61051753D01*
X73721957Y-61051097D01*
X73721959Y-61051097D01*
X73933288Y-61024025D01*
X73933289Y-61024025D01*
X73938416Y-61023368D01*
X73943366Y-61021883D01*
X74147429Y-60960661D01*
X74147434Y-60960659D01*
X74152384Y-60959174D01*
X74352994Y-60860896D01*
X74534860Y-60731173D01*
X74693096Y-60573489D01*
X74752594Y-60490689D01*
X74820435Y-60396277D01*
X74823453Y-60392077D01*
X74844320Y-60349857D01*
X74920136Y-60196453D01*
X74920137Y-60196451D01*
X74922430Y-60191811D01*
X74987370Y-59978069D01*
X75016529Y-59756590D01*
X75018156Y-59690000D01*
X74999852Y-59467361D01*
X74945431Y-59250702D01*
X74856354Y-59045840D01*
X74735014Y-58858277D01*
X74726028Y-58848401D01*
X74587798Y-58696488D01*
X74556746Y-58632642D01*
X74565141Y-58562143D01*
X74610317Y-58507375D01*
X74636761Y-58493706D01*
X74743297Y-58453767D01*
X74751705Y-58450615D01*
X74868261Y-58363261D01*
X74955615Y-58246705D01*
X75006745Y-58110316D01*
X75013500Y-58048134D01*
X75013500Y-56251866D01*
X75006745Y-56189684D01*
X74955615Y-56053295D01*
X74868261Y-55936739D01*
X74751705Y-55849385D01*
X74615316Y-55798255D01*
X74553134Y-55791500D01*
X72756866Y-55791500D01*
X72694684Y-55798255D01*
X72558295Y-55849385D01*
X72441739Y-55936739D01*
X72354385Y-56053295D01*
X72351233Y-56061703D01*
X72309919Y-56171907D01*
X72267277Y-56228671D01*
X72200716Y-56253371D01*
X72131367Y-56238163D01*
X72098743Y-56212476D01*
X72048151Y-56156875D01*
X72048142Y-56156866D01*
X72044670Y-56153051D01*
X72040619Y-56149852D01*
X72040615Y-56149848D01*
X71873414Y-56017800D01*
X71873410Y-56017798D01*
X71869359Y-56014598D01*
X71830388Y-55993085D01*
X71780417Y-55942652D01*
X71765645Y-55873209D01*
X71790761Y-55806804D01*
X71818112Y-55780198D01*
X71869247Y-55743723D01*
X71877648Y-55733023D01*
X71870660Y-55719870D01*
X71132812Y-54982022D01*
X71118868Y-54974408D01*
X71117035Y-54974539D01*
X71110420Y-54978790D01*
X70366737Y-55722473D01*
X70359977Y-55734853D01*
X70365259Y-55741908D01*
X70409614Y-55767828D01*
X70458337Y-55819466D01*
X70471408Y-55889250D01*
X70444676Y-55955021D01*
X70404224Y-55988377D01*
X70388607Y-55996507D01*
X70384474Y-55999610D01*
X70384471Y-55999612D01*
X70272426Y-56083738D01*
X70209965Y-56130635D01*
X70160607Y-56182285D01*
X70116280Y-56228671D01*
X70055629Y-56292138D01*
X69948201Y-56449621D01*
X69893293Y-56494621D01*
X69822768Y-56502792D01*
X69759021Y-56471538D01*
X69738324Y-56447054D01*
X69657822Y-56322617D01*
X69657820Y-56322614D01*
X69655014Y-56318277D01*
X69504670Y-56153051D01*
X69500619Y-56149852D01*
X69500615Y-56149848D01*
X69333414Y-56017800D01*
X69333410Y-56017798D01*
X69329359Y-56014598D01*
X69133789Y-55906638D01*
X69128920Y-55904914D01*
X69128916Y-55904912D01*
X68928087Y-55833795D01*
X68928083Y-55833794D01*
X68923212Y-55832069D01*
X68918119Y-55831162D01*
X68918116Y-55831161D01*
X68708373Y-55793800D01*
X68708367Y-55793799D01*
X68703284Y-55792894D01*
X68629452Y-55791992D01*
X68485081Y-55790228D01*
X68485079Y-55790228D01*
X68479911Y-55790165D01*
X68259091Y-55823955D01*
X68046756Y-55893357D01*
X68016443Y-55909137D01*
X67855181Y-55993085D01*
X67848607Y-55996507D01*
X67844474Y-55999610D01*
X67844471Y-55999612D01*
X67732426Y-56083738D01*
X67669965Y-56130635D01*
X67620607Y-56182285D01*
X67576280Y-56228671D01*
X67515629Y-56292138D01*
X67408201Y-56449621D01*
X67353293Y-56494621D01*
X67282768Y-56502792D01*
X67219021Y-56471538D01*
X67198324Y-56447054D01*
X67117822Y-56322617D01*
X67117820Y-56322614D01*
X67115014Y-56318277D01*
X66964670Y-56153051D01*
X66960619Y-56149852D01*
X66960615Y-56149848D01*
X66793414Y-56017800D01*
X66793410Y-56017798D01*
X66789359Y-56014598D01*
X66593789Y-55906638D01*
X66588920Y-55904914D01*
X66588916Y-55904912D01*
X66388087Y-55833795D01*
X66388083Y-55833794D01*
X66383212Y-55832069D01*
X66378119Y-55831162D01*
X66378116Y-55831161D01*
X66168373Y-55793800D01*
X66168367Y-55793799D01*
X66163284Y-55792894D01*
X66089452Y-55791992D01*
X65945081Y-55790228D01*
X65945079Y-55790228D01*
X65939911Y-55790165D01*
X65719091Y-55823955D01*
X65506756Y-55893357D01*
X65476443Y-55909137D01*
X65315181Y-55993085D01*
X65308607Y-55996507D01*
X65304474Y-55999610D01*
X65304471Y-55999612D01*
X65192426Y-56083738D01*
X65129965Y-56130635D01*
X65080607Y-56182285D01*
X65036280Y-56228671D01*
X64975629Y-56292138D01*
X64868201Y-56449621D01*
X64813293Y-56494621D01*
X64742768Y-56502792D01*
X64679021Y-56471538D01*
X64658324Y-56447054D01*
X64577822Y-56322617D01*
X64577820Y-56322614D01*
X64575014Y-56318277D01*
X64424670Y-56153051D01*
X64420619Y-56149852D01*
X64420615Y-56149848D01*
X64253414Y-56017800D01*
X64253410Y-56017798D01*
X64249359Y-56014598D01*
X64053789Y-55906638D01*
X64048920Y-55904914D01*
X64048916Y-55904912D01*
X63848087Y-55833795D01*
X63848083Y-55833794D01*
X63843212Y-55832069D01*
X63838119Y-55831162D01*
X63838116Y-55831161D01*
X63628373Y-55793800D01*
X63628367Y-55793799D01*
X63623284Y-55792894D01*
X63549452Y-55791992D01*
X63405081Y-55790228D01*
X63405079Y-55790228D01*
X63399911Y-55790165D01*
X63179091Y-55823955D01*
X62966756Y-55893357D01*
X62936443Y-55909137D01*
X62775181Y-55993085D01*
X62768607Y-55996507D01*
X62764474Y-55999610D01*
X62764471Y-55999612D01*
X62652426Y-56083738D01*
X62589965Y-56130635D01*
X62540607Y-56182285D01*
X62496280Y-56228671D01*
X62435629Y-56292138D01*
X62432720Y-56296403D01*
X62432714Y-56296411D01*
X62347556Y-56421249D01*
X62309743Y-56476680D01*
X62215688Y-56679305D01*
X62155989Y-56894570D01*
X62132251Y-57116695D01*
X62132548Y-57121848D01*
X62132548Y-57121851D01*
X62144812Y-57334547D01*
X62145110Y-57339715D01*
X62146247Y-57344761D01*
X62146248Y-57344767D01*
X62167603Y-57439522D01*
X62194222Y-57557639D01*
X62240582Y-57671811D01*
X62263683Y-57728701D01*
X62278266Y-57764616D01*
X62329942Y-57848944D01*
X62392291Y-57950688D01*
X62394987Y-57955088D01*
X62408501Y-57970689D01*
X62414283Y-57977364D01*
X62443765Y-58041950D01*
X62433650Y-58112222D01*
X62408140Y-58148956D01*
X59320712Y-61236383D01*
X56246447Y-64310648D01*
X56238161Y-64318188D01*
X56231682Y-64322300D01*
X56226257Y-64328077D01*
X56185057Y-64371951D01*
X56182302Y-64374793D01*
X56162565Y-64394530D01*
X56160085Y-64397727D01*
X56152382Y-64406747D01*
X56122114Y-64438979D01*
X56118295Y-64445925D01*
X56118293Y-64445928D01*
X56112352Y-64456734D01*
X56101501Y-64473253D01*
X56089086Y-64489259D01*
X56085941Y-64496528D01*
X56085938Y-64496532D01*
X56071526Y-64529837D01*
X56066309Y-64540487D01*
X56045005Y-64579240D01*
X56043034Y-64586915D01*
X56043034Y-64586916D01*
X56039967Y-64598862D01*
X56033563Y-64617566D01*
X56025519Y-64636155D01*
X56024280Y-64643978D01*
X56024277Y-64643988D01*
X56018601Y-64679824D01*
X56016195Y-64691444D01*
X56005200Y-64734270D01*
X56005200Y-64754524D01*
X56003649Y-64774234D01*
X56000480Y-64794243D01*
X56001226Y-64802135D01*
X56004641Y-64838261D01*
X56005200Y-64850119D01*
X56005200Y-69977976D01*
X55985198Y-70046097D01*
X55972842Y-70062279D01*
X55899660Y-70143556D01*
X55884334Y-70170101D01*
X55813620Y-70292582D01*
X55804173Y-70308944D01*
X55745158Y-70490572D01*
X55744468Y-70497133D01*
X55744468Y-70497135D01*
X55730198Y-70632906D01*
X55725196Y-70680500D01*
X55725886Y-70687065D01*
X55742854Y-70848503D01*
X55745158Y-70870428D01*
X55804173Y-71052056D01*
X55807476Y-71057778D01*
X55807477Y-71057779D01*
X55824119Y-71086603D01*
X55899660Y-71217444D01*
X56027447Y-71359366D01*
X56181948Y-71471618D01*
X56187976Y-71474302D01*
X56187978Y-71474303D01*
X56350381Y-71546609D01*
X56356412Y-71549294D01*
X56541021Y-71588534D01*
X56603494Y-71622263D01*
X56637816Y-71684412D01*
X56633088Y-71755251D01*
X56603919Y-71800876D01*
X52629447Y-75775348D01*
X52621161Y-75782888D01*
X52614682Y-75787000D01*
X52609257Y-75792777D01*
X52568057Y-75836651D01*
X52565302Y-75839493D01*
X52545565Y-75859230D01*
X52543085Y-75862427D01*
X52535382Y-75871447D01*
X52505114Y-75903679D01*
X52501295Y-75910625D01*
X52501293Y-75910628D01*
X52495352Y-75921434D01*
X52484501Y-75937953D01*
X52472086Y-75953959D01*
X52468941Y-75961228D01*
X52468938Y-75961232D01*
X52454526Y-75994537D01*
X52449309Y-76005187D01*
X52428005Y-76043940D01*
X52426034Y-76051615D01*
X52426034Y-76051616D01*
X52422967Y-76063562D01*
X52416563Y-76082266D01*
X52408519Y-76100855D01*
X52407280Y-76108678D01*
X52407277Y-76108688D01*
X52401601Y-76144524D01*
X52399195Y-76156144D01*
X52388200Y-76198970D01*
X52388200Y-76219224D01*
X52386649Y-76238934D01*
X52383480Y-76258943D01*
X52070000Y-76258943D01*
X52070000Y-55932703D01*
X53690743Y-55932703D01*
X53691302Y-55936947D01*
X53691302Y-55936951D01*
X53693084Y-55950488D01*
X53728268Y-56217734D01*
X53804129Y-56495036D01*
X53805813Y-56498984D01*
X53904650Y-56730702D01*
X53916923Y-56759476D01*
X53928693Y-56779142D01*
X54032459Y-56952522D01*
X54064561Y-57006161D01*
X54244313Y-57230528D01*
X54261397Y-57246740D01*
X54385772Y-57364767D01*
X54452851Y-57428423D01*
X54686317Y-57596186D01*
X54690112Y-57598195D01*
X54690113Y-57598196D01*
X54711869Y-57609715D01*
X54940392Y-57730712D01*
X54964699Y-57739607D01*
X55199899Y-57825678D01*
X55210373Y-57829511D01*
X55491264Y-57890755D01*
X55519841Y-57893004D01*
X55714282Y-57908307D01*
X55714291Y-57908307D01*
X55716739Y-57908500D01*
X55872271Y-57908500D01*
X55874407Y-57908354D01*
X55874418Y-57908354D01*
X56082548Y-57894165D01*
X56082554Y-57894164D01*
X56086825Y-57893873D01*
X56091020Y-57893004D01*
X56091022Y-57893004D01*
X56284059Y-57853028D01*
X56368342Y-57835574D01*
X56639343Y-57739607D01*
X56894812Y-57607750D01*
X56898313Y-57605289D01*
X56898317Y-57605287D01*
X57012418Y-57525095D01*
X57130023Y-57442441D01*
X57340622Y-57246740D01*
X57522713Y-57024268D01*
X57672927Y-56779142D01*
X57724610Y-56661406D01*
X57786757Y-56519830D01*
X57788483Y-56515898D01*
X57800874Y-56472401D01*
X57827863Y-56377652D01*
X57867244Y-56239406D01*
X57907751Y-55954784D01*
X57907845Y-55936951D01*
X57909235Y-55671583D01*
X57909235Y-55671576D01*
X57909257Y-55667297D01*
X57871732Y-55382266D01*
X57865328Y-55358855D01*
X57829747Y-55228794D01*
X57795871Y-55104964D01*
X57760601Y-55022275D01*
X57684763Y-54844476D01*
X57684761Y-54844472D01*
X57683077Y-54840524D01*
X57550845Y-54619580D01*
X57537643Y-54597521D01*
X57537640Y-54597517D01*
X57535439Y-54593839D01*
X57525844Y-54581863D01*
X69758050Y-54581863D01*
X69770309Y-54794477D01*
X69771745Y-54804697D01*
X69818565Y-55012446D01*
X69821645Y-55022275D01*
X69901770Y-55219603D01*
X69906413Y-55228794D01*
X69986460Y-55359420D01*
X69996916Y-55368880D01*
X70005694Y-55365096D01*
X70747978Y-54622812D01*
X70754356Y-54611132D01*
X71484408Y-54611132D01*
X71484539Y-54612965D01*
X71488790Y-54619580D01*
X72230474Y-55361264D01*
X72242484Y-55367823D01*
X72254223Y-55358855D01*
X72285004Y-55316019D01*
X72290315Y-55307180D01*
X72384670Y-55116267D01*
X72388469Y-55106672D01*
X72450376Y-54902915D01*
X72452555Y-54892834D01*
X72480590Y-54679887D01*
X72481109Y-54673212D01*
X72482572Y-54613364D01*
X72482378Y-54606646D01*
X72464781Y-54392604D01*
X72463096Y-54382424D01*
X72411214Y-54175875D01*
X72407894Y-54166124D01*
X72322972Y-53970814D01*
X72318105Y-53961739D01*
X72253063Y-53861197D01*
X72242377Y-53851995D01*
X72232812Y-53856398D01*
X71492022Y-54597188D01*
X71484408Y-54611132D01*
X70754356Y-54611132D01*
X70755592Y-54608868D01*
X70755461Y-54607035D01*
X70751210Y-54600420D01*
X70009849Y-53859059D01*
X69998313Y-53852759D01*
X69986031Y-53862382D01*
X69938089Y-53932662D01*
X69933004Y-53941613D01*
X69843338Y-54134783D01*
X69839775Y-54144470D01*
X69782864Y-54349681D01*
X69780933Y-54359800D01*
X69758302Y-54571574D01*
X69758050Y-54581863D01*
X57525844Y-54581863D01*
X57355687Y-54369472D01*
X57147149Y-54171577D01*
X56913683Y-54003814D01*
X56891843Y-53992250D01*
X56779300Y-53932662D01*
X56659608Y-53869288D01*
X56389627Y-53770489D01*
X56108736Y-53709245D01*
X56077685Y-53706801D01*
X55885718Y-53691693D01*
X55885709Y-53691693D01*
X55883261Y-53691500D01*
X55727729Y-53691500D01*
X55725593Y-53691646D01*
X55725582Y-53691646D01*
X55517452Y-53705835D01*
X55517446Y-53705836D01*
X55513175Y-53706127D01*
X55508980Y-53706996D01*
X55508978Y-53706996D01*
X55405289Y-53728469D01*
X55231658Y-53764426D01*
X54960657Y-53860393D01*
X54705188Y-53992250D01*
X54701687Y-53994711D01*
X54701683Y-53994713D01*
X54691594Y-54001804D01*
X54469977Y-54157559D01*
X54259378Y-54353260D01*
X54077287Y-54575732D01*
X53927073Y-54820858D01*
X53925347Y-54824791D01*
X53925346Y-54824792D01*
X53859669Y-54974408D01*
X53811517Y-55084102D01*
X53810342Y-55088229D01*
X53810341Y-55088230D01*
X53772918Y-55219603D01*
X53732756Y-55360594D01*
X53692249Y-55645216D01*
X53692227Y-55649505D01*
X53692226Y-55649512D01*
X53690866Y-55909137D01*
X53690743Y-55932703D01*
X52070000Y-55932703D01*
X52070000Y-53486427D01*
X70361223Y-53486427D01*
X70367968Y-53498758D01*
X71107188Y-54237978D01*
X71121132Y-54245592D01*
X71122965Y-54245461D01*
X71129580Y-54241210D01*
X71873389Y-53497401D01*
X71880410Y-53484544D01*
X71873611Y-53475213D01*
X71869554Y-53472518D01*
X71683117Y-53369599D01*
X71673705Y-53365369D01*
X71472959Y-53294280D01*
X71462989Y-53291646D01*
X71253327Y-53254301D01*
X71243073Y-53253331D01*
X71030116Y-53250728D01*
X71019832Y-53251448D01*
X70809321Y-53283661D01*
X70799293Y-53286050D01*
X70596868Y-53352212D01*
X70587359Y-53356209D01*
X70398466Y-53454540D01*
X70389734Y-53460039D01*
X70369677Y-53475099D01*
X70361223Y-53486427D01*
X52070000Y-53486427D01*
X52070000Y-52196000D01*
X52090002Y-52127879D01*
X52143658Y-52081386D01*
X52196000Y-52070000D01*
X90044000Y-52070000D01*
X90112121Y-52090002D01*
G37*
G04 #@! TD.AperFunction*
G04 #@! TA.AperFunction,Conductor*
G36*
X64583979Y-112630685D02*
G01*
X64629042Y-112659646D01*
X65246943Y-113277547D01*
X65254487Y-113285837D01*
X65258600Y-113292318D01*
X65264377Y-113297743D01*
X65308267Y-113338958D01*
X65311109Y-113341713D01*
X65330831Y-113361435D01*
X65333955Y-113363858D01*
X65333959Y-113363862D01*
X65334024Y-113363912D01*
X65343045Y-113371617D01*
X65375279Y-113401886D01*
X65382227Y-113405705D01*
X65382229Y-113405707D01*
X65393032Y-113411646D01*
X65409559Y-113422502D01*
X65419298Y-113430057D01*
X65419300Y-113430058D01*
X65425560Y-113434914D01*
X65466140Y-113452474D01*
X65476788Y-113457691D01*
X65503939Y-113472617D01*
X65515540Y-113478995D01*
X65523216Y-113480966D01*
X65523219Y-113480967D01*
X65535162Y-113484033D01*
X65553867Y-113490437D01*
X65572455Y-113498481D01*
X65580278Y-113499720D01*
X65580288Y-113499723D01*
X65616124Y-113505399D01*
X65627744Y-113507805D01*
X65662889Y-113516828D01*
X65670570Y-113518800D01*
X65690824Y-113518800D01*
X65710534Y-113520351D01*
X65730543Y-113523520D01*
X65738435Y-113522774D01*
X65774561Y-113519359D01*
X65786419Y-113518800D01*
X77463281Y-113518800D01*
X77531402Y-113538802D01*
X77577895Y-113592458D01*
X77587999Y-113662732D01*
X77577476Y-113698050D01*
X77508510Y-113845947D01*
X77504764Y-113856239D01*
X77458606Y-114028503D01*
X77458942Y-114042599D01*
X77466884Y-114046000D01*
X78868000Y-114046000D01*
X78936121Y-114066002D01*
X78982614Y-114119658D01*
X78994000Y-114172000D01*
X78994000Y-114428000D01*
X78973998Y-114496121D01*
X78920342Y-114542614D01*
X78868000Y-114554000D01*
X77472033Y-114554000D01*
X77458502Y-114557973D01*
X77457273Y-114566522D01*
X77504764Y-114743761D01*
X77508510Y-114754053D01*
X77600586Y-114951511D01*
X77606069Y-114961006D01*
X77733803Y-115143429D01*
X77756491Y-115210703D01*
X77739206Y-115279563D01*
X77687436Y-115328148D01*
X77630590Y-115341700D01*
X64610021Y-115341700D01*
X64541900Y-115321698D01*
X64495407Y-115268042D01*
X64485303Y-115197768D01*
X64506808Y-115143429D01*
X64634366Y-114961257D01*
X64637523Y-114956749D01*
X64639846Y-114951767D01*
X64639849Y-114951762D01*
X64731961Y-114754225D01*
X64731961Y-114754224D01*
X64734284Y-114749243D01*
X64741903Y-114720811D01*
X64792119Y-114533402D01*
X64792119Y-114533400D01*
X64793543Y-114528087D01*
X64813498Y-114300000D01*
X64793543Y-114071913D01*
X64734284Y-113850757D01*
X64724281Y-113829305D01*
X64639849Y-113648238D01*
X64639846Y-113648233D01*
X64637523Y-113643251D01*
X64550381Y-113518800D01*
X64509357Y-113460211D01*
X64509355Y-113460208D01*
X64506198Y-113455700D01*
X64344300Y-113293802D01*
X64339792Y-113290645D01*
X64339789Y-113290643D01*
X64261611Y-113235902D01*
X64156749Y-113162477D01*
X64151767Y-113160154D01*
X64151762Y-113160151D01*
X64117543Y-113144195D01*
X64064258Y-113097278D01*
X64044797Y-113029001D01*
X64065339Y-112961041D01*
X64117543Y-112915805D01*
X64151762Y-112899849D01*
X64151767Y-112899846D01*
X64156749Y-112897523D01*
X64313175Y-112787992D01*
X64339789Y-112769357D01*
X64339792Y-112769355D01*
X64344300Y-112766198D01*
X64450852Y-112659646D01*
X64513164Y-112625620D01*
X64583979Y-112630685D01*
G37*
G04 #@! TD.AperFunction*
G04 #@! TA.AperFunction,Conductor*
G36*
X56608050Y-79949155D02*
G01*
X56655947Y-79971490D01*
X56666239Y-79975236D01*
X56876688Y-80031625D01*
X56887481Y-80033528D01*
X57104525Y-80052517D01*
X57115475Y-80052517D01*
X57332519Y-80033528D01*
X57343312Y-80031625D01*
X57553757Y-79975237D01*
X57565804Y-79970852D01*
X57636658Y-79966349D01*
X57698699Y-80000866D01*
X57732229Y-80063446D01*
X57734900Y-80089253D01*
X57734900Y-84423025D01*
X57714898Y-84491146D01*
X57661242Y-84537639D01*
X57590968Y-84547743D01*
X57533260Y-84523795D01*
X57514869Y-84509990D01*
X57502449Y-84516762D01*
X56942021Y-85077189D01*
X56934408Y-85091132D01*
X56934539Y-85092966D01*
X56938790Y-85099580D01*
X57500239Y-85661028D01*
X57512614Y-85667785D01*
X57533390Y-85652232D01*
X57599910Y-85627420D01*
X57669284Y-85642511D01*
X57719487Y-85692712D01*
X57734900Y-85753099D01*
X57734900Y-100599733D01*
X57734373Y-100610916D01*
X57732698Y-100618409D01*
X57732947Y-100626335D01*
X57732947Y-100626336D01*
X57734838Y-100686486D01*
X57734900Y-100690445D01*
X57734900Y-100718356D01*
X57735397Y-100722290D01*
X57735397Y-100722291D01*
X57735405Y-100722356D01*
X57736338Y-100734193D01*
X57737727Y-100778389D01*
X57743378Y-100797839D01*
X57747387Y-100817200D01*
X57749926Y-100837297D01*
X57752845Y-100844668D01*
X57752845Y-100844670D01*
X57766204Y-100878412D01*
X57770049Y-100889642D01*
X57779308Y-100921512D01*
X57782382Y-100932093D01*
X57786415Y-100938912D01*
X57786417Y-100938917D01*
X57792693Y-100949528D01*
X57801388Y-100967276D01*
X57808848Y-100986117D01*
X57813510Y-100992533D01*
X57813510Y-100992534D01*
X57834836Y-101021887D01*
X57841352Y-101031807D01*
X57863858Y-101069862D01*
X57878179Y-101084183D01*
X57891019Y-101099216D01*
X57902928Y-101115607D01*
X57909034Y-101120658D01*
X57937005Y-101143798D01*
X57945784Y-101151788D01*
X59899293Y-103105298D01*
X59933319Y-103167610D01*
X59928254Y-103238426D01*
X59906308Y-103273448D01*
X59907458Y-103274379D01*
X59904208Y-103278393D01*
X59900629Y-103282138D01*
X59774743Y-103466680D01*
X59736011Y-103550121D01*
X59699471Y-103628841D01*
X59680688Y-103669305D01*
X59620989Y-103884570D01*
X59597251Y-104106695D01*
X59597548Y-104111848D01*
X59597548Y-104111851D01*
X59603011Y-104206590D01*
X59610110Y-104329715D01*
X59611247Y-104334761D01*
X59611248Y-104334767D01*
X59631119Y-104422939D01*
X59659222Y-104547639D01*
X59743266Y-104754616D01*
X59745965Y-104759020D01*
X59820650Y-104880895D01*
X59859987Y-104945088D01*
X60006250Y-105113938D01*
X60178126Y-105256632D01*
X60247208Y-105297000D01*
X60251445Y-105299476D01*
X60300169Y-105351114D01*
X60313240Y-105420897D01*
X60286509Y-105486669D01*
X60246055Y-105520027D01*
X60233607Y-105526507D01*
X60229474Y-105529610D01*
X60229471Y-105529612D01*
X60065556Y-105652683D01*
X60054965Y-105660635D01*
X59900629Y-105822138D01*
X59897715Y-105826410D01*
X59897714Y-105826411D01*
X59890809Y-105836534D01*
X59774743Y-106006680D01*
X59680688Y-106209305D01*
X59620989Y-106424570D01*
X59597251Y-106646695D01*
X59597548Y-106651848D01*
X59597548Y-106651851D01*
X59603011Y-106746590D01*
X59610110Y-106869715D01*
X59611247Y-106874761D01*
X59611248Y-106874767D01*
X59631119Y-106962939D01*
X59659222Y-107087639D01*
X59743266Y-107294616D01*
X59789996Y-107370873D01*
X59857288Y-107480683D01*
X59859987Y-107485088D01*
X60006250Y-107653938D01*
X60178126Y-107796632D01*
X60245163Y-107835805D01*
X60251445Y-107839476D01*
X60300169Y-107891114D01*
X60313240Y-107960897D01*
X60286509Y-108026669D01*
X60246055Y-108060027D01*
X60233607Y-108066507D01*
X60229474Y-108069610D01*
X60229471Y-108069612D01*
X60059100Y-108197530D01*
X60054965Y-108200635D01*
X59900629Y-108362138D01*
X59897715Y-108366410D01*
X59897714Y-108366411D01*
X59888300Y-108380211D01*
X59774743Y-108546680D01*
X59772563Y-108551377D01*
X59772561Y-108551380D01*
X59769943Y-108557019D01*
X59723117Y-108610384D01*
X59654872Y-108629961D01*
X59586878Y-108609534D01*
X59566563Y-108593058D01*
X56270505Y-105297000D01*
X56236479Y-105234688D01*
X56233600Y-105207905D01*
X56233600Y-86307669D01*
X56253602Y-86239548D01*
X56307258Y-86193055D01*
X56377532Y-86182951D01*
X56387407Y-86184776D01*
X56419118Y-86191951D01*
X56430530Y-86193454D01*
X56622469Y-86200995D01*
X56633951Y-86200393D01*
X56824045Y-86172832D01*
X56835240Y-86170144D01*
X57017131Y-86108400D01*
X57027628Y-86103726D01*
X57138032Y-86041898D01*
X57147895Y-86031821D01*
X57144939Y-86024149D01*
X56299885Y-85179095D01*
X56265859Y-85116783D01*
X56270924Y-85045968D01*
X56299885Y-85000905D01*
X56570000Y-84730790D01*
X57140281Y-84160508D01*
X57147041Y-84148128D01*
X57141011Y-84140073D01*
X57080061Y-84101616D01*
X57069813Y-84096395D01*
X56891401Y-84025216D01*
X56880373Y-84021949D01*
X56691982Y-83984476D01*
X56680534Y-83983273D01*
X56553150Y-83981605D01*
X56485297Y-83960713D01*
X56439511Y-83906453D01*
X56428800Y-83855616D01*
X56428800Y-80063350D01*
X56448802Y-79995229D01*
X56502458Y-79948736D01*
X56572732Y-79938632D01*
X56608050Y-79949155D01*
G37*
G04 #@! TD.AperFunction*
G04 #@! TA.AperFunction,Conductor*
G36*
X59850754Y-71934675D02*
G01*
X59897606Y-71968517D01*
X60006250Y-72093938D01*
X60178126Y-72236632D01*
X60228668Y-72266166D01*
X60251445Y-72279476D01*
X60300169Y-72331114D01*
X60313240Y-72400897D01*
X60286509Y-72466669D01*
X60246055Y-72500027D01*
X60233607Y-72506507D01*
X60229474Y-72509610D01*
X60229471Y-72509612D01*
X60059100Y-72637530D01*
X60054965Y-72640635D01*
X59900629Y-72802138D01*
X59897715Y-72806410D01*
X59897714Y-72806411D01*
X59888300Y-72820211D01*
X59774743Y-72986680D01*
X59680688Y-73189305D01*
X59620989Y-73404570D01*
X59597251Y-73626695D01*
X59610110Y-73849715D01*
X59611247Y-73854761D01*
X59611248Y-73854767D01*
X59635304Y-73961508D01*
X59659222Y-74067639D01*
X59743266Y-74274616D01*
X59859987Y-74465088D01*
X59863367Y-74468990D01*
X59879281Y-74487361D01*
X59908765Y-74551946D01*
X59898651Y-74622219D01*
X59873140Y-74658955D01*
X57976147Y-76555948D01*
X57967861Y-76563488D01*
X57961382Y-76567600D01*
X57955957Y-76573377D01*
X57914757Y-76617251D01*
X57912002Y-76620093D01*
X57892265Y-76639830D01*
X57889785Y-76643027D01*
X57882082Y-76652047D01*
X57851814Y-76684279D01*
X57847995Y-76691225D01*
X57847993Y-76691228D01*
X57842052Y-76702034D01*
X57831201Y-76718553D01*
X57818786Y-76734559D01*
X57815641Y-76741828D01*
X57815638Y-76741832D01*
X57801226Y-76775137D01*
X57796009Y-76785787D01*
X57774705Y-76824540D01*
X57772734Y-76832215D01*
X57772734Y-76832216D01*
X57769667Y-76844162D01*
X57763263Y-76862866D01*
X57755219Y-76881455D01*
X57753980Y-76889278D01*
X57753977Y-76889288D01*
X57748301Y-76925124D01*
X57745895Y-76936744D01*
X57734900Y-76979570D01*
X57734900Y-76999824D01*
X57733349Y-77019534D01*
X57730180Y-77039543D01*
X57730926Y-77047435D01*
X57734341Y-77083561D01*
X57734900Y-77095419D01*
X57734900Y-77390747D01*
X57714898Y-77458868D01*
X57661242Y-77505361D01*
X57590968Y-77515465D01*
X57565804Y-77509148D01*
X57553757Y-77504763D01*
X57343312Y-77448375D01*
X57332519Y-77446472D01*
X57115475Y-77427483D01*
X57104525Y-77427483D01*
X56887481Y-77446472D01*
X56876688Y-77448375D01*
X56666239Y-77504764D01*
X56655947Y-77508510D01*
X56608050Y-77530845D01*
X56537859Y-77541506D01*
X56473046Y-77512526D01*
X56434189Y-77453107D01*
X56428800Y-77416650D01*
X56428800Y-75482694D01*
X56448802Y-75414573D01*
X56465705Y-75393599D01*
X59447053Y-72412252D01*
X59455339Y-72404712D01*
X59461818Y-72400600D01*
X59508444Y-72350948D01*
X59511198Y-72348107D01*
X59530935Y-72328370D01*
X59533415Y-72325173D01*
X59541120Y-72316151D01*
X59565959Y-72289700D01*
X59571386Y-72283921D01*
X59575205Y-72276975D01*
X59575207Y-72276972D01*
X59581148Y-72266166D01*
X59591999Y-72249647D01*
X59599558Y-72239901D01*
X59604414Y-72233641D01*
X59607559Y-72226372D01*
X59607562Y-72226368D01*
X59621974Y-72193063D01*
X59627191Y-72182413D01*
X59648495Y-72143660D01*
X59653533Y-72124037D01*
X59659937Y-72105334D01*
X59664833Y-72094020D01*
X59664833Y-72094019D01*
X59667981Y-72086745D01*
X59669220Y-72078922D01*
X59669223Y-72078912D01*
X59674899Y-72043076D01*
X59677305Y-72031455D01*
X59680328Y-72019681D01*
X59716643Y-71958674D01*
X59780175Y-71926985D01*
X59850754Y-71934675D01*
G37*
G04 #@! TD.AperFunction*
G04 #@! TA.AperFunction,Conductor*
G36*
X77588727Y-69233502D02*
G01*
X77623819Y-69267229D01*
X77730643Y-69419789D01*
X77733802Y-69424300D01*
X77895700Y-69586198D01*
X77900208Y-69589355D01*
X77900211Y-69589357D01*
X77924070Y-69606063D01*
X78083251Y-69717523D01*
X78088233Y-69719846D01*
X78088238Y-69719849D01*
X78123049Y-69736081D01*
X78176334Y-69782998D01*
X78195795Y-69851275D01*
X78175253Y-69919235D01*
X78123049Y-69964471D01*
X78088489Y-69980586D01*
X78078993Y-69986069D01*
X77900533Y-70111028D01*
X77892125Y-70118084D01*
X77738084Y-70272125D01*
X77731028Y-70280533D01*
X77606069Y-70458993D01*
X77600586Y-70468489D01*
X77508510Y-70665947D01*
X77504764Y-70676239D01*
X77458606Y-70848503D01*
X77458942Y-70862599D01*
X77466884Y-70866000D01*
X78868000Y-70866000D01*
X78936121Y-70886002D01*
X78982614Y-70939658D01*
X78994000Y-70992000D01*
X78994000Y-71248000D01*
X78973998Y-71316121D01*
X78920342Y-71362614D01*
X78868000Y-71374000D01*
X77472033Y-71374000D01*
X77458502Y-71377973D01*
X77457273Y-71386522D01*
X77504764Y-71563761D01*
X77508510Y-71574053D01*
X77600586Y-71771511D01*
X77606069Y-71781007D01*
X77731028Y-71959467D01*
X77738084Y-71967875D01*
X77892125Y-72121916D01*
X77900533Y-72128972D01*
X78078993Y-72253931D01*
X78088489Y-72259414D01*
X78123049Y-72275529D01*
X78176334Y-72322446D01*
X78195795Y-72390723D01*
X78175253Y-72458683D01*
X78123049Y-72503919D01*
X78088238Y-72520151D01*
X78088233Y-72520154D01*
X78083251Y-72522477D01*
X77978389Y-72595902D01*
X77900211Y-72650643D01*
X77900208Y-72650645D01*
X77895700Y-72653802D01*
X77733802Y-72815700D01*
X77602477Y-73003251D01*
X77600154Y-73008233D01*
X77600151Y-73008238D01*
X77577153Y-73057559D01*
X77505716Y-73210757D01*
X77505492Y-73211594D01*
X77464244Y-73267613D01*
X77397923Y-73292949D01*
X77328431Y-73278407D01*
X77298845Y-73256440D01*
X74386422Y-70344017D01*
X74352396Y-70281705D01*
X74350207Y-70268092D01*
X74349189Y-70258401D01*
X74332842Y-70102872D01*
X74273827Y-69921244D01*
X74178340Y-69755856D01*
X74163592Y-69739476D01*
X74101098Y-69670070D01*
X74070380Y-69606063D01*
X74079145Y-69535609D01*
X74105639Y-69496665D01*
X74351899Y-69250405D01*
X74414211Y-69216379D01*
X74440994Y-69213500D01*
X77520606Y-69213500D01*
X77588727Y-69233502D01*
G37*
G04 #@! TD.AperFunction*
G04 #@! TA.AperFunction,Conductor*
G36*
X80060984Y-69205895D02*
G01*
X80090527Y-69239102D01*
X80177287Y-69380684D01*
X80177295Y-69380694D01*
X80179987Y-69385088D01*
X80326250Y-69553938D01*
X80498126Y-69696632D01*
X80565635Y-69736081D01*
X80571445Y-69739476D01*
X80620169Y-69791114D01*
X80633240Y-69860897D01*
X80606509Y-69926669D01*
X80566055Y-69960027D01*
X80553607Y-69966507D01*
X80549474Y-69969610D01*
X80549471Y-69969612D01*
X80410759Y-70073760D01*
X80374965Y-70100635D01*
X80220629Y-70262138D01*
X80217715Y-70266410D01*
X80217714Y-70266411D01*
X80118088Y-70412458D01*
X80094743Y-70446680D01*
X80092565Y-70451371D01*
X80090621Y-70454794D01*
X80039581Y-70504143D01*
X79969963Y-70518065D01*
X79903870Y-70492138D01*
X79878196Y-70462726D01*
X79877088Y-70463502D01*
X79748972Y-70280533D01*
X79741916Y-70272125D01*
X79587875Y-70118084D01*
X79579467Y-70111028D01*
X79401007Y-69986069D01*
X79391511Y-69980586D01*
X79356951Y-69964471D01*
X79303666Y-69917554D01*
X79284205Y-69849277D01*
X79304747Y-69781317D01*
X79356951Y-69736081D01*
X79391762Y-69719849D01*
X79391767Y-69719846D01*
X79396749Y-69717523D01*
X79555930Y-69606063D01*
X79579789Y-69589357D01*
X79579792Y-69589355D01*
X79584300Y-69586198D01*
X79746198Y-69424300D01*
X79770923Y-69388990D01*
X79877523Y-69236749D01*
X79878613Y-69237512D01*
X79925360Y-69192942D01*
X79995073Y-69179507D01*
X80060984Y-69205895D01*
G37*
G04 #@! TD.AperFunction*
G04 #@! TA.AperFunction,Conductor*
G36*
X59904612Y-69460158D02*
G01*
X59955815Y-69495715D01*
X60006250Y-69553938D01*
X60178126Y-69696632D01*
X60245635Y-69736081D01*
X60251445Y-69739476D01*
X60300169Y-69791114D01*
X60313240Y-69860897D01*
X60286509Y-69926669D01*
X60246055Y-69960027D01*
X60233607Y-69966507D01*
X60229474Y-69969610D01*
X60229471Y-69969612D01*
X60090759Y-70073760D01*
X60054965Y-70100635D01*
X60008485Y-70149274D01*
X59905394Y-70257152D01*
X59843870Y-70292582D01*
X59772957Y-70289125D01*
X59715171Y-70247879D01*
X59688857Y-70181939D01*
X59688300Y-70170101D01*
X59688300Y-69624494D01*
X59708302Y-69556373D01*
X59725205Y-69535399D01*
X59771485Y-69489119D01*
X59833797Y-69455093D01*
X59904612Y-69460158D01*
G37*
G04 #@! TD.AperFunction*
G04 #@! TA.AperFunction,Conductor*
G36*
X62328670Y-69201817D02*
G01*
X62361561Y-69237390D01*
X62362477Y-69236749D01*
X62493802Y-69424300D01*
X62494606Y-69425104D01*
X62522531Y-69488903D01*
X62511316Y-69559008D01*
X62486640Y-69593956D01*
X62006835Y-70073760D01*
X61944523Y-70107785D01*
X61873707Y-70102720D01*
X61839651Y-70083548D01*
X61714359Y-69984598D01*
X61673053Y-69961796D01*
X61623084Y-69911364D01*
X61608312Y-69841921D01*
X61633428Y-69775516D01*
X61660780Y-69748909D01*
X61709207Y-69714366D01*
X61839860Y-69621173D01*
X61847125Y-69613934D01*
X61994435Y-69467137D01*
X61998096Y-69463489D01*
X62029498Y-69419789D01*
X62125435Y-69286277D01*
X62128453Y-69282077D01*
X62144379Y-69249853D01*
X62192492Y-69197646D01*
X62261194Y-69179739D01*
X62328670Y-69201817D01*
G37*
G04 #@! TD.AperFunction*
G04 #@! TA.AperFunction,Conductor*
G36*
X62357180Y-67217956D02*
G01*
X62446351Y-67284786D01*
X62461946Y-67293324D01*
X62582394Y-67338478D01*
X62597643Y-67342104D01*
X62601096Y-67342479D01*
X62603606Y-67343522D01*
X62605331Y-67343932D01*
X62605265Y-67344211D01*
X62666659Y-67369719D01*
X62707088Y-67428080D01*
X62709546Y-67499034D01*
X62673253Y-67560054D01*
X62661760Y-67569344D01*
X62660214Y-67570641D01*
X62655700Y-67573802D01*
X62493802Y-67735700D01*
X62490645Y-67740208D01*
X62490643Y-67740211D01*
X62446539Y-67803198D01*
X62362477Y-67923251D01*
X62360880Y-67922133D01*
X62315734Y-67965199D01*
X62246024Y-67978651D01*
X62180107Y-67952280D01*
X62152180Y-67921659D01*
X62042822Y-67752617D01*
X62042820Y-67752614D01*
X62040014Y-67748277D01*
X62025024Y-67731803D01*
X61892798Y-67586488D01*
X61861746Y-67522642D01*
X61870141Y-67452143D01*
X61915317Y-67397375D01*
X61941761Y-67383706D01*
X62048297Y-67343767D01*
X62056705Y-67340615D01*
X62173261Y-67253261D01*
X62180791Y-67243214D01*
X62183637Y-67241086D01*
X62184992Y-67239731D01*
X62185188Y-67239927D01*
X62237651Y-67200701D01*
X62308470Y-67195677D01*
X62357180Y-67217956D01*
G37*
G04 #@! TD.AperFunction*
M02*
